<?xml version="1.0" encoding="UTF-8" standalone="no"?>
<!-- Created with Inkscape (http://www.inkscape.org/) -->
<svg xmlns:dc="http://purl.org/dc/elements/1.1/" xmlns:cc="http://creativecommons.org/ns#" xmlns:rdf="http://www.w3.org/1999/02/22-rdf-syntax-ns#" xmlns:svg="http://www.w3.org/2000/svg" xmlns="http://www.w3.org/2000/svg" xmlns:xlink="http://www.w3.org/1999/xlink" xmlns:sodipodi="http://sodipodi.sourceforge.net/DTD/sodipodi-0.dtd" xmlns:inkscape="http://www.inkscape.org/namespaces/inkscape" width="210mm" height="297mm" id="svg5054" version="1.1" inkscape:version="0.47+devel r9530 custom" sodipodi:docname="debaday.svg">
  <sodipodi:namedview id="base" pagecolor="#ffffff" bordercolor="#666666" borderopacity="1.0" inkscape:pageopacity="0.0" inkscape:pageshadow="2" inkscape:zoom="1" inkscape:cx="353.48471" inkscape:cy="653.47728" inkscape:document-units="px" inkscape:current-layer="layer1" showgrid="false" inkscape:snap-global="false" inkscape:window-width="1280" inkscape:window-height="726" inkscape:window-x="0" inkscape:window-y="25" inkscape:window-maximized="1" showguides="true" inkscape:guide-bbox="true"/>
  <defs id="defs5056">
    <linearGradient inkscape:collect="always" id="linearGradient4541">
      <stop style="stop-color:#cc0000;stop-opacity:1" offset="0" id="stop4543"/>
      <stop style="stop-color:#a40000;stop-opacity:1" offset="1" id="stop4545"/>
    </linearGradient>
    <linearGradient inkscape:collect="always" id="linearGradient4461">
      <stop style="stop-color: rgb(252, 233, 79); stop-opacity: 1;" offset="0" id="stop4463"/>
      <stop id="stop4465" offset="0.50235993" style="stop-color: rgb(252, 175, 62); stop-opacity: 1;"/>
      <stop style="stop-color: rgb(245, 121, 0); stop-opacity: 1;" offset="1" id="stop4467"/>
    </linearGradient>
    <linearGradient id="linearGradient3525" inkscape:collect="always">
      <stop id="stop3527" offset="0" style="stop-color: rgb(239, 41, 41); stop-opacity: 1;"/>
      <stop style="stop-color: rgb(204, 0, 0); stop-opacity: 1;" offset="0.67076343" id="stop3533"/>
      <stop id="stop3529" offset="1" style="stop-color: rgb(164, 0, 0); stop-opacity: 1;"/>
    </linearGradient>
    <radialGradient r="39.441322" fy="146.52892" fx="99.293404" cy="148.79022" cx="92.068649" gradientTransform="matrix(0.675706, 0.608561, -0.463083, 0.514177, 132.526, -31.608)" gradientUnits="userSpaceOnUse" id="radialGradient4337-5" xlink:href="#linearGradient3525-8" inkscape:collect="always"/>
    <linearGradient id="linearGradient3525-8" inkscape:collect="always">
      <stop id="stop3527-5" offset="0" style="stop-color: rgb(239, 41, 41); stop-opacity: 1;"/>
      <stop style="stop-color: rgb(204, 0, 0); stop-opacity: 1;" offset="0.67076343" id="stop3533-7"/>
      <stop id="stop3529-6" offset="1" style="stop-color: rgb(164, 0, 0); stop-opacity: 1;"/>
    </linearGradient>
    <radialGradient r="39.441322" fy="146.52892" fx="99.293404" cy="148.79022" cx="92.068649" gradientTransform="matrix(0.675706, 0.608561, -0.463083, 0.514177, 132.526, -31.608)" gradientUnits="userSpaceOnUse" id="radialGradient4497" xlink:href="#linearGradient3525-8" inkscape:collect="always"/>
    <radialGradient r="39.441322" fy="146.52892" fx="99.293404" cy="148.79022" cx="92.068649" gradientTransform="matrix(0.675706, 0.608561, -0.463083, 0.514177, 132.526, -31.608)" gradientUnits="userSpaceOnUse" id="radialGradient4497-9" xlink:href="#linearGradient3525-8-5" inkscape:collect="always"/>
    <linearGradient id="linearGradient3525-8-5" inkscape:collect="always">
      <stop id="stop3527-5-6" offset="0" style="stop-color: rgb(239, 41, 41); stop-opacity: 1;"/>
      <stop style="stop-color: rgb(204, 0, 0); stop-opacity: 1;" offset="0.67076343" id="stop3533-7-1"/>
      <stop id="stop3529-6-2" offset="1" style="stop-color: rgb(164, 0, 0); stop-opacity: 1;"/>
    </linearGradient>
    <radialGradient r="39.441322" fy="146.52892" fx="99.293404" cy="148.79022" cx="92.068649" gradientTransform="matrix(0.675706, 0.608561, -0.463083, 0.514177, 132.526, -31.608)" gradientUnits="userSpaceOnUse" id="radialGradient4689" xlink:href="#linearGradient3525-8-5" inkscape:collect="always"/>
    <radialGradient r="39.441322" fy="146.52892" fx="99.293404" cy="148.79022" cx="92.068649" gradientTransform="matrix(0.675706, 0.608561, -0.463083, 0.514177, 132.526, -31.608)" gradientUnits="userSpaceOnUse" id="radialGradient4929" xlink:href="#linearGradient3525-8" inkscape:collect="always"/>
    <radialGradient r="39.441322" fy="146.52892" fx="99.293404" cy="148.79022" cx="92.068649" gradientTransform="matrix(0.675706, 0.608561, -0.463083, 0.514177, 131.818, -31.608)" gradientUnits="userSpaceOnUse" id="radialGradient4931-7" xlink:href="#linearGradient3525-8-2-3" inkscape:collect="always"/>
    <linearGradient id="linearGradient3525-8-2-3" inkscape:collect="always">
      <stop id="stop3527-5-7-4" offset="0" style="stop-color: rgb(239, 41, 41); stop-opacity: 1;"/>
      <stop style="stop-color: rgb(204, 0, 0); stop-opacity: 1;" offset="0.67076343" id="stop3533-7-16-8"/>
      <stop id="stop3529-6-9-2" offset="1" style="stop-color: rgb(164, 0, 0); stop-opacity: 1;"/>
    </linearGradient>
    <radialGradient r="39.441322" fy="146.52892" fx="99.293404" cy="148.79022" cx="92.068649" gradientTransform="matrix(0.675706, 0.608561, -0.463083, 0.514177, 132.88, -31.608)" gradientUnits="userSpaceOnUse" id="radialGradient4931-1" xlink:href="#linearGradient3525-8-2-8" inkscape:collect="always"/>
    <linearGradient id="linearGradient3525-8-2-8" inkscape:collect="always">
      <stop id="stop3527-5-7-1" offset="0" style="stop-color: rgb(239, 41, 41); stop-opacity: 1;"/>
      <stop style="stop-color: rgb(204, 0, 0); stop-opacity: 1;" offset="0.67076343" id="stop3533-7-16-1"/>
      <stop id="stop3529-6-9-0" offset="1" style="stop-color: rgb(164, 0, 0); stop-opacity: 1;"/>
    </linearGradient>
    <radialGradient r="39.441322" fy="146.52892" fx="99.293404" cy="148.79022" cx="92.068649" gradientTransform="matrix(0.675706, 0.608561, -0.463083, 0.514177, 132.526, -31.608)" gradientUnits="userSpaceOnUse" id="radialGradient5039" xlink:href="#linearGradient3525-8" inkscape:collect="always"/>
    <radialGradient r="39.441322" fy="146.52892" fx="99.293404" cy="148.79022" cx="92.068649" gradientTransform="matrix(0.675706, 0.608561, -0.463083, 0.514177, 132.88, -31.608)" gradientUnits="userSpaceOnUse" id="radialGradient5043" xlink:href="#linearGradient3525-8-2-8" inkscape:collect="always"/>
    <radialGradient r="39.441322" fy="146.52892" fx="99.293404" cy="148.79022" cx="92.068649" gradientTransform="matrix(0.675706, 0.608561, -0.463083, 0.514177, 132.88, -31.608)" gradientUnits="userSpaceOnUse" id="radialGradient5047" xlink:href="#linearGradient3525-8-2-8" inkscape:collect="always"/>
    <radialGradient r="39.441322" fy="146.52892" fx="99.293404" cy="148.79022" cx="92.068649" gradientTransform="matrix(0.675706, 0.608561, -0.463083, 0.514177, 132.526, -31.608)" gradientUnits="userSpaceOnUse" id="radialGradient5121" xlink:href="#linearGradient3525-8" inkscape:collect="always"/>
    <radialGradient r="39.441322" fy="146.52892" fx="99.293404" cy="148.79022" cx="92.068649" gradientTransform="matrix(0.675706, 0.608561, -0.463083, 0.514177, 132.526, -31.608)" gradientUnits="userSpaceOnUse" id="radialGradient5135" xlink:href="#linearGradient3525-8" inkscape:collect="always"/>
    <radialGradient r="39.441322" fy="146.52892" fx="99.293404" cy="148.79022" cx="92.068649" gradientTransform="matrix(0.675706, 0.608561, -0.463083, 0.514177, 132.88, -31.608)" gradientUnits="userSpaceOnUse" id="radialGradient5139" xlink:href="#linearGradient3525-8-2-8" inkscape:collect="always"/>
    <radialGradient r="39.441322" fy="146.52892" fx="99.293404" cy="148.79022" cx="92.068649" gradientTransform="matrix(0.675706, 0.608561, -0.463083, 0.514177, 132.526, -31.608)" gradientUnits="userSpaceOnUse" id="radialGradient5205" xlink:href="#linearGradient3525-8" inkscape:collect="always"/>
    <radialGradient r="39.441322" fy="146.52892" fx="99.293404" cy="148.79022" cx="92.068649" gradientTransform="matrix(0.675706, 0.608561, -0.463083, 0.514177, 132.526, -31.608)" gradientUnits="userSpaceOnUse" id="radialGradient5219" xlink:href="#linearGradient3525-8" inkscape:collect="always"/>
    <radialGradient r="39.441322" fy="146.52892" fx="99.293404" cy="148.79022" cx="92.068649" gradientTransform="matrix(0.675706, 0.608561, -0.463083, 0.514177, 132.88, -31.608)" gradientUnits="userSpaceOnUse" id="radialGradient5223" xlink:href="#linearGradient3525-8-2-8" inkscape:collect="always"/>
    <radialGradient r="72.335518" fy="57.68211" fx="121.08566" cy="57.68211" cx="121.08566" gradientTransform="matrix(0.349217, 0.461868, -0.583322, 0.441049, 158.607, -4.98385)" gradientUnits="userSpaceOnUse" id="radialGradient4487-3" xlink:href="#linearGradient4461-1" inkscape:collect="always"/>
    <linearGradient inkscape:collect="always" id="linearGradient4461-1">
      <stop style="stop-color: rgb(252, 233, 79); stop-opacity: 1;" offset="0" id="stop4463-4"/>
      <stop id="stop4465-8" offset="0.50235993" style="stop-color: rgb(252, 175, 62); stop-opacity: 1;"/>
      <stop style="stop-color: rgb(245, 121, 0); stop-opacity: 1;" offset="1" id="stop4467-9"/>
    </linearGradient>
    <radialGradient r="39.441322" fy="62.497326" fx="87.440384" cy="62.497326" cx="87.440384" gradientTransform="matrix(0.996854, 0.929708, -0.471958, 0.506044, 104.279, -59.9654)" gradientUnits="userSpaceOnUse" id="radialGradient4489-6" xlink:href="#linearGradient3525-7" inkscape:collect="always"/>
    <linearGradient id="linearGradient3525-7" inkscape:collect="always">
      <stop id="stop3527-7" offset="0" style="stop-color: rgb(239, 41, 41); stop-opacity: 1;"/>
      <stop style="stop-color: rgb(204, 0, 0); stop-opacity: 1;" offset="0.67076343" id="stop3533-3"/>
      <stop id="stop3529-7" offset="1" style="stop-color: rgb(164, 0, 0); stop-opacity: 1;"/>
    </linearGradient>
    <radialGradient r="39.441322" fy="146.52892" fx="99.293404" cy="148.79022" cx="92.068649" gradientTransform="matrix(0.675706, 0.608561, -0.463083, 0.514177, 132.526, -31.608)" gradientUnits="userSpaceOnUse" id="radialGradient4497-1" xlink:href="#linearGradient3525-8-2" inkscape:collect="always"/>
    <linearGradient id="linearGradient3525-8-2" inkscape:collect="always">
      <stop id="stop3527-5-2" offset="0" style="stop-color: rgb(239, 41, 41); stop-opacity: 1;"/>
      <stop style="stop-color: rgb(204, 0, 0); stop-opacity: 1;" offset="0.67076343" id="stop3533-7-15"/>
      <stop id="stop3529-6-0" offset="1" style="stop-color: rgb(164, 0, 0); stop-opacity: 1;"/>
    </linearGradient>
    <radialGradient r="39.441322" fy="146.52892" fx="99.293404" cy="148.79022" cx="92.068649" gradientTransform="matrix(0.675706, 0.608561, -0.463083, 0.514177, 132.526, -31.608)" gradientUnits="userSpaceOnUse" id="radialGradient4222" xlink:href="#linearGradient3525-8-2" inkscape:collect="always"/>
    <radialGradient r="72.335518" fy="57.68211" fx="121.08566" cy="57.68211" cx="121.08566" gradientTransform="matrix(0.349217, 0.461868, -0.583322, 0.441049, 158.607, -4.98385)" gradientUnits="userSpaceOnUse" id="radialGradient4224" xlink:href="#linearGradient4461-1" inkscape:collect="always"/>
    <radialGradient r="39.441322" fy="62.497326" fx="87.440384" cy="62.497326" cx="87.440384" gradientTransform="matrix(0.996854, 0.929708, -0.471958, 0.506044, 104.279, -59.9654)" gradientUnits="userSpaceOnUse" id="radialGradient4226" xlink:href="#linearGradient3525-7" inkscape:collect="always"/>
    <radialGradient r="21.000002" fy="132.30916" fx="196.92123" cy="132.30916" cx="196.92123" gradientTransform="matrix(0, 0.988775, -1.01162, 0, 343.811, -116.139)" gradientUnits="userSpaceOnUse" id="radialGradient3390" xlink:href="#linearGradient3216" inkscape:collect="always"/>
    <linearGradient y2="88.711494" x2="196.69408" y1="81.095757" x1="197.61508" gradientTransform="translate(0, 0.150686)" gradientUnits="userSpaceOnUse" id="linearGradient3384" xlink:href="#linearGradient6195" inkscape:collect="always"/>
    <linearGradient y2="103.62462" x2="195.92659" y1="72.995918" x1="195.92659" gradientUnits="userSpaceOnUse" id="linearGradient3382" xlink:href="#linearGradient14002" inkscape:collect="always"/>
    <linearGradient y2="70.697823" x2="196.20729" y1="88.995918" x1="195.92659" gradientUnits="userSpaceOnUse" id="linearGradient3380" xlink:href="#linearGradient14979" inkscape:collect="always"/>
    <radialGradient r="21.000002" fy="132.30916" fx="196.92123" cy="132.30916" cx="196.92123" gradientTransform="matrix(0, 0.989936, -1.01162, 0, 314.526, -102.33)" gradientUnits="userSpaceOnUse" id="radialGradient3378" xlink:href="#linearGradient3216" inkscape:collect="always"/>
    <linearGradient gradientTransform="translate(29.5, -14)" gradientUnits="userSpaceOnUse" y2="122.70285" x2="223.51112" y1="113.86611" x1="213.29681" id="linearGradient20190" xlink:href="#linearGradient18230" inkscape:collect="always"/>
    <linearGradient gradientTransform="translate(-34.4048, 9.15775)" gradientUnits="userSpaceOnUse" y2="92.45208" x2="279.5672" y1="94.043068" x1="281.202" id="linearGradient18236" xlink:href="#linearGradient18230" inkscape:collect="always"/>
    <linearGradient y2="26.507296" x2="250.11383" y1="38.570667" x1="250.11383" gradientTransform="translate(-37.9818, 38.9777)" gradientUnits="userSpaceOnUse" id="linearGradient16998" xlink:href="#linearGradient15966" inkscape:collect="always"/>
    <linearGradient y2="35.012306" x2="219.2321" y1="35.012306" x1="221.62442" gradientTransform="matrix(1.07804, 0, 0, 1.07455, -25.036, 33.8941)" gradientUnits="userSpaceOnUse" id="linearGradient16996" xlink:href="#linearGradient15958" inkscape:collect="always"/>
    <linearGradient y2="26.507296" x2="250.11383" y1="38.570667" x1="250.11383" gradientTransform="translate(-45.5011, 38.9777)" gradientUnits="userSpaceOnUse" id="linearGradient16994" xlink:href="#linearGradient15966" inkscape:collect="always"/>
    <linearGradient y2="35.012306" x2="219.2321" y1="35.012306" x1="221.62442" gradientTransform="matrix(1.07804, 0, 0, 1.07455, -32.5553, 33.8941)" gradientUnits="userSpaceOnUse" id="linearGradient16992" xlink:href="#linearGradient15958" inkscape:collect="always"/>
    <linearGradient y2="26.507296" x2="250.11383" y1="38.570667" x1="250.11383" gradientTransform="translate(-53.0204, 38.9777)" gradientUnits="userSpaceOnUse" id="linearGradient16990" xlink:href="#linearGradient15966" inkscape:collect="always"/>
    <linearGradient y2="35.012306" x2="219.2321" y1="35.012306" x1="221.62442" gradientTransform="matrix(1.07804, 0, 0, 1.07455, -40.0747, 33.8941)" gradientUnits="userSpaceOnUse" id="linearGradient16988" xlink:href="#linearGradient15958" inkscape:collect="always"/>
    <linearGradient y2="26.507296" x2="250.11383" y1="38.570667" x1="250.11383" gradientTransform="translate(-60.5397, 38.9777)" gradientUnits="userSpaceOnUse" id="linearGradient16986" xlink:href="#linearGradient15966" inkscape:collect="always"/>
    <linearGradient y2="35.012306" x2="219.2321" y1="35.012306" x1="221.62442" gradientTransform="matrix(1.07804, 0, 0, 1.07455, -47.594, 33.8941)" gradientUnits="userSpaceOnUse" id="linearGradient16984" xlink:href="#linearGradient15958" inkscape:collect="always"/>
    <linearGradient y2="26.507296" x2="250.11383" y1="38.570667" x1="250.11383" gradientTransform="translate(-68.059, 38.9777)" gradientUnits="userSpaceOnUse" id="linearGradient16982" xlink:href="#linearGradient15966" inkscape:collect="always"/>
    <linearGradient y2="35.012306" x2="219.2321" y1="35.012306" x1="221.62442" gradientTransform="matrix(1.07804, 0, 0, 1.07455, -55.1133, 33.8941)" gradientUnits="userSpaceOnUse" id="linearGradient16980" xlink:href="#linearGradient15958" inkscape:collect="always"/>
    <linearGradient gradientUnits="userSpaceOnUse" y2="70.697823" x2="196.20729" y1="88.995918" x1="195.92659" id="linearGradient14985" xlink:href="#linearGradient14979" inkscape:collect="always"/>
    <linearGradient gradientUnits="userSpaceOnUse" y2="103.62462" x2="195.92659" y1="72.995918" x1="195.92659" id="linearGradient14008" xlink:href="#linearGradient14002" inkscape:collect="always"/>
    <linearGradient y2="88.711494" x2="196.69408" y1="81.095757" x1="197.61508" gradientTransform="translate(0, 0.150686)" gradientUnits="userSpaceOnUse" id="linearGradient6217" xlink:href="#linearGradient6195" inkscape:collect="always"/>
    <radialGradient r="21.000002" fy="132.30916" fx="196.92123" cy="132.30916" cx="196.92123" gradientTransform="matrix(0, 0.989936, -1.01162, 0, 314.526, -102.33)" gradientUnits="userSpaceOnUse" id="radialGradient6215" xlink:href="#linearGradient3216" inkscape:collect="always"/>
    <linearGradient gradientTransform="translate(178.818, 49.4457)" gradientUnits="userSpaceOnUse" y2="50.550369" x2="14.181816" y1="36.486488" x1="-33.818184" id="linearGradient3206" xlink:href="#linearGradient3196" inkscape:collect="always"/>
    <linearGradient id="linearGradient3196">
      <stop id="stop3198" offset="0" style="stop-color: rgb(190, 158, 112); stop-opacity: 1;"/>
      <stop id="stop3200" offset="1" style="stop-color: rgb(105, 76, 48); stop-opacity: 1;"/>
    </linearGradient>
    <linearGradient id="linearGradient3216" inkscape:collect="always">
      <stop id="stop3218" offset="0" style="stop-color: rgb(255, 254, 254); stop-opacity: 1;"/>
      <stop id="stop3220" offset="1" style="stop-color: rgb(213, 215, 218); stop-opacity: 1;"/>
    </linearGradient>
    <linearGradient id="linearGradient6195" inkscape:collect="always">
      <stop id="stop6197" offset="0" style="stop-color: rgb(170, 9, 10); stop-opacity: 1;"/>
      <stop id="stop6199" offset="1" style="stop-color: rgb(229, 1, 2); stop-opacity: 1;"/>
    </linearGradient>
    <linearGradient id="linearGradient14002" inkscape:collect="always">
      <stop id="stop14004" offset="0" style="stop-color: rgb(124, 31, 22); stop-opacity: 1;"/>
      <stop id="stop14006" offset="1" style="stop-color: rgb(124, 31, 22); stop-opacity: 0;"/>
    </linearGradient>
    <linearGradient id="linearGradient14979" inkscape:collect="always">
      <stop id="stop14981" offset="0" style="stop-color: rgb(228, 1, 2); stop-opacity: 1;"/>
      <stop id="stop14983" offset="1" style="stop-color: rgb(187, 120, 116); stop-opacity: 1;"/>
    </linearGradient>
    <linearGradient id="linearGradient15958">
      <stop id="stop15960" offset="0" style="stop-color: rgb(151, 136, 136); stop-opacity: 1;"/>
      <stop id="stop15962" offset="1" style="stop-color: rgb(251, 252, 252); stop-opacity: 1;"/>
    </linearGradient>
    <linearGradient id="linearGradient15966">
      <stop id="stop15968" offset="0" style="stop-color: rgb(208, 188, 186); stop-opacity: 1;"/>
      <stop id="stop15970" offset="1" style="stop-color: rgb(108, 108, 108); stop-opacity: 1;"/>
    </linearGradient>
    <linearGradient id="linearGradient18230">
      <stop id="stop18232" offset="0" style="stop-color: rgb(208, 188, 186); stop-opacity: 1;"/>
      <stop id="stop18234" offset="1" style="stop-color: rgb(254, 253, 253); stop-opacity: 1;"/>
    </linearGradient>
    <radialGradient inkscape:collect="always" xlink:href="#linearGradient3525-8" id="radialGradient4547" gradientUnits="userSpaceOnUse" gradientTransform="matrix(0.675706,0.608561,-0.463083,0.514177,132.526,-31.608)" cx="92.068649" cy="148.79022" fx="99.293404" fy="146.52892" r="39.441322"/>
    <linearGradient id="linearGradient3196-1">
      <stop id="stop3198-6" offset="0" style="stop-color: rgb(190, 158, 112); stop-opacity: 1;"/>
      <stop id="stop3200-3" offset="1" style="stop-color: rgb(105, 76, 48); stop-opacity: 1;"/>
    </linearGradient>
    <linearGradient id="linearGradient15958-9">
      <stop id="stop15960-3" offset="0" style="stop-color: rgb(151, 136, 136); stop-opacity: 1;"/>
      <stop id="stop15962-5" offset="1" style="stop-color: rgb(251, 252, 252); stop-opacity: 1;"/>
    </linearGradient>
    <linearGradient id="linearGradient15966-8">
      <stop id="stop15968-8" offset="0" style="stop-color: rgb(208, 188, 186); stop-opacity: 1;"/>
      <stop id="stop15970-1" offset="1" style="stop-color: rgb(108, 108, 108); stop-opacity: 1;"/>
    </linearGradient>
    <linearGradient id="linearGradient4588">
      <stop id="stop4590" offset="0" style="stop-color: rgb(151, 136, 136); stop-opacity: 1;"/>
      <stop id="stop4592" offset="1" style="stop-color: rgb(251, 252, 252); stop-opacity: 1;"/>
    </linearGradient>
    <linearGradient id="linearGradient4595">
      <stop id="stop4597" offset="0" style="stop-color: rgb(208, 188, 186); stop-opacity: 1;"/>
      <stop id="stop4599" offset="1" style="stop-color: rgb(108, 108, 108); stop-opacity: 1;"/>
    </linearGradient>
    <linearGradient id="linearGradient4602">
      <stop id="stop4604" offset="0" style="stop-color: rgb(151, 136, 136); stop-opacity: 1;"/>
      <stop id="stop4606" offset="1" style="stop-color: rgb(251, 252, 252); stop-opacity: 1;"/>
    </linearGradient>
    <linearGradient id="linearGradient4609">
      <stop id="stop4611" offset="0" style="stop-color: rgb(208, 188, 186); stop-opacity: 1;"/>
      <stop id="stop4613" offset="1" style="stop-color: rgb(108, 108, 108); stop-opacity: 1;"/>
    </linearGradient>
    <linearGradient id="linearGradient4616">
      <stop id="stop4618" offset="0" style="stop-color: rgb(151, 136, 136); stop-opacity: 1;"/>
      <stop id="stop4620" offset="1" style="stop-color: rgb(251, 252, 252); stop-opacity: 1;"/>
    </linearGradient>
    <linearGradient id="linearGradient4623">
      <stop id="stop4625" offset="0" style="stop-color: rgb(208, 188, 186); stop-opacity: 1;"/>
      <stop id="stop4627" offset="1" style="stop-color: rgb(108, 108, 108); stop-opacity: 1;"/>
    </linearGradient>
    <linearGradient id="linearGradient4630">
      <stop id="stop4632" offset="0" style="stop-color: rgb(151, 136, 136); stop-opacity: 1;"/>
      <stop id="stop4634" offset="1" style="stop-color: rgb(251, 252, 252); stop-opacity: 1;"/>
    </linearGradient>
    <linearGradient id="linearGradient4637">
      <stop id="stop4639" offset="0" style="stop-color: rgb(208, 188, 186); stop-opacity: 1;"/>
      <stop id="stop4641" offset="1" style="stop-color: rgb(108, 108, 108); stop-opacity: 1;"/>
    </linearGradient>
    <radialGradient inkscape:collect="always" xlink:href="#linearGradient3525-8-7" id="radialGradient4547-7" gradientUnits="userSpaceOnUse" gradientTransform="matrix(0.675706,0.608561,-0.463083,0.514177,132.526,-31.608)" cx="92.068649" cy="148.79022" fx="99.293404" fy="146.52892" r="39.441322"/>
    <linearGradient id="linearGradient3525-8-7" inkscape:collect="always">
      <stop id="stop3527-5-68" offset="0" style="stop-color: rgb(239, 41, 41); stop-opacity: 1;"/>
      <stop style="stop-color: rgb(204, 0, 0); stop-opacity: 1;" offset="0.67076343" id="stop3533-7-8"/>
      <stop id="stop3529-6-1" offset="1" style="stop-color: rgb(164, 0, 0); stop-opacity: 1;"/>
    </linearGradient>
    <linearGradient inkscape:collect="always" xlink:href="#linearGradient3196" id="linearGradient5114" gradientUnits="userSpaceOnUse" gradientTransform="translate(178.818,49.4457)" x1="-33.818184" y1="36.486488" x2="14.181816" y2="50.550369"/>
    <linearGradient inkscape:collect="always" xlink:href="#linearGradient14979" id="linearGradient5116" gradientUnits="userSpaceOnUse" x1="195.92659" y1="88.995918" x2="196.20729" y2="70.697823"/>
    <linearGradient inkscape:collect="always" xlink:href="#linearGradient14002" id="linearGradient5118" gradientUnits="userSpaceOnUse" x1="195.92659" y1="72.995918" x2="195.92659" y2="103.62462"/>
    <linearGradient inkscape:collect="always" xlink:href="#linearGradient4541" id="linearGradient5120" gradientUnits="userSpaceOnUse" gradientTransform="translate(0,0.150686)" x1="197.61508" y1="81.095757" x2="196.69408" y2="88.711494"/>
    <radialGradient inkscape:collect="always" xlink:href="#linearGradient3216" id="radialGradient5122" gradientUnits="userSpaceOnUse" gradientTransform="matrix(0,0.988775,-1.01162,0,343.811,-116.139)" cx="196.92123" cy="132.30916" fx="196.92123" fy="132.30916" r="21.000002"/>
    <linearGradient inkscape:collect="always" xlink:href="#linearGradient15958" id="linearGradient5124" gradientUnits="userSpaceOnUse" gradientTransform="matrix(1.07804,0,0,1.07455,-55.1133,33.8941)" x1="221.62442" y1="35.012306" x2="219.2321" y2="35.012306"/>
    <linearGradient inkscape:collect="always" xlink:href="#linearGradient15966" id="linearGradient5126" gradientUnits="userSpaceOnUse" gradientTransform="translate(-68.059,38.9777)" x1="250.11383" y1="38.570667" x2="250.11383" y2="26.507296"/>
    <linearGradient inkscape:collect="always" xlink:href="#linearGradient15958" id="linearGradient5128" gradientUnits="userSpaceOnUse" gradientTransform="matrix(1.07804,0,0,1.07455,-47.594,33.8941)" x1="221.62442" y1="35.012306" x2="219.2321" y2="35.012306"/>
    <linearGradient inkscape:collect="always" xlink:href="#linearGradient15966" id="linearGradient5130" gradientUnits="userSpaceOnUse" gradientTransform="translate(-60.5397,38.9777)" x1="250.11383" y1="38.570667" x2="250.11383" y2="26.507296"/>
    <linearGradient inkscape:collect="always" xlink:href="#linearGradient15958" id="linearGradient5132" gradientUnits="userSpaceOnUse" gradientTransform="matrix(1.07804,0,0,1.07455,-40.0747,33.8941)" x1="221.62442" y1="35.012306" x2="219.2321" y2="35.012306"/>
    <linearGradient inkscape:collect="always" xlink:href="#linearGradient15966" id="linearGradient5134" gradientUnits="userSpaceOnUse" gradientTransform="translate(-53.0204,38.9777)" x1="250.11383" y1="38.570667" x2="250.11383" y2="26.507296"/>
    <linearGradient inkscape:collect="always" xlink:href="#linearGradient15958" id="linearGradient5136" gradientUnits="userSpaceOnUse" gradientTransform="matrix(1.07804,0,0,1.07455,-32.5553,33.8941)" x1="221.62442" y1="35.012306" x2="219.2321" y2="35.012306"/>
    <linearGradient inkscape:collect="always" xlink:href="#linearGradient15966" id="linearGradient5138" gradientUnits="userSpaceOnUse" gradientTransform="translate(-45.5011,38.9777)" x1="250.11383" y1="38.570667" x2="250.11383" y2="26.507296"/>
    <linearGradient inkscape:collect="always" xlink:href="#linearGradient15958" id="linearGradient5140" gradientUnits="userSpaceOnUse" gradientTransform="matrix(1.07804,0,0,1.07455,-25.036,33.8941)" x1="221.62442" y1="35.012306" x2="219.2321" y2="35.012306"/>
    <linearGradient inkscape:collect="always" xlink:href="#linearGradient15966" id="linearGradient5142" gradientUnits="userSpaceOnUse" gradientTransform="translate(-37.9818,38.9777)" x1="250.11383" y1="38.570667" x2="250.11383" y2="26.507296"/>
    <radialGradient inkscape:collect="always" xlink:href="#linearGradient4461" id="radialGradient5144" gradientUnits="userSpaceOnUse" gradientTransform="matrix(0.349217,0.461868,-0.583322,0.441049,158.607,-4.98385)" cx="121.08566" cy="57.68211" fx="121.08566" fy="57.68211" r="72.335521"/>
    <radialGradient inkscape:collect="always" xlink:href="#linearGradient3525" id="radialGradient5146" gradientUnits="userSpaceOnUse" gradientTransform="matrix(0.996854,0.929708,-0.471958,0.506044,104.279,-59.9654)" cx="87.440384" cy="62.497326" fx="87.440384" fy="62.497326" r="39.441323"/>
    <radialGradient inkscape:collect="always" xlink:href="#linearGradient3525-8" id="radialGradient5148" gradientUnits="userSpaceOnUse" gradientTransform="matrix(0.675706,0.608561,-0.463083,0.514177,132.526,-31.608)" cx="92.068649" cy="148.79022" fx="99.293404" fy="146.52892" r="39.441322"/>
  </defs>
  <metadata id="metadata5059">
    <rdf:RDF>
      <cc:Work rdf:about="">
        <dc:format>image/svg+xml</dc:format>
        <dc:type rdf:resource="http://purl.org/dc/dcmitype/StillImage"/>
        <dc:title/>
      </cc:Work>
    </rdf:RDF>
  </metadata>
  <g id="layer1" inkscape:groupmode="layer" inkscape:label="Camada 1">
    <rect style="color:#000000;fill:#ffffff;fill-opacity:1;fill-rule:nonzero;stroke:#cc0000;stroke-width:1.91934204;stroke-linecap:round;stroke-linejoin:round;stroke-miterlimit:4;stroke-opacity:1;stroke-dasharray:none;stroke-dashoffset:0;marker:none;visibility:visible;display:inline;overflow:visible;enable-background:accumulate" id="rect5234" width="464.08066" height="428.08066" x="-478.04034" y="-77.678146"/>
    <rect style="color:#000000;fill:#ffffff;fill-opacity:1;fill-rule:nonzero;stroke:none;stroke-width:2;marker:none;visibility:visible;display:inline;overflow:visible;enable-background:accumulate" id="rect5150" width="438.40622" height="182.43355" x="31.1127" y="55.341621"/>
    <g inkscape:export-ydpi="127.30378" inkscape:export-xdpi="127.30378" inkscape:export-filename="/home/valessio/projetos/debian/logos/debadaybr.png" transform="matrix(0.35350661,0,0,0.35350661,-147.08609,14.991532)" id="g4469">
      <g id="g4321" transform="translate(7.94866,2.3407)">
        <path sodipodi:nodetypes="scccsssssssssssssccscccccssccccsssscsssssssscssscsscccssssscsscsccsscccssscccsssccssscscssssssscsssssccccscsssscccccscscccccsscscsccccccccccscscccccscccccccscccccsccccccscscsccccssscssscssccccsscccssssccsssccsscccsssscssccccccscssscscsccsssccssscsccssccccccssssssccscccscsssssccssssscscsccsccccssssssssccsscc" inkscape:connector-curvature="0" id="path2881" d="m 168.36039,21.586151 c 0,0.121218 0.95162,2.75432 1.23259,3.401032 0.25678,0.590989 0.74428,2.212452 0.84455,2.830388 0.0564,0.347296 0.0909,1.167945 0.0913,1.803232 0.002,2.870907 -0.94071,5.563511 -3.51516,9.997663 -0.20598,0.354771 -0.47321,0.831661 -0.59347,1.049983 -0.12025,0.21832 -0.41551,0.725911 -0.66194,1.141286 -1.06002,1.786765 -1.55967,3.120286 -2.09997,5.569475 -0.0331,0.150095 -0.11398,0.273908 -0.15978,0.273908 -0.16479,0 -1.75759,-1.755025 -2.25974,-2.488003 -1.04536,-1.52584 -1.2813,-2.167252 -2.3054,-6.140117 -0.73181,-2.838985 -1.19473,-4.204862 -2.03149,-5.911861 -0.68087,-1.388967 -0.93669,-1.787866 -1.64345,-2.71626 -1.19199,-1.565782 -2.68247,-2.68682 -5.34122,-4.017326 -0.83166,-0.416185 -1.54061,-0.753248 -1.5978,-0.753248 -0.21833,0 0.1687,0.489782 1.55215,1.940185 1.85517,1.944964 2.36029,2.606967 2.96734,3.834721 0.99375,2.009828 1.24519,3.117377 1.30107,5.934686 0.0439,2.211513 -0.0575,3.46499 -0.66195,7.989 -0.23793,1.781003 -0.24971,3.143703 -0.0456,4.47384 0.10415,0.678884 0.12513,0.895713 0.15978,1.164112 3.1058,-1.640582 6.55524,-2.79909 10.18027,-3.332555 5.7559,-0.84128 11.86836,-0.0662 17.46167,2.419526 0.86894,0.387214 1.72231,0.81148 2.55648,1.27824 0.0177,-0.639243 0.0727,-1.560906 0.20543,-2.373874 0.32262,-1.976213 0.79142,-3.005955 2.83039,-6.345549 2.87604,-4.710621 3.96269,-8.733469 3.30973,-12.166106 -0.25122,-1.320655 -0.84411,-3.395411 -1.34672,-4.679272 l -0.11412,-0.273909 -0.0913,0.228257 c -0.0505,0.131911 -0.10766,1.310494 -0.13695,2.624958 -0.0525,2.359617 -0.17879,3.450773 -0.50217,4.428189 -0.75686,2.287591 -1.73967,3.768557 -3.88037,5.866208 -1.23747,1.212593 -2.63073,2.363691 -5.63795,4.656446 -1.36751,1.042611 -2.62956,2.338208 -3.53799,3.606464 -0.68692,0.959002 -0.70524,0.976294 -0.86737,0.776074 -0.24033,-0.2968 -0.89753,-2.261298 -1.11846,-3.401032 -0.20532,-1.059145 -0.21602,-2.297826 -0.0684,-3.401031 0.0511,-0.38206 0.12767,-1.028669 0.1826,-1.43802 0.0549,-0.409351 0.20451,-1.518436 0.34239,-2.442352 0.20015,-1.341234 0.25108,-2.05982 0.25108,-3.560812 0,-3.90475 -0.68999,-6.312284 -2.51083,-8.7879 -0.96787,-1.315907 -2.73908,-3.303115 -2.73908,-3.058646 z m -36.79505,15.430184 c -0.48374,0.0091 -0.61098,0.0756 -0.31956,0.228257 0.25957,0.13597 1.61167,0.761476 2.6706,1.232588 0.57309,0.254966 1.31726,0.611394 1.64346,0.776075 2.11699,1.068795 4.2183,3.358362 5.27274,5.774906 0.14289,0.327481 0.33375,0.786012 0.43368,1.004331 0.30782,0.672521 1.14869,3.35816 1.73476,5.546649 0.30694,1.146185 0.69831,2.517309 0.86738,3.03582 0.26213,0.803934 0.79635,1.952346 1.30106,2.853215 0.81316,-0.88985 1.69246,-1.730674 2.62496,-2.533655 1.55416,-1.335735 3.26196,-2.533827 5.09013,-3.560811 -0.72943,-0.337239 -1.8338,-0.936677 -2.35105,-1.27824 -1.50047,-0.990854 -2.24086,-1.760876 -4.51949,-4.861878 -2.112,-2.874239 -3.9488,-4.736114 -5.98033,-6.048814 -1.82032,-1.176212 -3.22073,-1.648322 -6.00317,-1.985838 -1.12919,-0.136971 -1.98144,-0.191662 -2.46517,-0.182605 z m 74.18357,0.251083 c -0.13453,0.04231 -0.57671,0.906964 -1.20976,2.351048 -1.13908,2.59841 -2.04135,3.952822 -3.40103,5.112961 -1.01391,0.865107 -2.13819,1.616471 -3.1043,2.054314 -0.24561,0.111313 -0.67364,0.303036 -0.95868,0.433689 -0.28505,0.130652 -0.64731,0.260505 -0.7989,0.296734 -0.1516,0.03624 -0.33348,0.09716 -0.38804,0.136954 -0.20507,0.149499 -2.49451,0.85079 -5.45534,1.643452 -0.92786,0.248405 -1.97694,0.546062 -2.32823,0.661945 -0.7914,0.261061 -2.53876,1.138169 -3.46951,1.734755 -0.0424,0.02716 -0.0727,0.04329 -0.11412,0.06848 2.75146,1.637474 5.28474,3.68779 7.464,6.117292 0.53734,-1.040224 1.2331,-2.047889 1.98584,-2.87604 0.40206,-0.442322 1.75616,-1.529735 4.0858,-3.264078 3.59093,-2.673326 6.02267,-5.596482 6.89337,-8.262909 0.42966,-1.315774 0.74378,-3.173345 0.86738,-5.227089 0.0493,-0.819802 0.0347,-1.013951 -0.0684,-0.981505 z m -79.6161,15.247578 c -1.46071,0.05717 -3.04316,0.422215 -5.0673,1.095634 -0.76254,0.253692 -1.39237,0.493773 -1.39237,0.547817 0,0.17272 0.55475,0.216234 2.488,0.228257 1.03846,0.0064 2.26782,0.05789 2.71626,0.114129 1.17667,0.147541 2.72534,0.632103 3.62929,1.11846 1.51707,0.816243 2.18727,1.335116 3.60646,2.71626 1.28203,1.247657 2.60812,2.789568 4.67927,5.500998 0.90489,1.184616 1.71537,2.107614 2.53366,2.87604 0.21625,-0.530418 0.4369,-1.052215 0.68477,-1.574975 1.02181,-2.154992 2.32743,-4.229199 3.88037,-6.162943 -1.12779,-0.117384 -2.29466,-0.341785 -2.96734,-0.593469 -0.6247,-0.233728 -2.21857,-1.059704 -3.1043,-1.5978 -0.35468,-0.215477 -0.6641,-0.388037 -0.68477,-0.388037 -0.0207,0 -0.30139,-0.160536 -0.61629,-0.365211 -0.83499,-0.542728 -2.46433,-1.414806 -3.94885,-2.099966 -0.73683,-0.340074 -2.91549,-1.027965 -3.85755,-1.209763 -0.86068,-0.166094 -1.70288,-0.239734 -2.57931,-0.205431 z m 91.07461,1.780405 c -0.16473,0.0071 -0.58619,0.332541 -1.25541,0.981506 -2.46554,2.390956 -3.35618,3.110508 -4.63362,3.720592 -2.23103,1.065484 -5.10681,1.485142 -8.21726,1.186937 -1.77898,-0.170557 -3.72969,-0.402868 -4.81623,-0.570643 -0.54579,-0.08428 -1.80229,-0.17693 -2.78474,-0.205431 -1.06846,-0.03099 -1.61435,-0.01917 -2.19126,0.04565 0.50458,0.641522 0.98167,1.302132 1.43802,1.985837 1.20581,1.810657 2.22043,3.76477 3.03582,5.797732 0.0117,-0.0078 0.0343,-0.01538 0.0457,-0.02283 1.53563,-1.004669 2.18419,-1.246411 5.47817,-2.07714 2.1399,-0.539672 3.57483,-0.942949 3.9032,-1.095634 0.10915,-0.05076 0.45305,-0.183585 0.75325,-0.296734 0.55087,-0.207632 0.67634,-0.270118 1.66627,-0.730423 2.50684,-1.165662 4.55575,-2.917469 5.68361,-4.884703 1.087,-1.89597 1.96301,-3.568221 1.96301,-3.720592 0,-0.06818 -0.0136,-0.116501 -0.0684,-0.114129 z m -49.07529,0.15978 c -1.14161,-0.01204 -2.28721,0.06154 -3.40103,0.205432 -4.70657,0.601969 -9.14475,2.594123 -12.62262,5.43252 -2.68719,2.187174 -4.81942,4.927714 -6.34555,7.874872 -1.52612,2.947158 -2.44169,6.081808 -2.69343,9.153112 -0.31074,3.630757 0.28005,7.220837 1.43802,10.385701 0.21291,0.581935 0.45753,1.13607 0.70759,1.689103 0.16722,-0.01921 0.2783,-0.01841 0.29674,0 0.0326,0.03258 -0.004,0.211413 -0.0913,0.456514 1.08124,2.267788 2.45544,4.286275 4.01733,5.957512 0.67179,0.729984 1.37328,1.393661 2.09997,2.008663 0.20083,-0.121594 0.40401,-0.225066 0.61629,-0.365212 0.38822,-0.256298 0.71848,-0.47934 0.75325,-0.47934 0.0843,0 0.0797,0.997013 0.0228,1.91736 1.73124,1.265874 3.52717,2.260082 5.29556,3.035822 1.01873,0.44688 2.03417,0.8244 3.013,1.14128 0.14149,-0.17389 0.28335,-0.34862 0.41086,-0.52499 0.91296,-1.26275 1.02119,-1.36416 1.14129,-1.18693 0.10208,0.15064 0.5037,1.36955 0.7989,2.35104 1.05327,0.25782 2.06587,0.49186 3.01299,0.63912 2.2136,0.33933 3.04625,-0.44298 4.56384,-0.40595 0.32419,-0.81347 3.17822,-0.50542 3.35381,-1.26725 -0.15949,-0.0237 -1.86973,-0.26275 -2.02861,-0.28977 -4.51189,-0.76946 -8.65058,-2.887041 -11.8009,-5.980338 -3.33152,-3.283529 -5.3791,-7.590935 -5.84338,-12.006327 -0.38394,-3.752701 0.44194,-7.451906 2.19127,-10.568306 1.8826,-3.337291 4.79831,-5.83841 8.10313,-7.167275 1.80557,-0.719968 3.69019,-1.061701 5.52382,-1.072808 1.83363,-0.0111 3.62469,0.320722 5.27274,0.935854 1.84591,0.696823 3.46146,1.744708 4.77057,3.012994 1.30913,1.268288 2.307,2.743985 2.99017,4.314061 0.71577,1.647488 1.05986,3.395817 1.00433,5.090134 -0.0616,1.861271 -0.64989,3.612475 -1.57497,5.044483 -1.04589,1.614374 -2.5309,2.744572 -4.10863,3.332555 -1.86484,0.689578 -3.75812,0.539344 -5.24991,-0.06844 -0.9188,-0.382727 -1.64478,-0.930997 -2.2141,-1.529323 -0.5693,-0.598326 -0.96852,-1.247124 -1.23259,-1.871708 -0.3071,-0.732425 -0.43457,-1.404845 -0.45651,-1.985838 -0.022,-0.580993 0.0593,-1.066965 0.15978,-1.43802 0.20083,-0.742117 0.48387,-1.044753 0.63912,-1.004331 0.15524,0.04039 0.18031,0.407123 0.29673,1.049983 0.0582,0.32143 0.14669,0.711819 0.29674,1.141286 0.15004,0.429466 0.35658,0.916987 0.68477,1.369542 0.27852,0.387468 0.64474,0.749254 1.09563,1.072809 0.45089,0.323556 0.98693,0.593958 1.57498,0.730423 0.95249,0.234371 2.14445,0.11827 3.17277,-0.410863 0.88525,-0.449517 1.69319,-1.251631 2.2141,-2.259746 0.46975,-0.902649 0.69511,-2.024717 0.63912,-3.172774 -0.0503,-1.054667 -0.36496,-2.166312 -0.91303,-3.218426 -0.51662,-0.992692 -1.28345,-1.91843 -2.2141,-2.693435 -0.93064,-0.775004 -2.04482,-1.391466 -3.24125,-1.75758 -2.14639,-0.67124 -4.72742,-0.524231 -6.96184,0.502166 -2.0672,0.937675 -3.92846,2.701641 -5.04448,4.884703 -1.05508,2.04639 -1.47269,4.561652 -1.14129,7.007495 0.37802,2.883403 1.91791,5.800076 4.19993,7.943349 2.16543,2.045608 5.13496,3.442249 8.28574,3.926023 2.30343,0.354598 4.75176,0.176193 7.09879,-0.502166 2.34704,-0.678358 4.58702,-1.862359 6.41403,-3.492334 1.74811,-1.535773 3.17852,-3.529667 4.15428,-5.75208 0.97576,-2.222414 1.49252,-4.658623 1.4152,-7.075972 -0.0765,-2.758877 -0.63029,-5.555704 -1.64346,-8.194432 -0.64825,-1.688333 -1.48193,-3.28929 -2.46517,-4.770575 -2.56848,-3.881046 -6.24746,-6.989156 -10.34005,-8.856377 -3.19782,-1.464063 -6.68696,-2.200812 -10.11179,-2.236921 z M 127.1828,69.200594 c -0.90559,5.14e-4 -1.74515,0.05388 -2.67061,0.182605 -2.28129,0.317329 -3.95962,0.970491 -5.70643,2.214095 -1.44432,1.028261 -3.44296,2.786958 -3.21843,2.830389 0.14885,0.02879 0.65834,-0.138618 2.94452,-1.004332 2.53723,-0.960787 3.1591,-1.095634 5.02166,-1.095634 1.62098,0 2.58838,0.160676 4.31406,0.753248 1.15854,0.397824 4.26144,1.892265 5.501,2.647783 0.37399,0.227958 0.69021,0.410863 0.70759,0.410863 0.0174,0 0.43115,0.2431 0.91303,0.524992 0.75552,0.441965 1.43758,0.776557 2.09997,1.095634 0.002,-0.330983 -0.0139,-0.670657 0,-1.004331 0.10094,-2.270768 0.4956,-4.554062 1.14128,-6.824889 -0.0853,0.01736 -0.20753,0.05785 -0.2739,0.06848 -1.0012,0.160289 -3.25269,0.06584 -4.97601,-0.205432 -2.59864,-0.40906 -4.28842,-0.594326 -5.79773,-0.593468 z m 71.78687,1.552148 c 0.6713,2.473019 1.03321,5.017242 1.09564,7.555312 0.004,0.182577 4.3e-4,0.365702 0,0.547817 0.25034,-0.0019 0.49889,-0.0094 0.7989,0 0.87328,0.02739 2.18485,0.135326 2.92169,0.251083 4.02955,0.633043 6.11975,0.751839 8.24008,0.456515 3.29801,-0.459356 5.10294,-1.354154 8.33139,-4.154281 0.77342,-0.670811 0.98118,-0.90953 0.84455,-0.935854 -0.16595,-0.03196 -1.09247,0.282344 -1.89453,0.63912 -0.17199,0.07651 -0.35262,0.136954 -0.38804,0.136954 -0.0725,0 -1.51485,0.54821 -1.98584,0.753249 -0.99708,0.434064 -2.7959,0.678145 -4.29123,0.593469 -1.09631,-0.06208 -3.33422,-0.528093 -4.10863,-0.867378 -0.18468,-0.08091 -0.62673,-0.283661 -0.98151,-0.433688 -0.35477,-0.150033 -1.05647,-0.471791 -1.57497,-0.730423 -0.95659,-0.477135 -1.63009,-0.849121 -3.72059,-2.054315 -0.37142,-0.214128 -0.92175,-0.528426 -1.23259,-0.707597 -0.43391,-0.250116 -1.42983,-0.763841 -2.05432,-1.049983 z m -61.5153,11.823721 c -0.1758,0.082 -0.34926,0.166807 -0.54782,0.251083 -0.42659,0.181064 -2.48528,0.754804 -4.19993,1.164111 -3.08867,0.737304 -5.76981,1.829381 -7.76074,3.172775 -1.53011,1.032453 -2.98131,2.672617 -4.04015,4.610794 -1.1674,2.136845 -1.49375,2.916776 -1.18694,2.807563 0.0511,-0.01819 0.82153,-0.706209 1.71193,-1.529323 2.16623,-2.002549 2.3083,-2.120731 3.08147,-2.602131 1.18693,-0.739035 2.48103,-1.230281 4.13145,-1.574974 0.70022,-0.146253 1.30991,-0.18582 3.1043,-0.182606 2.25661,0.0044 2.71699,0.04426 7.1901,0.63912 0.14532,0.01936 0.32194,0.029 0.47934,0.04565 -0.89239,-2.108095 -1.57448,-4.394706 -1.96301,-6.802063 z m 61.97182,1.734754 c -0.35207,1.470042 -0.84856,2.905601 -1.46085,4.268409 -0.35956,0.800295 -0.76771,1.575836 -1.20976,2.328223 0.52256,0.23757 1.04774,0.524568 1.62062,0.867377 0.38207,0.228623 1.17249,0.69873 1.75758,1.049983 1.31515,0.789536 1.72052,1.006676 2.60214,1.43802 0.38206,0.18693 0.77712,0.384524 0.86737,0.433689 0.47373,0.258088 2.57076,1.022037 3.37821,1.232589 1.42805,0.372377 2.30036,0.480428 3.65211,0.433688 1.59649,-0.05522 2.61931,-0.265991 4.67928,-0.935854 1.5762,-0.51256 1.89048,-0.643181 1.73475,-0.7989 -0.0362,-0.03616 -1.24129,-0.100543 -2.67061,-0.136954 -2.74726,-0.07005 -3.14643,-0.116664 -4.61079,-0.593469 -1.50458,-0.489902 -2.67468,-1.184352 -4.26841,-2.510829 -1.28581,-1.070179 -3.20057,-3.284383 -5.47817,-6.322723 -0.20715,-0.276334 -0.39525,-0.504437 -0.59347,-0.753249 z m -57.26972,10.134618 c -0.69775,0.628069 -1.54884,1.320627 -2.71626,2.191269 -3.77768,2.817314 -5.79833,4.952016 -7.07597,7.532486 -0.66387,1.34082 -0.97205,2.53219 -1.23259,4.72492 -0.20839,1.75379 -0.22727,2.72354 -0.0913,2.80757 0.0464,0.0287 0.26933,-0.34153 0.50217,-0.84456 0.23285,-0.50303 0.55451,-1.20184 0.7076,-1.52932 0.15308,-0.32748 0.44032,-0.9329 0.63912,-1.36954 1.13663,-2.4966 2.91423,-4.3192 5.63795,-5.70643 1.65491,-0.84287 3.15287,-1.35282 7.14445,-2.442352 0.3785,-0.103318 0.63077,-0.180947 0.95868,-0.273908 -0.19781,-0.174126 -0.39786,-0.342948 -0.59347,-0.524992 -1.4048,-1.324498 -2.71583,-2.860314 -3.88037,-4.565143 z m 51.1296,1.027157 c -0.45073,0.461876 -0.92766,0.900992 -1.41519,1.323892 -1.35515,1.163235 -2.81871,2.156617 -4.35972,2.967343 0.83629,0.758063 1.66995,1.795343 3.12713,3.743413 3.81645,5.10211 6.84828,7.34496 10.72808,7.989 1.85301,0.3076 4.40537,0.51093 4.40537,0.34239 0,-0.0736 -0.5195,-0.33419 -2.48801,-1.23259 -2.89478,-1.32114 -4.02303,-2.06586 -5.24991,-3.51516 -1.93518,-2.28597 -2.77837,-4.31082 -4.51949,-10.796562 -0.092,-0.342729 -0.13612,-0.497374 -0.22826,-0.821726 z m -9.76941,5.934688 c -0.30114,0.0943 -0.60936,0.1918 -0.91302,0.27391 -2.67329,0.72279 -5.4189,0.97526 -8.12596,0.75325 0.32947,0.36556 0.66209,0.73929 0.91303,1.0728 1.63047,1.86099 2.03253,4.63742 2.53365,6.59664 0.35213,1.38082 0.76899,2.81353 0.91303,3.1956 1.69946,4.50754 3.49256,6.775 6.82489,8.60529 0.74134,0.40717 2.83868,1.48367 2.89887,1.48367 0.21147,0 -0.19519,-0.50533 -1.75758,-2.19127 -1.89536,-2.04522 -2.33943,-2.60023 -2.89887,-3.72059 -0.97243,-1.94739 -1.4542,-4.64636 -1.30106,-7.14445 0.0791,-1.29108 0.38495,-4.23771 0.59346,-5.70643 0.19253,-1.35615 0.30168,-2.32869 0.31956,-3.21842 z m -31.72774,1.73475 c -0.3415,0.70441 -0.79044,1.46931 -1.36954,2.3967 -0.23196,0.37147 -0.41087,0.70471 -0.41087,0.73043 0,0.0256 -0.18516,0.3014 -0.38803,0.61629 -1.40376,2.1789 -2.66529,5.43223 -3.03582,7.78357 -0.25512,1.61893 -0.16809,3.05996 0.34238,5.09013 0.24268,0.9652 1.06863,3.43779 1.18694,3.56082 0.14399,0.14973 0.19433,-0.28776 0.25108,-2.83039 0.03,-1.34462 0.0795,-2.69737 0.13696,-2.99017 0.71657,-3.64793 2.70328,-6.33502 7.12162,-9.74658 0.28275,-0.21833 1.23795,-0.96767 2.14562,-1.66628 0.144,-0.11084 0.25247,-0.21259 0.38803,-0.31956 -0.43288,-0.12457 -0.88208,-0.26276 -1.32389,-0.41086 -1.6488,-0.5527 -3.33956,-1.27404 -5.04448,-2.2141 z m 19.47033,3.53799 c -1.37833,0.2068 -2.98758,0.34992 -4.8847,0.31956 -0.74935,-0.0107 -1.54838,-0.0621 -2.37387,-0.13696 -0.0305,0.89309 -0.10624,1.90501 -0.25109,2.87604 -0.65287,4.37663 -0.74194,5.77625 -0.50216,7.87488 0.22249,1.9473 0.54483,3.21075 1.16411,4.47384 0.75402,1.53789 1.55985,2.66824 3.1956,4.49666 0.59026,0.6598 0.84455,0.88725 0.84455,0.73043 0,-0.0513 -0.64473,-1.83549 -0.77607,-2.14562 -0.42291,-0.99858 -1.1125,-3.06724 -1.25542,-3.76624 -0.22012,-1.07661 -0.21409,-2.94159 0,-4.13146 0.18159,-1.00925 0.58396,-2.32361 1.04999,-3.42386 0.17339,-0.40935 0.35264,-0.8715 0.41086,-1.02715 0.1144,-0.30604 0.27041,-0.60732 1.07281,-2.05432 0.752,-1.3561 0.92795,-1.65235 1.34671,-2.37387 0.20592,-0.35478 0.50427,-0.86839 0.66195,-1.14129 0.10784,-0.18663 0.19485,-0.38046 0.29673,-0.57064 z" style="fill:url(#radialGradient5144);fill-opacity:1;stroke:none"/>
        <path inkscape:connector-curvature="0" id="path3478" d="m 170.27511,79.229519 c 0.14197,0.03696 0.17567,0.386496 0.28214,0.974377 0.0532,0.293937 0.12911,0.64874 0.26633,1.041474 0.13722,0.392741 0.33628,0.825056 0.6364,1.238899 0.25471,0.354328 0.58845,0.70144 1.00077,0.997327 0.41232,0.295879 0.90405,0.541119 1.44182,0.665912 0,0 0,0 0,0 0.87103,0.214328 1.9485,0.109242 2.88888,-0.374634 0.80953,-0.411075 1.55214,-1.153718 2.0285,-2.075621 0.42958,-0.825451 0.63756,-1.848934 0.58635,-2.898812 -0.046,-0.964467 -0.34391,-1.980715 -0.8451,-2.94285 -0.47244,-0.907793 -1.15948,-1.753844 -2.01051,-2.462568 -0.85107,-0.708723 -1.86636,-1.28028 -2.96046,-1.615082 -1.96283,-0.613834 -4.33618,-0.47817 -6.37952,0.460446 -1.8904,0.857482 -3.586,2.479959 -4.60657,4.476319 -0.96484,1.871376 -1.34652,4.175225 -1.04346,6.41189 0.34568,2.636804 1.74284,5.293754 3.82969,7.25372 1.98024,1.870657 4.69872,3.150007 7.58002,3.592402 2.10644,0.324279 4.35082,0.161183 6.49712,-0.459151 2.14631,-0.620348 4.19431,-1.697846 5.86505,-3.18842 1.59861,-1.404428 2.90509,-3.227366 3.7974,-5.25971 0.8923,-2.032343 1.37032,-4.273821 1.29961,-6.484434 -0.0699,-2.522928 -0.58243,-5.074687 -1.50894,-7.487742 -0.59282,-1.543942 -1.34832,-3.013333 -2.24747,-4.367933 -2.34882,-3.549125 -5.72233,-6.378101 -9.4649,-8.085631 -3.8991,-1.785134 -8.27363,-2.394551 -12.34788,-1.868195 -4.30406,0.550486 -8.35684,2.368087 -11.53727,4.963734 0,3e-6 0,4e-6 0,5e-6 -2.45738,2.00012 -4.42453,4.515179 -5.82014,7.210286 -1.39561,2.695107 -2.21966,5.570205 -2.44986,8.37884 -0.28417,3.320237 0.25036,6.593715 1.30929,9.487913 1.05892,2.894192 2.64253,5.410579 4.50843,7.407095 2.41416,2.623314 5.29036,4.399162 8.04427,5.607223 2.75391,1.208042 5.39359,1.850172 7.65201,2.201342 0,0 10e-6,0 10e-6,0 2.8129,0.43119 5.0664,0.44312 6.60735,0.45924 1.54098,0.0162 2.38376,0.044 2.43139,0.27118 0.0476,0.22708 -0.70411,0.64549 -2.25289,1.07215 -1.54878,0.42666 -3.90909,0.85656 -6.99836,0.80713 0,0 0,0 0,0 -2.49186,-0.0356 -5.47833,-0.40729 -8.71053,-1.49076 -3.2322,-1.08346 -6.71819,-2.88166 -9.87542,-5.819797 -2.41881,-2.280541 -4.53622,-5.208273 -6.02065,-8.667636 -1.48445,-3.459363 -2.33549,-7.452038 -2.15987,-11.66848 0.15809,-3.556146 1.03874,-7.195232 2.669,-10.633457 1.63026,-3.438226 4.0104,-6.675351 7.10324,-9.3386 0,-2e-6 1e-5,-4e-6 1e-5,-6e-6 3.98051,-3.421073 9.05133,-5.842604 14.61012,-6.660644 5.26363,-0.769331 10.86171,-0.07525 15.97666,2.197885 4.90451,2.185532 9.2613,5.787495 12.35653,10.424829 1.1807,1.772952 2.16697,3.681729 2.93688,5.685026 1.20331,3.130992 1.85645,6.437208 1.93772,9.741488 0.0692,3.283578 -0.62233,6.491647 -1.92174,9.383859 -1.29941,2.892219 -3.2065,5.468332 -5.57445,7.522355 -2.50251,2.14813 -5.4244,3.643714 -8.47164,4.467617 -3.04723,0.823891 -6.21954,0.976111 -9.26495,0.457801 -4.12601,-0.703647 -7.91135,-2.647164 -10.79224,-5.475902 -3.0466,-3.00271 -4.90035,-6.937315 -5.32493,-10.975093 -0.3511,-3.43176 0.38727,-6.82479 1.987,-9.674665 1.72158,-3.051874 4.40434,-5.326328 7.42651,-6.541543 1.65115,-0.658394 3.37074,-0.974656 5.04755,-0.984812 1.67681,-0.01015 3.31092,0.285739 4.81803,0.848263 1.68805,0.637228 3.15941,1.604379 4.35657,2.764197 1.19716,1.159819 2.12036,2.512416 2.74511,3.948213 0.65455,1.506589 0.95392,3.108234 0.90315,4.657647 -0.0564,1.702086 -0.58046,3.29451 -1.42643,4.604049 -0.95644,1.476309 -2.32277,2.505496 -3.76557,3.04319 -1.70535,0.630603 -3.42878,0.5008 -4.793,-0.055 0,0 0,0 0,-7e-6 -0.84022,-0.34999 -1.51659,-0.852024 -2.03721,-1.399176 -0.52061,-0.547153 -0.88627,-1.140066 -1.12776,-1.711235 -0.28084,-0.669791 -0.38815,-1.294463 -0.40821,-1.825758 -0.0201,-0.531302 0.0469,-0.970922 0.13876,-1.31024 0.18366,-0.67865 0.44029,-0.958665 0.58226,-0.921699 z" style="color:#000000;fill:url(#radialGradient5146);fill-opacity:1;fill-rule:nonzero;stroke:none;marker:none;visibility:visible;display:inline;overflow:visible"/>
      </g>
      <g style="font-size:32.23989868px;font-style:normal;font-variant:normal;font-weight:bold;font-stretch:normal;text-align:start;line-height:125%;text-anchor:start;color:#000000;fill:url(#radialGradient5148);fill-opacity:1;fill-rule:nonzero;stroke:none;stroke-width:1;marker:none;visibility:visible;display:inline;overflow:visible;font-family:Bitstream Vera Sans" id="text4355"/>
      <g style="font-size:32.23989868px;font-style:normal;font-variant:normal;font-weight:normal;font-stretch:normal;text-align:start;line-height:125%;text-anchor:start;fill:#ce5c00;fill-opacity:1;stroke:none;font-family:FreeSerif" id="text4359"/>
    </g>
    <g id="text4899" style="overflow: visible; marker: none; font-size: 20.9462px; font-style: normal; font-variant: normal; font-weight: normal; font-stretch: normal; text-align: start; line-height: 125%; text-anchor: start; color: rgb(0, 0, 0); fill: url(#radialGradient4931-7) rgb(0, 0, 0); fill-opacity: 1; fill-rule: nonzero; stroke: none; stroke-width: 0.67136; visibility: visible; display: inline; font-family: FreeSerif;"/>
    <path inkscape:export-ydpi="127.30378" inkscape:export-xdpi="127.30378" inkscape:export-filename="/home/valessio/projetos/debian/logos/debadaybr.png" inkscape:connector-curvature="0" d="m -53.594291,83.193233 2.21115,0 0,2.52703 c 0.67004,-1.05292 1.38795,-1.80911 2.15372,-2.26858 0.78491,-0.45945 1.73254,-0.68918 2.84291,-0.6892 1.45494,2e-5 2.61317,0.37333 3.47466,1.11994 0.86148,0.74664 1.29222,1.74213 1.29224,2.98649 l 0,11.37163 -2.38345,0 0,-10.424 c -2e-5,-0.89976 -0.2776,-1.61766 -0.83278,-2.15371 -0.55519,-0.53603 -1.31138,-0.80404 -2.26858,-0.80406 -1.22523,2e-5 -2.21115,0.46905 -2.95777,1.4071 -0.74663,0.91894 -1.11994,2.14415 -1.11993,3.67568 l 0,8.29899 -2.41217,0 0,-15.04731 m -15.84777,4.45102 c 0.11486,-3.25449 2.12499,-4.88175 6.03041,-4.88177 1.85696,2e-5 3.26406,0.35419 4.22128,1.0625 0.95719,0.68921 1.4358,1.70385 1.43582,3.04393 l 0,8.8446 c -2e-5,0.78492 0.43073,1.17737 1.29223,1.17737 0.17228,0 0.34458,-0.0192 0.51688,-0.0574 l 0,1.80912 c -0.67005,0.1723 -1.21565,0.25844 -1.63681,0.25844 -0.76579,0 -1.34968,-0.18186 -1.7517,-0.5456 -0.38289,-0.34459 -0.6222,-0.89978 -0.7179,-1.66554 -1.60812,1.4741 -3.31195,2.21114 -5.1115,2.21114 -1.51239,0 -2.71847,-0.40202 -3.61824,-1.20608 -0.88064,-0.80405 -1.32095,-1.88569 -1.32095,-3.24493 0,-0.44032 0.0383,-0.84234 0.11486,-1.20609 0.0957,-0.36372 0.19144,-0.6796 0.28717,-0.94763 0.11487,-0.28715 0.3063,-0.5456 0.57433,-0.77534 0.26801,-0.24887 0.48817,-0.44988 0.66047,-0.60304 0.19143,-0.15315 0.49774,-0.29673 0.91892,-0.43074 0.44031,-0.15314 0.77533,-0.25844 1.00506,-0.31589 0.22973,-0.0766 0.63175,-0.16271 1.20609,-0.25844 0.57432,-0.0957 0.99549,-0.16271 1.26351,-0.20102 0.26801,-0.0383 0.74662,-0.10528 1.43582,-0.201 0.93804,-0.11486 1.58895,-0.29673 1.95269,-0.54561 0.36374,-0.24887 0.54561,-0.62218 0.54562,-1.11994 l 0,-0.63176 c -10e-6,-0.72747 -0.29674,-1.28264 -0.89021,-1.66554 -0.57433,-0.38287 -1.39753,-0.57431 -2.4696,-0.57432 -1.11036,10e-6 -1.95271,0.22016 -2.52702,0.66047 -0.57433,0.42118 -0.90935,1.09124 -1.00507,2.01014 l -2.41216,0 m 4.79561,9.16048 c 1.32094,0 2.40258,-0.34459 3.24493,-1.03378 0.84233,-0.70833 1.26351,-1.46452 1.26352,-2.26859 l 0,-2.69932 c -0.47861,0.22973 -1.20609,0.42117 -2.18244,0.57432 -0.95721,0.15316 -1.78998,0.28717 -2.49831,0.40203 -0.70834,0.11487 -1.34967,0.39246 -1.92399,0.83277 -0.57433,0.42118 -0.86149,1.01464 -0.86149,1.78041 0,0.76577 0.25844,1.35923 0.77535,1.78041 0.51688,0.42117 1.24435,0.63175 2.18243,0.63175 m -8.74859,-13.43921 0,15.04732 -2.38344,0 0,-15.04732 2.38344,0 m 0,-6.059119 0,3.01521 -2.41216,0 0,-3.01521 2.41216,0 m -18.74139,0 2.38345,0 0,7.925679 c 1.09122,-1.64638 2.6419,-2.46958 4.65203,-2.4696 1.99099,2e-5 3.56081,0.70836 4.70947,2.12501 1.14863,1.41668 1.72296,3.34066 1.72297,5.77196 -1e-5,2.48875 -0.59348,4.48931 -1.78041,6.0017 -1.18695,1.49324 -2.7759,2.23986 -4.76689,2.23986 -2.04843,0 -3.6374,-0.86148 -4.76689,-2.58446 l 0,1.92399 -2.15373,0 0,-20.934139 m 6.57602,7.695949 c -1.26351,2e-5 -2.27816,0.53605 -3.04392,1.60811 -0.76577,1.05294 -1.14865,2.46004 -1.14865,4.22129 0,1.76127 0.38288,3.17793 1.14865,4.25 0.76576,1.05294 1.78041,1.5794 3.04392,1.5794 1.3018,0 2.35472,-0.52646 3.15879,-1.5794 0.82319,-1.07207 1.23479,-2.46001 1.2348,-4.16385 -1e-5,-1.79954 -0.40204,-3.23535 -1.20608,-4.30744 -0.78491,-1.07206 -1.84742,-1.60809 -3.18751,-1.60811 m -9.37988,6.51859 -11.084469,0 c 0.0192,1.37838 0.28715,2.45046 0.80405,3.21622 0.8232,1.30181 2.02927,1.95271 3.61825,1.95271 1.952689,0 3.264069,-1.00508 3.934119,-3.01521 l 2.41216,0 c -0.30631,1.64641 -1.02422,2.92906 -2.15371,3.84798 -1.12952,0.91891 -2.55576,1.37837 -4.278719,1.37837 -2.10586,0 -3.77141,-0.70833 -4.99663,-2.125 -1.22522,-1.43581 -1.83784,-3.38851 -1.83784,-5.85811 0,-2.4696 0.62218,-4.44144 1.86656,-5.91555 1.2635,-1.49323 2.93862,-2.23985 5.02534,-2.23987 1.41666,2e-5 2.661029,0.35419 3.733109,1.0625 1.0912,0.70836 1.87612,1.67514 2.35474,2.90035 0.402,1.05294 0.60302,2.65148 0.60304,4.79561 m -11.027039,-1.9527 8.442569,0 c 0.0191,-0.0383 0.0288,-0.0957 0.0288,-0.17229 -1e-5,-1.24437 -0.40204,-2.28773 -1.20608,-3.13008 -0.80406,-0.86147 -1.789989,-1.29222 -2.957769,-1.29223 -1.20609,10e-6 -2.20159,0.42118 -2.98649,1.26351 -0.78492,0.82321 -1.22523,1.93358 -1.32095,3.33109 m -21.90062,8.6723 0,-20.934139 8.06926,0 c 2.66103,2e-5 4.74774,0.92851 6.26015,2.78548 1.51236,1.856999 2.26855,4.412739 2.26858,7.667239 -3e-5,3.2545 -0.76579,5.81982 -2.2973,7.69595 -1.51241,1.85698 -3.58955,2.78547 -6.23143,2.78547 l -8.06926,0 m 2.67061,-2.35473 4.9392,0 c 2.06755,0 3.63738,-0.68919 4.70946,-2.06757 1.07206,-1.37838 1.60809,-3.38851 1.60811,-6.03041 -2e-5,-2.66103 -0.53605,-4.68073 -1.60811,-6.05912 -1.07208,-1.378369 -2.64191,-2.067549 -4.70946,-2.067579 l -4.9392,0 0,16.224679" style="font-size:40px;font-style:normal;font-variant:normal;font-weight:normal;font-stretch:normal;text-align:start;line-height:125%;text-anchor:start;fill:#a40000;fill-opacity:1;stroke:none;font-family:FreeSans" id="path3337"/>
    <path inkscape:export-ydpi="127.30378" inkscape:export-xdpi="127.30378" inkscape:export-filename="/home/valessio/projetos/debian/logos/debadaybr.png" inkscape:connector-curvature="0" d="m -69.736111,135.75673 0,-0.11487 -5.77197,-16.13853 4.4223,0 3.41724,11.28549 3.21621,-11.28549 4.13514,0 -6.375,18.34969 c -1e-5,0.0192 -0.0384,0.14357 -0.11487,0.3733 -0.0766,0.24887 -0.14358,0.4116 -0.20101,0.48818 -0.0384,0.0957 -0.11487,0.25844 -0.22973,0.48817 -0.0957,0.24887 -0.20102,0.42117 -0.31588,0.5169 -0.11487,0.11486 -0.26802,0.26802 -0.45946,0.45946 -0.19145,0.21058 -0.41161,0.36373 -0.66047,0.45945 -0.22974,0.11487 -0.49776,0.22973 -0.80406,0.3446 -0.30632,0.11485 -0.66048,0.19144 -1.0625,0.22973 -0.40203,0.0574 -0.84235,0.0861 -1.32095,0.0862 -0.42117,-1e-5 -0.89977,-0.0383 -1.43581,-0.11487 l 0,-3.01521 c 0.42117,0.11487 0.77534,0.17231 1.06251,0.17231 0.70832,0 1.30179,-0.24888 1.7804,-0.74662 0.4786,-0.49776 0.7179,-1.11037 0.71791,-1.83784 m -15.94066,-0.0862 c -1.41667,0 -2.55575,-0.42117 -3.41724,-1.26351 -0.86149,-0.86149 -1.29222,-1.99099 -1.29222,-3.38851 0,-2.73761 1.52196,-4.36486 4.56587,-4.88177 l 1.60811,-0.28716 c 0.0383,10e-6 0.22973,-0.019 0.57433,-0.0574 0.34459,-0.0574 0.56475,-0.0957 0.66048,-0.11486 0.0957,-0.0383 0.27757,-0.0861 0.5456,-0.14358 0.28716,-0.0574 0.48817,-0.12443 0.60304,-0.20101 0.11486,-0.0766 0.24888,-0.1723 0.40203,-0.28717 0.17229,-0.13399 0.28716,-0.27758 0.3446,-0.43074 0.0574,-0.17229 0.0861,-0.36373 0.0861,-0.57432 -1e-5,-1.03377 -0.77534,-1.55067 -2.32601,-1.55068 -0.9955,1e-5 -1.69426,0.15316 -2.09629,0.45946 -0.40203,0.30632 -0.6509,0.8615 -0.74662,1.66554 l -3.87669,0 c 0.24887,-3.57994 2.46003,-5.36992 6.63345,-5.36993 4.23085,1e-5 6.34628,1.58897 6.34629,4.76689 l 0,8.61487 c -10e-6,0.70834 0.3063,1.34009 0.91892,1.89528 l 0,0.48817 -4.36487,0 c -0.30631,-0.38288 -0.45946,-0.89978 -0.45946,-1.55067 -1.41667,1.47409 -2.9865,2.21114 -4.70946,2.21114 m 4.68074,-6.89189 0,-1.09122 c -0.36375,0.1723 -0.92849,0.33504 -1.69425,0.48818 l -1.37838,0.25844 c -0.84235,0.17231 -1.43582,0.42118 -1.78041,0.74662 -0.3446,0.32546 -0.51689,0.78492 -0.51689,1.37838 0,0.57434 0.19144,1.03379 0.57433,1.37838 0.40202,0.32546 0.93805,0.48818 1.6081,0.48818 1.01464,0 1.79955,-0.31588 2.35473,-0.94764 0.55517,-0.63175 0.83276,-1.53153 0.83277,-2.69932 m -28.174219,6.23142 0,-20.93414 8.18412,0 c 1.608109,2e-5 2.929059,0.19147 3.962849,0.57433 1.05291,0.3829 1.93355,0.9955 2.64189,1.83783 1.70382,2.0293 2.55573,4.70948 2.55575,8.04055 -2e-5,3.36938 -0.85193,6.04956 -2.55575,8.04055 -1.35924,1.62726 -3.56082,2.44088 -6.604739,2.44088 l -8.18412,0 m 4.30744,-3.58953 3.87668,0 c 3.235349,10e-6 4.853039,-2.28773 4.853059,-6.86318 -2e-5,-4.59458 -1.61771,-6.89189 -4.853059,-6.89191 l -3.87668,0 0,13.75509" style="font-size:40px;font-style:normal;font-variant:normal;font-weight:bold;font-stretch:normal;text-align:start;line-height:125%;text-anchor:start;fill:#f57900;fill-opacity:1;stroke:none;font-family:FreeSans" id="path3343"/>
    <text inkscape:export-ydpi="127.30378" inkscape:export-xdpi="127.30378" inkscape:export-filename="/home/valessio/projetos/debian/logos/debadaybr.png" sodipodi:linespacing="125%" xml:space="preserve" style="font-size:9.59928322px;font-style:normal;font-variant:normal;font-weight:normal;font-stretch:normal;text-indent:0pt;text-align:start;text-decoration:none;line-height:125%;letter-spacing:normal;word-spacing:normal;text-transform:none;direction:ltr;text-anchor:start;color:#000000;fill:#204a87;fill-opacity:1;fill-rule:nonzero;stroke:none;marker:none;visibility:visible;display:inline;overflow:visible;font-family:FreeSans" x="-120.20199" y="176.12492" id="text3283"><tspan style="font-size:9.59928322px;font-style:normal;font-variant:normal;font-weight:normal;font-stretch:normal;text-indent:0pt;text-align:start;text-decoration:none;line-height:125%;letter-spacing:normal;word-spacing:normal;text-transform:none;direction:ltr;text-anchor:start;color:#000000;fill:#204a87;fill-opacity:1;fill-rule:nonzero;stroke:none;marker:none;visibility:visible;display:inline;overflow:visible;font-family:FreeSans" sodipodi:role="line" id="tspan3285" x="-120.20199" y="176.12492">Salvador - Bahia</tspan></text>
    <g id="g4440" transform="matrix(0.11441459,0.0306573,-0.0306573,0.11441459,-78.021311,203.92468)">
      <g id="layer1-8" inkscape:label="dessin" transform="matrix(3.9026442,0,0,3.9026442,-912.2822,-112.24269)">
        <g id="g3439" transform="matrix(1.82465,0,0,1.82465,-180.72,-66.3881)">
          <g transform="matrix(0.93373714,0,0,1.01921,68.606599,-13.774)" id="g3208">
            <rect rx="1.5602947" style="fill:#694c30;fill-opacity:1;stroke:none" id="rect2221" width="48" height="48" x="146" y="70.362183" ry="1.497883"/>
            <rect rx="1.5602947" style="fill:url(#linearGradient5114);fill-opacity:1;stroke:none" id="rect3194" width="48" height="48" x="145" y="69.362183" ry="1.497883"/>
          </g>
          <g id="g3432">
            <g id="g6203" transform="matrix(1,0,0,0.998828,29.2585,-13.929)">
              <rect y="73.295921" x="176.95793" height="15.400001" width="41.400002" id="rect3212" style="fill:url(#linearGradient5116);fill-opacity:1;stroke:url(#linearGradient5118);stroke-width:0.60000002;stroke-linecap:round;stroke-linejoin:miter;stroke-miterlimit:4;stroke-opacity:1;stroke-dasharray:none;stroke-dashoffset:0"/>
              <path inkscape:connector-curvature="0" sodipodi:nodetypes="ccccccc" id="rect5193" d="m 177.05178,73.952463 -0.11428,14.573223 c 0.3187,0.03338 41.16242,-4.5e-4 41.27807,0 0.0951,3.7e-4 0.0969,-0.70051 0.0344,-2.625 -10.58227,-0.12524 -14.14189,-2.36127 -18.875,-4.4375 -4.28508,-1.73595 -13.47157,-0.0836 -17.8125,-1.3125 -3.18845,-1.33576 -2.96938,-2.638913 -4.51072,-6.198223 z" style="fill:url(#linearGradient5120);fill-opacity:1;stroke:none"/>
            </g>
          </g>
          <g id="g3416">
            <g id="g3403">
              <g id="g3392">
                <rect style="fill:url(#radialGradient5122);fill-opacity:1;stroke:#afa497;stroke-width:0.599648;stroke-linecap:round;stroke-linejoin:miter;stroke-miterlimit:4;stroke-opacity:1;stroke-dasharray:none;stroke-dashoffset:0" id="rect3214" width="41.400002" height="29.365538" x="206.17499" y="75.136406"/>
                <g id="g11086" transform="matrix(1,0,0,0.998828,-20.8814,-12.4458)">
                  <path inkscape:connector-curvature="0" id="path9134" d="m 227.37902,90.87374 41.18897,0" style="fill:none;stroke:#c60002;stroke-width:1px;stroke-linecap:butt;stroke-linejoin:miter;stroke-opacity:0.10135103"/>
                  <path inkscape:connector-curvature="0" id="path9136" d="m 227.37902,94.880683 41.18897,0" style="fill:none;stroke:#c60002;stroke-width:1px;stroke-linecap:butt;stroke-linejoin:miter;stroke-opacity:0.10135103"/>
                  <path inkscape:connector-curvature="0" id="path9138" d="m 227.37902,114.91537 41.18897,0" style="fill:none;stroke:#c60002;stroke-width:1px;stroke-linecap:butt;stroke-linejoin:miter;stroke-opacity:0.10135103"/>
                  <path inkscape:connector-curvature="0" id="path9140" d="m 227.37902,110.90842 41.18897,0" style="fill:none;stroke:#c60002;stroke-width:1px;stroke-linecap:butt;stroke-linejoin:miter;stroke-opacity:0.10135103"/>
                  <path inkscape:connector-curvature="0" id="path9142" d="m 227.37902,106.9015 41.18897,0" style="fill:none;stroke:#c60002;stroke-width:1px;stroke-linecap:butt;stroke-linejoin:miter;stroke-opacity:0.10135103"/>
                  <path inkscape:connector-curvature="0" id="path9144" d="m 227.37902,102.89455 41.18897,0" style="fill:none;stroke:#c60002;stroke-width:1px;stroke-linecap:butt;stroke-linejoin:miter;stroke-opacity:0.10135103"/>
                  <path inkscape:connector-curvature="0" id="path9146" d="m 227.37902,98.887607 41.18897,0" style="fill:none;stroke:#c60002;stroke-width:1px;stroke-linecap:butt;stroke-linejoin:miter;stroke-opacity:0.10135103"/>
                </g>
              </g>
            </g>
          </g>
          <g transform="matrix(1,0,0,0.998828,29.7816,-12.546)" id="g16973">
            <rect style="fill:url(#linearGradient5124);fill-opacity:1;stroke:url(#linearGradient5126);stroke-width:0.66600001;stroke-linecap:round;stroke-linejoin:miter;stroke-miterlimit:4;stroke-opacity:1;stroke-dasharray:none;stroke-dashoffset:0" id="rect14987" width="2.8585947" height="11.397371" x="180.62552" y="65.818001" ry="2.2433741" rx="1.4292973"/>
            <rect style="fill:url(#linearGradient5128);fill-opacity:1;stroke:url(#linearGradient5130);stroke-width:0.66600001;stroke-linecap:round;stroke-linejoin:miter;stroke-miterlimit:4;stroke-opacity:1;stroke-dasharray:none;stroke-dashoffset:0" id="rect15974" width="2.8585947" height="11.397371" x="188.14482" y="65.818001" ry="2.2433741" rx="1.4292973"/>
            <rect style="fill:url(#linearGradient5132);fill-opacity:1;stroke:url(#linearGradient5134);stroke-width:0.66600001;stroke-linecap:round;stroke-linejoin:miter;stroke-miterlimit:4;stroke-opacity:1;stroke-dasharray:none;stroke-dashoffset:0" id="rect15980" width="2.8585947" height="11.397371" x="195.66412" y="65.818001" ry="2.2433741" rx="1.4292973"/>
            <rect style="fill:url(#linearGradient5136);fill-opacity:1;stroke:url(#linearGradient5138);stroke-width:0.66600001;stroke-linecap:round;stroke-linejoin:miter;stroke-miterlimit:4;stroke-opacity:1;stroke-dasharray:none;stroke-dashoffset:0" id="rect15986" width="2.8585947" height="11.397371" x="203.18344" y="65.818001" ry="2.2433741" rx="1.4292973"/>
            <rect style="fill:url(#linearGradient5140);fill-opacity:1;stroke:url(#linearGradient5142);stroke-width:0.66600001;stroke-linecap:round;stroke-linejoin:miter;stroke-miterlimit:4;stroke-opacity:1;stroke-dasharray:none;stroke-dashoffset:0" id="rect15992" width="2.8585947" height="11.397371" x="210.70273" y="65.818001" ry="2.2433741" rx="1.4292973"/>
          </g>
        </g>
      </g>
      <text xml:space="preserve" style="font-size:169.1716156px;font-style:normal;font-weight:normal;line-height:125%;letter-spacing:0;word-spacing:0;fill:#000000;fill-opacity:1;stroke:none;font-family:Bitstream Vera Sans" x="-118.57982" y="329.22147" id="text3068" sodipodi:linespacing="125%"><tspan y="329.22147" x="-118.57982" style="font-weight:bold;fill:#000000;fill-opacity:1" sodipodi:role="line" id="tspan3168">14</tspan></text>
      <text xml:space="preserve" style="font-size:57.28527832px;font-style:normal;font-variant:normal;font-weight:bold;font-stretch:normal;text-indent:0;text-align:start;text-decoration:none;line-height:125%;letter-spacing:0;word-spacing:0;text-transform:none;direction:ltr;block-progression:tb;writing-mode:lr-tb;text-anchor:start;baseline-shift:baseline;color:#000000;fill:#eeeeec;fill-opacity:1;fill-rule:nonzero;stroke:none;marker:none;visibility:visible;display:inline;overflow:visible;enable-background:accumulate;font-family:Bitstream Vera Sans;-inkscape-font-specification:Sans" x="-136.19313" y="142.3676" id="text3170" sodipodi:linespacing="125%"><tspan y="142.3676" x="-136.19313" sodipodi:role="line" id="tspan3172">Ago <tspan style="font-size:44.63062286px" id="tspan4531">2010</tspan></tspan></text>
    </g>
    <text id="text4533" y="156.86313" x="-145.87402" style="font-size:9.51284409px;font-style:normal;font-variant:normal;font-weight:normal;font-stretch:normal;text-indent:0pt;text-align:start;text-decoration:none;line-height:125%;letter-spacing:normal;word-spacing:normal;text-transform:none;direction:ltr;text-anchor:start;color:#000000;fill:#204a87;fill-opacity:1;fill-rule:nonzero;stroke:none;marker:none;visibility:visible;display:inline;overflow:visible;font-family:FreeSans" xml:space="preserve" sodipodi:linespacing="125%" inkscape:export-filename="/home/valessio/projetos/debian/logos/debadaybr.png" inkscape:export-xdpi="127.30378" inkscape:export-ydpi="127.30378"><tspan y="156.86313" x="-145.87402" id="tspan4535" sodipodi:role="line" style="font-size:9.51284409px;font-style:normal;font-variant:normal;font-weight:normal;font-stretch:normal;text-indent:0pt;text-align:start;text-decoration:none;line-height:125%;letter-spacing:normal;word-spacing:normal;text-transform:none;direction:ltr;text-anchor:start;color:#000000;fill:#204a87;fill-opacity:1;fill-rule:nonzero;stroke:none;marker:none;visibility:visible;display:inline;overflow:visible;font-family:FreeSans"><tspan style="font-weight:bold;fill:#204a87" id="tspan4539">Sala 151, IM-UFBA</tspan> - Ondina</tspan></text>
    <use x="0" y="0" xlink:href="#g4469" id="use4999" transform="matrix(1.8746652,0,0,1.8746652,236.8747,17.679382)" width="744.09448" height="1052.3622"/>
    <use x="0" y="0" xlink:href="#path3337" id="use5001" transform="matrix(1.8746652,0,0,1.8746652,343.2722,-16.785919)" width="744.09448" height="1052.3622"/>
    <use x="0" y="0" xlink:href="#path3343" id="use5003" transform="matrix(1.8746652,0,0,1.8746652,477.80117,-85.716519)" width="744.09448" height="1052.3622"/>
    <use x="0" y="0" xlink:href="#text3283" id="use5005" transform="matrix(1.8746652,0,0,1.8746652,328.41092,-114.87946)" width="744.09448" height="1052.3622"/>
    <use x="0" y="0" xlink:href="#g4440" id="use5007" transform="matrix(1.8746652,0,0,1.8746652,572.91201,-252.74067)" width="744.09448" height="1052.3622"/>
    <use x="0" y="0" xlink:href="#text4533" id="use5009" transform="matrix(1.8746652,0,0,1.8746652,376.54257,-102.26686)" width="744.09448" height="1052.3622"/>
    <rect y="327.64099" x="66.580086" height="221.82469" width="445.87344" id="rect5152" style="color:#000000;fill:#ffffff;fill-opacity:1;fill-rule:nonzero;stroke:none;stroke-width:2.22407793999999992;marker:none;visibility:visible;display:inline;overflow:visible;enable-background:accumulate"/>
    <use x="0" y="0" xlink:href="#g4469" id="use5184" transform="matrix(4.9642509,0,0,4.9642509,513.95407,157.24553)" width="744.09448" height="1052.3622"/>
    <use x="0" y="0" xlink:href="#path3337" id="use5186" transform="matrix(2.1382303,0,0,2.1382303,469.64063,179.29384)" width="744.09448" height="1052.3622"/>
    <use x="0" y="0" xlink:href="#path3343" id="use5188" transform="matrix(2.1382303,0,0,2.1382303,622.54128,101.09629)" width="744.09448" height="1052.3622"/>
    <use x="0" y="0" xlink:href="#text3283" id="use5190" transform="matrix(3.1715845,0,0,3.1715845,482.94615,-30.03078)" width="744.09448" height="1052.3622"/>
    <use x="0" y="0" xlink:href="#text4533" id="use5194" transform="matrix(3.5893589,0,0,3.5893589,596.84992,-77.45005)" width="744.09448" height="1052.3622"/>
    <use x="0" y="0" xlink:href="#g4440" id="use5192" transform="matrix(3.4600089,0,0,3.4600089,743.37986,-309.85506)" width="744.09448" height="1052.3622"/>
    <rect y="705.27454" x="301.06326" height="200" width="200" id="rect5152-6" style="color:#000000;fill:#ffffff;fill-opacity:1;fill-rule:nonzero;stroke:none;stroke-width:2.22407793999999992;marker:none;visibility:visible;display:inline;overflow:visible;enable-background:accumulate"/>
    <use x="0" y="0" xlink:href="#g4469" id="use5214" transform="matrix(3.5163688,0,0,3.5163688,697.24651,569.90984)" width="744.09448" height="1052.3622"/>
    <g id="g5236" transform="matrix(0.40800563,0,0,0.40800563,337.01063,470.713)">
      <use height="1052.3622" width="744.09448" transform="matrix(2.9846052,0,0,2.9846052,327.5985,552.57725)" id="use5216" xlink:href="#path3337" y="0" x="0"/>
      <use height="1052.3622" width="744.09448" transform="matrix(2.9846052,0,0,2.9846052,546.5985,443.57725)" id="use5218" xlink:href="#path3343" y="0" x="0"/>
    </g>
    <use x="0" y="0" xlink:href="#text3283" id="use5220" transform="matrix(1.3416218,0,0,1.3416218,474.90622,639.75645)" width="744.09448" height="1052.3622"/>
    <use x="0" y="0" xlink:href="#text4533" id="use5224" transform="matrix(1.5836333,0,0,1.5836333,543.95927,598.40844)" width="744.09448" height="1052.3622"/>
    <text xml:space="preserve" style="font-size:28.18102646px;font-style:normal;font-weight:normal;line-height:125%;letter-spacing:0;word-spacing:0;fill:#000000;fill-opacity:1;stroke:none;font-family:Bitstream Vera Sans" x="-437.33636" y="55.382534" id="text5226" sodipodi:linespacing="125%"><tspan sodipodi:role="line" id="tspan5228" x="-437.33636" y="55.382534">Para Alterar o texto</tspan><tspan sodipodi:role="line" x="-437.33636" y="90.608818" id="tspan5230">utilize esses aqui:</tspan><tspan sodipodi:role="line" x="-437.33636" y="125.8351" id="tspan5232">O resto  clone.</tspan></text>
    <rect style="color:#000000;fill:#ffffff;fill-opacity:1;fill-rule:nonzero;stroke:none;stroke-width:2.22407794;marker:none;visibility:visible;display:inline;overflow:visible;enable-background:accumulate" id="rect5240" width="70" height="24" x="449.06326" y="833.27454"/>
    <use x="0" y="0" xlink:href="#g4440" id="use5222" transform="matrix(1.6149125,0,0,1.6149125,608.60999,503.32925)" width="744.09448" height="1052.3622"/>
  </g>
</svg>