<?xml version="1.0" encoding="UTF-8" standalone="no"?>
<!-- Created with Inkscape (http://www.inkscape.org/) -->

<svg
   xmlns:dc="http://purl.org/dc/elements/1.1/"
   xmlns:cc="http://creativecommons.org/ns#"
   xmlns:rdf="http://www.w3.org/1999/02/22-rdf-syntax-ns#"
   xmlns:svg="http://www.w3.org/2000/svg"
   xmlns="http://www.w3.org/2000/svg"
   xmlns:sodipodi="http://sodipodi.sourceforge.net/DTD/sodipodi-0.dtd"
   xmlns:inkscape="http://www.inkscape.org/namespaces/inkscape"
   width="210mm"
   height="297mm"
   id="svg6303"
   version="1.1"
   inkscape:version="0.48.4 r9939"
   sodipodi:docname="Novo documento 29">
  <defs
     id="defs6305" />
  <sodipodi:namedview
     id="base"
     pagecolor="#ffffff"
     bordercolor="#666666"
     borderopacity="1.0"
     inkscape:pageopacity="0.0"
     inkscape:pageshadow="2"
     inkscape:zoom="0.35"
     inkscape:cx="350"
     inkscape:cy="520"
     inkscape:document-units="px"
     inkscape:current-layer="layer1"
     showgrid="false"
     inkscape:window-width="1280"
     inkscape:window-height="972"
     inkscape:window-x="0"
     inkscape:window-y="25"
     inkscape:window-maximized="1" />
  <metadata
     id="metadata6308">
    <rdf:RDF>
      <cc:Work
         rdf:about="">
        <dc:format>image/svg+xml</dc:format>
        <dc:type
           rdf:resource="http://purl.org/dc/dcmitype/StillImage" />
        <dc:title></dc:title>
      </cc:Work>
    </rdf:RDF>
  </metadata>
  <g
     inkscape:label="Camada 1"
     inkscape:groupmode="layer"
     id="layer1">
    <text
       xml:space="preserve"
       style="font-size:40px;font-style:normal;font-variant:normal;font-weight:normal;font-stretch:normal;line-height:125%;letter-spacing:0px;word-spacing:0px;fill:#000000;fill-opacity:1;stroke:none;font-family:Droid Sans;-inkscape-font-specification:Droid Sans"
       x="64.450356"
       y="120.93502"
       id="text6035"
       sodipodi:linespacing="125%"><tspan
         sodipodi:role="line"
         id="tspan6037"
         x="64.450356"
         y="120.93502">NA CAMISA</tspan></text>
    <text
       xml:space="preserve"
       style="font-size:40px;font-style:normal;font-variant:normal;font-weight:normal;font-stretch:normal;line-height:125%;letter-spacing:0px;word-spacing:0px;fill:#000000;fill-opacity:1;stroke:none;font-family:Droid Sans;-inkscape-font-specification:Droid Sans"
       x="64.450356"
       y="480.93503"
       id="text6039"
       sodipodi:linespacing="125%"><tspan
         sodipodi:role="line"
         id="tspan6041"
         x="64.450356"
         y="480.93503">GRANDE</tspan></text>
    <g
       id="g23237"
       transform="matrix(0.68305235,0,0,-0.68305235,-242.1083,349.3357)">
      <path
         inkscape:connector-curvature="0"
         d="m 551.0259,171.9173 c -3.2145,-0.7889 -5.6486,-2.1444 -7.4455,-3.9645 -2.5129,-0.114 -3.9733,2.3575 -1.8858,6.442 0.5178,1.0142 1.2101,2.1305 2.3694,2.9372 5.8238,4.0533 11.363,8.1445 4.2546,12.2803 4.4963,-0.7869 6.8499,-4.9187 4.1093,-9.8147 -2.5645,-3.1859 -3.8667,-6.3703 -1.402,-7.8803"
         style="fill:#ed1c24;fill-opacity:1;fill-rule:evenodd;stroke:none"
         id="path22035" />
      <path
         inkscape:connector-curvature="0"
         d="m 557.6734,180.9337 c -1.4989,-0.2236 -2.7558,-0.663 -4.2545,-1.4017 0.8586,0.9346 1.1245,1.8694 1.2087,2.804 2.2573,0.9389 2.9004,2.3967 1.5472,4.4963 1.2367,-0.7511 1.6273,-2.1551 1.6118,-4.1584 -0.004,-0.5303 -0.009,-1.1095 -0.1132,-1.7402"
         style="fill:#f47216;fill-opacity:1;fill-rule:evenodd;stroke:none"
         id="path22037" />
      <path
         inkscape:connector-curvature="0"
         d="m 560.4602,171.6582 c -3.1813,0.9128 -5.9675,0.9456 -8.4308,0.2582 -2.2377,1.1503 -2.2771,4.0207 1.5636,6.5285 0.9536,0.6225 2.1084,1.2473 3.5158,1.3714 7.0679,0.6245 13.9076,1.423 9.7931,8.5434 3.5116,-2.916 3.5011,-7.6712 -1.3093,-10.5591 -3.8089,-1.491 -6.5211,-3.6077 -5.1324,-6.1424"
         style="fill:#ed1c24;fill-opacity:1;fill-rule:evenodd;stroke:none"
         id="path22039" />
      <path
         inkscape:connector-curvature="0"
         d="m 570.7091,176.1806 c -1.4116,0.5508 -2.7209,0.794 -4.3886,0.8969 1.2093,0.3846 1.9049,1.0638 2.4418,1.8331 2.4256,-0.3061 3.708,0.639 3.5765,3.1332 0.7004,-1.266 0.3418,-2.6785 -0.667,-4.4096 -0.2668,-0.4581 -0.5587,-0.9584 -0.9627,-1.4536"
         style="fill:#f47216;fill-opacity:1;fill-rule:evenodd;stroke:none"
         id="path22041" />
      <path
         inkscape:connector-curvature="0"
         d="m 568.5228,166.7424 c -2.3069,2.3734 -4.7081,3.787 -7.1873,4.4152 -1.37,2.1101 0.0224,4.6202 4.6018,4.8869 1.137,0.0664 2.4494,0.0343 3.7327,-0.5573 6.4431,-2.9715 12.7751,-5.6786 12.7442,2.5453 1.5971,-4.2758 -0.7755,-8.3965 -6.385,-8.5111 -4.0459,0.5996 -7.4514,0.1109 -7.5064,-2.779"
         style="fill:#ed1c24;fill-opacity:1;fill-rule:evenodd;stroke:none"
         id="path22043" />
      <path
         inkscape:connector-curvature="0"
         d="m 579.6638,165.5719 c -0.9508,1.1798 -1.9664,2.0415 -3.3625,2.96 1.2407,-0.2676 2.1816,-0.0238 3.0303,0.3764 1.9522,-1.4706 3.535,-1.2883 4.661,0.9414 -0.0219,-1.4468 -1.035,-2.4942 -2.7709,-3.4948 -0.4592,-0.2645 -0.9612,-0.5536 -1.5579,-0.783"
         style="fill:#f47216;fill-opacity:1;fill-rule:evenodd;stroke:none"
         id="path22045" />
      <path
         inkscape:connector-curvature="0"
         d="m 573.0976,158.3776 c -0.8056,3.2105 -2.1742,5.6378 -4.0039,7.4245 -0.1267,2.5124 2.3366,3.9858 6.4323,1.9202 1.0168,-0.5131 2.1365,-1.1988 2.9495,-2.3542 4.0844,-5.8022 8.2049,-11.3201 12.3024,-4.1893 -0.7626,-4.5003 -4.8819,-6.8757 -9.7923,-4.1615 -3.2001,2.5477 -6.3913,3.833 -7.888,1.3603"
         style="fill:#ed1c24;fill-opacity:1;fill-rule:evenodd;stroke:none"
         id="path22047" />
      <path
         inkscape:connector-curvature="0"
         d="m 582.1495,151.778 c -0.2316,1.4975 -0.6775,2.7521 -1.4244,4.2469 0.9388,-0.8536 1.8748,-1.1146 2.8102,-1.1937 0.9508,-2.2516 2.412,-2.8877 4.5043,-1.5234 -0.7447,-1.241 -2.1461,-1.6389 -4.1499,-1.6336 -0.5298,9e-4 -1.1092,0.002 -1.7402,0.1038"
         style="fill:#f47216;fill-opacity:1;fill-rule:evenodd;stroke:none"
         id="path22049" />
      <path
         inkscape:connector-curvature="0"
         d="m 572.8805,148.915 c 0.9008,3.1844 0.9232,5.9712 0.227,8.4314 1.1415,2.2422 4.0119,2.2923 6.5336,-1.5393 0.6262,-0.9507 1.2555,-2.1035 1.385,-3.5101 0.6506,-7.0659 1.4746,-13.9028 8.5799,-9.7614 -2.9029,-3.522 -7.6581,-3.53 -10.5639,1.2702 -1.5052,3.803 -3.632,6.5072 -6.1616,5.1092"
         style="fill:#ed1c24;fill-opacity:1;fill-rule:evenodd;stroke:none"
         id="path22051" />
      <path
         inkscape:connector-curvature="0"
         d="m 577.4411,138.6828 c 0.5457,1.4139 0.7838,2.7238 0.8805,4.392 0.3892,-1.2079 1.0709,-1.9004 1.8422,-2.435 -0.2968,-2.4262 0.6528,-3.7057 3.1468,-3.5648 -1.2637,-0.705 -2.6774,-0.3521 -4.4119,0.6505 -0.4592,0.2653 -0.9604,0.5553 -1.4576,0.9573"
         style="fill:#f47216;fill-opacity:1;fill-rule:evenodd;stroke:none"
         id="path22053" />
      <path
         inkscape:connector-curvature="0"
         d="m 567.8396,140.686 c 2.3916,2.2879 3.8242,4.6777 4.472,7.1518 2.1208,1.353 4.6201,-0.0592 4.8503,-4.6406 0.0573,-1.1372 0.0148,-2.4497 -0.5873,-3.7278 -3.0226,-6.4196 -5.7801,-12.7298 2.4437,-12.7641 -4.2882,-1.5636 -8.39,0.8418 -8.46,6.4522 0.6319,4.0411 0.1704,7.4503 -2.7187,7.5285"
         style="fill:#ed1c24;fill-opacity:1;fill-rule:evenodd;stroke:none"
         id="path22055" />
      <path
         inkscape:connector-curvature="0"
         d="m 566.5805,129.5546 c 1.1871,0.9417 2.0568,1.9494 2.9866,3.3387 -0.2776,-1.2387 -0.0414,-2.1813 0.3526,-3.0331 -1.4868,-1.9403 -1.317,-3.5246 0.9037,-4.6684 -1.4465,0.0329 -2.486,1.0548 -3.4725,2.7987 -0.2613,0.4615 -0.5462,0.9658 -0.7704,1.5641"
         style="fill:#f47216;fill-opacity:1;fill-rule:evenodd;stroke:none"
         id="path22057" />
      <path
         inkscape:connector-curvature="0"
         d="m 559.4666,136.184 c 3.2154,0.7855 5.6512,2.1385 7.4498,3.9566 2.5132,0.1111 3.971,-2.3621 1.8791,-6.4443 -0.5196,-1.0136 -1.2127,-2.1288 -2.3732,-2.9344 -5.8283,-4.0473 -11.372,-8.1323 -4.2681,-12.2754 -4.4952,0.7914 -6.844,4.9258 -4.0984,9.8189 2.5679,3.1836 3.8736,6.3663 1.4108,7.8786"
         style="fill:#ed1c24;fill-opacity:1;fill-rule:evenodd;stroke:none"
         id="path22059" />
      <path
         inkscape:connector-curvature="0"
         d="m 552.8089,127.1747 c 1.499,0.2219 2.7564,0.6602 4.256,1.3977 -0.8595,-0.9337 -1.1268,-1.8683 -1.2119,-2.8026 -2.2575,-0.9368 -2.9029,-2.3935 -1.5519,-4.4946 -1.2359,0.7523 -1.6248,2.1566 -1.6076,4.1601 0.005,0.5301 0.0105,1.1095 0.1154,1.7394"
         style="fill:#f47216;fill-opacity:1;fill-rule:evenodd;stroke:none"
         id="path22061" />
      <path
         inkscape:connector-curvature="0"
         d="m 550.046,136.4496 c 3.1816,-0.9139 5.9678,-0.9473 8.4314,-0.261 2.2371,-1.1509 2.2759,-4.021 -1.5662,-6.5277 -0.9536,-0.6219 -2.1087,-1.2466 -3.5161,-1.3702 -7.0685,-0.6222 -13.9085,-1.4185 -9.796,-8.5405 -3.5104,2.9174 -3.4985,7.6725 1.3133,10.5587 3.809,1.4899 6.5217,3.6054 5.1336,6.1407"
         style="fill:#ed1c24;fill-opacity:1;fill-rule:evenodd;stroke:none"
         id="path22063" />
      <path
         inkscape:connector-curvature="0"
         d="m 539.7959,131.9306 c 1.4117,-0.5513 2.7207,-0.7945 4.3886,-0.8983 -1.2095,-0.3846 -1.9052,-1.0632 -2.4426,-1.8323 -2.425,0.3067 -3.7083,-0.6378 -3.5779,-3.1325 -0.6999,1.2668 -0.3407,2.679 0.6687,4.4098 0.2673,0.4578 0.5593,0.9581 0.9632,1.4533"
         style="fill:#f47216;fill-opacity:1;fill-rule:evenodd;stroke:none"
         id="path22065" />
      <path
         inkscape:connector-curvature="0"
         d="m 541.906,141.4517 c 2.291,-2.3885 4.6829,-3.8177 7.1578,-4.4623 1.3561,-2.1189 -0.053,-4.6202 -4.6341,-4.8566 -1.137,-0.0587 -2.4494,-0.0182 -3.7284,0.5819 -6.4239,3.0141 -12.7375,5.7628 -12.7613,-2.461 -1.5684,4.286 0.8311,8.3914 6.4414,8.4688 4.042,-0.6265 7.4506,-0.1599 7.5246,2.7292"
         style="fill:#ed1c24;fill-opacity:1;fill-rule:evenodd;stroke:none"
         id="path22067" />
      <path
         inkscape:connector-curvature="0"
         d="m 530.7729,142.6958 c 0.9434,-1.1858 1.9528,-2.0543 3.3427,-2.9824 -1.2388,0.2761 -2.181,0.0386 -3.0325,-0.3563 -1.9423,1.4837 -3.5263,1.3119 -4.667,-0.9105 0.0312,1.4468 1.0511,2.4874 2.7938,3.4767 0.4609,0.2617 0.9649,0.5474 1.563,0.7725"
         style="fill:#f47216;fill-opacity:1;fill-rule:evenodd;stroke:none"
         id="path22069" />
      <path
         inkscape:connector-curvature="0"
         d="m 537.3828,149.8618 c 0.7818,-3.2168 2.1325,-5.654 3.9483,-7.454 0.1083,-2.5135 -2.3663,-3.9685 -6.4462,-1.8723 -1.0131,0.5204 -2.1271,1.2149 -2.9316,2.3763 -4.0411,5.8323 -8.1201,11.3805 -12.2712,4.2809 0.796,4.4943 4.9331,6.8391 9.8232,4.0881 3.1807,-2.5719 6.3624,-3.8804 7.8775,-1.419"
         style="fill:#ed1c24;fill-opacity:1;fill-rule:evenodd;stroke:none"
         id="path22071" />
      <path
         inkscape:connector-curvature="0"
         d="m 528.3805,156.5289 c 0.2205,-1.4993 0.6571,-2.7573 1.3929,-4.2574 -0.9331,0.8603 -1.8668,1.1285 -2.8014,1.2141 -0.9343,2.2589 -2.3905,2.9061 -4.4927,1.5573 0.7535,1.2354 2.1581,1.6229 4.1619,1.6027 0.5298,-0.005 1.1092,-0.011 1.7393,-0.1167"
         style="fill:#f47216;fill-opacity:1;fill-rule:evenodd;stroke:none"
         id="path22073" />
      <path
         inkscape:connector-curvature="0"
         d="m 537.6742,159.3351 c -0.9267,-3.1776 -0.9717,-5.9635 -0.296,-8.4299 -1.1596,-2.2326 -4.03,-2.2595 -6.5208,1.5928 -0.6185,0.9561 -1.2379,2.1135 -1.3561,3.5209 -0.593,7.0713 -1.3615,13.9147 -8.5002,9.8314 2.9321,3.4985 7.6872,3.4671 10.5531,-1.3564 1.4743,-3.8151 3.579,-6.5364 6.12,-5.1588"
         style="fill:#ed1c24;fill-opacity:1;fill-rule:evenodd;stroke:none"
         id="path22075" />
      <path
         inkscape:connector-curvature="0"
         d="m 533.1971,169.6034 c -0.557,-1.4088 -0.8059,-2.717 -0.9164,-4.3847 -0.3793,1.2113 -1.0553,1.9092 -1.8221,2.4503 0.3166,2.4236 -0.6225,3.7108 -3.1176,3.5904 1.2694,0.6947 2.6802,0.3299 4.4065,-0.6866 0.4569,-0.2693 0.9561,-0.5629 1.4496,-0.9694"
         style="fill:#f47216;fill-opacity:1;fill-rule:evenodd;stroke:none"
         id="path22077" />
      <path
         inkscape:connector-curvature="0"
         d="m 542.679,167.4264 c -2.393,-2.2873 -3.8265,-4.6764 -4.4753,-7.1501 -2.1217,-1.3519 -4.6202,0.0615 -4.8484,4.6428 -0.0564,1.1376 -0.0136,2.4497 0.5888,3.7276 3.0257,6.4185 5.786,12.7273 -2.4378,12.7655 4.2891,1.5611 8.39,-0.8458 8.4571,-6.4565 -0.6335,-4.0407 -0.1737,-7.4503 2.7156,-7.5293"
         style="fill:#ed1c24;fill-opacity:1;fill-rule:evenodd;stroke:none"
         id="path22079" />
      <path
         inkscape:connector-curvature="0"
         d="m 543.943,178.5572 c -1.1874,-0.9414 -2.0577,-1.9494 -2.988,-3.3378 0.2781,1.2387 0.0422,2.1812 -0.3512,3.0333 1.4876,1.9398 1.3184,3.5243 -0.9017,4.6684 1.4465,-0.0334 2.4857,-1.0553 3.4713,-2.8001 0.2608,-0.4612 0.5457,-0.9654 0.7696,-1.5638"
         style="fill:#f47216;fill-opacity:1;fill-rule:evenodd;stroke:none"
         id="path22081" />
      <path
         inkscape:connector-curvature="0"
         d="m 545.9737,165.5597 c 1.0956,-0.7415 2.1915,-1.4825 3.2874,-2.224 7.9526,7.9183 23.0638,0.7597 20.0157,-12.1833 -2.8208,-11.977 -17.0218,-14.1166 -23.98,-7.5419 -3.8126,3.6017 -8.011,11.6303 -2.804,19.8218 3.3332,5.2441 8.441,7.0365 13.7307,7.3489 4.8782,-0.0128 7.3128,-1.5534 10.0556,-2.9013 -5.1695,3.7315 -10.5593,5.0363 -16.2445,3.0943 -4.4682,-1.6503 -12.501,-5.8513 -12.2799,-16.9214 0.2029,-10.1614 6.0259,-13.2942 10.6361,-16.1473 6.863,-2.3853 13.1848,-1.7402 18.7586,3.094 4.7594,5.0202 7.0052,10.6441 5.3181,17.2114 -1.4392,5.1426 -4.523,8.4912 -8.7991,10.5395 -6.7631,2.1079 -12.6725,1.4392 -17.6947,-3.1907"
         style="fill:#ed1c24;fill-opacity:1;fill-rule:evenodd;stroke:none"
         id="path22083" />
      <path
         inkscape:connector-curvature="0"
         d="m 532.7076,108.2574 c 0,1.8127 0.4997,3.2394 1.4964,4.2758 0.9043,0.9394 2.147,1.4096 3.7213,1.4096 1.6693,0 2.9704,-0.5232 3.9028,-1.5732 0.8988,-1.0105 1.3484,-2.3644 1.3484,-4.0618 0,-1.6942 -0.4467,-3.0401 -1.3402,-4.039 -0.9323,-1.05 -2.2249,-1.5736 -3.8775,-1.5736 -1.6583,0 -2.9563,0.5123 -3.8943,1.5395 -0.9048,0.9967 -1.3569,2.3366 -1.3569,4.0227 z m 2.2445,0.0731 c 0,-1.0669 0.229,-1.9338 0.6868,-2.6064 0.5304,-0.7688 1.2983,-1.1546 2.306,-1.1546 1.0162,0 1.7838,0.3918 2.3085,1.1713 0.4414,0.6673 0.6619,1.5369 0.6619,2.6149 0,1.0891 -0.2205,1.9562 -0.6619,2.5977 -0.508,0.7433 -1.2759,1.1149 -2.3085,1.1149 -1.0301,0 -1.8037,-0.377 -2.3227,-1.131 -0.4465,-0.6478 -0.6701,-1.5174 -0.6701,-2.6068 z m 9.9861,-5.4496 0,10.7921 2.1773,0 0,-8.968 5.427,0 0,-1.8241 -7.6043,0 z m 9.0924,0 0,10.8765 2.1776,0 0,-10.8765 -2.1776,0 z m 6.9852,0 -3.8526,10.8765 2.3644,0 2.736,-8.0557 2.6354,8.0557 2.3142,0 -3.8583,-10.8765 -2.3391,0 z m 7.3224,0 0,10.8765 4.5896,0 c 0.9547,0 1.6526,-0.0564 2.094,-0.1661 0.748,-0.1859 1.3036,-0.5774 1.6693,-1.1712 0.3155,-0.4981 0.4745,-1.0695 0.4745,-1.7139 0,-1.737 -0.949,-2.7473 -2.8502,-3.0259 0.536,-0.3153 0.9938,-0.7039 1.3734,-1.1679 0.2318,-0.2761 0.5723,-0.7801 1.0275,-1.5146 l 1.3204,-2.1169 -2.6019,0 -1.5968,2.3505 c -0.4748,0.7149 -0.7344,1.1035 -0.7761,1.1625 -0.3716,0.4927 -0.7143,0.7965 -1.0301,0.9065 -0.2262,0.0816 -0.5865,0.1239 -1.0803,0.1239 l -0.4357,0 0,-4.5434 -2.1776,0 z m 2.1776,6.2827 1.6109,0 c 0.8011,0 1.2617,0.008 1.3819,0.0253 0.5806,0.0646 0.9797,0.2534 1.192,0.5657 0.1477,0.2194 0.2205,0.4899 0.2205,0.8136 0,0.7568 -0.3713,1.1934 -1.1109,1.3141 -0.1596,0.0227 -0.6896,0.0343 -1.5942,0.0343 l -1.7002,0 0,-2.753 z m 8.6905,-6.2827 0,10.8765 8.0067,0 0,-1.8408 -5.8292,0 0,-2.4154 5.4273,0 0,-1.8405 -5.4273,0 0,-2.9557 6.0469,0 0,-1.8241 -8.2244,0 z"
         style="fill:#ed1c24;fill-opacity:1;fill-rule:nonzero;stroke:none"
         id="path22085" />
      <path
         inkscape:connector-curvature="0"
         d="m 531.1071,111.0971 c 0,0.709 0,1.5146 0,2.2238 -4.9572,1.4834 -8.5478,0.3223 -8.799,-4.8348 0.2659,-5.3175 3.9841,-5.8076 8.8957,-4.9308 -0.032,0.7736 0.032,1.4496 0,2.2235 -3.7712,-1.5146 -5.995,-0.6123 -6.0916,2.7073 -0.1511,3.4728 2.9548,4.7143 5.9949,2.611"
         style="fill:#ed1c24;fill-opacity:1;fill-rule:evenodd;stroke:none"
         id="path22087" />
    </g>
    <g
       transform="matrix(4.9235462,0,0,-4.9235462,-2357.2456,1467.6713)"
       id="g6423">
      <path
         id="path6425"
         style="fill:#ed1c24;fill-opacity:1;fill-rule:evenodd;stroke:none"
         d="m 551.0259,171.9173 c -3.2145,-0.7889 -5.6486,-2.1444 -7.4455,-3.9645 -2.5129,-0.114 -3.9733,2.3575 -1.8858,6.442 0.5178,1.0142 1.2101,2.1305 2.3694,2.9372 5.8238,4.0533 11.363,8.1445 4.2546,12.2803 4.4963,-0.7869 6.8499,-4.9187 4.1093,-9.8147 -2.5645,-3.1859 -3.8667,-6.3703 -1.402,-7.8803"
         inkscape:connector-curvature="0" />
      <path
         id="path6427"
         style="fill:#f47216;fill-opacity:1;fill-rule:evenodd;stroke:none"
         d="m 557.6734,180.9337 c -1.4989,-0.2236 -2.7558,-0.663 -4.2545,-1.4017 0.8586,0.9346 1.1245,1.8694 1.2087,2.804 2.2573,0.9389 2.9004,2.3967 1.5472,4.4963 1.2367,-0.7511 1.6273,-2.1551 1.6118,-4.1584 -0.004,-0.5303 -0.009,-1.1095 -0.1132,-1.7402"
         inkscape:connector-curvature="0" />
      <path
         id="path6429"
         style="fill:#ed1c24;fill-opacity:1;fill-rule:evenodd;stroke:none"
         d="m 560.4602,171.6582 c -3.1813,0.9128 -5.9675,0.9456 -8.4308,0.2582 -2.2377,1.1503 -2.2771,4.0207 1.5636,6.5285 0.9536,0.6225 2.1084,1.2473 3.5158,1.3714 7.0679,0.6245 13.9076,1.423 9.7931,8.5434 3.5116,-2.916 3.5011,-7.6712 -1.3093,-10.5591 -3.8089,-1.491 -6.5211,-3.6077 -5.1324,-6.1424"
         inkscape:connector-curvature="0" />
      <path
         id="path6431"
         style="fill:#f47216;fill-opacity:1;fill-rule:evenodd;stroke:none"
         d="m 570.7091,176.1806 c -1.4116,0.5508 -2.7209,0.794 -4.3886,0.8969 1.2093,0.3846 1.9049,1.0638 2.4418,1.8331 2.4256,-0.3061 3.708,0.639 3.5765,3.1332 0.7004,-1.266 0.3418,-2.6785 -0.667,-4.4096 -0.2668,-0.4581 -0.5587,-0.9584 -0.9627,-1.4536"
         inkscape:connector-curvature="0" />
      <path
         id="path6433"
         style="fill:#ed1c24;fill-opacity:1;fill-rule:evenodd;stroke:none"
         d="m 568.5228,166.7424 c -2.3069,2.3734 -4.7081,3.787 -7.1873,4.4152 -1.37,2.1101 0.0224,4.6202 4.6018,4.8869 1.137,0.0664 2.4494,0.0343 3.7327,-0.5573 6.4431,-2.9715 12.7751,-5.6786 12.7442,2.5453 1.5971,-4.2758 -0.7755,-8.3965 -6.385,-8.5111 -4.0459,0.5996 -7.4514,0.1109 -7.5064,-2.779"
         inkscape:connector-curvature="0" />
      <path
         id="path6435"
         style="fill:#f47216;fill-opacity:1;fill-rule:evenodd;stroke:none"
         d="m 579.6638,165.5719 c -0.9508,1.1798 -1.9664,2.0415 -3.3625,2.96 1.2407,-0.2676 2.1816,-0.0238 3.0303,0.3764 1.9522,-1.4706 3.535,-1.2883 4.661,0.9414 -0.0219,-1.4468 -1.035,-2.4942 -2.7709,-3.4948 -0.4592,-0.2645 -0.9612,-0.5536 -1.5579,-0.783"
         inkscape:connector-curvature="0" />
      <path
         id="path6437"
         style="fill:#ed1c24;fill-opacity:1;fill-rule:evenodd;stroke:none"
         d="m 573.0976,158.3776 c -0.8056,3.2105 -2.1742,5.6378 -4.0039,7.4245 -0.1267,2.5124 2.3366,3.9858 6.4323,1.9202 1.0168,-0.5131 2.1365,-1.1988 2.9495,-2.3542 4.0844,-5.8022 8.2049,-11.3201 12.3024,-4.1893 -0.7626,-4.5003 -4.8819,-6.8757 -9.7923,-4.1615 -3.2001,2.5477 -6.3913,3.833 -7.888,1.3603"
         inkscape:connector-curvature="0" />
      <path
         id="path6439"
         style="fill:#f47216;fill-opacity:1;fill-rule:evenodd;stroke:none"
         d="m 582.1495,151.778 c -0.2316,1.4975 -0.6775,2.7521 -1.4244,4.2469 0.9388,-0.8536 1.8748,-1.1146 2.8102,-1.1937 0.9508,-2.2516 2.412,-2.8877 4.5043,-1.5234 -0.7447,-1.241 -2.1461,-1.6389 -4.1499,-1.6336 -0.5298,9e-4 -1.1092,0.002 -1.7402,0.1038"
         inkscape:connector-curvature="0" />
      <path
         id="path6441"
         style="fill:#ed1c24;fill-opacity:1;fill-rule:evenodd;stroke:none"
         d="m 572.8805,148.915 c 0.9008,3.1844 0.9232,5.9712 0.227,8.4314 1.1415,2.2422 4.0119,2.2923 6.5336,-1.5393 0.6262,-0.9507 1.2555,-2.1035 1.385,-3.5101 0.6506,-7.0659 1.4746,-13.9028 8.5799,-9.7614 -2.9029,-3.522 -7.6581,-3.53 -10.5639,1.2702 -1.5052,3.803 -3.632,6.5072 -6.1616,5.1092"
         inkscape:connector-curvature="0" />
      <path
         id="path6443"
         style="fill:#f47216;fill-opacity:1;fill-rule:evenodd;stroke:none"
         d="m 577.4411,138.6828 c 0.5457,1.4139 0.7838,2.7238 0.8805,4.392 0.3892,-1.2079 1.0709,-1.9004 1.8422,-2.435 -0.2968,-2.4262 0.6528,-3.7057 3.1468,-3.5648 -1.2637,-0.705 -2.6774,-0.3521 -4.4119,0.6505 -0.4592,0.2653 -0.9604,0.5553 -1.4576,0.9573"
         inkscape:connector-curvature="0" />
      <path
         id="path6445"
         style="fill:#ed1c24;fill-opacity:1;fill-rule:evenodd;stroke:none"
         d="m 567.8396,140.686 c 2.3916,2.2879 3.8242,4.6777 4.472,7.1518 2.1208,1.353 4.6201,-0.0592 4.8503,-4.6406 0.0573,-1.1372 0.0148,-2.4497 -0.5873,-3.7278 -3.0226,-6.4196 -5.7801,-12.7298 2.4437,-12.7641 -4.2882,-1.5636 -8.39,0.8418 -8.46,6.4522 0.6319,4.0411 0.1704,7.4503 -2.7187,7.5285"
         inkscape:connector-curvature="0" />
      <path
         id="path6447"
         style="fill:#f47216;fill-opacity:1;fill-rule:evenodd;stroke:none"
         d="m 566.5805,129.5546 c 1.1871,0.9417 2.0568,1.9494 2.9866,3.3387 -0.2776,-1.2387 -0.0414,-2.1813 0.3526,-3.0331 -1.4868,-1.9403 -1.317,-3.5246 0.9037,-4.6684 -1.4465,0.0329 -2.486,1.0548 -3.4725,2.7987 -0.2613,0.4615 -0.5462,0.9658 -0.7704,1.5641"
         inkscape:connector-curvature="0" />
      <path
         id="path6449"
         style="fill:#ed1c24;fill-opacity:1;fill-rule:evenodd;stroke:none"
         d="m 559.4666,136.184 c 3.2154,0.7855 5.6512,2.1385 7.4498,3.9566 2.5132,0.1111 3.971,-2.3621 1.8791,-6.4443 -0.5196,-1.0136 -1.2127,-2.1288 -2.3732,-2.9344 -5.8283,-4.0473 -11.372,-8.1323 -4.2681,-12.2754 -4.4952,0.7914 -6.844,4.9258 -4.0984,9.8189 2.5679,3.1836 3.8736,6.3663 1.4108,7.8786"
         inkscape:connector-curvature="0" />
      <path
         id="path6451"
         style="fill:#f47216;fill-opacity:1;fill-rule:evenodd;stroke:none"
         d="m 552.8089,127.1747 c 1.499,0.2219 2.7564,0.6602 4.256,1.3977 -0.8595,-0.9337 -1.1268,-1.8683 -1.2119,-2.8026 -2.2575,-0.9368 -2.9029,-2.3935 -1.5519,-4.4946 -1.2359,0.7523 -1.6248,2.1566 -1.6076,4.1601 0.005,0.5301 0.0105,1.1095 0.1154,1.7394"
         inkscape:connector-curvature="0" />
      <path
         id="path6453"
         style="fill:#ed1c24;fill-opacity:1;fill-rule:evenodd;stroke:none"
         d="m 550.046,136.4496 c 3.1816,-0.9139 5.9678,-0.9473 8.4314,-0.261 2.2371,-1.1509 2.2759,-4.021 -1.5662,-6.5277 -0.9536,-0.6219 -2.1087,-1.2466 -3.5161,-1.3702 -7.0685,-0.6222 -13.9085,-1.4185 -9.796,-8.5405 -3.5104,2.9174 -3.4985,7.6725 1.3133,10.5587 3.809,1.4899 6.5217,3.6054 5.1336,6.1407"
         inkscape:connector-curvature="0" />
      <path
         id="path6455"
         style="fill:#f47216;fill-opacity:1;fill-rule:evenodd;stroke:none"
         d="m 539.7959,131.9306 c 1.4117,-0.5513 2.7207,-0.7945 4.3886,-0.8983 -1.2095,-0.3846 -1.9052,-1.0632 -2.4426,-1.8323 -2.425,0.3067 -3.7083,-0.6378 -3.5779,-3.1325 -0.6999,1.2668 -0.3407,2.679 0.6687,4.4098 0.2673,0.4578 0.5593,0.9581 0.9632,1.4533"
         inkscape:connector-curvature="0" />
      <path
         id="path6457"
         style="fill:#ed1c24;fill-opacity:1;fill-rule:evenodd;stroke:none"
         d="m 541.906,141.4517 c 2.291,-2.3885 4.6829,-3.8177 7.1578,-4.4623 1.3561,-2.1189 -0.053,-4.6202 -4.6341,-4.8566 -1.137,-0.0587 -2.4494,-0.0182 -3.7284,0.5819 -6.4239,3.0141 -12.7375,5.7628 -12.7613,-2.461 -1.5684,4.286 0.8311,8.3914 6.4414,8.4688 4.042,-0.6265 7.4506,-0.1599 7.5246,2.7292"
         inkscape:connector-curvature="0" />
      <path
         id="path6459"
         style="fill:#f47216;fill-opacity:1;fill-rule:evenodd;stroke:none"
         d="m 530.7729,142.6958 c 0.9434,-1.1858 1.9528,-2.0543 3.3427,-2.9824 -1.2388,0.2761 -2.181,0.0386 -3.0325,-0.3563 -1.9423,1.4837 -3.5263,1.3119 -4.667,-0.9105 0.0312,1.4468 1.0511,2.4874 2.7938,3.4767 0.4609,0.2617 0.9649,0.5474 1.563,0.7725"
         inkscape:connector-curvature="0" />
      <path
         id="path6461"
         style="fill:#ed1c24;fill-opacity:1;fill-rule:evenodd;stroke:none"
         d="m 537.3828,149.8618 c 0.7818,-3.2168 2.1325,-5.654 3.9483,-7.454 0.1083,-2.5135 -2.3663,-3.9685 -6.4462,-1.8723 -1.0131,0.5204 -2.1271,1.2149 -2.9316,2.3763 -4.0411,5.8323 -8.1201,11.3805 -12.2712,4.2809 0.796,4.4943 4.9331,6.8391 9.8232,4.0881 3.1807,-2.5719 6.3624,-3.8804 7.8775,-1.419"
         inkscape:connector-curvature="0" />
      <path
         id="path6463"
         style="fill:#f47216;fill-opacity:1;fill-rule:evenodd;stroke:none"
         d="m 528.3805,156.5289 c 0.2205,-1.4993 0.6571,-2.7573 1.3929,-4.2574 -0.9331,0.8603 -1.8668,1.1285 -2.8014,1.2141 -0.9343,2.2589 -2.3905,2.9061 -4.4927,1.5573 0.7535,1.2354 2.1581,1.6229 4.1619,1.6027 0.5298,-0.005 1.1092,-0.011 1.7393,-0.1167"
         inkscape:connector-curvature="0" />
      <path
         id="path6465"
         style="fill:#ed1c24;fill-opacity:1;fill-rule:evenodd;stroke:none"
         d="m 537.6742,159.3351 c -0.9267,-3.1776 -0.9717,-5.9635 -0.296,-8.4299 -1.1596,-2.2326 -4.03,-2.2595 -6.5208,1.5928 -0.6185,0.9561 -1.2379,2.1135 -1.3561,3.5209 -0.593,7.0713 -1.3615,13.9147 -8.5002,9.8314 2.9321,3.4985 7.6872,3.4671 10.5531,-1.3564 1.4743,-3.8151 3.579,-6.5364 6.12,-5.1588"
         inkscape:connector-curvature="0" />
      <path
         id="path6467"
         style="fill:#f47216;fill-opacity:1;fill-rule:evenodd;stroke:none"
         d="m 533.1971,169.6034 c -0.557,-1.4088 -0.8059,-2.717 -0.9164,-4.3847 -0.3793,1.2113 -1.0553,1.9092 -1.8221,2.4503 0.3166,2.4236 -0.6225,3.7108 -3.1176,3.5904 1.2694,0.6947 2.6802,0.3299 4.4065,-0.6866 0.4569,-0.2693 0.9561,-0.5629 1.4496,-0.9694"
         inkscape:connector-curvature="0" />
      <path
         id="path6469"
         style="fill:#ed1c24;fill-opacity:1;fill-rule:evenodd;stroke:none"
         d="m 542.679,167.4264 c -2.393,-2.2873 -3.8265,-4.6764 -4.4753,-7.1501 -2.1217,-1.3519 -4.6202,0.0615 -4.8484,4.6428 -0.0564,1.1376 -0.0136,2.4497 0.5888,3.7276 3.0257,6.4185 5.786,12.7273 -2.4378,12.7655 4.2891,1.5611 8.39,-0.8458 8.4571,-6.4565 -0.6335,-4.0407 -0.1737,-7.4503 2.7156,-7.5293"
         inkscape:connector-curvature="0" />
      <path
         id="path6471"
         style="fill:#f47216;fill-opacity:1;fill-rule:evenodd;stroke:none"
         d="m 543.943,178.5572 c -1.1874,-0.9414 -2.0577,-1.9494 -2.988,-3.3378 0.2781,1.2387 0.0422,2.1812 -0.3512,3.0333 1.4876,1.9398 1.3184,3.5243 -0.9017,4.6684 1.4465,-0.0334 2.4857,-1.0553 3.4713,-2.8001 0.2608,-0.4612 0.5457,-0.9654 0.7696,-1.5638"
         inkscape:connector-curvature="0" />
      <path
         id="path6473"
         style="fill:#ed1c24;fill-opacity:1;fill-rule:evenodd;stroke:none"
         d="m 545.9737,165.5597 c 1.0956,-0.7415 2.1915,-1.4825 3.2874,-2.224 7.9526,7.9183 23.0638,0.7597 20.0157,-12.1833 -2.8208,-11.977 -17.0218,-14.1166 -23.98,-7.5419 -3.8126,3.6017 -8.011,11.6303 -2.804,19.8218 3.3332,5.2441 8.441,7.0365 13.7307,7.3489 4.8782,-0.0128 7.3128,-1.5534 10.0556,-2.9013 -5.1695,3.7315 -10.5593,5.0363 -16.2445,3.0943 -4.4682,-1.6503 -12.501,-5.8513 -12.2799,-16.9214 0.2029,-10.1614 6.0259,-13.2942 10.6361,-16.1473 6.863,-2.3853 13.1848,-1.7402 18.7586,3.094 4.7594,5.0202 7.0052,10.6441 5.3181,17.2114 -1.4392,5.1426 -4.523,8.4912 -8.7991,10.5395 -6.7631,2.1079 -12.6725,1.4392 -17.6947,-3.1907"
         inkscape:connector-curvature="0" />
      <path
         id="path6475"
         style="fill:#ed1c24;fill-opacity:1;fill-rule:nonzero;stroke:none"
         d="m 532.7076,108.2574 c 0,1.8127 0.4997,3.2394 1.4964,4.2758 0.9043,0.9394 2.147,1.4096 3.7213,1.4096 1.6693,0 2.9704,-0.5232 3.9028,-1.5732 0.8988,-1.0105 1.3484,-2.3644 1.3484,-4.0618 0,-1.6942 -0.4467,-3.0401 -1.3402,-4.039 -0.9323,-1.05 -2.2249,-1.5736 -3.8775,-1.5736 -1.6583,0 -2.9563,0.5123 -3.8943,1.5395 -0.9048,0.9967 -1.3569,2.3366 -1.3569,4.0227 z m 2.2445,0.0731 c 0,-1.0669 0.229,-1.9338 0.6868,-2.6064 0.5304,-0.7688 1.2983,-1.1546 2.306,-1.1546 1.0162,0 1.7838,0.3918 2.3085,1.1713 0.4414,0.6673 0.6619,1.5369 0.6619,2.6149 0,1.0891 -0.2205,1.9562 -0.6619,2.5977 -0.508,0.7433 -1.2759,1.1149 -2.3085,1.1149 -1.0301,0 -1.8037,-0.377 -2.3227,-1.131 -0.4465,-0.6478 -0.6701,-1.5174 -0.6701,-2.6068 z m 9.9861,-5.4496 0,10.7921 2.1773,0 0,-8.968 5.427,0 0,-1.8241 -7.6043,0 z m 9.0924,0 0,10.8765 2.1776,0 0,-10.8765 -2.1776,0 z m 6.9852,0 -3.8526,10.8765 2.3644,0 2.736,-8.0557 2.6354,8.0557 2.3142,0 -3.8583,-10.8765 -2.3391,0 z m 7.3224,0 0,10.8765 4.5896,0 c 0.9547,0 1.6526,-0.0564 2.094,-0.1661 0.748,-0.1859 1.3036,-0.5774 1.6693,-1.1712 0.3155,-0.4981 0.4745,-1.0695 0.4745,-1.7139 0,-1.737 -0.949,-2.7473 -2.8502,-3.0259 0.536,-0.3153 0.9938,-0.7039 1.3734,-1.1679 0.2318,-0.2761 0.5723,-0.7801 1.0275,-1.5146 l 1.3204,-2.1169 -2.6019,0 -1.5968,2.3505 c -0.4748,0.7149 -0.7344,1.1035 -0.7761,1.1625 -0.3716,0.4927 -0.7143,0.7965 -1.0301,0.9065 -0.2262,0.0816 -0.5865,0.1239 -1.0803,0.1239 l -0.4357,0 0,-4.5434 -2.1776,0 z m 2.1776,6.2827 1.6109,0 c 0.8011,0 1.2617,0.008 1.3819,0.0253 0.5806,0.0646 0.9797,0.2534 1.192,0.5657 0.1477,0.2194 0.2205,0.4899 0.2205,0.8136 0,0.7568 -0.3713,1.1934 -1.1109,1.3141 -0.1596,0.0227 -0.6896,0.0343 -1.5942,0.0343 l -1.7002,0 0,-2.753 z m 8.6905,-6.2827 0,10.8765 8.0067,0 0,-1.8408 -5.8292,0 0,-2.4154 5.4273,0 0,-1.8405 -5.4273,0 0,-2.9557 6.0469,0 0,-1.8241 -8.2244,0 z"
         inkscape:connector-curvature="0" />
      <path
         id="path6477"
         style="fill:#ed1c24;fill-opacity:1;fill-rule:evenodd;stroke:none"
         d="m 531.1071,111.0971 c 0,0.709 0,1.5146 0,2.2238 -4.9572,1.4834 -8.5478,0.3223 -8.799,-4.8348 0.2659,-5.3175 3.9841,-5.8076 8.8957,-4.9308 -0.032,0.7736 0.032,1.4496 0,2.2235 -3.7712,-1.5146 -5.995,-0.6123 -6.0916,2.7073 -0.1511,3.4728 2.9548,4.7143 5.9949,2.611"
         inkscape:connector-curvature="0" />
    </g>
  </g>
</svg>
