<?xml version="1.0" encoding="UTF-8" standalone="no"?>
<!-- Created with Inkscape (http://www.inkscape.org/) -->

<svg
   xmlns:dc="http://purl.org/dc/elements/1.1/"
   xmlns:cc="http://creativecommons.org/ns#"
   xmlns:rdf="http://www.w3.org/1999/02/22-rdf-syntax-ns#"
   xmlns:svg="http://www.w3.org/2000/svg"
   xmlns="http://www.w3.org/2000/svg"
   xmlns:sodipodi="http://sodipodi.sourceforge.net/DTD/sodipodi-0.dtd"
   xmlns:inkscape="http://www.inkscape.org/namespaces/inkscape"
   width="210mm"
   height="297mm"
   id="svg6862"
   version="1.1"
   inkscape:version="0.48.4 r9939"
   sodipodi:docname="Novo documento 38">
  <defs
     id="defs6864" />
  <sodipodi:namedview
     id="base"
     pagecolor="#ffffff"
     bordercolor="#666666"
     borderopacity="1.0"
     inkscape:pageopacity="0.0"
     inkscape:pageshadow="2"
     inkscape:zoom="0.35"
     inkscape:cx="350"
     inkscape:cy="520"
     inkscape:document-units="px"
     inkscape:current-layer="layer1"
     showgrid="false"
     inkscape:window-width="1280"
     inkscape:window-height="972"
     inkscape:window-x="0"
     inkscape:window-y="25"
     inkscape:window-maximized="1" />
  <metadata
     id="metadata6867">
    <rdf:RDF>
      <cc:Work
         rdf:about="">
        <dc:format>image/svg+xml</dc:format>
        <dc:type
           rdf:resource="http://purl.org/dc/dcmitype/StillImage" />
        <dc:title></dc:title>
      </cc:Work>
    </rdf:RDF>
  </metadata>
  <g
     inkscape:label="Camada 1"
     inkscape:groupmode="layer"
     id="layer1">
    <text
       xml:space="preserve"
       style="font-size:40px;font-style:normal;font-variant:normal;font-weight:normal;font-stretch:normal;line-height:125%;letter-spacing:0px;word-spacing:0px;fill:#000000;fill-opacity:1;stroke:none;font-family:Droid Sans;-inkscape-font-specification:Droid Sans"
       x="40.164619"
       y="118.07787"
       id="text6742"
       sodipodi:linespacing="125%"><tspan
         sodipodi:role="line"
         id="tspan6744"
         x="40.164619"
         y="118.07787">NA CAMISA</tspan></text>
    <text
       xml:space="preserve"
       style="font-size:40px;font-style:normal;font-variant:normal;font-weight:normal;font-stretch:normal;line-height:125%;letter-spacing:0px;word-spacing:0px;fill:#000000;fill-opacity:1;stroke:none;font-family:Droid Sans;-inkscape-font-specification:Droid Sans"
       x="37.30748"
       y="438.07788"
       id="text6746"
       sodipodi:linespacing="125%"><tspan
         sodipodi:role="line"
         id="tspan6748"
         x="37.30748"
         y="438.07788">GRANDE</tspan></text>
    <g
       style="overflow:visible"
       id="g5168"
       transform="matrix(0.36210879,0,0,0.36210879,72.31453,182.96128)">
      <g
         id="g66">
        <g
           style="font-size:12px;overflow:visible"
           transform="matrix(0.933351,0,0,0.933351,7.0004,8.68737)"
           id="g89">
          <g
             id="g90">
            <path
               id="path91"
               d="m 5.231,277.872 h 2.184 v -7.098 c 1.144,1.404 2.418,2.028 4.186,2.028 3.51,0 5.824,-2.834 5.824,-7.177 0,-4.576 -2.236,-7.436 -5.85,-7.436 -1.846,0 -3.328,0.832 -4.342,2.443 v -2.053 H 5.231 v 19.293 z m 5.98,-17.653 c 2.392,0 3.952,2.106 3.952,5.356 0,3.094 -1.586,5.199 -3.952,5.199 -2.288,0 -3.796,-2.08 -3.796,-5.277 0.001,-3.199 1.509,-5.278 3.796,-5.278 z m 8.867,-1.638 v 13.623 h 2.184 v -7.072 c 0,-1.949 0.494,-3.223 1.534,-3.977 0.676,-0.494 1.326,-0.65 2.834,-0.677 v -2.21 c -0.364,-0.053 -0.546,-0.078 -0.832,-0.078 -1.404,0 -2.47,0.832 -3.718,2.859 v -2.469 h -2.002 z m 13.936,-0.391 c -3.822,0 -6.136,2.73 -6.136,7.307 0,4.577 2.288,7.306 6.162,7.306 3.822,0 6.162,-2.729 6.162,-7.202 0,-4.706 -2.263,-7.411 -6.188,-7.411 z m 0.026,2.002 c 2.444,0 3.9,2.002 3.9,5.383 0,3.197 -1.508,5.225 -3.9,5.225 -2.418,0 -3.9,-2.002 -3.9,-5.303 0,-3.276 1.482,-5.305 3.9,-5.305 z m 9.178,-1.611 v 15.6 c 0,1.352 -0.442,1.794 -1.768,1.794 -0.078,0 -0.078,0 -0.52,-0.026 v 1.846 c 0.26,0.053 0.39,0.078 0.728,0.078 2.444,0 3.718,-0.988 3.718,-2.834 v -16.457 h -2.158 z m 2.157,-5.33 h -2.158 v 2.729 h 2.158 v -2.729 z m 15.133,12.869 c 0,-2.08 -0.156,-3.328 -0.546,-4.342 -0.884,-2.236 -2.964,-3.588 -5.512,-3.588 -3.796,0 -6.24,2.912 -6.24,7.385 0,4.471 2.366,7.228 6.188,7.228 3.12,0 5.278,-1.769 5.824,-4.731 h -2.184 c -0.598,1.793 -1.82,2.729 -3.562,2.729 -1.378,0 -2.548,-0.623 -3.276,-1.768 -0.52,-0.779 -0.702,-1.56 -0.728,-2.912 h 10.036 z m -9.985,-1.767 c 0.182,-2.521 1.716,-4.16 3.9,-4.16 2.132,0 3.77,1.768 3.77,4.004 0,0.053 0,0.104 -0.026,0.156 h -7.644 z m 17.706,-5.772 h -2.236 v -3.744 h -2.158 v 3.744 H 61.99 v 1.768 h 1.846 v 10.296 c 0,1.378 0.936,2.158 2.626,2.158 0.52,0 1.04,-0.052 1.768,-0.183 v -1.82 c -0.286,0.078 -0.624,0.105 -1.04,0.105 -0.936,0 -1.196,-0.261 -1.196,-1.223 v -9.334 h 2.236 v -1.767 z m 7.697,-0.391 c -3.822,0 -6.136,2.73 -6.136,7.307 0,4.577 2.288,7.306 6.162,7.306 3.822,0 6.162,-2.729 6.162,-7.202 0,-4.706 -2.262,-7.411 -6.188,-7.411 z m 0.026,2.002 c 2.444,0 3.9,2.002 3.9,5.383 0,3.197 -1.508,5.225 -3.9,5.225 -2.418,0 -3.9,-2.002 -3.9,-5.303 0,-3.276 1.482,-5.305 3.9,-5.305 z"
               inkscape:connector-curvature="0" />
            <path
               id="path92"
               d="m 94.57,262.441 c -0.026,-2.679 -1.794,-4.187 -4.94,-4.187 -3.172,0 -5.226,1.639 -5.226,4.16 0,2.133 1.092,3.146 4.316,3.926 l 2.028,0.494 c 1.508,0.364 2.106,0.91 2.106,1.898 0,1.273 -1.274,2.132 -3.172,2.132 -1.17,0 -2.158,-0.338 -2.704,-0.91 -0.338,-0.39 -0.494,-0.78 -0.624,-1.741 h -2.288 c 0.104,3.146 1.872,4.653 5.434,4.653 3.432,0 5.616,-1.69 5.616,-4.315 0,-2.028 -1.144,-3.146 -3.848,-3.797 l -2.08,-0.494 c -1.768,-0.416 -2.522,-0.987 -2.522,-1.949 0,-1.248 1.118,-2.055 2.886,-2.055 1.742,0 2.678,0.754 2.73,2.185 h 2.288 z m 8.684,-4.186 c -3.822,0 -6.136,2.73 -6.136,7.307 0,4.577 2.288,7.306 6.162,7.306 3.822,0 6.162,-2.729 6.162,-7.202 0,-4.706 -2.262,-7.411 -6.188,-7.411 z m 0.026,2.002 c 2.444,0 3.9,2.002 3.9,5.383 0,3.197 -1.508,5.226 -3.9,5.226 -2.418,0 -3.9,-2.002 -3.9,-5.304 0,-3.277 1.482,-5.305 3.9,-5.305 z m 14.066,-1.611 h -2.261 v -2.133 c 0,-0.91 0.52,-1.377 1.508,-1.377 0.182,0 0.26,0 0.753,0.025 v -1.794 c -0.493,-0.104 -0.779,-0.13 -1.221,-0.13 -2.002,0 -3.198,1.145 -3.198,3.094 v 2.314 h -1.82 v 1.768 h 1.82 v 11.855 h 2.158 v -11.855 h 2.261 v -1.767 z m 7.125,0 h -2.236 v -3.744 h -2.158 v 3.744 h -1.846 v 1.768 h 1.846 v 10.297 c 0,1.377 0.936,2.157 2.626,2.157 0.521,0 1.04,-0.052 1.769,-0.183 v -1.819 c -0.286,0.078 -0.625,0.104 -1.041,0.104 -0.936,0 -1.195,-0.26 -1.195,-1.223 v -9.334 h 2.236 v -1.767 z m 15.027,13.623 4.004,-13.623 h -2.443 l -2.704,10.607 -2.679,-10.607 h -2.651 l -2.601,10.607 -2.781,-10.607 h -2.393 l 3.952,13.623 h 2.444 l 2.626,-10.686 2.756,10.686 h 2.47 z m 18.278,-1.274 c -0.233,0.053 -0.338,0.053 -0.468,0.053 -0.754,0 -1.17,-0.391 -1.17,-1.066 v -8.008 c 0,-2.418 -1.769,-3.719 -5.122,-3.719 -1.976,0 -3.614,0.572 -4.524,1.586 -0.624,0.703 -0.884,1.482 -0.936,2.834 h 2.184 c 0.182,-1.664 1.17,-2.418 3.198,-2.418 1.95,0 3.042,0.729 3.042,2.028 v 0.571 c 0,0.91 -0.546,1.301 -2.262,1.509 -3.068,0.39 -3.537,0.494 -4.368,0.832 -1.587,0.649 -2.392,1.872 -2.392,3.64 0,2.471 1.715,4.03 4.471,4.03 1.717,0 3.095,-0.599 4.629,-2.002 0.156,1.378 0.832,2.002 2.236,2.002 0.441,0 0.779,-0.052 1.481,-0.233 v -1.639 z m -3.796,-3.016 c 0,0.728 -0.208,1.17 -0.857,1.768 -0.885,0.807 -1.951,1.223 -3.225,1.223 -1.689,0 -2.678,-0.807 -2.678,-2.185 0,-1.431 0.961,-2.157 3.275,-2.496 2.288,-0.312 2.756,-0.416 3.484,-0.754 v 2.444 z m 6.136,-9.333 v 13.623 h 2.185 v -7.071 c 0,-1.95 0.494,-3.224 1.533,-3.978 0.676,-0.494 1.326,-0.65 2.834,-0.676 v -2.211 c -0.363,-0.052 -0.545,-0.078 -0.832,-0.078 -1.404,0 -2.47,0.832 -3.718,2.86 v -2.47 h -2.002 z m 20.202,7.539 c 0,-2.08 -0.156,-3.328 -0.546,-4.342 -0.884,-2.236 -2.964,-3.588 -5.513,-3.588 -3.795,0 -6.239,2.912 -6.239,7.385 0,4.472 2.366,7.228 6.188,7.228 3.119,0 5.277,-1.769 5.823,-4.731 h -2.185 c -0.598,1.793 -1.819,2.729 -3.562,2.729 -1.378,0 -2.548,-0.624 -3.276,-1.769 -0.52,-0.779 -0.701,-1.56 -0.728,-2.912 h 10.038 z m -9.984,-1.768 c 0.183,-2.521 1.717,-4.16 3.9,-4.16 2.132,0 3.77,1.769 3.77,4.004 0,0.053 0,0.104 -0.025,0.156 h -7.645 z"
               style="fill:#cc0000"
               inkscape:connector-curvature="0" />
            <path
               id="path93"
               d="m 185.323,253.218 h -2.185 v 18.954 h 2.185 v -18.954 z m 5.72,5.33 h -2.158 v 13.624 h 2.158 v -13.624 z m 0,-5.33 h -2.184 v 2.73 h 2.184 v -2.73 z m 9.282,18.954 5.226,-13.624 h -2.443 l -3.848,11.051 -3.641,-11.051 h -2.443 l 4.783,13.624 h 2.366 z m 7.384,-13.624 v 13.624 h 2.185 v -7.071 c 0,-1.951 0.493,-3.225 1.534,-3.979 0.676,-0.494 1.326,-0.65 2.834,-0.676 v -2.211 c -0.364,-0.051 -0.547,-0.077 -0.832,-0.077 -1.404,0 -2.471,0.831 -3.719,2.86 v -2.471 h -2.002 z m 20.202,7.54 c 0,-2.08 -0.155,-3.327 -0.546,-4.342 -0.884,-2.235 -2.964,-3.588 -5.512,-3.588 -3.797,0 -6.24,2.911 -6.24,7.384 0,4.473 2.366,7.229 6.188,7.229 3.121,0 5.279,-1.769 5.824,-4.732 h -2.184 c -0.598,1.794 -1.82,2.73 -3.562,2.73 -1.377,0 -2.547,-0.625 -3.275,-1.769 -0.52,-0.78 -0.702,-1.56 -0.729,-2.912 h 10.036 z m -9.983,-1.769 c 0.182,-2.521 1.716,-4.159 3.899,-4.159 2.132,0 3.771,1.769 3.771,4.004 0,0.052 0,0.104 -0.026,0.155 h -7.644 z"
               inkscape:connector-curvature="0" />
          </g>
          <path
             id="path94"
             d="m 5.231,290.627 h 5.223 c 1.095,0 1.905,-0.286 2.524,-0.921 0.572,-0.572 0.889,-1.357 0.889,-2.218 0,-1.327 -0.635,-2.128 -2.111,-2.671 1.048,-0.467 1.604,-1.282 1.604,-2.398 0,-0.801 -0.318,-1.51 -0.921,-2.022 -0.603,-0.528 -1.397,-0.77 -2.508,-0.77 h -4.7 v 11 z m 1.477,-6.262 v -3.501 h 2.857 c 0.825,0 1.286,0.105 1.683,0.393 0.413,0.302 0.635,0.754 0.635,1.357 0,0.589 -0.222,1.057 -0.635,1.358 -0.397,0.286 -0.857,0.393 -1.683,0.393 H 6.708 z m 0,5.025 v -3.787 h 3.604 c 0.714,0 1.19,0.166 1.54,0.527 0.349,0.348 0.54,0.83 0.54,1.373 0,0.529 -0.19,1.012 -0.54,1.359 -0.349,0.361 -0.825,0.527 -1.54,0.527 H 6.708 z m 59.511,-2.067 1.191,3.304 h 1.651 l -4.064,-11 h -1.905 l -4.127,11 h 1.572 l 1.222,-3.304 h 4.46 z m -0.413,-1.177 h -3.683 l 1.905,-5.01 1.778,5.01 z m 56.352,-0.528 v 5.009 h 1.477 v -11 h -1.477 v 4.753 h -5.952 v -4.753 h -1.476 v 11 h 1.492 v -5.009 h 5.936 z m 49.924,-5.991 h -1.492 v 11 h 1.492 v -11 z m 52.988,7.696 1.189,3.304 h 1.651 l -4.063,-11 h -1.905 l -4.127,11 h 1.571 l 1.223,-3.304 h 4.461 z m -0.413,-1.177 h -3.683 l 1.904,-5.01 1.779,5.01 z"
             inkscape:connector-curvature="0" />
        </g>
        <g
           id="g57">
          <g
             id="g50">
            <g
               id="g45">
              <path
                 transform="matrix(0.933351,0,0,0.933351,7.0004,8.68737)"
                 id="path97"
                 d="m 12.71,82.25 c -23.149,56.11 -8.553,118.309 49.445,150.255 1.048,-0.989 4.338,-3.534 8.77,-6.406 2.197,3.51 2.333,-2.659 5.236,1.046 3.151,-1.871 8.968,-7.017 12.192,-6.044 5.706,-3.458 8.953,-9.193 14.966,-8.536 3.79,-4.68 7.431,-6.309 10.858,-8.254 3.595,0.504 8.189,0.238 12.412,2.201 4.202,-1.167 9.6,4.984 13.043,3.667 0.734,5.374 4.455,10.708 7.554,13.005 1.144,1.02 2.815,1.746 5.322,2.799 -1.554,-1.967 -1.712,-3.1 -1.845,-4.304 0.635,1.647 1.634,2.806 3.191,3.572 2.926,1.345 5.994,1.702 8.994,2.323 -0.995,-3.571 4.224,-9.996 4.345,-16.32 6.608,0.541 12.832,-4.047 15.565,-9.455 9.854,-19.084 2.15,-24.537 1.209,-30.576 -0.709,-3.759 -2.274,-11.099 -4.234,-20.037 -1.958,-8.938 -4.07,-35.732 -6.353,-45.881 0.854,-3.303 -1.752,-13.064 -5.159,-16.051 -2.013,-3.918 -4.077,-7.417 -4.226,-8.089 5.466,-2.809 16.755,-6.695 12.585,-24.558 -3.275,-13.719 -25.188,-19.096 -27.614,-16.886 -1.886,2.243 12.647,8.502 15.456,14.709 2.263,4.546 -0.167,9.699 -2.871,10.305 -2.705,0.607 -10.445,-3.842 -13.531,-4.88 -6.383,-2.359 -9.777,2.731 -10.522,4.236 -5.835,-3.642 -6.655,-7.089 -21.583,-2.639 C 105.996,64.286 98.633,76.224 93.457,73.741 88.281,71.258 86.798,67.491 85.538,61.937 84.163,53.677 89.995,44.412 88.402,42.8 86.26,41.113 74.849,49.696 73.913,64.094 73.388,73.017 76.558,81.81 81.878,87.132 62.886,87.768 46.295,90.795 35.665,89.815 26.707,84.302 16.517,81.541 12.71,82.25 z"
                 style="font-size:12px;fill:#cc0000;overflow:visible"
                 nodetypes="cccccccccsccsccssscccssssscsssssccc"
                 inkscape:connector-curvature="0" />
              <path
                 transform="matrix(1.0155,0,0,1.0155,-3.03039,3.09969)"
                 sodipodi:nodetypes="csssssssssss"
                 id="path99"
                 d="m 24.51072,161.0703 c 3.0322,6.1952 10.28701,6.8253 9.50415,-1.5006 -2.63433,-22.6969 2.08848,-34.8305 9.00399,-41.0179 8.97651,-7.4897 24.84502,-8.7527 38.91161,-14.0963 16.78962,-6.68818 31.46363,-22.57162 36.83253,-26.93993 5.2071,-4.72183 12.2657,-4.59589 8.649,-8.59083 -3.0051,-2.90373 -10.4234,0.13159 -15.1381,2.61743 -4.7146,2.48587 -10.618,9.76002 -16.90086,8.44971 -2.80673,-0.08512 -2.3521,0.7251 -3.40537,4.73879 -0.61792,4.48439 -18.57362,6.98553 -21.17187,7.49176 -13.55307,3.29293 -28.73064,2.36611 -36.78088,1.3184 -15.02985,-2.72093 -17.68101,49.80147 -9.5042,67.52947 z"
                 style="font-size:12px;fill:#dd2e26;fill-opacity:1;fill-rule:evenodd;stroke-linecap:butt;stroke-linejoin:miter;overflow:visible"
                 inkscape:connector-curvature="0" />
              <path
                 transform="matrix(1.0155,0,0,1.0155,-3.03039,3.09969)"
                 sodipodi:nodetypes="ccccc"
                 id="path100"
                 d="m 148.5648,69.03015 c 0,1.65758 -2.0679,2.0009 -4.0017,2.0009 -1.9338,0 -4.5019,0.1569 -4.5019,-1.50068 0,-1.65756 1.5677,-3.00131 3.5015,-3.00131 1.9338,0 5.0021,0.84353 5.0021,2.50109 z"
                 style="font-size:12px;fill:#dd2e26;fill-opacity:1;fill-rule:evenodd;stroke-width:1;stroke-linecap:butt;stroke-linejoin:miter;overflow:visible"
                 inkscape:connector-curvature="0" />
              <path
                 sodipodi:nodetypes="cccccccccsccsccssscccssssscsssssccc"
                 transform="matrix(0.933351,0,0,0.933351,7.0004,8.68737)"
                 id="path101"
                 d="m 62.155,232.505 c 1.048,-0.989 4.338,-3.534 8.77,-6.406 2.197,3.51 2.333,-2.659 5.236,1.046 3.151,-1.871 8.96801,-7.017 12.192,-6.044 5.70601,-3.458 8.953,-9.193 14.966,-8.536 3.79,-4.68 7.431,-6.309 10.858,-8.254 3.595,0.504 8.189,0.238 12.412,2.201 4.202,-1.167 9.6,4.984 13.043,3.667 0.734,5.374 4.455,10.708 7.554,13.005 1.144,1.02 2.815,1.746 5.322,2.799 -1.554,-1.967 -1.712,-3.1 -1.845,-4.304 0.635,1.647 1.634,2.806 3.191,3.572 2.926,1.345 5.994,1.702 8.994,2.323 -0.995,-3.571 4.224,-9.996 4.345,-16.32 6.608,0.541 12.832,-4.047 15.565,-9.455 9.854,-19.084 2.15,-24.537 1.209,-30.576 -0.709,-3.759 -2.274,-11.099 -4.234,-20.037 -1.958,-8.938 -4.07,-35.732 -6.353,-45.881 0.854,-3.303 -1.752,-13.064 -5.159,-16.05099 -2.013,-3.918 -4.077,-7.417 -4.226,-8.08902 5.466,-2.80898 16.755,-6.69498 12.585,-24.55799 -0.577,12.18189 -7.9207,19.7553 -20.0596,20.34653 5.1288,14.11422 9.3847,29.87897 8.9807,44.92667 -0.8211,12.6259 -1.4986,25.2883 1.3008,37.907 3.2378,12.1629 8.2088,27.9116 -3.4733,34.7822 -8.1188,4.4576 -19.007,-0.8042 -24.7573,-3.0994 -9.7934,-4.3138 -20.8872,-4.1339 -27.1812,-1.9574 -10.9156,4.2424 -32.7115,18.4305 -44.809,20.9148 -12.18073,1.9581 -34.18742,-7.6192 -52.3823,-27.0037 7.64664,12.75 26.65111,33.8629 47.9562,49.0813 z"
                 style="font-size:12px;fill:#ad0000;fill-opacity:1;overflow:visible"
                 nodetypes="cccccccccsccsccssscccssssscsssssccc"
                 inkscape:connector-curvature="0" />
            </g>
            <path
               style="font-size:12px;overflow:visible"
               transform="matrix(0.933351,0,0,0.933351,7.0004,8.68737)"
               id="path98"
               d="m 12.248,82.06 c -11.626,28.181 -13.659,58.199 -5.724,84.524 8.478,28.123 27.631,51.069 55.391,66.359 l 0.319,0.177 0.265,-0.251 c 0.931,-0.879 4.116,-3.38 8.699,-6.35 l -0.696,-0.154 c 0.535,0.854 1.034,1.284 1.568,1.351 0.634,0.078 1.085,-0.354 1.483,-0.736 0.37,-0.354 0.633,-0.586 0.917,-0.565 0.234,0.017 0.649,0.21 1.299,1.04 l 0.271,0.346 0.378,-0.225 c 0.791,-0.47 1.748,-1.143 2.761,-1.854 2.884,-2.027 6.833,-4.804 9.032,-4.141 l 0.213,0.064 0.19,-0.115 c 1.94,-1.177 3.574,-2.587 5.154,-3.951 3.063,-2.646 5.709,-4.93 9.499,-4.516 l 0.271,0.029 0.172,-0.212 c 3.244,-4.006 6.368,-5.729 9.388,-7.395 l 1.328,-0.739 -0.316,0.061 c 0.996,0.14 2.05,0.22 3.166,0.305 2.866,0.218 6.115,0.465 9.104,1.854 l 0.167,0.078 0.178,-0.05 c 1.949,-0.541 4.299,0.711 6.571,1.921 2.373,1.265 4.615,2.459 6.517,1.731 l -0.674,-0.399 c 0.75,5.488 4.553,10.969 7.751,13.339 1.162,1.039 2.82,1.764 5.427,2.858 l 1.788,0.751 -1.202,-1.521 c -1.504,-1.903 -1.618,-2.945 -1.74,-4.049 l -0.964,0.234 c 0.697,1.81 1.79,3.03 3.438,3.841 2.367,1.089 4.817,1.548 7.188,1.991 0.633,0.118 1.288,0.241 1.926,0.373 l 0.804,0.167 -0.221,-0.79 c -0.448,-1.611 0.556,-4 1.719,-6.766 1.21,-2.878 2.582,-6.141 2.645,-9.411 l -0.541,0.488 c 7.021,0.575 13.39,-4.458 16.053,-9.728 7.683,-14.88 4.778,-21.729 2.658,-26.73 -0.641,-1.51 -1.193,-2.814 -1.401,-4.148 -0.654,-3.467 -2.079,-10.213 -4.24,-20.067 -0.929,-4.241 -1.888,-12.478 -2.902,-21.199 -1.107,-9.515 -2.252,-19.354 -3.451,-24.685 l -0.003,0.235 c 0.871,-3.371 -1.637,-13.329 -5.314,-16.552 l 0.115,0.147 c -0.858,-1.672 -1.741,-3.294 -2.45,-4.598 -0.854,-1.57 -1.661,-3.053 -1.731,-3.37 l -0.26,0.553 c 0.411,-0.211 0.856,-0.429 1.329,-0.66 5.781,-2.829 15.458,-7.562 11.515,-24.457 -2.021,-8.466 -11.13,-14.067 -18.98,-16.485 -3.785,-1.167 -8.179,-1.822 -9.458,-0.657 l -0.024,0.022 -0.021,0.025 c -0.226,0.268 -0.32,0.594 -0.274,0.944 0.171,1.292 2.227,2.785 5.847,5.312 3.743,2.613 8.401,5.866 9.812,8.981 1.105,2.222 1.134,4.856 0.083,7.062 -0.655,1.376 -1.63,2.329 -2.608,2.549 -1.688,0.379 -6.037,-1.64 -9.213,-3.114 -1.638,-0.76 -3.052,-1.417 -4.05,-1.752 -5.941,-2.197 -9.793,1.787 -11.13,4.488 l 0.713,-0.203 c -0.913,-0.57 -1.694,-1.13 -2.45,-1.671 -4.063,-2.912 -6.748,-4.836 -19.541,-1.022 -4.751,1.357 -8.864,4.711 -12.493,7.67 -3.834,3.126 -7.146,5.827 -9.605,4.646 -4.787,-2.296 -6.331,-5.663 -7.647,-11.464 -0.772,-4.639 0.836,-9.717 2.011,-13.424 0.965,-3.047 1.603,-5.061 0.721,-5.954 l -0.021,-0.022 -0.024,-0.019 c -0.587,-0.462 -1.543,-0.418 -2.767,0.126 -4.623,2.061 -11.803,10.329 -12.531,21.528 -0.525,8.92 2.583,17.895 8.11,23.423 l 0.337,-0.853 c -8.195,0.274 -16.034,1.001 -22.95,1.643 -9.227,0.856 -17.195,1.595 -23.201,1.042 l 0.216,0.072 c -8.935,-5.498 -19.266,-8.384 -23.31,-7.63 l -0.267,0.05 -0.112,0.254 z m 23.372,8.252 c 6.098,0.562 14.109,-0.181 23.385,-1.042 6.902,-0.64 14.725,-1.366 22.891,-1.64 l 1.151,-0.039 -0.814,-0.814 C 76.901,81.444 73.905,72.763 74.414,64.122 75.183,52.293 82.935,44.97 86.354,43.446 c 0.973,-0.434 1.545,-0.408 1.74,-0.255 L 88.048,43.15 c 0.458,0.463 -0.265,2.743 -0.963,4.948 -1.205,3.805 -2.855,9.015 -2.039,13.919 1.15,5.072 2.556,9.468 8.196,12.173 3.032,1.455 6.571,-1.431 10.669,-4.773 3.555,-2.898 7.583,-6.183 12.142,-7.485 12.328,-3.675 14.718,-1.962 18.677,0.875 0.769,0.551 1.563,1.121 2.504,1.708 l 0.468,0.292 0.245,-0.495 c 0.327,-0.662 3.389,-6.396 9.9,-3.989 0.96,0.323 2.418,1 3.961,1.716 3.673,1.705 7.835,3.637 9.854,3.183 1.275,-0.286 2.507,-1.443 3.293,-3.095 1.181,-2.482 1.149,-5.443 -0.084,-7.921 -1.515,-3.349 -6.298,-6.689 -10.142,-9.372 -2.608,-1.822 -5.306,-3.705 -5.427,-4.624 -0.01,-0.072 0.003,-0.116 0.048,-0.169 l -0.046,0.048 c 0.576,-0.525 3.674,-0.611 8.49,0.873 7.586,2.337 16.378,7.705 18.301,15.76 3.762,16.116 -5.11,20.456 -10.98,23.328 -0.477,0.233 -0.927,0.454 -1.347,0.669 l -0.343,0.176 0.083,0.376 c 0.097,0.436 0.662,1.486 1.829,3.632 0.707,1.299 1.587,2.916 2.44,4.577 l 0.043,0.084 0.071,0.063 c 3.312,2.902 5.782,12.542 5.005,15.55 l -0.03,0.117 0.026,0.118 c 1.188,5.279 2.329,15.092 3.434,24.581 1.018,8.747 1.979,17.008 2.919,21.298 2.158,9.844 3.582,16.581 4.231,20.022 0.225,1.44 0.827,2.863 1.466,4.369 2.157,5.087 4.842,11.418 -2.628,25.885 -2.515,4.975 -8.5,9.725 -15.08,9.187 l -0.53,-0.044 -0.011,0.532 c -0.059,3.079 -1.392,6.248 -2.566,9.043 -1.235,2.938 -2.302,5.476 -1.76,7.421 l 0.583,-0.623 c -0.647,-0.135 -1.308,-0.258 -1.945,-0.377 -2.31,-0.433 -4.699,-0.881 -6.941,-1.911 -1.396,-0.688 -2.332,-1.737 -2.934,-3.298 l -0.964,0.234 c 0.126,1.14 0.269,2.431 1.949,4.559 l 0.586,-0.771 c -2.511,-1.055 -4.104,-1.75 -5.183,-2.711 -3.069,-2.277 -6.679,-7.482 -7.392,-12.699 l -0.085,-0.625 -0.589,0.226 c -1.476,0.564 -3.522,-0.526 -5.689,-1.681 -2.445,-1.303 -4.975,-2.649 -7.309,-2.001 l 0.345,0.028 c -3.154,-1.467 -6.499,-1.721 -9.45,-1.945 -1.1,-0.084 -2.139,-0.163 -3.103,-0.298 l -0.166,-0.023 c -0.003,0.002 -0.15,0.084 -0.15,0.084 l -1.317,0.733 c -3.104,1.712 -6.315,3.482 -9.683,7.641 l 0.443,-0.183 c -4.222,-0.462 -7.155,2.071 -10.26,4.753 -1.549,1.337 -3.15,2.72 -5.02,3.853 l 0.404,-0.051 c -2.665,-0.804 -6.674,2.015 -9.896,4.279 -0.997,0.701 -1.938,1.363 -2.696,1.813 l 0.649,0.121 c -0.723,-0.923 -1.364,-1.374 -2.015,-1.421 -0.748,-0.053 -1.264,0.443 -1.68,0.842 -0.237,0.228 -0.506,0.485 -0.667,0.466 -0.073,-0.01 -0.35,-0.101 -0.843,-0.89 l -0.27,-0.431 -0.426,0.276 c -4.136,2.681 -7.642,5.33 -8.841,6.463 l 0.584,-0.074 C 34.87,216.902 15.881,194.158 7.48,166.291 -0.389,140.186 1.632,110.406 13.171,82.437 L 12.8,82.738 c 3.78,-0.706 13.993,2.201 22.602,7.498 l 0.1,0.062 0.118,0.014 z"
               inkscape:connector-curvature="0" />
          </g>
          <path
             style="font-size:12px;overflow:visible"
             transform="matrix(0.933351,0,0,0.933351,7.0004,8.68737)"
             d="M 98.694,8.997 C 78.751,11.451 59.548,26.104 45.66,40.445 4.035,83.429 -11.669,148.36 26.015,198.509 c 44.867,59.71 127.056,55.518 173.923,0.831 47.81,-55.787 38.839,-141.121 -32.98,-165.262 -51.373,-17.27 -116.133,4.414 -138.221,62.219 -3.306,8.652 -3.501,16.55 -2.349,25.855 l -9.281,-1.002 c -0.402,-9.974 0.44,-18.433 4.411,-27.419 C 47.753,34.369 114.491,11.072 169.212,29.98 243.15,55.526 251.521,142.938 203.073,201.15 154.421,259.613 67.172,263.595 20.99,199.543 -16.167,148.005 -0.423,82.454 39.65,36.842 54.66,19.758 72.037,8.218 92.363,0 l 6.331,8.997 z"
             nodetypes="csssssccssssscc"
             id="path102"
             inkscape:connector-curvature="0" />
        </g>
      </g>
    </g>
    <g
       transform="matrix(1.8999229,0,0,1.8999229,164.46501,472.45886)"
       id="g6949"
       style="overflow:visible">
      <g
         id="g6951">
        <g
           id="g6953"
           transform="matrix(0.933351,0,0,0.933351,7.0004,8.68737)"
           style="font-size:12px;overflow:visible">
          <g
             id="g6955">
            <path
               inkscape:connector-curvature="0"
               d="m 5.231,277.872 h 2.184 v -7.098 c 1.144,1.404 2.418,2.028 4.186,2.028 3.51,0 5.824,-2.834 5.824,-7.177 0,-4.576 -2.236,-7.436 -5.85,-7.436 -1.846,0 -3.328,0.832 -4.342,2.443 v -2.053 H 5.231 v 19.293 z m 5.98,-17.653 c 2.392,0 3.952,2.106 3.952,5.356 0,3.094 -1.586,5.199 -3.952,5.199 -2.288,0 -3.796,-2.08 -3.796,-5.277 0.001,-3.199 1.509,-5.278 3.796,-5.278 z m 8.867,-1.638 v 13.623 h 2.184 v -7.072 c 0,-1.949 0.494,-3.223 1.534,-3.977 0.676,-0.494 1.326,-0.65 2.834,-0.677 v -2.21 c -0.364,-0.053 -0.546,-0.078 -0.832,-0.078 -1.404,0 -2.47,0.832 -3.718,2.859 v -2.469 h -2.002 z m 13.936,-0.391 c -3.822,0 -6.136,2.73 -6.136,7.307 0,4.577 2.288,7.306 6.162,7.306 3.822,0 6.162,-2.729 6.162,-7.202 0,-4.706 -2.263,-7.411 -6.188,-7.411 z m 0.026,2.002 c 2.444,0 3.9,2.002 3.9,5.383 0,3.197 -1.508,5.225 -3.9,5.225 -2.418,0 -3.9,-2.002 -3.9,-5.303 0,-3.276 1.482,-5.305 3.9,-5.305 z m 9.178,-1.611 v 15.6 c 0,1.352 -0.442,1.794 -1.768,1.794 -0.078,0 -0.078,0 -0.52,-0.026 v 1.846 c 0.26,0.053 0.39,0.078 0.728,0.078 2.444,0 3.718,-0.988 3.718,-2.834 v -16.457 h -2.158 z m 2.157,-5.33 h -2.158 v 2.729 h 2.158 v -2.729 z m 15.133,12.869 c 0,-2.08 -0.156,-3.328 -0.546,-4.342 -0.884,-2.236 -2.964,-3.588 -5.512,-3.588 -3.796,0 -6.24,2.912 -6.24,7.385 0,4.471 2.366,7.228 6.188,7.228 3.12,0 5.278,-1.769 5.824,-4.731 h -2.184 c -0.598,1.793 -1.82,2.729 -3.562,2.729 -1.378,0 -2.548,-0.623 -3.276,-1.768 -0.52,-0.779 -0.702,-1.56 -0.728,-2.912 h 10.036 z m -9.985,-1.767 c 0.182,-2.521 1.716,-4.16 3.9,-4.16 2.132,0 3.77,1.768 3.77,4.004 0,0.053 0,0.104 -0.026,0.156 h -7.644 z m 17.706,-5.772 h -2.236 v -3.744 h -2.158 v 3.744 H 61.99 v 1.768 h 1.846 v 10.296 c 0,1.378 0.936,2.158 2.626,2.158 0.52,0 1.04,-0.052 1.768,-0.183 v -1.82 c -0.286,0.078 -0.624,0.105 -1.04,0.105 -0.936,0 -1.196,-0.261 -1.196,-1.223 v -9.334 h 2.236 v -1.767 z m 7.697,-0.391 c -3.822,0 -6.136,2.73 -6.136,7.307 0,4.577 2.288,7.306 6.162,7.306 3.822,0 6.162,-2.729 6.162,-7.202 0,-4.706 -2.262,-7.411 -6.188,-7.411 z m 0.026,2.002 c 2.444,0 3.9,2.002 3.9,5.383 0,3.197 -1.508,5.225 -3.9,5.225 -2.418,0 -3.9,-2.002 -3.9,-5.303 0,-3.276 1.482,-5.305 3.9,-5.305 z"
               id="path6957" />
            <path
               inkscape:connector-curvature="0"
               style="fill:#cc0000"
               d="m 94.57,262.441 c -0.026,-2.679 -1.794,-4.187 -4.94,-4.187 -3.172,0 -5.226,1.639 -5.226,4.16 0,2.133 1.092,3.146 4.316,3.926 l 2.028,0.494 c 1.508,0.364 2.106,0.91 2.106,1.898 0,1.273 -1.274,2.132 -3.172,2.132 -1.17,0 -2.158,-0.338 -2.704,-0.91 -0.338,-0.39 -0.494,-0.78 -0.624,-1.741 h -2.288 c 0.104,3.146 1.872,4.653 5.434,4.653 3.432,0 5.616,-1.69 5.616,-4.315 0,-2.028 -1.144,-3.146 -3.848,-3.797 l -2.08,-0.494 c -1.768,-0.416 -2.522,-0.987 -2.522,-1.949 0,-1.248 1.118,-2.055 2.886,-2.055 1.742,0 2.678,0.754 2.73,2.185 h 2.288 z m 8.684,-4.186 c -3.822,0 -6.136,2.73 -6.136,7.307 0,4.577 2.288,7.306 6.162,7.306 3.822,0 6.162,-2.729 6.162,-7.202 0,-4.706 -2.262,-7.411 -6.188,-7.411 z m 0.026,2.002 c 2.444,0 3.9,2.002 3.9,5.383 0,3.197 -1.508,5.226 -3.9,5.226 -2.418,0 -3.9,-2.002 -3.9,-5.304 0,-3.277 1.482,-5.305 3.9,-5.305 z m 14.066,-1.611 h -2.261 v -2.133 c 0,-0.91 0.52,-1.377 1.508,-1.377 0.182,0 0.26,0 0.753,0.025 v -1.794 c -0.493,-0.104 -0.779,-0.13 -1.221,-0.13 -2.002,0 -3.198,1.145 -3.198,3.094 v 2.314 h -1.82 v 1.768 h 1.82 v 11.855 h 2.158 v -11.855 h 2.261 v -1.767 z m 7.125,0 h -2.236 v -3.744 h -2.158 v 3.744 h -1.846 v 1.768 h 1.846 v 10.297 c 0,1.377 0.936,2.157 2.626,2.157 0.521,0 1.04,-0.052 1.769,-0.183 v -1.819 c -0.286,0.078 -0.625,0.104 -1.041,0.104 -0.936,0 -1.195,-0.26 -1.195,-1.223 v -9.334 h 2.236 v -1.767 z m 15.027,13.623 4.004,-13.623 h -2.443 l -2.704,10.607 -2.679,-10.607 h -2.651 l -2.601,10.607 -2.781,-10.607 h -2.393 l 3.952,13.623 h 2.444 l 2.626,-10.686 2.756,10.686 h 2.47 z m 18.278,-1.274 c -0.233,0.053 -0.338,0.053 -0.468,0.053 -0.754,0 -1.17,-0.391 -1.17,-1.066 v -8.008 c 0,-2.418 -1.769,-3.719 -5.122,-3.719 -1.976,0 -3.614,0.572 -4.524,1.586 -0.624,0.703 -0.884,1.482 -0.936,2.834 h 2.184 c 0.182,-1.664 1.17,-2.418 3.198,-2.418 1.95,0 3.042,0.729 3.042,2.028 v 0.571 c 0,0.91 -0.546,1.301 -2.262,1.509 -3.068,0.39 -3.537,0.494 -4.368,0.832 -1.587,0.649 -2.392,1.872 -2.392,3.64 0,2.471 1.715,4.03 4.471,4.03 1.717,0 3.095,-0.599 4.629,-2.002 0.156,1.378 0.832,2.002 2.236,2.002 0.441,0 0.779,-0.052 1.481,-0.233 v -1.639 z m -3.796,-3.016 c 0,0.728 -0.208,1.17 -0.857,1.768 -0.885,0.807 -1.951,1.223 -3.225,1.223 -1.689,0 -2.678,-0.807 -2.678,-2.185 0,-1.431 0.961,-2.157 3.275,-2.496 2.288,-0.312 2.756,-0.416 3.484,-0.754 v 2.444 z m 6.136,-9.333 v 13.623 h 2.185 v -7.071 c 0,-1.95 0.494,-3.224 1.533,-3.978 0.676,-0.494 1.326,-0.65 2.834,-0.676 v -2.211 c -0.363,-0.052 -0.545,-0.078 -0.832,-0.078 -1.404,0 -2.47,0.832 -3.718,2.86 v -2.47 h -2.002 z m 20.202,7.539 c 0,-2.08 -0.156,-3.328 -0.546,-4.342 -0.884,-2.236 -2.964,-3.588 -5.513,-3.588 -3.795,0 -6.239,2.912 -6.239,7.385 0,4.472 2.366,7.228 6.188,7.228 3.119,0 5.277,-1.769 5.823,-4.731 h -2.185 c -0.598,1.793 -1.819,2.729 -3.562,2.729 -1.378,0 -2.548,-0.624 -3.276,-1.769 -0.52,-0.779 -0.701,-1.56 -0.728,-2.912 h 10.038 z m -9.984,-1.768 c 0.183,-2.521 1.717,-4.16 3.9,-4.16 2.132,0 3.77,1.769 3.77,4.004 0,0.053 0,0.104 -0.025,0.156 h -7.645 z"
               id="path6959" />
            <path
               inkscape:connector-curvature="0"
               d="m 185.323,253.218 h -2.185 v 18.954 h 2.185 v -18.954 z m 5.72,5.33 h -2.158 v 13.624 h 2.158 v -13.624 z m 0,-5.33 h -2.184 v 2.73 h 2.184 v -2.73 z m 9.282,18.954 5.226,-13.624 h -2.443 l -3.848,11.051 -3.641,-11.051 h -2.443 l 4.783,13.624 h 2.366 z m 7.384,-13.624 v 13.624 h 2.185 v -7.071 c 0,-1.951 0.493,-3.225 1.534,-3.979 0.676,-0.494 1.326,-0.65 2.834,-0.676 v -2.211 c -0.364,-0.051 -0.547,-0.077 -0.832,-0.077 -1.404,0 -2.471,0.831 -3.719,2.86 v -2.471 h -2.002 z m 20.202,7.54 c 0,-2.08 -0.155,-3.327 -0.546,-4.342 -0.884,-2.235 -2.964,-3.588 -5.512,-3.588 -3.797,0 -6.24,2.911 -6.24,7.384 0,4.473 2.366,7.229 6.188,7.229 3.121,0 5.279,-1.769 5.824,-4.732 h -2.184 c -0.598,1.794 -1.82,2.73 -3.562,2.73 -1.377,0 -2.547,-0.625 -3.275,-1.769 -0.52,-0.78 -0.702,-1.56 -0.729,-2.912 h 10.036 z m -9.983,-1.769 c 0.182,-2.521 1.716,-4.159 3.899,-4.159 2.132,0 3.771,1.769 3.771,4.004 0,0.052 0,0.104 -0.026,0.155 h -7.644 z"
               id="path6961" />
          </g>
          <path
             inkscape:connector-curvature="0"
             d="m 5.231,290.627 h 5.223 c 1.095,0 1.905,-0.286 2.524,-0.921 0.572,-0.572 0.889,-1.357 0.889,-2.218 0,-1.327 -0.635,-2.128 -2.111,-2.671 1.048,-0.467 1.604,-1.282 1.604,-2.398 0,-0.801 -0.318,-1.51 -0.921,-2.022 -0.603,-0.528 -1.397,-0.77 -2.508,-0.77 h -4.7 v 11 z m 1.477,-6.262 v -3.501 h 2.857 c 0.825,0 1.286,0.105 1.683,0.393 0.413,0.302 0.635,0.754 0.635,1.357 0,0.589 -0.222,1.057 -0.635,1.358 -0.397,0.286 -0.857,0.393 -1.683,0.393 H 6.708 z m 0,5.025 v -3.787 h 3.604 c 0.714,0 1.19,0.166 1.54,0.527 0.349,0.348 0.54,0.83 0.54,1.373 0,0.529 -0.19,1.012 -0.54,1.359 -0.349,0.361 -0.825,0.527 -1.54,0.527 H 6.708 z m 59.511,-2.067 1.191,3.304 h 1.651 l -4.064,-11 h -1.905 l -4.127,11 h 1.572 l 1.222,-3.304 h 4.46 z m -0.413,-1.177 h -3.683 l 1.905,-5.01 1.778,5.01 z m 56.352,-0.528 v 5.009 h 1.477 v -11 h -1.477 v 4.753 h -5.952 v -4.753 h -1.476 v 11 h 1.492 v -5.009 h 5.936 z m 49.924,-5.991 h -1.492 v 11 h 1.492 v -11 z m 52.988,7.696 1.189,3.304 h 1.651 l -4.063,-11 h -1.905 l -4.127,11 h 1.571 l 1.223,-3.304 h 4.461 z m -0.413,-1.177 h -3.683 l 1.904,-5.01 1.779,5.01 z"
             id="path6963" />
        </g>
        <g
           id="g6965">
          <g
             id="g6967">
            <g
               id="g6969">
              <path
                 inkscape:connector-curvature="0"
                 nodetypes="cccccccccsccsccssscccssssscsssssccc"
                 style="font-size:12px;fill:#cc0000;overflow:visible"
                 d="m 12.71,82.25 c -23.149,56.11 -8.553,118.309 49.445,150.255 1.048,-0.989 4.338,-3.534 8.77,-6.406 2.197,3.51 2.333,-2.659 5.236,1.046 3.151,-1.871 8.968,-7.017 12.192,-6.044 5.706,-3.458 8.953,-9.193 14.966,-8.536 3.79,-4.68 7.431,-6.309 10.858,-8.254 3.595,0.504 8.189,0.238 12.412,2.201 4.202,-1.167 9.6,4.984 13.043,3.667 0.734,5.374 4.455,10.708 7.554,13.005 1.144,1.02 2.815,1.746 5.322,2.799 -1.554,-1.967 -1.712,-3.1 -1.845,-4.304 0.635,1.647 1.634,2.806 3.191,3.572 2.926,1.345 5.994,1.702 8.994,2.323 -0.995,-3.571 4.224,-9.996 4.345,-16.32 6.608,0.541 12.832,-4.047 15.565,-9.455 9.854,-19.084 2.15,-24.537 1.209,-30.576 -0.709,-3.759 -2.274,-11.099 -4.234,-20.037 -1.958,-8.938 -4.07,-35.732 -6.353,-45.881 0.854,-3.303 -1.752,-13.064 -5.159,-16.051 -2.013,-3.918 -4.077,-7.417 -4.226,-8.089 5.466,-2.809 16.755,-6.695 12.585,-24.558 -3.275,-13.719 -25.188,-19.096 -27.614,-16.886 -1.886,2.243 12.647,8.502 15.456,14.709 2.263,4.546 -0.167,9.699 -2.871,10.305 -2.705,0.607 -10.445,-3.842 -13.531,-4.88 -6.383,-2.359 -9.777,2.731 -10.522,4.236 -5.835,-3.642 -6.655,-7.089 -21.583,-2.639 C 105.996,64.286 98.633,76.224 93.457,73.741 88.281,71.258 86.798,67.491 85.538,61.937 84.163,53.677 89.995,44.412 88.402,42.8 86.26,41.113 74.849,49.696 73.913,64.094 73.388,73.017 76.558,81.81 81.878,87.132 62.886,87.768 46.295,90.795 35.665,89.815 26.707,84.302 16.517,81.541 12.71,82.25 z"
                 id="path6971"
                 transform="matrix(0.933351,0,0,0.933351,7.0004,8.68737)" />
              <path
                 inkscape:connector-curvature="0"
                 style="font-size:12px;fill:#dd2e26;fill-opacity:1;fill-rule:evenodd;stroke-linecap:butt;stroke-linejoin:miter;overflow:visible"
                 d="m 24.51072,161.0703 c 3.0322,6.1952 10.28701,6.8253 9.50415,-1.5006 -2.63433,-22.6969 2.08848,-34.8305 9.00399,-41.0179 8.97651,-7.4897 24.84502,-8.7527 38.91161,-14.0963 16.78962,-6.68818 31.46363,-22.57162 36.83253,-26.93993 5.2071,-4.72183 12.2657,-4.59589 8.649,-8.59083 -3.0051,-2.90373 -10.4234,0.13159 -15.1381,2.61743 -4.7146,2.48587 -10.618,9.76002 -16.90086,8.44971 -2.80673,-0.08512 -2.3521,0.7251 -3.40537,4.73879 -0.61792,4.48439 -18.57362,6.98553 -21.17187,7.49176 -13.55307,3.29293 -28.73064,2.36611 -36.78088,1.3184 -15.02985,-2.72093 -17.68101,49.80147 -9.5042,67.52947 z"
                 id="path6973"
                 sodipodi:nodetypes="csssssssssss"
                 transform="matrix(1.0155,0,0,1.0155,-3.03039,3.09969)" />
              <path
                 inkscape:connector-curvature="0"
                 style="font-size:12px;fill:#dd2e26;fill-opacity:1;fill-rule:evenodd;stroke-width:1;stroke-linecap:butt;stroke-linejoin:miter;overflow:visible"
                 d="m 148.5648,69.03015 c 0,1.65758 -2.0679,2.0009 -4.0017,2.0009 -1.9338,0 -4.5019,0.1569 -4.5019,-1.50068 0,-1.65756 1.5677,-3.00131 3.5015,-3.00131 1.9338,0 5.0021,0.84353 5.0021,2.50109 z"
                 id="path6975"
                 sodipodi:nodetypes="ccccc"
                 transform="matrix(1.0155,0,0,1.0155,-3.03039,3.09969)" />
              <path
                 inkscape:connector-curvature="0"
                 nodetypes="cccccccccsccsccssscccssssscsssssccc"
                 style="font-size:12px;fill:#ad0000;fill-opacity:1;overflow:visible"
                 d="m 62.155,232.505 c 1.048,-0.989 4.338,-3.534 8.77,-6.406 2.197,3.51 2.333,-2.659 5.236,1.046 3.151,-1.871 8.96801,-7.017 12.192,-6.044 5.70601,-3.458 8.953,-9.193 14.966,-8.536 3.79,-4.68 7.431,-6.309 10.858,-8.254 3.595,0.504 8.189,0.238 12.412,2.201 4.202,-1.167 9.6,4.984 13.043,3.667 0.734,5.374 4.455,10.708 7.554,13.005 1.144,1.02 2.815,1.746 5.322,2.799 -1.554,-1.967 -1.712,-3.1 -1.845,-4.304 0.635,1.647 1.634,2.806 3.191,3.572 2.926,1.345 5.994,1.702 8.994,2.323 -0.995,-3.571 4.224,-9.996 4.345,-16.32 6.608,0.541 12.832,-4.047 15.565,-9.455 9.854,-19.084 2.15,-24.537 1.209,-30.576 -0.709,-3.759 -2.274,-11.099 -4.234,-20.037 -1.958,-8.938 -4.07,-35.732 -6.353,-45.881 0.854,-3.303 -1.752,-13.064 -5.159,-16.05099 -2.013,-3.918 -4.077,-7.417 -4.226,-8.08902 5.466,-2.80898 16.755,-6.69498 12.585,-24.55799 -0.577,12.18189 -7.9207,19.7553 -20.0596,20.34653 5.1288,14.11422 9.3847,29.87897 8.9807,44.92667 -0.8211,12.6259 -1.4986,25.2883 1.3008,37.907 3.2378,12.1629 8.2088,27.9116 -3.4733,34.7822 -8.1188,4.4576 -19.007,-0.8042 -24.7573,-3.0994 -9.7934,-4.3138 -20.8872,-4.1339 -27.1812,-1.9574 -10.9156,4.2424 -32.7115,18.4305 -44.809,20.9148 -12.18073,1.9581 -34.18742,-7.6192 -52.3823,-27.0037 7.64664,12.75 26.65111,33.8629 47.9562,49.0813 z"
                 id="path6977"
                 transform="matrix(0.933351,0,0,0.933351,7.0004,8.68737)"
                 sodipodi:nodetypes="cccccccccsccsccssscccssssscsssssccc" />
            </g>
            <path
               inkscape:connector-curvature="0"
               d="m 12.248,82.06 c -11.626,28.181 -13.659,58.199 -5.724,84.524 8.478,28.123 27.631,51.069 55.391,66.359 l 0.319,0.177 0.265,-0.251 c 0.931,-0.879 4.116,-3.38 8.699,-6.35 l -0.696,-0.154 c 0.535,0.854 1.034,1.284 1.568,1.351 0.634,0.078 1.085,-0.354 1.483,-0.736 0.37,-0.354 0.633,-0.586 0.917,-0.565 0.234,0.017 0.649,0.21 1.299,1.04 l 0.271,0.346 0.378,-0.225 c 0.791,-0.47 1.748,-1.143 2.761,-1.854 2.884,-2.027 6.833,-4.804 9.032,-4.141 l 0.213,0.064 0.19,-0.115 c 1.94,-1.177 3.574,-2.587 5.154,-3.951 3.063,-2.646 5.709,-4.93 9.499,-4.516 l 0.271,0.029 0.172,-0.212 c 3.244,-4.006 6.368,-5.729 9.388,-7.395 l 1.328,-0.739 -0.316,0.061 c 0.996,0.14 2.05,0.22 3.166,0.305 2.866,0.218 6.115,0.465 9.104,1.854 l 0.167,0.078 0.178,-0.05 c 1.949,-0.541 4.299,0.711 6.571,1.921 2.373,1.265 4.615,2.459 6.517,1.731 l -0.674,-0.399 c 0.75,5.488 4.553,10.969 7.751,13.339 1.162,1.039 2.82,1.764 5.427,2.858 l 1.788,0.751 -1.202,-1.521 c -1.504,-1.903 -1.618,-2.945 -1.74,-4.049 l -0.964,0.234 c 0.697,1.81 1.79,3.03 3.438,3.841 2.367,1.089 4.817,1.548 7.188,1.991 0.633,0.118 1.288,0.241 1.926,0.373 l 0.804,0.167 -0.221,-0.79 c -0.448,-1.611 0.556,-4 1.719,-6.766 1.21,-2.878 2.582,-6.141 2.645,-9.411 l -0.541,0.488 c 7.021,0.575 13.39,-4.458 16.053,-9.728 7.683,-14.88 4.778,-21.729 2.658,-26.73 -0.641,-1.51 -1.193,-2.814 -1.401,-4.148 -0.654,-3.467 -2.079,-10.213 -4.24,-20.067 -0.929,-4.241 -1.888,-12.478 -2.902,-21.199 -1.107,-9.515 -2.252,-19.354 -3.451,-24.685 l -0.003,0.235 c 0.871,-3.371 -1.637,-13.329 -5.314,-16.552 l 0.115,0.147 c -0.858,-1.672 -1.741,-3.294 -2.45,-4.598 -0.854,-1.57 -1.661,-3.053 -1.731,-3.37 l -0.26,0.553 c 0.411,-0.211 0.856,-0.429 1.329,-0.66 5.781,-2.829 15.458,-7.562 11.515,-24.457 -2.021,-8.466 -11.13,-14.067 -18.98,-16.485 -3.785,-1.167 -8.179,-1.822 -9.458,-0.657 l -0.024,0.022 -0.021,0.025 c -0.226,0.268 -0.32,0.594 -0.274,0.944 0.171,1.292 2.227,2.785 5.847,5.312 3.743,2.613 8.401,5.866 9.812,8.981 1.105,2.222 1.134,4.856 0.083,7.062 -0.655,1.376 -1.63,2.329 -2.608,2.549 -1.688,0.379 -6.037,-1.64 -9.213,-3.114 -1.638,-0.76 -3.052,-1.417 -4.05,-1.752 -5.941,-2.197 -9.793,1.787 -11.13,4.488 l 0.713,-0.203 c -0.913,-0.57 -1.694,-1.13 -2.45,-1.671 -4.063,-2.912 -6.748,-4.836 -19.541,-1.022 -4.751,1.357 -8.864,4.711 -12.493,7.67 -3.834,3.126 -7.146,5.827 -9.605,4.646 -4.787,-2.296 -6.331,-5.663 -7.647,-11.464 -0.772,-4.639 0.836,-9.717 2.011,-13.424 0.965,-3.047 1.603,-5.061 0.721,-5.954 l -0.021,-0.022 -0.024,-0.019 c -0.587,-0.462 -1.543,-0.418 -2.767,0.126 -4.623,2.061 -11.803,10.329 -12.531,21.528 -0.525,8.92 2.583,17.895 8.11,23.423 l 0.337,-0.853 c -8.195,0.274 -16.034,1.001 -22.95,1.643 -9.227,0.856 -17.195,1.595 -23.201,1.042 l 0.216,0.072 c -8.935,-5.498 -19.266,-8.384 -23.31,-7.63 l -0.267,0.05 -0.112,0.254 z m 23.372,8.252 c 6.098,0.562 14.109,-0.181 23.385,-1.042 6.902,-0.64 14.725,-1.366 22.891,-1.64 l 1.151,-0.039 -0.814,-0.814 C 76.901,81.444 73.905,72.763 74.414,64.122 75.183,52.293 82.935,44.97 86.354,43.446 c 0.973,-0.434 1.545,-0.408 1.74,-0.255 L 88.048,43.15 c 0.458,0.463 -0.265,2.743 -0.963,4.948 -1.205,3.805 -2.855,9.015 -2.039,13.919 1.15,5.072 2.556,9.468 8.196,12.173 3.032,1.455 6.571,-1.431 10.669,-4.773 3.555,-2.898 7.583,-6.183 12.142,-7.485 12.328,-3.675 14.718,-1.962 18.677,0.875 0.769,0.551 1.563,1.121 2.504,1.708 l 0.468,0.292 0.245,-0.495 c 0.327,-0.662 3.389,-6.396 9.9,-3.989 0.96,0.323 2.418,1 3.961,1.716 3.673,1.705 7.835,3.637 9.854,3.183 1.275,-0.286 2.507,-1.443 3.293,-3.095 1.181,-2.482 1.149,-5.443 -0.084,-7.921 -1.515,-3.349 -6.298,-6.689 -10.142,-9.372 -2.608,-1.822 -5.306,-3.705 -5.427,-4.624 -0.01,-0.072 0.003,-0.116 0.048,-0.169 l -0.046,0.048 c 0.576,-0.525 3.674,-0.611 8.49,0.873 7.586,2.337 16.378,7.705 18.301,15.76 3.762,16.116 -5.11,20.456 -10.98,23.328 -0.477,0.233 -0.927,0.454 -1.347,0.669 l -0.343,0.176 0.083,0.376 c 0.097,0.436 0.662,1.486 1.829,3.632 0.707,1.299 1.587,2.916 2.44,4.577 l 0.043,0.084 0.071,0.063 c 3.312,2.902 5.782,12.542 5.005,15.55 l -0.03,0.117 0.026,0.118 c 1.188,5.279 2.329,15.092 3.434,24.581 1.018,8.747 1.979,17.008 2.919,21.298 2.158,9.844 3.582,16.581 4.231,20.022 0.225,1.44 0.827,2.863 1.466,4.369 2.157,5.087 4.842,11.418 -2.628,25.885 -2.515,4.975 -8.5,9.725 -15.08,9.187 l -0.53,-0.044 -0.011,0.532 c -0.059,3.079 -1.392,6.248 -2.566,9.043 -1.235,2.938 -2.302,5.476 -1.76,7.421 l 0.583,-0.623 c -0.647,-0.135 -1.308,-0.258 -1.945,-0.377 -2.31,-0.433 -4.699,-0.881 -6.941,-1.911 -1.396,-0.688 -2.332,-1.737 -2.934,-3.298 l -0.964,0.234 c 0.126,1.14 0.269,2.431 1.949,4.559 l 0.586,-0.771 c -2.511,-1.055 -4.104,-1.75 -5.183,-2.711 -3.069,-2.277 -6.679,-7.482 -7.392,-12.699 l -0.085,-0.625 -0.589,0.226 c -1.476,0.564 -3.522,-0.526 -5.689,-1.681 -2.445,-1.303 -4.975,-2.649 -7.309,-2.001 l 0.345,0.028 c -3.154,-1.467 -6.499,-1.721 -9.45,-1.945 -1.1,-0.084 -2.139,-0.163 -3.103,-0.298 l -0.166,-0.023 c -0.003,0.002 -0.15,0.084 -0.15,0.084 l -1.317,0.733 c -3.104,1.712 -6.315,3.482 -9.683,7.641 l 0.443,-0.183 c -4.222,-0.462 -7.155,2.071 -10.26,4.753 -1.549,1.337 -3.15,2.72 -5.02,3.853 l 0.404,-0.051 c -2.665,-0.804 -6.674,2.015 -9.896,4.279 -0.997,0.701 -1.938,1.363 -2.696,1.813 l 0.649,0.121 c -0.723,-0.923 -1.364,-1.374 -2.015,-1.421 -0.748,-0.053 -1.264,0.443 -1.68,0.842 -0.237,0.228 -0.506,0.485 -0.667,0.466 -0.073,-0.01 -0.35,-0.101 -0.843,-0.89 l -0.27,-0.431 -0.426,0.276 c -4.136,2.681 -7.642,5.33 -8.841,6.463 l 0.584,-0.074 C 34.87,216.902 15.881,194.158 7.48,166.291 -0.389,140.186 1.632,110.406 13.171,82.437 L 12.8,82.738 c 3.78,-0.706 13.993,2.201 22.602,7.498 l 0.1,0.062 0.118,0.014 z"
               id="path6979"
               transform="matrix(0.933351,0,0,0.933351,7.0004,8.68737)"
               style="font-size:12px;overflow:visible" />
          </g>
          <path
             inkscape:connector-curvature="0"
             id="path6981"
             nodetypes="csssssccssssscc"
             d="M 98.694,8.997 C 78.751,11.451 59.548,26.104 45.66,40.445 4.035,83.429 -11.669,148.36 26.015,198.509 c 44.867,59.71 127.056,55.518 173.923,0.831 47.81,-55.787 38.839,-141.121 -32.98,-165.262 -51.373,-17.27 -116.133,4.414 -138.221,62.219 -3.306,8.652 -3.501,16.55 -2.349,25.855 l -9.281,-1.002 c -0.402,-9.974 0.44,-18.433 4.411,-27.419 C 47.753,34.369 114.491,11.072 169.212,29.98 243.15,55.526 251.521,142.938 203.073,201.15 154.421,259.613 67.172,263.595 20.99,199.543 -16.167,148.005 -0.423,82.454 39.65,36.842 54.66,19.758 72.037,8.218 92.363,0 l 6.331,8.997 z"
             transform="matrix(0.933351,0,0,0.933351,7.0004,8.68737)"
             style="font-size:12px;overflow:visible" />
        </g>
      </g>
    </g>
  </g>
</svg>
