<?xml version="1.0" encoding="UTF-8" standalone="no"?>
<!-- Created with Inkscape (http://www.inkscape.org/) -->

<svg
   xmlns:dc="http://purl.org/dc/elements/1.1/"
   xmlns:cc="http://creativecommons.org/ns#"
   xmlns:rdf="http://www.w3.org/1999/02/22-rdf-syntax-ns#"
   xmlns:svg="http://www.w3.org/2000/svg"
   xmlns="http://www.w3.org/2000/svg"
   xmlns:sodipodi="http://sodipodi.sourceforge.net/DTD/sodipodi-0.dtd"
   xmlns:inkscape="http://www.inkscape.org/namespaces/inkscape"
   width="210mm"
   height="297mm"
   id="svg6697"
   version="1.1"
   inkscape:version="0.48.4 r9939"
   sodipodi:docname="Novo documento 34">
  <defs
     id="defs6699" />
  <sodipodi:namedview
     id="base"
     pagecolor="#ffffff"
     bordercolor="#666666"
     borderopacity="1.0"
     inkscape:pageopacity="0.0"
     inkscape:pageshadow="2"
     inkscape:zoom="0.35"
     inkscape:cx="350"
     inkscape:cy="520"
     inkscape:document-units="px"
     inkscape:current-layer="layer1"
     showgrid="false"
     inkscape:window-width="1280"
     inkscape:window-height="972"
     inkscape:window-x="0"
     inkscape:window-y="25"
     inkscape:window-maximized="1" />
  <metadata
     id="metadata6702">
    <rdf:RDF>
      <cc:Work
         rdf:about="">
        <dc:format>image/svg+xml</dc:format>
        <dc:type
           rdf:resource="http://purl.org/dc/dcmitype/StillImage" />
        <dc:title></dc:title>
      </cc:Work>
    </rdf:RDF>
  </metadata>
  <g
     inkscape:label="Camada 1"
     inkscape:groupmode="layer"
     id="layer1">
    <g
       id="g4117"
       transform="matrix(0.18571229,0,0,0.18571229,-32.363792,171.9624)">
      <path
         style="fill:#d1effb"
         d="m 770.70618,699.50058 c -1.24387,-1.58606 -1.2085,-1.62143 0.37756,-0.37756 1.66575,1.30637 2.19548,2.12756 1.37244,2.12756 -0.20765,0 -0.99515,-0.7875 -1.75,-1.75 z m 95.56465,-7.5 -2.93709,-3.25 3.25,2.93709 c 3.02946,2.73778 3.70965,3.56291 2.93709,3.56291 -0.1721,0 -1.6346,-1.4625 -3.25,-3.25 z m 137.99047,-22.75 c 0,-12.375 0.1435,-17.4375 0.3189,-11.25 0.1755,6.1875 0.1755,16.3125 0,22.5 -0.1754,6.1875 -0.3189,1.125 -0.3189,-11.25 z m -47.00142,-0.5 c 7.5e-4,-12.1 0.14515,-16.91256 0.32089,-10.69458 0.17573,6.21799 0.17511,16.11799 -10e-4,22 -0.17649,5.88202 -0.32027,0.79458 -0.31951,-11.30542 z m 94.00262,-1 c 7e-4,-12.65 0.144,-17.68711 0.3185,-11.19358 0.1745,6.49353 0.1739,16.84353 -10e-4,23 -0.1752,6.15647 -0.3179,0.84358 -0.3172,-11.80642 z m -195.27087,19.5 c 0,-1.375 0.22698,-1.9375 0.50439,-1.25 0.27741,0.6875 0.27741,1.8125 0,2.5 -0.27741,0.6875 -0.50439,0.125 -0.50439,-1.25 z m -26.88886,-5.69299 c 0.97297,-0.25354 2.32297,-0.23687 3,0.0371 0.67703,0.27393 -0.11903,0.48137 -1.76903,0.46099 -1.65,-0.0204 -2.20394,-0.2445 -1.23097,-0.49804 z m 61.98097,0.004 c 0.9625,-0.25152 2.5375,-0.25152 3.5,0 0.9625,0.25153 0.175,0.45733 -1.75,0.45733 -1.925,0 -2.7125,-0.2058 -1.75,-0.45733 z m 10.75,-2.68857 c 0,-0.20765 0.7875,-0.99515 1.75,-1.75 1.58606,-1.24387 1.62143,-1.2085 0.37756,0.37756 -1.30637,1.66575 -2.12756,2.19548 -2.12756,1.37244 z M 790.1061,660.25058 c 0,-2.475 0.19502,-3.4875 0.43337,-2.25 0.23836,1.2375 0.23836,3.2625 0,4.5 -0.23835,1.2375 -0.43337,0.225 -0.43337,-2.25 z m 141.97982,-0.5 c 0.0111,-2.2 0.21589,-2.98225 0.45508,-1.73834 0.23919,1.24391 0.23011,3.04391 -0.0202,4 -0.25029,0.95609 -0.446,-0.0617 -0.4349,-2.26166 z m -29.37974,-18.25 c -1.24387,-1.58606 -1.2085,-1.62143 0.37756,-0.37756 1.66575,1.30637 2.19548,2.12756 1.37244,2.12756 -0.20765,0 -0.99515,-0.7875 -1.75,-1.75 z m 57.12756,-1.62756 c 0,-0.20765 0.7875,-0.99515 1.75,-1.75 1.58606,-1.24387 1.62143,-1.2085 0.37756,0.37756 -1.30637,1.66575 -2.12756,2.19548 -2.12756,1.37244 z m 16.87244,-1.37244 c -1.24387,-1.58606 -1.2085,-1.62143 0.37756,-0.37756 1.66575,1.30637 2.19548,2.12756 1.37244,2.12756 -0.20765,0 -0.99515,-0.7875 -1.75,-1.75 z m -147.60341,-0.94299 c 0.97297,-0.25354 2.32297,-0.23687 3,0.0371 0.67703,0.27393 -0.11903,0.48137 -1.76903,0.46099 -1.65,-0.0204 -2.20394,-0.2445 -1.23097,-0.49804 z m 63,0 c 0.97297,-0.25354 2.32297,-0.23687 3,0.0371 0.67703,0.27393 -0.11903,0.48137 -1.76903,0.46099 -1.65,-0.0204 -2.20394,-0.2445 -1.23097,-0.49804 z m 76.54347,-1.99012 c 0.72187,-0.28887 1.58438,-0.25335 1.91667,0.0789 0.33229,0.33229 -0.25834,0.56864 -1.3125,0.52522 -1.16495,-0.048 -1.4019,-0.28494 -0.60417,-0.60416 z m 46.99996,0 c 0.7219,-0.28887 1.5844,-0.25335 1.9167,0.0789 0.3323,0.33229 -0.2583,0.56864 -1.3125,0.52522 -1.1649,-0.048 -1.4019,-0.28494 -0.6042,-0.60416 z m -159.65457,-4.31689 c 0,-1.375 0.22698,-1.9375 0.50439,-1.25 0.27741,0.6875 0.27741,1.8125 0,2.5 -0.27741,0.6875 -0.50439,0.125 -0.50439,-1.25 z m -56.15789,-0.37756 c 0,-0.20765 0.7875,-0.99515 1.75,-1.75 1.58606,-1.24387 1.62143,-1.2085 0.37756,0.37756 -1.30637,1.66575 -2.12756,2.19548 -2.12756,1.37244 z m 242.87246,-6.37244 c -1.2439,-1.58606 -1.2085,-1.62143 0.3775,-0.37756 1.6658,1.30637 2.1955,2.12756 1.3725,2.12756 -0.2077,0 -0.9952,-0.7875 -1.75,-1.75 z m -343.87246,-5.62756 c 0,-0.20765 0.7875,-0.99515 1.75,-1.75 1.58606,-1.24387 1.62143,-1.2085 0.37756,0.37756 -1.30637,1.66575 -2.12756,2.19548 -2.12756,1.37244 z m 7.8125,-4.30555 c 0.72187,-0.28887 1.58438,-0.25335 1.91667,0.0789 0.33229,0.33229 -0.25834,0.56864 -1.3125,0.52522 -1.16495,-0.048 -1.4019,-0.28494 -0.60417,-0.60416 z m 166,-6 c 0.72187,-0.28887 1.58437,-0.25335 1.91667,0.0789 0.33229,0.33229 -0.25834,0.56864 -1.3125,0.52522 -1.16495,-0.048 -1.4019,-0.28494 -0.60417,-0.60416 z m 118.1875,-10.81689 c 1.29175,-1.375 2.57363,-2.5 2.84863,-2.5 0.275,0 -0.55688,1.125 -1.84863,2.5 -1.29175,1.375 -2.57363,2.5 -2.84863,2.5 -0.275,0 0.55688,-1.125 1.84863,-2.5 z m -200.5319,-58.5 c 0,-31.625 0.12658,-44.5625 0.28128,-28.75 0.15471,15.8125 0.15471,41.6875 0,57.5 -0.1547,15.8125 -0.28128,2.875 -0.28128,-28.75 z m 94.80426,21 c 0,-2.475 0.19502,-3.4875 0.43337,-2.25 0.23836,1.2375 0.23836,3.2625 0,4.5 -0.23835,1.2375 -0.43337,0.225 -0.43337,-2.25 z m 123,0 c 0,-2.475 0.195,-3.4875 0.4334,-2.25 0.2383,1.2375 0.2383,3.2625 0,4.5 -0.2384,1.2375 -0.4334,0.225 -0.4334,-2.25 z m -130.39992,-20.75 c -1.24387,-1.58606 -1.2085,-1.62143 0.37756,-0.37756 1.66575,1.30637 2.19548,2.12756 1.37244,2.12756 -0.20765,0 -0.99515,-0.7875 -1.75,-1.75 z m -45.87244,-13.56291 c 0,-0.1721 1.4625,-1.6346 3.25,-3.25 l 3.25,-2.93709 -2.93709,3.25 c -2.73778,3.02945 -3.56291,3.70965 -3.56291,2.93709 z m -72.5,-5.68709 c 0.33992,-0.55 0.81648,-1 1.05902,-1 0.24254,0 0.44098,0.45 0.44098,1 0,0.55 -0.47656,1 -1.05902,1 -0.58246,0 -0.7809,-0.45 -0.44098,-1 z m 21.90499,-5.25 -1.90499,-2.25 2.25,1.90499 c 2.11445,1.79022 2.70524,2.59501 1.90499,2.59501 -0.18976,0 -1.20226,-1.0125 -2.25,-2.25 z m -50.59249,-4.43311 c 0.72187,-0.28888 1.58438,-0.25335 1.91667,0.0789 0.33229,0.33229 -0.25834,0.56864 -1.3125,0.52522 -1.16495,-0.048 -1.4019,-0.28494 -0.60417,-0.60417 z m 140,0 c 0.72187,-0.28888 1.58437,-0.25335 1.91667,0.0789 0.33229,0.33229 -0.25834,0.56864 -1.3125,0.52522 -1.16495,-0.048 -1.4019,-0.28494 -0.60417,-0.60417 z m 88,0 c 0.72187,-0.28888 1.58438,-0.25335 1.91667,0.0789 0.33229,0.33229 -0.25834,0.56864 -1.3125,0.52522 -1.16495,-0.048 -1.4019,-0.28494 -0.60417,-0.60417 z m 11,0 c 0.72187,-0.28888 1.58438,-0.25335 1.91667,0.0789 0.33229,0.33229 -0.25834,0.56864 -1.3125,0.52522 -1.16495,-0.048 -1.4019,-0.28494 -0.60417,-0.60417 z m 77.99996,0 c 0.7219,-0.28888 1.5844,-0.25335 1.9167,0.0789 0.3323,0.33229 -0.2583,0.56864 -1.3125,0.52522 -1.1649,-0.048 -1.4019,-0.28494 -0.6042,-0.60417 z m 12,0 c 0.7219,-0.28888 1.5844,-0.25335 1.9167,0.0789 0.3323,0.33229 -0.2583,0.56864 -1.3125,0.52522 -1.1649,-0.048 -1.4019,-0.28494 -0.6042,-0.60417 z m -123.40747,-36.56689 -1.90499,-2.25 2.25,1.90499 c 1.2375,1.04774 2.25,2.06024 2.25,2.25 0,0.80025 -0.80479,0.20945 -2.59501,-1.90499 z"
         id="path4131"
         inkscape:connector-curvature="0" />
      <path
         style="fill:#ade4f9"
         d="m 790.91269,690.66725 c 0.048,-1.16495 0.28494,-1.4019 0.60416,-0.60417 0.28887,0.72187 0.25335,1.58437 -0.0789,1.91667 -0.3323,0.33229 -0.56864,-0.25834 -0.52522,-1.3125 z m 63,-28 c 0.048,-1.16495 0.28494,-1.4019 0.60416,-0.60417 0.28887,0.72187 0.25335,1.58437 -0.0789,1.91667 -0.3323,0.33229 -0.56864,-0.25834 -0.52522,-1.3125 z m 22,-1 c 0.048,-1.16495 0.28494,-1.4019 0.60416,-0.60417 0.28887,0.72187 0.25335,1.58437 -0.0789,1.91667 -0.3323,0.33229 -0.56864,-0.25834 -0.52522,-1.3125 z m -22,-5 c 0.048,-1.16495 0.28494,-1.4019 0.60416,-0.60417 0.28887,0.72187 0.25335,1.58437 -0.0789,1.91667 -0.3323,0.33229 -0.56864,-0.25834 -0.52522,-1.3125 z m -82.07895,-22.79423 c 0,-0.20765 0.7875,-0.99515 1.75,-1.75 1.58606,-1.24387 1.62143,-1.2085 0.37756,0.37756 -1.30637,1.66575 -2.12756,2.19548 -2.12756,1.37244 z m 146.87244,-6.37244 c -1.24387,-1.58606 -1.2085,-1.62143 0.37756,-0.37756 1.66575,1.30637 2.19548,2.12756 1.37244,2.12756 -0.20765,0 -0.99515,-0.7875 -1.75,-1.75 z m -181.62244,-4.93933 c 0.9625,-0.25152 2.5375,-0.25152 3.5,0 0.9625,0.25153 0.175,0.45733 -1.75,0.45733 -1.925,0 -2.7125,-0.2058 -1.75,-0.45733 z m 89.5625,-5.99378 c 0.72187,-0.28887 1.58437,-0.25335 1.91667,0.0789 0.33229,0.33229 -0.25834,0.56864 -1.3125,0.52522 -1.16495,-0.048 -1.4019,-0.28494 -0.60417,-0.60416 z m 5,0 c 0.72187,-0.28887 1.58437,-0.25335 1.91667,0.0789 0.33229,0.33229 -0.25834,0.56864 -1.3125,0.52522 -1.16495,-0.048 -1.4019,-0.28494 -0.60417,-0.60416 z m 58,0 c 0.72187,-0.28887 1.58437,-0.25335 1.91667,0.0789 0.33229,0.33229 -0.25834,0.56864 -1.3125,0.52522 -1.16495,-0.048 -1.4019,-0.28494 -0.60417,-0.60416 z m 5,0 c 0.72187,-0.28887 1.58437,-0.25335 1.91667,0.0789 0.33229,0.33229 -0.25834,0.56864 -1.3125,0.52522 -1.16495,-0.048 -1.4019,-0.28494 -0.60417,-0.60416 z m 83,0 c 0.72187,-0.28887 1.58438,-0.25335 1.91667,0.0789 0.33229,0.33229 -0.25834,0.56864 -1.3125,0.52522 -1.16495,-0.048 -1.4019,-0.28494 -0.60417,-0.60416 z m 40.99996,0 c 0.7219,-0.28887 1.5844,-0.25335 1.9167,0.0789 0.3323,0.33229 -0.2583,0.56864 -1.3125,0.52522 -1.1649,-0.048 -1.4019,-0.28494 -0.6042,-0.60416 z m 3.9375,0.0208 c 0.6875,-0.27741 1.8125,-0.27741 2.5,0 0.6875,0.27741 0.125,0.50439 -1.25,0.50439 -1.375,0 -1.9375,-0.22698 -1.25,-0.50439 z M 707.70618,598.50058 c -1.24387,-1.58606 -1.2085,-1.62143 0.37756,-0.37756 0.9625,0.75485 1.75,1.54235 1.75,1.75 0,0.82304 -0.82119,0.29331 -2.12756,-1.37244 z m 315.05192,-2 -2.4244,-2.75 2.75,2.42431 c 2.5703,2.26589 3.2086,3.07569 2.4244,3.07569 -0.1792,0 -1.4167,-1.2375 -2.75,-2.75 z m -206.45626,-57.25 c 0,-31.625 0.12658,-44.5625 0.28128,-28.75 0.15471,15.8125 0.15471,41.6875 0,57.5 -0.1547,15.8125 -0.28128,2.875 -0.28128,-28.75 z m 94.61085,24.41667 c 0.048,-1.16495 0.28494,-1.4019 0.60416,-0.60417 0.28887,0.72187 0.25335,1.58438 -0.0789,1.91667 -0.3323,0.33229 -0.56864,-0.25834 -0.52522,-1.3125 z m 123.11601,-3.91667 c 0.02,-1.65 0.2445,-2.20394 0.498,-1.23097 0.2536,0.97297 0.2369,2.32297 -0.037,3 -0.2738,0.67703 -0.4813,-0.11903 -0.4609,-1.76903 z"
         id="path4129"
         inkscape:connector-curvature="0" />
      <path
         style="fill:#8fdaf7"
         d="m 945.64624,701.56747 c 0.72187,-0.28887 1.58438,-0.25335 1.91667,0.0789 0.33229,0.33229 -0.25834,0.56864 -1.3125,0.52522 -1.16495,-0.048 -1.4019,-0.28494 -0.60417,-0.60416 z m 45.9375,0.0208 c 0.6875,-0.27741 1.8125,-0.27741 2.5,0 0.6875,0.27741 0.125,0.50439 -1.25,0.50439 -1.375,0 -1.9375,-0.22698 -1.25,-0.50439 z m 46.99996,0 c 0.6875,-0.27741 1.8125,-0.27741 2.5,0 0.6875,0.27741 0.125,0.50439 -1.25,0.50439 -1.375,0 -1.9375,-0.22698 -1.25,-0.50439 z m 7.25,-1.71528 c 0,-0.20765 0.7875,-0.99515 1.75,-1.75 1.5861,-1.24387 1.6215,-1.2085 0.3776,0.37756 -1.3064,1.66578 -2.1276,2.19551 -2.1276,1.37247 z M 786.70618,681.50058 c -1.24387,-1.58606 -1.2085,-1.62143 0.37756,-0.37756 0.9625,0.75485 1.75,1.54235 1.75,1.75 0,0.82304 -0.82119,0.29331 -2.12756,-1.37244 z m 67.20651,-21.83333 c 0.048,-1.16495 0.28494,-1.4019 0.60416,-0.60417 0.28887,0.72187 0.25335,1.58437 -0.0789,1.91667 -0.3323,0.33229 -0.56864,-0.25834 -0.52522,-1.3125 z m 91.73355,-42.09978 c 0.72187,-0.28887 1.58438,-0.25335 1.91667,0.0789 0.33229,0.33229 -0.25834,0.56864 -1.3125,0.52522 -1.16495,-0.048 -1.4019,-0.28494 -0.60417,-0.60416 z m -34.61755,-57.81689 c 0.0204,-1.65 0.2445,-2.20394 0.49804,-1.23097 0.25354,0.97297 0.23687,2.32297 -0.0371,3 -0.27388,0.67703 -0.48132,-0.11903 -0.46094,-1.76903 z m 162.96291,0.5 c 0,-1.375 0.227,-1.9375 0.5044,-1.25 0.2774,0.6875 0.2774,1.8125 0,2.5 -0.2774,0.6875 -0.5044,0.125 -0.5044,-1.25 z M 945.83374,540.87302 c 0,-0.20765 0.7875,-0.99515 1.75,-1.75 1.58606,-1.24387 1.62143,-1.2085 0.37756,0.37756 -1.30637,1.66575 -2.12756,2.19548 -2.12756,1.37244 z m 138.87246,-17.37244 c -1.2439,-1.58606 -1.2085,-1.62143 0.3775,-0.37756 1.6658,1.30637 2.1955,2.12756 1.3725,2.12756 -0.2077,0 -0.9952,-0.7875 -1.75,-1.75 z m -94.46747,-2.5 -1.90499,-2.25 2.25,1.90499 c 1.2375,1.04774 2.25,2.06024 2.25,2.25 0,0.80025 -0.80479,0.20946 -2.59501,-1.90499 z M 771.58374,511.5883 c 0.6875,-0.27741 1.8125,-0.27741 2.5,0 0.6875,0.27741 0.125,0.50438 -1.25,0.50438 -1.375,0 -1.9375,-0.22697 -1.25,-0.50438 z m 91.0625,-1.02083 c 0.72187,-0.28888 1.58437,-0.25335 1.91667,0.0789 0.33229,0.33229 -0.25834,0.56864 -1.3125,0.52522 -1.16495,-0.048 -1.4019,-0.28494 -0.60417,-0.60417 z"
         id="path4127"
         inkscape:connector-curvature="0" />
      <path
         style="fill:#6fd0f5"
         d="m 778.64624,702.56747 c 0.72187,-0.28887 1.58438,-0.25335 1.91667,0.0789 0.33229,0.33229 -0.25834,0.56864 -1.3125,0.52522 -1.16495,-0.048 -1.4019,-0.28494 -0.60417,-0.60416 z m 49.45653,-0.01 c 0.97297,-0.25354 2.32297,-0.23687 3,0.0371 0.67703,0.27393 -0.11903,0.48137 -1.76903,0.46099 -1.65,-0.0204 -2.20394,-0.2445 -1.23097,-0.49804 z m 62.98097,0.004 c 0.9625,-0.25152 2.5375,-0.25152 3.5,0 0.9625,0.25153 0.175,0.45733 -1.75,0.45733 -1.925,0 -2.7125,-0.2058 -1.75,-0.45733 z m -72.37756,-25.06089 c -1.24387,-1.58606 -1.2085,-1.62143 0.37756,-0.37756 0.9625,0.75485 1.75,1.54235 1.75,1.75 0,0.82304 -0.82119,0.29331 -2.12756,-1.37244 z m 91.32251,-17.75 c 0.0204,-1.65 0.2445,-2.20394 0.49804,-1.23097 0.25354,0.97297 0.23687,2.32297 -0.0371,3 -0.27393,0.67703 -0.48137,-0.11903 -0.46099,-1.76903 z m -98.116,-0.0833 c 0.048,-1.16495 0.28494,-1.4019 0.60416,-0.60417 0.28887,0.72187 0.25335,1.58437 -0.0789,1.91667 -0.33229,0.33229 -0.56864,-0.25834 -0.52522,-1.3125 z m 182.79349,-35.1667 c -1.24387,-1.58606 -1.2085,-1.62143 0.37756,-0.37756 1.66575,1.30637 2.19548,2.12756 1.37244,2.12756 -0.20765,0 -0.99515,-0.7875 -1.75,-1.75 z M 732.5954,608.54332 c 1.24391,-0.23919 3.04391,-0.23011 4,0.0202 0.95609,0.25029 -0.0617,0.446 -2.26166,0.4349 -2.2,-0.0111 -2.98225,-0.21589 -1.73834,-0.45508 z m 131,0 c 1.24391,-0.23919 3.04391,-0.23011 4,0.0202 0.95609,0.25029 -0.0617,0.446 -2.26166,0.4349 -2.2,-0.0111 -2.98225,-0.21589 -1.73834,-0.45508 z m 98.48834,0.0179 c 0.9625,-0.25152 2.5375,-0.25152 3.5,0 0.9625,0.25153 0.175,0.45733 -1.75,0.45733 -1.925,0 -2.7125,-0.2058 -1.75,-0.45733 z m 90.51166,-0.0179 c 1.2439,-0.23919 3.0439,-0.23011 4,0.0202 0.9561,0.25029 -0.062,0.446 -2.2617,0.4349 -2.2,-0.0111 -2.9822,-0.21589 -1.7383,-0.45508 z m -249.94916,-0.97585 c 0.72187,-0.28887 1.58437,-0.25335 1.91667,0.0789 0.33229,0.33229 -0.25834,0.56864 -1.3125,0.52522 -1.16495,-0.048 -1.4019,-0.28494 -0.60417,-0.60416 z m -17.65461,-5.31689 c 0,-1.375 0.22698,-1.9375 0.50439,-1.25 0.27741,0.6875 0.27741,1.8125 0,2.5 -0.27741,0.6875 -0.50439,0.125 -0.50439,-1.25 z m 157.71455,-1.75 c -1.24387,-1.58606 -1.2085,-1.62143 0.37756,-0.37756 0.9625,0.75485 1.75,1.54235 1.75,1.75 0,0.82304 -0.82119,0.29331 -2.12756,-1.37244 z m -46.37244,-4.25 c 0.99549,-1.1 2.03498,-2 2.30998,-2 0.275,0 -0.31449,0.9 -1.30998,2 -0.99549,1.1 -2.03498,2 -2.30998,2 -0.275,0 0.31449,-0.9 1.30998,-2 z m 74.5,-14.37756 c 0,-0.20765 0.7875,-0.99515 1.75,-1.75 1.58606,-1.24387 1.62143,-1.2085 0.37756,0.37756 -1.30637,1.66575 -2.12756,2.19548 -2.12756,1.37244 z M 820.08592,559.75058 c 0.0111,-2.2 0.21589,-2.98225 0.45508,-1.73834 0.23919,1.24391 0.23011,3.04391 -0.0202,4 -0.25029,0.95609 -0.446,-0.0617 -0.4349,-2.26166 z m 279.99998,0 c 0.011,-2.2 0.2159,-2.98225 0.4551,-1.73834 0.2392,1.24391 0.2301,3.04391 -0.02,4 -0.2503,0.95609 -0.446,-0.0617 -0.4349,-2.26166 z m -380.05721,0 c 0.0204,-1.65 0.2445,-2.20394 0.49804,-1.23097 0.25354,0.97297 0.23687,2.32297 -0.0371,3 -0.27393,0.67703 -0.48137,-0.11903 -0.46099,-1.76903 z m -26.03706,-0.5 c 0,-1.375 0.22698,-1.9375 0.50439,-1.25 0.27741,0.6875 0.27741,1.8125 0,2.5 -0.27741,0.6875 -0.50439,0.125 -0.50439,-1.25 z m 327.84207,-34.37756 c 0,-0.20765 0.7875,-0.99515 1.75,-1.75 1.5861,-1.24387 1.6215,-1.2085 0.3776,0.37756 -1.3064,1.66575 -2.1276,2.19548 -2.1276,1.37244 z m 31.8125,-14.30555 c 0.7219,-0.28888 1.5844,-0.25335 1.9167,0.0789 0.3323,0.33229 -0.2583,0.56864 -1.3125,0.52522 -1.1649,-0.048 -1.4019,-0.28494 -0.6042,-0.60417 z m -250.99996,-40 c 0.72187,-0.28887 1.58437,-0.25335 1.91667,0.0789 0.33229,0.33229 -0.25834,0.56864 -1.3125,0.52522 -1.16495,-0.048 -1.4019,-0.28494 -0.60417,-0.60416 z"
         id="path4125"
         inkscape:connector-curvature="0" />
      <path
         style="fill:#51c6f3"
         d="m 802.70618,691.50058 c -1.24387,-1.58606 -1.2085,-1.62143 0.37756,-0.37756 0.9625,0.75485 1.75,1.54235 1.75,1.75 0,0.82304 -0.82119,0.29331 -2.12756,-1.37244 z m 115.12756,1.37244 c 0,-0.20765 0.7875,-0.99515 1.75,-1.75 1.58606,-1.24387 1.62143,-1.2085 0.37756,0.37756 -1.30637,1.66575 -2.12756,2.19548 -2.12756,1.37244 z m 111.42616,-23.12244 c 7e-4,-12.1 0.1451,-16.91256 0.3209,-10.69458 0.1757,6.21799 0.1751,16.11799 -10e-4,22 -0.1765,5.88202 -0.3203,0.79458 -0.3195,-11.30542 z m -93.98152,-10 c -4.2e-4,-17.05 0.13593,-24.16558 0.30301,-15.81241 0.16707,8.35318 0.16742,22.30318 7.7e-4,31 -0.16665,8.69683 -0.30335,1.86241 -0.30378,-15.18759 z m 46.98012,9.5 c 0,-11.825 0.14466,-16.6625 0.32145,-10.75 0.1768,5.9125 0.1768,15.5875 0,21.5 -0.17679,5.9125 -0.32145,1.075 -0.32145,-10.75 z m -222.17258,-68.5 c 0.0111,-2.2 0.21589,-2.98225 0.45508,-1.73834 0.23919,1.24391 0.23011,3.04391 -0.0202,4 -0.25029,0.95609 -0.446,-0.0617 -0.4349,-2.26166 z m 25.20147,-38 c -2.9e-4,-20.9 0.13234,-29.59212 0.29473,-19.31582 0.1624,10.2763 0.16264,27.3763 5.4e-4,38 -0.1621,10.6237 -0.29497,2.21582 -0.29527,-18.68418 z m 48.47066,32.75 -2.42431,-2.75 2.75,2.42431 c 2.57029,2.26589 3.20859,3.07569 2.42431,3.07569 -0.17912,0 -1.41662,-1.2375 -2.75,-2.75 z m 81.54353,-55.75 c 1.4e-4,-31.35 0.12689,-44.03046 0.28166,-28.1788 0.15477,15.85166 0.15466,41.50166 -2.6e-4,57 -0.15491,15.49834 -0.28154,2.5288 -0.2814,-28.8212 z m -176.19881,45.80701 c 0.97297,-0.25354 2.32297,-0.23687 3,0.037 0.67703,0.27393 -0.11903,0.48137 -1.76903,0.46099 -1.65,-0.0204 -2.20394,-0.2445 -1.23097,-0.49804 z m 125.48097,0.0307 c 0.6875,-0.27741 1.8125,-0.27741 2.5,0 0.6875,0.27741 0.125,0.50439 -1.25,0.50439 -1.375,0 -1.9375,-0.22698 -1.25,-0.50439 z m 94.51903,-0.0307 c 0.97297,-0.25354 2.32297,-0.23687 3,0.037 0.67703,0.27393 -0.11903,0.48137 -1.76903,0.46099 -1.65,-0.0204 -2.20394,-0.2445 -1.23097,-0.49804 z m 94.00003,0 c 0.9729,-0.25354 2.3229,-0.23687 3,0.037 0.677,0.27393 -0.1191,0.48137 -1.7691,0.46099 -1.65,-0.0204 -2.2039,-0.2445 -1.2309,-0.49804 z m -176.26906,-3.68458 c 0,-0.20765 0.7875,-0.99515 1.75,-1.75 1.58606,-1.24387 1.62143,-1.2085 0.37756,0.37756 -1.30637,1.66575 -2.12756,2.19548 -2.12756,1.37244 z M 694.91269,564.66725 c 0.048,-1.16495 0.28494,-1.4019 0.60416,-0.60417 0.28888,0.72187 0.25335,1.58437 -0.0789,1.91667 -0.33229,0.33229 -0.56864,-0.25834 -0.52522,-1.3125 z m 310.20711,-3.91667 c 0.01,-2.75 0.2017,-3.75631 0.4315,-2.23625 0.2299,1.52006 0.2237,3.77006 -0.014,5 -0.2374,1.22994 -0.4254,-0.0137 -0.4179,-2.76375 z m -65.05406,-1.5 c 0,-1.925 0.2058,-2.7125 0.45733,-1.75 0.25152,0.9625 0.25152,2.5375 0,3.5 -0.25153,0.9625 -0.45733,0.175 -0.45733,-1.75 z m -188.35956,-20.75 c -1.24387,-1.58606 -1.2085,-1.62143 0.37756,-0.37756 0.9625,0.75485 1.75,1.54235 1.75,1.75 0,0.82304 -0.82119,0.29331 -2.12756,-1.37244 z m 220,0 c -1.24387,-1.58606 -1.2085,-1.62143 0.37756,-0.37756 0.9625,0.75485 1.75,1.54235 1.75,1.75 0,0.82304 -0.82119,0.29331 -2.12756,-1.37244 z m -262.37244,-16.25 c 0.99549,-1.1 2.03498,-2 2.30998,-2 0.275,0 -0.31449,0.9 -1.30998,2 -0.99549,1.1 -2.03498,2 -2.30997,2 -0.275,0 0.31448,-0.9 1.30997,-2 z m 230.91508,-21 c 0,-10.175 0.1485,-14.3375 0.32999,-9.25 0.18149,5.0875 0.18149,13.4125 0,18.5 -0.18149,5.0875 -0.32999,0.925 -0.32999,-9.25 z"
         id="path4123"
         inkscape:connector-curvature="0" />
      <path
         style="fill:#2bbaf0"
         d="m 770.70618,698.50058 c -1.24387,-1.58606 -1.2085,-1.62143 0.37756,-0.37756 0.9625,0.75485 1.75,1.54235 1.75,1.75 0,0.82304 -0.82119,0.29331 -2.12756,-1.37244 z m 96.05187,-7 -2.42431,-2.75 2.75,2.42431 c 2.57029,2.26589 3.20859,3.07569 2.42431,3.07569 -0.17912,0 -1.41662,-1.2375 -2.75,-2.75 z m 136.50325,-21.25 c 0,-12.375 0.1435,-17.4375 0.3189,-11.25 0.1755,6.1875 0.1755,16.3125 0,22.5 -0.1754,6.1875 -0.3189,1.125 -0.3189,-11.25 z m 47.0071,-3 c 0,-14.025 0.1407,-19.7625 0.3126,-12.75 0.1719,7.0125 0.1719,18.4875 0,25.5 -0.1719,7.0125 -0.3126,1.275 -0.3126,-12.75 z m -220.62216,15.31689 c 0.72187,-0.28887 1.58437,-0.25335 1.91667,0.0789 0.33229,0.33229 -0.25834,0.56864 -1.3125,0.52522 -1.16495,-0.048 -1.4019,-0.28494 -0.60417,-0.60416 z m 63,0 c 0.72187,-0.28887 1.58437,-0.25335 1.91667,0.0789 0.33229,0.33229 -0.25834,0.56864 -1.3125,0.52522 -1.16495,-0.048 -1.4019,-0.28494 -0.60417,-0.60416 z m -37.73355,-15.90022 c 0.048,-1.16495 0.28494,-1.4019 0.60416,-0.60417 0.28887,0.72187 0.25335,1.58437 -0.0789,1.91667 -0.3323,0.33229 -0.56864,-0.25834 -0.52522,-1.3125 z m -63.79294,-6.91667 c 0.008,-2.75 0.20172,-3.75631 0.43157,-2.23625 0.22986,1.52006 0.22371,3.77006 -0.0136,5 -0.23736,1.22994 -0.42542,-0.0137 -0.41792,-2.76375 z m 139.79294,-3.08333 c 0.048,-1.16495 0.28494,-1.4019 0.60416,-0.60417 0.28887,0.72187 0.25335,1.58437 -0.0789,1.91667 -0.3323,0.33229 -0.56864,-0.25834 -0.52522,-1.3125 z m -196.31104,-12.1414 c 1.79735,-0.22256 4.49735,-0.21797 6,0.0102 1.50265,0.22818 0.0321,0.41027 -3.26791,0.40466 -3.3,-0.006 -4.52944,-0.1923 -2.73209,-0.41486 z m 168.63708,-3.52527 -1.90499,-2.25 2.25,1.90499 c 2.11444,1.79022 2.70524,2.59501 1.90499,2.59501 -0.18976,0 -1.20226,-1.0125 -2.25,-2.25 z m 55.59501,-1.12756 c 0,-0.20765 0.7875,-0.99515 1.75,-1.75 1.58606,-1.24387 1.62143,-1.2085 0.37756,0.37756 -1.30637,1.66575 -2.12756,2.19548 -2.12756,1.37244 z m 18.87244,-1.37244 c -1.24387,-1.58606 -1.2085,-1.62143 0.37756,-0.37756 1.66575,1.30637 2.19548,2.12756 1.37244,2.12756 -0.20765,0 -0.99515,-0.7875 -1.75,-1.75 z m 47.00002,0 c -1.2439,-1.58606 -1.2085,-1.62143 0.3775,-0.37756 0.9625,0.75485 1.75,1.54235 1.75,1.75 0,0.82304 -0.8211,0.29331 -2.1275,-1.37244 z m -195.05996,-1.93311 c 0.72187,-0.28887 1.58437,-0.25335 1.91667,0.0789 0.33229,0.33229 -0.25834,0.56864 -1.3125,0.52522 -1.16495,-0.048 -1.4019,-0.28494 -0.60417,-0.60416 z m 63,0 c 0.72187,-0.28887 1.58437,-0.25335 1.91667,0.0789 0.33229,0.33229 -0.25834,0.56864 -1.3125,0.52522 -1.16495,-0.048 -1.4019,-0.28494 -0.60417,-0.60416 z m -119.8125,-4.69445 c 0,-0.20765 0.7875,-0.99515 1.75,-1.75 1.58606,-1.24387 1.62143,-1.2085 0.37756,0.37756 -1.30637,1.66575 -2.12756,2.19548 -2.12756,1.37244 z m 28,-1 c 0,-0.20765 0.7875,-0.99515 1.75,-1.75 1.58606,-1.24387 1.62143,-1.2085 0.37756,0.37756 -1.30637,1.66575 -2.12756,2.19548 -2.12756,1.37244 z m 240.87246,-6.37244 c -1.2439,-1.58606 -1.2085,-1.62143 0.3775,-0.37756 1.6658,1.30637 2.1955,2.12756 1.3725,2.12756 -0.2077,0 -0.9952,-0.7875 -1.75,-1.75 z m -103.87246,-2.62756 c 0,-0.20765 0.7875,-0.99515 1.75,-1.75 1.58606,-1.24387 1.62143,-1.2085 0.37756,0.37756 -1.30637,1.66575 -2.12756,2.19548 -2.12756,1.37244 z m 88.81246,-4.30555 c 0.7219,-0.28887 1.5844,-0.25335 1.9167,0.0789 0.3323,0.33229 -0.2583,0.56864 -1.3125,0.52522 -1.1649,-0.048 -1.4019,-0.28494 -0.6042,-0.60416 z m -242.73351,-8.90022 c 0.048,-1.16495 0.28494,-1.4019 0.60416,-0.60417 0.28888,0.72187 0.25335,1.58437 -0.0789,1.91667 -0.33229,0.33229 -0.56864,-0.25834 -0.52522,-1.3125 z m 206.42105,-11.41667 c 0.99549,-1.1 2.03498,-2 2.30998,-2 0.275,0 -0.31449,0.9 -1.30998,2 -0.99549,1.1 -2.03498,2 -2.30998,2 -0.275,0 0.31449,-0.9 1.30998,-2 z m 91.49996,1.62244 c 0,-0.20765 0.7875,-0.99515 1.75,-1.75 1.5861,-1.24387 1.6215,-1.2085 0.3776,0.37756 -1.3064,1.66575 -2.1276,2.19548 -2.1276,1.37244 z m -290.92101,-3.20577 c 0.048,-1.16495 0.28494,-1.4019 0.60416,-0.60417 0.28887,0.72187 0.25335,1.58437 -0.0789,1.91667 -0.3323,0.33229 -0.56864,-0.25834 -0.52522,-1.3125 z m -64.20651,-15.16667 c -1.24387,-1.58606 -1.2085,-1.62143 0.37756,-0.37756 0.9625,0.75485 1.75,1.54235 1.75,1.75 0,0.82304 -0.82119,0.29331 -2.12756,-1.37244 z m 314.00002,0 c -1.2439,-1.58606 -1.2085,-1.62143 0.3775,-0.37756 0.9625,0.75485 1.75,1.54235 1.75,1.75 0,0.82304 -0.8211,0.29331 -2.1275,-1.37244 z m -344.79351,-8.83333 c 0.048,-1.16495 0.28494,-1.4019 0.60416,-0.60417 0.28888,0.72187 0.25335,1.58437 -0.0789,1.91667 -0.33229,0.33229 -0.56864,-0.25834 -0.52522,-1.3125 z m 284,-8 c 0.048,-1.16495 0.28494,-1.4019 0.60416,-0.60417 0.28887,0.72187 0.25335,1.58438 -0.0789,1.91667 -0.33229,0.33229 -0.56864,-0.25834 -0.52522,-1.3125 z m 29.00001,0 c 0.048,-1.16495 0.2849,-1.4019 0.6041,-0.60417 0.2889,0.72187 0.2534,1.58438 -0.079,1.91667 -0.3322,0.33229 -0.5686,-0.25834 -0.5252,-1.3125 z m -249.00001,-1 c 0.048,-1.16495 0.28494,-1.4019 0.60416,-0.60417 0.28888,0.72187 0.25335,1.58438 -0.0789,1.91667 -0.33229,0.33229 -0.56864,-0.25834 -0.52522,-1.3125 z m 85.19341,-2.41667 c 0,-2.475 0.19502,-3.4875 0.43337,-2.25 0.23836,1.2375 0.23836,3.2625 0,4.5 -0.23835,1.2375 -0.43337,0.225 -0.43337,-2.25 z m 254,0 c 0,-2.475 0.195,-3.4875 0.4334,-2.25 0.2383,1.2375 0.2383,3.2625 0,4.5 -0.2384,1.2375 -0.4334,0.225 -0.4334,-2.25 z m -404.04036,0 c 0,-1.925 0.2058,-2.7125 0.45733,-1.75 0.25152,0.9625 0.25152,2.5375 0,3.5 -0.25153,0.9625 -0.45733,0.175 -0.45733,-1.75 z m 64.84695,-2.58333 c 0.048,-1.16495 0.28494,-1.4019 0.60416,-0.60417 0.28888,0.72187 0.25335,1.58438 -0.0789,1.91667 -0.33229,0.33229 -0.56864,-0.25834 -0.52522,-1.3125 z m 249.00001,-1 c 0.048,-1.16495 0.2849,-1.4019 0.6041,-0.60417 0.2889,0.72187 0.2534,1.58438 -0.079,1.91667 -0.3322,0.33229 -0.5686,-0.25834 -0.5252,-1.3125 z m -29.00001,-1 c 0.048,-1.16495 0.28494,-1.4019 0.60416,-0.60417 0.28887,0.72187 0.25335,1.58438 -0.0789,1.91667 -0.33229,0.33229 -0.56864,-0.25834 -0.52522,-1.3125 z M 877.70618,538.50058 c -1.24387,-1.58606 -1.2085,-1.62143 0.37756,-0.37756 1.66575,1.30637 2.19548,2.12756 1.37244,2.12756 -0.20765,0 -0.99515,-0.7875 -1.75,-1.75 z m -138.60341,-4.94299 c 0.97297,-0.25354 2.32297,-0.23687 3,0.0371 0.67703,0.27393 -0.11903,0.48137 -1.76903,0.46099 -1.65,-0.0204 -2.20394,-0.2445 -1.23097,-0.49804 z m 125,0 c 0.97297,-0.25354 2.32297,-0.23687 3,0.0371 0.67703,0.27392 -0.11903,0.48137 -1.76903,0.46099 -1.65,-0.0204 -2.20394,-0.2445 -1.23097,-0.49804 z m 95,0 c 0.97297,-0.25354 2.32297,-0.23687 3,0.0371 0.67703,0.27392 -0.11903,0.48137 -1.76903,0.46099 -1.65,-0.0204 -2.20394,-0.2445 -1.23097,-0.49804 z m 94.00003,0 c 0.9729,-0.25354 2.3229,-0.23687 3,0.0371 0.677,0.27392 -0.1191,0.48137 -1.7691,0.46099 -1.65,-0.0204 -2.2039,-0.2445 -1.2309,-0.49804 z m -218.26906,-9.80701 c 1.29175,-1.375 2.57363,-2.5 2.84863,-2.5 0.275,0 -0.55688,1.125 -1.84863,2.5 -1.29175,1.375 -2.57363,2.5 -2.84863,2.5 -0.275,0 0.55688,-1.125 1.84863,-2.5 z m -54.12756,-8.25 c -1.24387,-1.58606 -1.2085,-1.62143 0.37756,-0.37756 1.66575,1.30637 2.19548,2.12756 1.37244,2.12756 -0.20765,0 -0.99515,-0.7875 -1.75,-1.75 z m 155,-41 c -1.24387,-1.58606 -1.2085,-1.62143 0.37756,-0.37756 1.66575,1.30637 2.19548,2.12756 1.37244,2.12756 -0.20765,0 -0.99515,-0.7875 -1.75,-1.75 z"
         id="path4121"
         inkscape:connector-curvature="0" />
      <path
         style="fill:#00acee"
         d="m 774.93014,700.98584 c -8.09927,-4.16238 -8.65679,-16.32563 -0.93142,-20.32057 5.85486,-3.02767 13.01787,-0.61465 15.44923,5.20441 4.09104,9.79123 -5.48266,19.7595 -14.51781,15.11616 z m 44.67955,-0.1502 c -10.88323,-3.14376 -18.95941,-10.35346 -24.06177,-21.4802 -2.5968,-5.66287 -3.09293,-8.10238 -3.47859,-17.10486 -0.38074,-8.88744 -0.12051,-11.47195 1.69444,-16.82871 4.00298,-11.81468 10.67258,-19.585 21.06997,-24.54725 5.71309,-2.72663 7.52904,-3.0993 15,-3.07834 18.52889,0.052 29.1956,7.91782 24.41081,18.00102 -2.47859,5.22324 -5.10355,6.11793 -11.60279,3.9547 -9.01828,-3.00169 -12.12009,-3.4736 -16.01255,-2.43617 -19.44237,5.18187 -19.32997,39.67466 0.14637,44.91909 3.40922,0.91801 5.09536,0.69594 11.97171,-1.57672 9.3671,-3.09586 12.28779,-2.73565 15.15628,1.86922 3.94741,6.33689 -0.0618,13.07296 -10.00416,16.80856 -6.99871,2.62959 -18.022,3.31017 -24.28972,1.49966 z m 64.96997,0.32927 c -6.43568,-1.51678 -13.09396,-5.50993 -18.08567,-10.84646 -23.09502,-24.69045 -9.10965,-68.97615 22.92722,-72.60071 25.01498,-2.83012 45.25414,21.31538 41.30969,49.28284 -3.38441,23.9967 -24.13034,39.35426 -46.15124,34.16433 z m 16.42524,-20.51968 c 5.36751,-2.74181 9.82884,-12.21569 9.82884,-20.87208 0,-18.16383 -15.25249,-28.97781 -27.39735,-19.42465 -7.01656,5.51922 -9.83864,20.83362 -5.63838,30.5974 4.5939,10.67879 13.77635,14.5166 23.20689,9.69933 z m 40.17779,19.42901 c -1.18307,-0.57254 -2.89861,-2.45458 -3.81231,-4.18232 -1.47391,-2.78707 -1.62605,-7.01334 -1.34895,-37.47442 l 0.31231,-34.33309 3.26578,-2.91691 c 2.23016,-1.99194 4.32789,-2.91692 6.61514,-2.91692 3.93043,0 8.61908,3.30339 8.61908,6.07258 0,2.55368 0.25036,2.48643 5.41249,-1.45392 10.42452,-7.95722 25.31548,-6.83709 35.30714,2.65587 l 3.21963,3.05893 2.7727,-2.77266 c 1.5249,-1.52497 5.0261,-3.94289 7.7803,-5.37314 4.2304,-2.19678 6.2497,-2.58844 13.0077,-2.52297 11.8792,0.11508 19.8929,4.55354 24.809,13.74063 2.0864,3.89907 2.2057,5.47804 2.4986,33.05281 0.3329,31.33385 0.1725,32.46658 -4.9725,35.12718 -3.2696,1.69078 -5.9156,1.79075 -9.0919,0.34353 -4.9252,-2.24408 -5.2096,-3.75084 -5.7432,-30.42884 -0.4277,-21.38847 -0.7552,-25.46705 -2.2669,-28.23307 -3.7231,-6.81254 -13.1945,-8.43471 -19.0793,-3.26775 -4.9305,4.32897 -5.6538,8.59915 -5.6538,33.37854 0,11.82064 -0.4306,22.62482 -0.957,24.00928 -1.0258,2.69797 -5.67188,5.613 -8.94625,5.613 -3.5668,0 -6.96463,-2.20189 -8.54852,-5.53969 -1.25494,-2.64459 -1.55235,-7.59044 -1.57015,-26.11144 -0.0195,-20.2814 -0.2354,-23.31898 -1.92142,-27.03255 -3.06402,-6.74873 -11.20587,-9.35898 -18.08935,-5.79939 -5.50257,2.84549 -5.96727,5.14205 -5.96727,29.49059 0,25.57156 -0.76574,30.26877 -5.39455,33.09135 -3.40933,2.07896 -6.94238,2.32863 -10.2565,0.72479 z M 721.11123,642.73949 c -13.1102,-2.84871 -22.59867,-8.83076 -23.83215,-15.02509 -0.72654,-3.64856 2.75707,-9.30399 6.98253,-11.33575 2.56688,-1.23424 3.61685,-1.10237 10.46267,1.31404 12.24127,4.32089 17.26827,5.5334 22.99344,5.54602 14.79591,0.0326 23.11602,-8.22088 23.11602,-22.93095 0,-2.23145 -0.23875,-4.05718 -0.53055,-4.05718 -0.2918,0 -1.8251,1.47441 -3.40732,3.27646 -1.58222,1.80205 -5.05598,4.38955 -7.71945,5.75 -4.1968,2.14364 -6.1764,2.47354 -14.84268,2.47354 -8.68362,0 -10.72401,-0.34151 -15.5,-2.59433 -14.59654,-6.88512 -23,-23.46524 -23,-45.37923 0,-23.80863 13.24782,-42.96798 32.86706,-47.53321 10.23437,-2.38146 22.19198,0.66855 28.36656,7.23542 1.69177,1.79924 3.23307,2.82135 3.42513,2.27135 3.32983,-9.53593 14.25884,-12.36942 20.91609,-5.42278 l 2.92516,3.05233 0.2954,42.18522 c 0.19369,27.66022 -0.0861,44.40278 -0.81244,48.6257 -2.81138,16.34408 -13.94426,28.20973 -30.51792,32.52662 -7.23039,1.88328 -23.56987,1.89436 -32.18755,0.0218 z m 24.75749,-57.48212 c 4.20054,-1.16696 10.29502,-7.11362 12.30525,-12.00679 3.7337,-9.08836 2.81714,-21.97193 -2.13292,-29.98114 -8.5961,-13.90853 -25.11483,-12.72548 -32.97195,2.3614 -2.29988,4.41612 -2.67106,6.35664 -2.70084,14.11974 -0.0302,7.88217 0.31471,9.71117 2.77722,14.72587 4.75252,9.67809 12.85521,13.52237 22.72324,10.78092 z m 107.85749,21.54375 c -19.39936,-5.3498 -32.89247,-24.44571 -32.89247,-46.55054 0,-13.18675 4.63152,-25.24765 13.28443,-34.59382 21.51796,-23.24196 57.45812,-17.27467 71.24004,11.82827 6.93441,14.64323 6.96366,30.92449 0.0813,45.26555 -5.93757,12.37242 -14.23517,19.76082 -26.4187,23.52393 -7.32714,2.26313 -18.17848,2.48904 -25.29462,0.52661 z m 19.72362,-22.46366 c 7.99317,-3.62984 12.26971,-12.01228 12.34002,-24.18766 0.0848,-14.68168 -6.24564,-24.37363 -17.19129,-26.32007 -8.45262,-1.5031 -15.9071,2.92446 -20.40613,12.12015 -2.29564,4.69212 -2.74658,6.92918 -2.76241,13.7041 -0.0289,12.35302 4.36484,20.76561 12.90372,24.70656 5.09167,2.34995 9.9067,2.3426 15.11609,-0.0231 z m 81.52337,22.8243 c -4.45766,-1.3605 -10.56027,-5.27525 -12.65727,-8.1195 -0.92929,-1.26042 -1.86973,-1.84168 -2.08987,-1.29168 -3.44348,8.60321 -10.98158,11.83224 -18.52076,7.93358 -5.89765,-3.04979 -5.87156,-2.7543 -5.87156,-66.50033 0,-64.8263 -0.16375,-63.20407 6.70906,-66.46543 4.80785,-2.28148 9.86525,-1.35444 13.74136,2.51883 l 3.04958,3.04734 0.30719,20.48301 c 0.16895,11.26565 0.53882,20.483 0.82193,20.483 0.28311,0 2.50107,-1.16407 4.92882,-2.58682 8.72078,-5.11072 19.38044,-6.60498 28.94206,-4.05709 7.19613,1.91757 11.18549,4.22776 16.4018,9.49809 15.11436,15.27091 18.64966,44.1163 7.88896,64.36902 -3.86727,7.27862 -12.15608,15.13907 -19.51832,18.50961 -6.405,2.9323 -18.18019,3.9952 -24.13298,2.17837 z m 12.43128,-22.80399 c 5.46514,-2.48222 9.8811,-8.09284 11.8264,-15.02585 1.99709,-7.11758 2.02818,-12.28612 0.11272,-18.73619 -4.90496,-16.51678 -19.9916,-22.13224 -31.50811,-11.72777 -5.33105,4.81628 -7.51371,10.93213 -7.45271,20.88262 0.0755,12.3115 4.49333,20.70651 12.95096,24.60996 5.06212,2.33632 8.92239,2.33556 14.07074,-0.003 z m 77.47042,23.22155 c -32.5221,-6.91189 -46.45228,-49.8421 -25.4548,-78.44643 15.3247,-20.8763 46.0724,-23.74721 64.29,-6.00273 10.0809,9.81908 14.0969,19.09184 14.8468,34.28041 0.4498,9.1091 0.2051,11.72785 -1.682,18 -4.0389,13.42469 -11.9068,22.85854 -23.8582,28.60658 -6.4818,3.11746 -8.3651,3.55141 -16.5,3.80194 -5.0506,0.15555 -10.2894,0.0477 -11.6418,-0.23977 z m 15.0961,-22.3502 c 5.1056,-1.41815 11.3413,-8.48362 13.2958,-15.06507 7.7274,-26.02083 -14.9742,-47.63553 -32.0726,-30.53713 -5.4499,5.44995 -7.7904,13.0227 -7.1429,23.11145 1.0691,16.65954 12.1858,26.30554 25.9197,22.49075 z m -261.13726,21.368 c -3.50039,-1.40273 -5.96649,-4.86816 -6.99708,-9.83247 -0.7236,-3.48558 -0.98696,-23.61309 -0.79312,-60.61619 0.26582,-50.74445 0.43862,-55.66946 2.05713,-58.63095 3.31745,-6.07019 10.51633,-7.91581 16.54325,-4.2413 6.26471,3.81949 6.18982,3.02129 6.18982,65.97437 0,60.70737 -0.0289,61.09942 -4.8214,65.36826 -2.12512,1.89292 -9.43041,3.07959 -12.1786,1.97828 z"
         id="path4119"
         inkscape:connector-curvature="0" />
    </g>
    <g
       transform="matrix(1.618769,0,0,1.618769,-1072.6074,-242.10738)"
       id="g6726">
      <path
         inkscape:connector-curvature="0"
         id="path6728"
         d="m 770.70618,699.50058 c -1.24387,-1.58606 -1.2085,-1.62143 0.37756,-0.37756 1.66575,1.30637 2.19548,2.12756 1.37244,2.12756 -0.20765,0 -0.99515,-0.7875 -1.75,-1.75 z m 95.56465,-7.5 -2.93709,-3.25 3.25,2.93709 c 3.02946,2.73778 3.70965,3.56291 2.93709,3.56291 -0.1721,0 -1.6346,-1.4625 -3.25,-3.25 z m 137.99047,-22.75 c 0,-12.375 0.1435,-17.4375 0.3189,-11.25 0.1755,6.1875 0.1755,16.3125 0,22.5 -0.1754,6.1875 -0.3189,1.125 -0.3189,-11.25 z m -47.00142,-0.5 c 7.5e-4,-12.1 0.14515,-16.91256 0.32089,-10.69458 0.17573,6.21799 0.17511,16.11799 -10e-4,22 -0.17649,5.88202 -0.32027,0.79458 -0.31951,-11.30542 z m 94.00262,-1 c 7e-4,-12.65 0.144,-17.68711 0.3185,-11.19358 0.1745,6.49353 0.1739,16.84353 -10e-4,23 -0.1752,6.15647 -0.3179,0.84358 -0.3172,-11.80642 z m -195.27087,19.5 c 0,-1.375 0.22698,-1.9375 0.50439,-1.25 0.27741,0.6875 0.27741,1.8125 0,2.5 -0.27741,0.6875 -0.50439,0.125 -0.50439,-1.25 z m -26.88886,-5.69299 c 0.97297,-0.25354 2.32297,-0.23687 3,0.0371 0.67703,0.27393 -0.11903,0.48137 -1.76903,0.46099 -1.65,-0.0204 -2.20394,-0.2445 -1.23097,-0.49804 z m 61.98097,0.004 c 0.9625,-0.25152 2.5375,-0.25152 3.5,0 0.9625,0.25153 0.175,0.45733 -1.75,0.45733 -1.925,0 -2.7125,-0.2058 -1.75,-0.45733 z m 10.75,-2.68857 c 0,-0.20765 0.7875,-0.99515 1.75,-1.75 1.58606,-1.24387 1.62143,-1.2085 0.37756,0.37756 -1.30637,1.66575 -2.12756,2.19548 -2.12756,1.37244 z M 790.1061,660.25058 c 0,-2.475 0.19502,-3.4875 0.43337,-2.25 0.23836,1.2375 0.23836,3.2625 0,4.5 -0.23835,1.2375 -0.43337,0.225 -0.43337,-2.25 z m 141.97982,-0.5 c 0.0111,-2.2 0.21589,-2.98225 0.45508,-1.73834 0.23919,1.24391 0.23011,3.04391 -0.0202,4 -0.25029,0.95609 -0.446,-0.0617 -0.4349,-2.26166 z m -29.37974,-18.25 c -1.24387,-1.58606 -1.2085,-1.62143 0.37756,-0.37756 1.66575,1.30637 2.19548,2.12756 1.37244,2.12756 -0.20765,0 -0.99515,-0.7875 -1.75,-1.75 z m 57.12756,-1.62756 c 0,-0.20765 0.7875,-0.99515 1.75,-1.75 1.58606,-1.24387 1.62143,-1.2085 0.37756,0.37756 -1.30637,1.66575 -2.12756,2.19548 -2.12756,1.37244 z m 16.87244,-1.37244 c -1.24387,-1.58606 -1.2085,-1.62143 0.37756,-0.37756 1.66575,1.30637 2.19548,2.12756 1.37244,2.12756 -0.20765,0 -0.99515,-0.7875 -1.75,-1.75 z m -147.60341,-0.94299 c 0.97297,-0.25354 2.32297,-0.23687 3,0.0371 0.67703,0.27393 -0.11903,0.48137 -1.76903,0.46099 -1.65,-0.0204 -2.20394,-0.2445 -1.23097,-0.49804 z m 63,0 c 0.97297,-0.25354 2.32297,-0.23687 3,0.0371 0.67703,0.27393 -0.11903,0.48137 -1.76903,0.46099 -1.65,-0.0204 -2.20394,-0.2445 -1.23097,-0.49804 z m 76.54347,-1.99012 c 0.72187,-0.28887 1.58438,-0.25335 1.91667,0.0789 0.33229,0.33229 -0.25834,0.56864 -1.3125,0.52522 -1.16495,-0.048 -1.4019,-0.28494 -0.60417,-0.60416 z m 46.99996,0 c 0.7219,-0.28887 1.5844,-0.25335 1.9167,0.0789 0.3323,0.33229 -0.2583,0.56864 -1.3125,0.52522 -1.1649,-0.048 -1.4019,-0.28494 -0.6042,-0.60416 z m -159.65457,-4.31689 c 0,-1.375 0.22698,-1.9375 0.50439,-1.25 0.27741,0.6875 0.27741,1.8125 0,2.5 -0.27741,0.6875 -0.50439,0.125 -0.50439,-1.25 z m -56.15789,-0.37756 c 0,-0.20765 0.7875,-0.99515 1.75,-1.75 1.58606,-1.24387 1.62143,-1.2085 0.37756,0.37756 -1.30637,1.66575 -2.12756,2.19548 -2.12756,1.37244 z m 242.87246,-6.37244 c -1.2439,-1.58606 -1.2085,-1.62143 0.3775,-0.37756 1.6658,1.30637 2.1955,2.12756 1.3725,2.12756 -0.2077,0 -0.9952,-0.7875 -1.75,-1.75 z m -343.87246,-5.62756 c 0,-0.20765 0.7875,-0.99515 1.75,-1.75 1.58606,-1.24387 1.62143,-1.2085 0.37756,0.37756 -1.30637,1.66575 -2.12756,2.19548 -2.12756,1.37244 z m 7.8125,-4.30555 c 0.72187,-0.28887 1.58438,-0.25335 1.91667,0.0789 0.33229,0.33229 -0.25834,0.56864 -1.3125,0.52522 -1.16495,-0.048 -1.4019,-0.28494 -0.60417,-0.60416 z m 166,-6 c 0.72187,-0.28887 1.58437,-0.25335 1.91667,0.0789 0.33229,0.33229 -0.25834,0.56864 -1.3125,0.52522 -1.16495,-0.048 -1.4019,-0.28494 -0.60417,-0.60416 z m 118.1875,-10.81689 c 1.29175,-1.375 2.57363,-2.5 2.84863,-2.5 0.275,0 -0.55688,1.125 -1.84863,2.5 -1.29175,1.375 -2.57363,2.5 -2.84863,2.5 -0.275,0 0.55688,-1.125 1.84863,-2.5 z m -200.5319,-58.5 c 0,-31.625 0.12658,-44.5625 0.28128,-28.75 0.15471,15.8125 0.15471,41.6875 0,57.5 -0.1547,15.8125 -0.28128,2.875 -0.28128,-28.75 z m 94.80426,21 c 0,-2.475 0.19502,-3.4875 0.43337,-2.25 0.23836,1.2375 0.23836,3.2625 0,4.5 -0.23835,1.2375 -0.43337,0.225 -0.43337,-2.25 z m 123,0 c 0,-2.475 0.195,-3.4875 0.4334,-2.25 0.2383,1.2375 0.2383,3.2625 0,4.5 -0.2384,1.2375 -0.4334,0.225 -0.4334,-2.25 z m -130.39992,-20.75 c -1.24387,-1.58606 -1.2085,-1.62143 0.37756,-0.37756 1.66575,1.30637 2.19548,2.12756 1.37244,2.12756 -0.20765,0 -0.99515,-0.7875 -1.75,-1.75 z m -45.87244,-13.56291 c 0,-0.1721 1.4625,-1.6346 3.25,-3.25 l 3.25,-2.93709 -2.93709,3.25 c -2.73778,3.02945 -3.56291,3.70965 -3.56291,2.93709 z m -72.5,-5.68709 c 0.33992,-0.55 0.81648,-1 1.05902,-1 0.24254,0 0.44098,0.45 0.44098,1 0,0.55 -0.47656,1 -1.05902,1 -0.58246,0 -0.7809,-0.45 -0.44098,-1 z m 21.90499,-5.25 -1.90499,-2.25 2.25,1.90499 c 2.11445,1.79022 2.70524,2.59501 1.90499,2.59501 -0.18976,0 -1.20226,-1.0125 -2.25,-2.25 z m -50.59249,-4.43311 c 0.72187,-0.28888 1.58438,-0.25335 1.91667,0.0789 0.33229,0.33229 -0.25834,0.56864 -1.3125,0.52522 -1.16495,-0.048 -1.4019,-0.28494 -0.60417,-0.60417 z m 140,0 c 0.72187,-0.28888 1.58437,-0.25335 1.91667,0.0789 0.33229,0.33229 -0.25834,0.56864 -1.3125,0.52522 -1.16495,-0.048 -1.4019,-0.28494 -0.60417,-0.60417 z m 88,0 c 0.72187,-0.28888 1.58438,-0.25335 1.91667,0.0789 0.33229,0.33229 -0.25834,0.56864 -1.3125,0.52522 -1.16495,-0.048 -1.4019,-0.28494 -0.60417,-0.60417 z m 11,0 c 0.72187,-0.28888 1.58438,-0.25335 1.91667,0.0789 0.33229,0.33229 -0.25834,0.56864 -1.3125,0.52522 -1.16495,-0.048 -1.4019,-0.28494 -0.60417,-0.60417 z m 77.99996,0 c 0.7219,-0.28888 1.5844,-0.25335 1.9167,0.0789 0.3323,0.33229 -0.2583,0.56864 -1.3125,0.52522 -1.1649,-0.048 -1.4019,-0.28494 -0.6042,-0.60417 z m 12,0 c 0.7219,-0.28888 1.5844,-0.25335 1.9167,0.0789 0.3323,0.33229 -0.2583,0.56864 -1.3125,0.52522 -1.1649,-0.048 -1.4019,-0.28494 -0.6042,-0.60417 z m -123.40747,-36.56689 -1.90499,-2.25 2.25,1.90499 c 1.2375,1.04774 2.25,2.06024 2.25,2.25 0,0.80025 -0.80479,0.20945 -2.59501,-1.90499 z"
         style="fill:#d1effb" />
      <path
         inkscape:connector-curvature="0"
         id="path6730"
         d="m 790.91269,690.66725 c 0.048,-1.16495 0.28494,-1.4019 0.60416,-0.60417 0.28887,0.72187 0.25335,1.58437 -0.0789,1.91667 -0.3323,0.33229 -0.56864,-0.25834 -0.52522,-1.3125 z m 63,-28 c 0.048,-1.16495 0.28494,-1.4019 0.60416,-0.60417 0.28887,0.72187 0.25335,1.58437 -0.0789,1.91667 -0.3323,0.33229 -0.56864,-0.25834 -0.52522,-1.3125 z m 22,-1 c 0.048,-1.16495 0.28494,-1.4019 0.60416,-0.60417 0.28887,0.72187 0.25335,1.58437 -0.0789,1.91667 -0.3323,0.33229 -0.56864,-0.25834 -0.52522,-1.3125 z m -22,-5 c 0.048,-1.16495 0.28494,-1.4019 0.60416,-0.60417 0.28887,0.72187 0.25335,1.58437 -0.0789,1.91667 -0.3323,0.33229 -0.56864,-0.25834 -0.52522,-1.3125 z m -82.07895,-22.79423 c 0,-0.20765 0.7875,-0.99515 1.75,-1.75 1.58606,-1.24387 1.62143,-1.2085 0.37756,0.37756 -1.30637,1.66575 -2.12756,2.19548 -2.12756,1.37244 z m 146.87244,-6.37244 c -1.24387,-1.58606 -1.2085,-1.62143 0.37756,-0.37756 1.66575,1.30637 2.19548,2.12756 1.37244,2.12756 -0.20765,0 -0.99515,-0.7875 -1.75,-1.75 z m -181.62244,-4.93933 c 0.9625,-0.25152 2.5375,-0.25152 3.5,0 0.9625,0.25153 0.175,0.45733 -1.75,0.45733 -1.925,0 -2.7125,-0.2058 -1.75,-0.45733 z m 89.5625,-5.99378 c 0.72187,-0.28887 1.58437,-0.25335 1.91667,0.0789 0.33229,0.33229 -0.25834,0.56864 -1.3125,0.52522 -1.16495,-0.048 -1.4019,-0.28494 -0.60417,-0.60416 z m 5,0 c 0.72187,-0.28887 1.58437,-0.25335 1.91667,0.0789 0.33229,0.33229 -0.25834,0.56864 -1.3125,0.52522 -1.16495,-0.048 -1.4019,-0.28494 -0.60417,-0.60416 z m 58,0 c 0.72187,-0.28887 1.58437,-0.25335 1.91667,0.0789 0.33229,0.33229 -0.25834,0.56864 -1.3125,0.52522 -1.16495,-0.048 -1.4019,-0.28494 -0.60417,-0.60416 z m 5,0 c 0.72187,-0.28887 1.58437,-0.25335 1.91667,0.0789 0.33229,0.33229 -0.25834,0.56864 -1.3125,0.52522 -1.16495,-0.048 -1.4019,-0.28494 -0.60417,-0.60416 z m 83,0 c 0.72187,-0.28887 1.58438,-0.25335 1.91667,0.0789 0.33229,0.33229 -0.25834,0.56864 -1.3125,0.52522 -1.16495,-0.048 -1.4019,-0.28494 -0.60417,-0.60416 z m 40.99996,0 c 0.7219,-0.28887 1.5844,-0.25335 1.9167,0.0789 0.3323,0.33229 -0.2583,0.56864 -1.3125,0.52522 -1.1649,-0.048 -1.4019,-0.28494 -0.6042,-0.60416 z m 3.9375,0.0208 c 0.6875,-0.27741 1.8125,-0.27741 2.5,0 0.6875,0.27741 0.125,0.50439 -1.25,0.50439 -1.375,0 -1.9375,-0.22698 -1.25,-0.50439 z M 707.70618,598.50058 c -1.24387,-1.58606 -1.2085,-1.62143 0.37756,-0.37756 0.9625,0.75485 1.75,1.54235 1.75,1.75 0,0.82304 -0.82119,0.29331 -2.12756,-1.37244 z m 315.05192,-2 -2.4244,-2.75 2.75,2.42431 c 2.5703,2.26589 3.2086,3.07569 2.4244,3.07569 -0.1792,0 -1.4167,-1.2375 -2.75,-2.75 z m -206.45626,-57.25 c 0,-31.625 0.12658,-44.5625 0.28128,-28.75 0.15471,15.8125 0.15471,41.6875 0,57.5 -0.1547,15.8125 -0.28128,2.875 -0.28128,-28.75 z m 94.61085,24.41667 c 0.048,-1.16495 0.28494,-1.4019 0.60416,-0.60417 0.28887,0.72187 0.25335,1.58438 -0.0789,1.91667 -0.3323,0.33229 -0.56864,-0.25834 -0.52522,-1.3125 z m 123.11601,-3.91667 c 0.02,-1.65 0.2445,-2.20394 0.498,-1.23097 0.2536,0.97297 0.2369,2.32297 -0.037,3 -0.2738,0.67703 -0.4813,-0.11903 -0.4609,-1.76903 z"
         style="fill:#ade4f9" />
      <path
         inkscape:connector-curvature="0"
         id="path6732"
         d="m 945.64624,701.56747 c 0.72187,-0.28887 1.58438,-0.25335 1.91667,0.0789 0.33229,0.33229 -0.25834,0.56864 -1.3125,0.52522 -1.16495,-0.048 -1.4019,-0.28494 -0.60417,-0.60416 z m 45.9375,0.0208 c 0.6875,-0.27741 1.8125,-0.27741 2.5,0 0.6875,0.27741 0.125,0.50439 -1.25,0.50439 -1.375,0 -1.9375,-0.22698 -1.25,-0.50439 z m 46.99996,0 c 0.6875,-0.27741 1.8125,-0.27741 2.5,0 0.6875,0.27741 0.125,0.50439 -1.25,0.50439 -1.375,0 -1.9375,-0.22698 -1.25,-0.50439 z m 7.25,-1.71528 c 0,-0.20765 0.7875,-0.99515 1.75,-1.75 1.5861,-1.24387 1.6215,-1.2085 0.3776,0.37756 -1.3064,1.66578 -2.1276,2.19551 -2.1276,1.37247 z M 786.70618,681.50058 c -1.24387,-1.58606 -1.2085,-1.62143 0.37756,-0.37756 0.9625,0.75485 1.75,1.54235 1.75,1.75 0,0.82304 -0.82119,0.29331 -2.12756,-1.37244 z m 67.20651,-21.83333 c 0.048,-1.16495 0.28494,-1.4019 0.60416,-0.60417 0.28887,0.72187 0.25335,1.58437 -0.0789,1.91667 -0.3323,0.33229 -0.56864,-0.25834 -0.52522,-1.3125 z m 91.73355,-42.09978 c 0.72187,-0.28887 1.58438,-0.25335 1.91667,0.0789 0.33229,0.33229 -0.25834,0.56864 -1.3125,0.52522 -1.16495,-0.048 -1.4019,-0.28494 -0.60417,-0.60416 z m -34.61755,-57.81689 c 0.0204,-1.65 0.2445,-2.20394 0.49804,-1.23097 0.25354,0.97297 0.23687,2.32297 -0.0371,3 -0.27388,0.67703 -0.48132,-0.11903 -0.46094,-1.76903 z m 162.96291,0.5 c 0,-1.375 0.227,-1.9375 0.5044,-1.25 0.2774,0.6875 0.2774,1.8125 0,2.5 -0.2774,0.6875 -0.5044,0.125 -0.5044,-1.25 z M 945.83374,540.87302 c 0,-0.20765 0.7875,-0.99515 1.75,-1.75 1.58606,-1.24387 1.62143,-1.2085 0.37756,0.37756 -1.30637,1.66575 -2.12756,2.19548 -2.12756,1.37244 z m 138.87246,-17.37244 c -1.2439,-1.58606 -1.2085,-1.62143 0.3775,-0.37756 1.6658,1.30637 2.1955,2.12756 1.3725,2.12756 -0.2077,0 -0.9952,-0.7875 -1.75,-1.75 z m -94.46747,-2.5 -1.90499,-2.25 2.25,1.90499 c 1.2375,1.04774 2.25,2.06024 2.25,2.25 0,0.80025 -0.80479,0.20946 -2.59501,-1.90499 z M 771.58374,511.5883 c 0.6875,-0.27741 1.8125,-0.27741 2.5,0 0.6875,0.27741 0.125,0.50438 -1.25,0.50438 -1.375,0 -1.9375,-0.22697 -1.25,-0.50438 z m 91.0625,-1.02083 c 0.72187,-0.28888 1.58437,-0.25335 1.91667,0.0789 0.33229,0.33229 -0.25834,0.56864 -1.3125,0.52522 -1.16495,-0.048 -1.4019,-0.28494 -0.60417,-0.60417 z"
         style="fill:#8fdaf7" />
      <path
         inkscape:connector-curvature="0"
         id="path6734"
         d="m 778.64624,702.56747 c 0.72187,-0.28887 1.58438,-0.25335 1.91667,0.0789 0.33229,0.33229 -0.25834,0.56864 -1.3125,0.52522 -1.16495,-0.048 -1.4019,-0.28494 -0.60417,-0.60416 z m 49.45653,-0.01 c 0.97297,-0.25354 2.32297,-0.23687 3,0.0371 0.67703,0.27393 -0.11903,0.48137 -1.76903,0.46099 -1.65,-0.0204 -2.20394,-0.2445 -1.23097,-0.49804 z m 62.98097,0.004 c 0.9625,-0.25152 2.5375,-0.25152 3.5,0 0.9625,0.25153 0.175,0.45733 -1.75,0.45733 -1.925,0 -2.7125,-0.2058 -1.75,-0.45733 z m -72.37756,-25.06089 c -1.24387,-1.58606 -1.2085,-1.62143 0.37756,-0.37756 0.9625,0.75485 1.75,1.54235 1.75,1.75 0,0.82304 -0.82119,0.29331 -2.12756,-1.37244 z m 91.32251,-17.75 c 0.0204,-1.65 0.2445,-2.20394 0.49804,-1.23097 0.25354,0.97297 0.23687,2.32297 -0.0371,3 -0.27393,0.67703 -0.48137,-0.11903 -0.46099,-1.76903 z m -98.116,-0.0833 c 0.048,-1.16495 0.28494,-1.4019 0.60416,-0.60417 0.28887,0.72187 0.25335,1.58437 -0.0789,1.91667 -0.33229,0.33229 -0.56864,-0.25834 -0.52522,-1.3125 z m 182.79349,-35.1667 c -1.24387,-1.58606 -1.2085,-1.62143 0.37756,-0.37756 1.66575,1.30637 2.19548,2.12756 1.37244,2.12756 -0.20765,0 -0.99515,-0.7875 -1.75,-1.75 z M 732.5954,608.54332 c 1.24391,-0.23919 3.04391,-0.23011 4,0.0202 0.95609,0.25029 -0.0617,0.446 -2.26166,0.4349 -2.2,-0.0111 -2.98225,-0.21589 -1.73834,-0.45508 z m 131,0 c 1.24391,-0.23919 3.04391,-0.23011 4,0.0202 0.95609,0.25029 -0.0617,0.446 -2.26166,0.4349 -2.2,-0.0111 -2.98225,-0.21589 -1.73834,-0.45508 z m 98.48834,0.0179 c 0.9625,-0.25152 2.5375,-0.25152 3.5,0 0.9625,0.25153 0.175,0.45733 -1.75,0.45733 -1.925,0 -2.7125,-0.2058 -1.75,-0.45733 z m 90.51166,-0.0179 c 1.2439,-0.23919 3.0439,-0.23011 4,0.0202 0.9561,0.25029 -0.062,0.446 -2.2617,0.4349 -2.2,-0.0111 -2.9822,-0.21589 -1.7383,-0.45508 z m -249.94916,-0.97585 c 0.72187,-0.28887 1.58437,-0.25335 1.91667,0.0789 0.33229,0.33229 -0.25834,0.56864 -1.3125,0.52522 -1.16495,-0.048 -1.4019,-0.28494 -0.60417,-0.60416 z m -17.65461,-5.31689 c 0,-1.375 0.22698,-1.9375 0.50439,-1.25 0.27741,0.6875 0.27741,1.8125 0,2.5 -0.27741,0.6875 -0.50439,0.125 -0.50439,-1.25 z m 157.71455,-1.75 c -1.24387,-1.58606 -1.2085,-1.62143 0.37756,-0.37756 0.9625,0.75485 1.75,1.54235 1.75,1.75 0,0.82304 -0.82119,0.29331 -2.12756,-1.37244 z m -46.37244,-4.25 c 0.99549,-1.1 2.03498,-2 2.30998,-2 0.275,0 -0.31449,0.9 -1.30998,2 -0.99549,1.1 -2.03498,2 -2.30998,2 -0.275,0 0.31449,-0.9 1.30998,-2 z m 74.5,-14.37756 c 0,-0.20765 0.7875,-0.99515 1.75,-1.75 1.58606,-1.24387 1.62143,-1.2085 0.37756,0.37756 -1.30637,1.66575 -2.12756,2.19548 -2.12756,1.37244 z M 820.08592,559.75058 c 0.0111,-2.2 0.21589,-2.98225 0.45508,-1.73834 0.23919,1.24391 0.23011,3.04391 -0.0202,4 -0.25029,0.95609 -0.446,-0.0617 -0.4349,-2.26166 z m 279.99998,0 c 0.011,-2.2 0.2159,-2.98225 0.4551,-1.73834 0.2392,1.24391 0.2301,3.04391 -0.02,4 -0.2503,0.95609 -0.446,-0.0617 -0.4349,-2.26166 z m -380.05721,0 c 0.0204,-1.65 0.2445,-2.20394 0.49804,-1.23097 0.25354,0.97297 0.23687,2.32297 -0.0371,3 -0.27393,0.67703 -0.48137,-0.11903 -0.46099,-1.76903 z m -26.03706,-0.5 c 0,-1.375 0.22698,-1.9375 0.50439,-1.25 0.27741,0.6875 0.27741,1.8125 0,2.5 -0.27741,0.6875 -0.50439,0.125 -0.50439,-1.25 z m 327.84207,-34.37756 c 0,-0.20765 0.7875,-0.99515 1.75,-1.75 1.5861,-1.24387 1.6215,-1.2085 0.3776,0.37756 -1.3064,1.66575 -2.1276,2.19548 -2.1276,1.37244 z m 31.8125,-14.30555 c 0.7219,-0.28888 1.5844,-0.25335 1.9167,0.0789 0.3323,0.33229 -0.2583,0.56864 -1.3125,0.52522 -1.1649,-0.048 -1.4019,-0.28494 -0.6042,-0.60417 z m -250.99996,-40 c 0.72187,-0.28887 1.58437,-0.25335 1.91667,0.0789 0.33229,0.33229 -0.25834,0.56864 -1.3125,0.52522 -1.16495,-0.048 -1.4019,-0.28494 -0.60417,-0.60416 z"
         style="fill:#6fd0f5" />
      <path
         inkscape:connector-curvature="0"
         id="path6736"
         d="m 802.70618,691.50058 c -1.24387,-1.58606 -1.2085,-1.62143 0.37756,-0.37756 0.9625,0.75485 1.75,1.54235 1.75,1.75 0,0.82304 -0.82119,0.29331 -2.12756,-1.37244 z m 115.12756,1.37244 c 0,-0.20765 0.7875,-0.99515 1.75,-1.75 1.58606,-1.24387 1.62143,-1.2085 0.37756,0.37756 -1.30637,1.66575 -2.12756,2.19548 -2.12756,1.37244 z m 111.42616,-23.12244 c 7e-4,-12.1 0.1451,-16.91256 0.3209,-10.69458 0.1757,6.21799 0.1751,16.11799 -10e-4,22 -0.1765,5.88202 -0.3203,0.79458 -0.3195,-11.30542 z m -93.98152,-10 c -4.2e-4,-17.05 0.13593,-24.16558 0.30301,-15.81241 0.16707,8.35318 0.16742,22.30318 7.7e-4,31 -0.16665,8.69683 -0.30335,1.86241 -0.30378,-15.18759 z m 46.98012,9.5 c 0,-11.825 0.14466,-16.6625 0.32145,-10.75 0.1768,5.9125 0.1768,15.5875 0,21.5 -0.17679,5.9125 -0.32145,1.075 -0.32145,-10.75 z m -222.17258,-68.5 c 0.0111,-2.2 0.21589,-2.98225 0.45508,-1.73834 0.23919,1.24391 0.23011,3.04391 -0.0202,4 -0.25029,0.95609 -0.446,-0.0617 -0.4349,-2.26166 z m 25.20147,-38 c -2.9e-4,-20.9 0.13234,-29.59212 0.29473,-19.31582 0.1624,10.2763 0.16264,27.3763 5.4e-4,38 -0.1621,10.6237 -0.29497,2.21582 -0.29527,-18.68418 z m 48.47066,32.75 -2.42431,-2.75 2.75,2.42431 c 2.57029,2.26589 3.20859,3.07569 2.42431,3.07569 -0.17912,0 -1.41662,-1.2375 -2.75,-2.75 z m 81.54353,-55.75 c 1.4e-4,-31.35 0.12689,-44.03046 0.28166,-28.1788 0.15477,15.85166 0.15466,41.50166 -2.6e-4,57 -0.15491,15.49834 -0.28154,2.5288 -0.2814,-28.8212 z m -176.19881,45.80701 c 0.97297,-0.25354 2.32297,-0.23687 3,0.037 0.67703,0.27393 -0.11903,0.48137 -1.76903,0.46099 -1.65,-0.0204 -2.20394,-0.2445 -1.23097,-0.49804 z m 125.48097,0.0307 c 0.6875,-0.27741 1.8125,-0.27741 2.5,0 0.6875,0.27741 0.125,0.50439 -1.25,0.50439 -1.375,0 -1.9375,-0.22698 -1.25,-0.50439 z m 94.51903,-0.0307 c 0.97297,-0.25354 2.32297,-0.23687 3,0.037 0.67703,0.27393 -0.11903,0.48137 -1.76903,0.46099 -1.65,-0.0204 -2.20394,-0.2445 -1.23097,-0.49804 z m 94.00003,0 c 0.9729,-0.25354 2.3229,-0.23687 3,0.037 0.677,0.27393 -0.1191,0.48137 -1.7691,0.46099 -1.65,-0.0204 -2.2039,-0.2445 -1.2309,-0.49804 z m -176.26906,-3.68458 c 0,-0.20765 0.7875,-0.99515 1.75,-1.75 1.58606,-1.24387 1.62143,-1.2085 0.37756,0.37756 -1.30637,1.66575 -2.12756,2.19548 -2.12756,1.37244 z M 694.91269,564.66725 c 0.048,-1.16495 0.28494,-1.4019 0.60416,-0.60417 0.28888,0.72187 0.25335,1.58437 -0.0789,1.91667 -0.33229,0.33229 -0.56864,-0.25834 -0.52522,-1.3125 z m 310.20711,-3.91667 c 0.01,-2.75 0.2017,-3.75631 0.4315,-2.23625 0.2299,1.52006 0.2237,3.77006 -0.014,5 -0.2374,1.22994 -0.4254,-0.0137 -0.4179,-2.76375 z m -65.05406,-1.5 c 0,-1.925 0.2058,-2.7125 0.45733,-1.75 0.25152,0.9625 0.25152,2.5375 0,3.5 -0.25153,0.9625 -0.45733,0.175 -0.45733,-1.75 z m -188.35956,-20.75 c -1.24387,-1.58606 -1.2085,-1.62143 0.37756,-0.37756 0.9625,0.75485 1.75,1.54235 1.75,1.75 0,0.82304 -0.82119,0.29331 -2.12756,-1.37244 z m 220,0 c -1.24387,-1.58606 -1.2085,-1.62143 0.37756,-0.37756 0.9625,0.75485 1.75,1.54235 1.75,1.75 0,0.82304 -0.82119,0.29331 -2.12756,-1.37244 z m -262.37244,-16.25 c 0.99549,-1.1 2.03498,-2 2.30998,-2 0.275,0 -0.31449,0.9 -1.30998,2 -0.99549,1.1 -2.03498,2 -2.30997,2 -0.275,0 0.31448,-0.9 1.30997,-2 z m 230.91508,-21 c 0,-10.175 0.1485,-14.3375 0.32999,-9.25 0.18149,5.0875 0.18149,13.4125 0,18.5 -0.18149,5.0875 -0.32999,0.925 -0.32999,-9.25 z"
         style="fill:#51c6f3" />
      <path
         inkscape:connector-curvature="0"
         id="path6738"
         d="m 770.70618,698.50058 c -1.24387,-1.58606 -1.2085,-1.62143 0.37756,-0.37756 0.9625,0.75485 1.75,1.54235 1.75,1.75 0,0.82304 -0.82119,0.29331 -2.12756,-1.37244 z m 96.05187,-7 -2.42431,-2.75 2.75,2.42431 c 2.57029,2.26589 3.20859,3.07569 2.42431,3.07569 -0.17912,0 -1.41662,-1.2375 -2.75,-2.75 z m 136.50325,-21.25 c 0,-12.375 0.1435,-17.4375 0.3189,-11.25 0.1755,6.1875 0.1755,16.3125 0,22.5 -0.1754,6.1875 -0.3189,1.125 -0.3189,-11.25 z m 47.0071,-3 c 0,-14.025 0.1407,-19.7625 0.3126,-12.75 0.1719,7.0125 0.1719,18.4875 0,25.5 -0.1719,7.0125 -0.3126,1.275 -0.3126,-12.75 z m -220.62216,15.31689 c 0.72187,-0.28887 1.58437,-0.25335 1.91667,0.0789 0.33229,0.33229 -0.25834,0.56864 -1.3125,0.52522 -1.16495,-0.048 -1.4019,-0.28494 -0.60417,-0.60416 z m 63,0 c 0.72187,-0.28887 1.58437,-0.25335 1.91667,0.0789 0.33229,0.33229 -0.25834,0.56864 -1.3125,0.52522 -1.16495,-0.048 -1.4019,-0.28494 -0.60417,-0.60416 z m -37.73355,-15.90022 c 0.048,-1.16495 0.28494,-1.4019 0.60416,-0.60417 0.28887,0.72187 0.25335,1.58437 -0.0789,1.91667 -0.3323,0.33229 -0.56864,-0.25834 -0.52522,-1.3125 z m -63.79294,-6.91667 c 0.008,-2.75 0.20172,-3.75631 0.43157,-2.23625 0.22986,1.52006 0.22371,3.77006 -0.0136,5 -0.23736,1.22994 -0.42542,-0.0137 -0.41792,-2.76375 z m 139.79294,-3.08333 c 0.048,-1.16495 0.28494,-1.4019 0.60416,-0.60417 0.28887,0.72187 0.25335,1.58437 -0.0789,1.91667 -0.3323,0.33229 -0.56864,-0.25834 -0.52522,-1.3125 z m -196.31104,-12.1414 c 1.79735,-0.22256 4.49735,-0.21797 6,0.0102 1.50265,0.22818 0.0321,0.41027 -3.26791,0.40466 -3.3,-0.006 -4.52944,-0.1923 -2.73209,-0.41486 z m 168.63708,-3.52527 -1.90499,-2.25 2.25,1.90499 c 2.11444,1.79022 2.70524,2.59501 1.90499,2.59501 -0.18976,0 -1.20226,-1.0125 -2.25,-2.25 z m 55.59501,-1.12756 c 0,-0.20765 0.7875,-0.99515 1.75,-1.75 1.58606,-1.24387 1.62143,-1.2085 0.37756,0.37756 -1.30637,1.66575 -2.12756,2.19548 -2.12756,1.37244 z m 18.87244,-1.37244 c -1.24387,-1.58606 -1.2085,-1.62143 0.37756,-0.37756 1.66575,1.30637 2.19548,2.12756 1.37244,2.12756 -0.20765,0 -0.99515,-0.7875 -1.75,-1.75 z m 47.00002,0 c -1.2439,-1.58606 -1.2085,-1.62143 0.3775,-0.37756 0.9625,0.75485 1.75,1.54235 1.75,1.75 0,0.82304 -0.8211,0.29331 -2.1275,-1.37244 z m -195.05996,-1.93311 c 0.72187,-0.28887 1.58437,-0.25335 1.91667,0.0789 0.33229,0.33229 -0.25834,0.56864 -1.3125,0.52522 -1.16495,-0.048 -1.4019,-0.28494 -0.60417,-0.60416 z m 63,0 c 0.72187,-0.28887 1.58437,-0.25335 1.91667,0.0789 0.33229,0.33229 -0.25834,0.56864 -1.3125,0.52522 -1.16495,-0.048 -1.4019,-0.28494 -0.60417,-0.60416 z m -119.8125,-4.69445 c 0,-0.20765 0.7875,-0.99515 1.75,-1.75 1.58606,-1.24387 1.62143,-1.2085 0.37756,0.37756 -1.30637,1.66575 -2.12756,2.19548 -2.12756,1.37244 z m 28,-1 c 0,-0.20765 0.7875,-0.99515 1.75,-1.75 1.58606,-1.24387 1.62143,-1.2085 0.37756,0.37756 -1.30637,1.66575 -2.12756,2.19548 -2.12756,1.37244 z m 240.87246,-6.37244 c -1.2439,-1.58606 -1.2085,-1.62143 0.3775,-0.37756 1.6658,1.30637 2.1955,2.12756 1.3725,2.12756 -0.2077,0 -0.9952,-0.7875 -1.75,-1.75 z m -103.87246,-2.62756 c 0,-0.20765 0.7875,-0.99515 1.75,-1.75 1.58606,-1.24387 1.62143,-1.2085 0.37756,0.37756 -1.30637,1.66575 -2.12756,2.19548 -2.12756,1.37244 z m 88.81246,-4.30555 c 0.7219,-0.28887 1.5844,-0.25335 1.9167,0.0789 0.3323,0.33229 -0.2583,0.56864 -1.3125,0.52522 -1.1649,-0.048 -1.4019,-0.28494 -0.6042,-0.60416 z m -242.73351,-8.90022 c 0.048,-1.16495 0.28494,-1.4019 0.60416,-0.60417 0.28888,0.72187 0.25335,1.58437 -0.0789,1.91667 -0.33229,0.33229 -0.56864,-0.25834 -0.52522,-1.3125 z m 206.42105,-11.41667 c 0.99549,-1.1 2.03498,-2 2.30998,-2 0.275,0 -0.31449,0.9 -1.30998,2 -0.99549,1.1 -2.03498,2 -2.30998,2 -0.275,0 0.31449,-0.9 1.30998,-2 z m 91.49996,1.62244 c 0,-0.20765 0.7875,-0.99515 1.75,-1.75 1.5861,-1.24387 1.6215,-1.2085 0.3776,0.37756 -1.3064,1.66575 -2.1276,2.19548 -2.1276,1.37244 z m -290.92101,-3.20577 c 0.048,-1.16495 0.28494,-1.4019 0.60416,-0.60417 0.28887,0.72187 0.25335,1.58437 -0.0789,1.91667 -0.3323,0.33229 -0.56864,-0.25834 -0.52522,-1.3125 z m -64.20651,-15.16667 c -1.24387,-1.58606 -1.2085,-1.62143 0.37756,-0.37756 0.9625,0.75485 1.75,1.54235 1.75,1.75 0,0.82304 -0.82119,0.29331 -2.12756,-1.37244 z m 314.00002,0 c -1.2439,-1.58606 -1.2085,-1.62143 0.3775,-0.37756 0.9625,0.75485 1.75,1.54235 1.75,1.75 0,0.82304 -0.8211,0.29331 -2.1275,-1.37244 z m -344.79351,-8.83333 c 0.048,-1.16495 0.28494,-1.4019 0.60416,-0.60417 0.28888,0.72187 0.25335,1.58437 -0.0789,1.91667 -0.33229,0.33229 -0.56864,-0.25834 -0.52522,-1.3125 z m 284,-8 c 0.048,-1.16495 0.28494,-1.4019 0.60416,-0.60417 0.28887,0.72187 0.25335,1.58438 -0.0789,1.91667 -0.33229,0.33229 -0.56864,-0.25834 -0.52522,-1.3125 z m 29.00001,0 c 0.048,-1.16495 0.2849,-1.4019 0.6041,-0.60417 0.2889,0.72187 0.2534,1.58438 -0.079,1.91667 -0.3322,0.33229 -0.5686,-0.25834 -0.5252,-1.3125 z m -249.00001,-1 c 0.048,-1.16495 0.28494,-1.4019 0.60416,-0.60417 0.28888,0.72187 0.25335,1.58438 -0.0789,1.91667 -0.33229,0.33229 -0.56864,-0.25834 -0.52522,-1.3125 z m 85.19341,-2.41667 c 0,-2.475 0.19502,-3.4875 0.43337,-2.25 0.23836,1.2375 0.23836,3.2625 0,4.5 -0.23835,1.2375 -0.43337,0.225 -0.43337,-2.25 z m 254,0 c 0,-2.475 0.195,-3.4875 0.4334,-2.25 0.2383,1.2375 0.2383,3.2625 0,4.5 -0.2384,1.2375 -0.4334,0.225 -0.4334,-2.25 z m -404.04036,0 c 0,-1.925 0.2058,-2.7125 0.45733,-1.75 0.25152,0.9625 0.25152,2.5375 0,3.5 -0.25153,0.9625 -0.45733,0.175 -0.45733,-1.75 z m 64.84695,-2.58333 c 0.048,-1.16495 0.28494,-1.4019 0.60416,-0.60417 0.28888,0.72187 0.25335,1.58438 -0.0789,1.91667 -0.33229,0.33229 -0.56864,-0.25834 -0.52522,-1.3125 z m 249.00001,-1 c 0.048,-1.16495 0.2849,-1.4019 0.6041,-0.60417 0.2889,0.72187 0.2534,1.58438 -0.079,1.91667 -0.3322,0.33229 -0.5686,-0.25834 -0.5252,-1.3125 z m -29.00001,-1 c 0.048,-1.16495 0.28494,-1.4019 0.60416,-0.60417 0.28887,0.72187 0.25335,1.58438 -0.0789,1.91667 -0.33229,0.33229 -0.56864,-0.25834 -0.52522,-1.3125 z M 877.70618,538.50058 c -1.24387,-1.58606 -1.2085,-1.62143 0.37756,-0.37756 1.66575,1.30637 2.19548,2.12756 1.37244,2.12756 -0.20765,0 -0.99515,-0.7875 -1.75,-1.75 z m -138.60341,-4.94299 c 0.97297,-0.25354 2.32297,-0.23687 3,0.0371 0.67703,0.27393 -0.11903,0.48137 -1.76903,0.46099 -1.65,-0.0204 -2.20394,-0.2445 -1.23097,-0.49804 z m 125,0 c 0.97297,-0.25354 2.32297,-0.23687 3,0.0371 0.67703,0.27392 -0.11903,0.48137 -1.76903,0.46099 -1.65,-0.0204 -2.20394,-0.2445 -1.23097,-0.49804 z m 95,0 c 0.97297,-0.25354 2.32297,-0.23687 3,0.0371 0.67703,0.27392 -0.11903,0.48137 -1.76903,0.46099 -1.65,-0.0204 -2.20394,-0.2445 -1.23097,-0.49804 z m 94.00003,0 c 0.9729,-0.25354 2.3229,-0.23687 3,0.0371 0.677,0.27392 -0.1191,0.48137 -1.7691,0.46099 -1.65,-0.0204 -2.2039,-0.2445 -1.2309,-0.49804 z m -218.26906,-9.80701 c 1.29175,-1.375 2.57363,-2.5 2.84863,-2.5 0.275,0 -0.55688,1.125 -1.84863,2.5 -1.29175,1.375 -2.57363,2.5 -2.84863,2.5 -0.275,0 0.55688,-1.125 1.84863,-2.5 z m -54.12756,-8.25 c -1.24387,-1.58606 -1.2085,-1.62143 0.37756,-0.37756 1.66575,1.30637 2.19548,2.12756 1.37244,2.12756 -0.20765,0 -0.99515,-0.7875 -1.75,-1.75 z m 155,-41 c -1.24387,-1.58606 -1.2085,-1.62143 0.37756,-0.37756 1.66575,1.30637 2.19548,2.12756 1.37244,2.12756 -0.20765,0 -0.99515,-0.7875 -1.75,-1.75 z"
         style="fill:#2bbaf0" />
      <path
         inkscape:connector-curvature="0"
         id="path6740"
         d="m 774.93014,700.98584 c -8.09927,-4.16238 -8.65679,-16.32563 -0.93142,-20.32057 5.85486,-3.02767 13.01787,-0.61465 15.44923,5.20441 4.09104,9.79123 -5.48266,19.7595 -14.51781,15.11616 z m 44.67955,-0.1502 c -10.88323,-3.14376 -18.95941,-10.35346 -24.06177,-21.4802 -2.5968,-5.66287 -3.09293,-8.10238 -3.47859,-17.10486 -0.38074,-8.88744 -0.12051,-11.47195 1.69444,-16.82871 4.00298,-11.81468 10.67258,-19.585 21.06997,-24.54725 5.71309,-2.72663 7.52904,-3.0993 15,-3.07834 18.52889,0.052 29.1956,7.91782 24.41081,18.00102 -2.47859,5.22324 -5.10355,6.11793 -11.60279,3.9547 -9.01828,-3.00169 -12.12009,-3.4736 -16.01255,-2.43617 -19.44237,5.18187 -19.32997,39.67466 0.14637,44.91909 3.40922,0.91801 5.09536,0.69594 11.97171,-1.57672 9.3671,-3.09586 12.28779,-2.73565 15.15628,1.86922 3.94741,6.33689 -0.0618,13.07296 -10.00416,16.80856 -6.99871,2.62959 -18.022,3.31017 -24.28972,1.49966 z m 64.96997,0.32927 c -6.43568,-1.51678 -13.09396,-5.50993 -18.08567,-10.84646 -23.09502,-24.69045 -9.10965,-68.97615 22.92722,-72.60071 25.01498,-2.83012 45.25414,21.31538 41.30969,49.28284 -3.38441,23.9967 -24.13034,39.35426 -46.15124,34.16433 z m 16.42524,-20.51968 c 5.36751,-2.74181 9.82884,-12.21569 9.82884,-20.87208 0,-18.16383 -15.25249,-28.97781 -27.39735,-19.42465 -7.01656,5.51922 -9.83864,20.83362 -5.63838,30.5974 4.5939,10.67879 13.77635,14.5166 23.20689,9.69933 z m 40.17779,19.42901 c -1.18307,-0.57254 -2.89861,-2.45458 -3.81231,-4.18232 -1.47391,-2.78707 -1.62605,-7.01334 -1.34895,-37.47442 l 0.31231,-34.33309 3.26578,-2.91691 c 2.23016,-1.99194 4.32789,-2.91692 6.61514,-2.91692 3.93043,0 8.61908,3.30339 8.61908,6.07258 0,2.55368 0.25036,2.48643 5.41249,-1.45392 10.42452,-7.95722 25.31548,-6.83709 35.30714,2.65587 l 3.21963,3.05893 2.7727,-2.77266 c 1.5249,-1.52497 5.0261,-3.94289 7.7803,-5.37314 4.2304,-2.19678 6.2497,-2.58844 13.0077,-2.52297 11.8792,0.11508 19.8929,4.55354 24.809,13.74063 2.0864,3.89907 2.2057,5.47804 2.4986,33.05281 0.3329,31.33385 0.1725,32.46658 -4.9725,35.12718 -3.2696,1.69078 -5.9156,1.79075 -9.0919,0.34353 -4.9252,-2.24408 -5.2096,-3.75084 -5.7432,-30.42884 -0.4277,-21.38847 -0.7552,-25.46705 -2.2669,-28.23307 -3.7231,-6.81254 -13.1945,-8.43471 -19.0793,-3.26775 -4.9305,4.32897 -5.6538,8.59915 -5.6538,33.37854 0,11.82064 -0.4306,22.62482 -0.957,24.00928 -1.0258,2.69797 -5.67188,5.613 -8.94625,5.613 -3.5668,0 -6.96463,-2.20189 -8.54852,-5.53969 -1.25494,-2.64459 -1.55235,-7.59044 -1.57015,-26.11144 -0.0195,-20.2814 -0.2354,-23.31898 -1.92142,-27.03255 -3.06402,-6.74873 -11.20587,-9.35898 -18.08935,-5.79939 -5.50257,2.84549 -5.96727,5.14205 -5.96727,29.49059 0,25.57156 -0.76574,30.26877 -5.39455,33.09135 -3.40933,2.07896 -6.94238,2.32863 -10.2565,0.72479 z M 721.11123,642.73949 c -13.1102,-2.84871 -22.59867,-8.83076 -23.83215,-15.02509 -0.72654,-3.64856 2.75707,-9.30399 6.98253,-11.33575 2.56688,-1.23424 3.61685,-1.10237 10.46267,1.31404 12.24127,4.32089 17.26827,5.5334 22.99344,5.54602 14.79591,0.0326 23.11602,-8.22088 23.11602,-22.93095 0,-2.23145 -0.23875,-4.05718 -0.53055,-4.05718 -0.2918,0 -1.8251,1.47441 -3.40732,3.27646 -1.58222,1.80205 -5.05598,4.38955 -7.71945,5.75 -4.1968,2.14364 -6.1764,2.47354 -14.84268,2.47354 -8.68362,0 -10.72401,-0.34151 -15.5,-2.59433 -14.59654,-6.88512 -23,-23.46524 -23,-45.37923 0,-23.80863 13.24782,-42.96798 32.86706,-47.53321 10.23437,-2.38146 22.19198,0.66855 28.36656,7.23542 1.69177,1.79924 3.23307,2.82135 3.42513,2.27135 3.32983,-9.53593 14.25884,-12.36942 20.91609,-5.42278 l 2.92516,3.05233 0.2954,42.18522 c 0.19369,27.66022 -0.0861,44.40278 -0.81244,48.6257 -2.81138,16.34408 -13.94426,28.20973 -30.51792,32.52662 -7.23039,1.88328 -23.56987,1.89436 -32.18755,0.0218 z m 24.75749,-57.48212 c 4.20054,-1.16696 10.29502,-7.11362 12.30525,-12.00679 3.7337,-9.08836 2.81714,-21.97193 -2.13292,-29.98114 -8.5961,-13.90853 -25.11483,-12.72548 -32.97195,2.3614 -2.29988,4.41612 -2.67106,6.35664 -2.70084,14.11974 -0.0302,7.88217 0.31471,9.71117 2.77722,14.72587 4.75252,9.67809 12.85521,13.52237 22.72324,10.78092 z m 107.85749,21.54375 c -19.39936,-5.3498 -32.89247,-24.44571 -32.89247,-46.55054 0,-13.18675 4.63152,-25.24765 13.28443,-34.59382 21.51796,-23.24196 57.45812,-17.27467 71.24004,11.82827 6.93441,14.64323 6.96366,30.92449 0.0813,45.26555 -5.93757,12.37242 -14.23517,19.76082 -26.4187,23.52393 -7.32714,2.26313 -18.17848,2.48904 -25.29462,0.52661 z m 19.72362,-22.46366 c 7.99317,-3.62984 12.26971,-12.01228 12.34002,-24.18766 0.0848,-14.68168 -6.24564,-24.37363 -17.19129,-26.32007 -8.45262,-1.5031 -15.9071,2.92446 -20.40613,12.12015 -2.29564,4.69212 -2.74658,6.92918 -2.76241,13.7041 -0.0289,12.35302 4.36484,20.76561 12.90372,24.70656 5.09167,2.34995 9.9067,2.3426 15.11609,-0.0231 z m 81.52337,22.8243 c -4.45766,-1.3605 -10.56027,-5.27525 -12.65727,-8.1195 -0.92929,-1.26042 -1.86973,-1.84168 -2.08987,-1.29168 -3.44348,8.60321 -10.98158,11.83224 -18.52076,7.93358 -5.89765,-3.04979 -5.87156,-2.7543 -5.87156,-66.50033 0,-64.8263 -0.16375,-63.20407 6.70906,-66.46543 4.80785,-2.28148 9.86525,-1.35444 13.74136,2.51883 l 3.04958,3.04734 0.30719,20.48301 c 0.16895,11.26565 0.53882,20.483 0.82193,20.483 0.28311,0 2.50107,-1.16407 4.92882,-2.58682 8.72078,-5.11072 19.38044,-6.60498 28.94206,-4.05709 7.19613,1.91757 11.18549,4.22776 16.4018,9.49809 15.11436,15.27091 18.64966,44.1163 7.88896,64.36902 -3.86727,7.27862 -12.15608,15.13907 -19.51832,18.50961 -6.405,2.9323 -18.18019,3.9952 -24.13298,2.17837 z m 12.43128,-22.80399 c 5.46514,-2.48222 9.8811,-8.09284 11.8264,-15.02585 1.99709,-7.11758 2.02818,-12.28612 0.11272,-18.73619 -4.90496,-16.51678 -19.9916,-22.13224 -31.50811,-11.72777 -5.33105,4.81628 -7.51371,10.93213 -7.45271,20.88262 0.0755,12.3115 4.49333,20.70651 12.95096,24.60996 5.06212,2.33632 8.92239,2.33556 14.07074,-0.003 z m 77.47042,23.22155 c -32.5221,-6.91189 -46.45228,-49.8421 -25.4548,-78.44643 15.3247,-20.8763 46.0724,-23.74721 64.29,-6.00273 10.0809,9.81908 14.0969,19.09184 14.8468,34.28041 0.4498,9.1091 0.2051,11.72785 -1.682,18 -4.0389,13.42469 -11.9068,22.85854 -23.8582,28.60658 -6.4818,3.11746 -8.3651,3.55141 -16.5,3.80194 -5.0506,0.15555 -10.2894,0.0477 -11.6418,-0.23977 z m 15.0961,-22.3502 c 5.1056,-1.41815 11.3413,-8.48362 13.2958,-15.06507 7.7274,-26.02083 -14.9742,-47.63553 -32.0726,-30.53713 -5.4499,5.44995 -7.7904,13.0227 -7.1429,23.11145 1.0691,16.65954 12.1858,26.30554 25.9197,22.49075 z m -261.13726,21.368 c -3.50039,-1.40273 -5.96649,-4.86816 -6.99708,-9.83247 -0.7236,-3.48558 -0.98696,-23.61309 -0.79312,-60.61619 0.26582,-50.74445 0.43862,-55.66946 2.05713,-58.63095 3.31745,-6.07019 10.51633,-7.91581 16.54325,-4.2413 6.26471,3.81949 6.18982,3.02129 6.18982,65.97437 0,60.70737 -0.0289,61.09942 -4.8214,65.36826 -2.12512,1.89292 -9.43041,3.07959 -12.1786,1.97828 z"
         style="fill:#00acee" />
    </g>
    <text
       xml:space="preserve"
       style="font-size:40px;font-style:normal;font-variant:normal;font-weight:normal;font-stretch:normal;line-height:125%;letter-spacing:0px;word-spacing:0px;fill:#000000;fill-opacity:1;stroke:none;font-family:Droid Sans;-inkscape-font-specification:Droid Sans"
       x="57.142857"
       y="103.79075"
       id="text6742"
       sodipodi:linespacing="125%"><tspan
         sodipodi:role="line"
         id="tspan6744"
         x="57.142857"
         y="103.79075">NA CAMISA</tspan></text>
    <text
       xml:space="preserve"
       style="font-size:40px;font-style:normal;font-variant:normal;font-weight:normal;font-stretch:normal;line-height:125%;letter-spacing:0px;word-spacing:0px;fill:#000000;fill-opacity:1;stroke:none;font-family:Droid Sans;-inkscape-font-specification:Droid Sans"
       x="54.285717"
       y="423.79074"
       id="text6746"
       sodipodi:linespacing="125%"><tspan
         sodipodi:role="line"
         id="tspan6748"
         x="54.285717"
         y="423.79074">GRANDE</tspan></text>
  </g>
</svg>
