<?xml version="1.0" encoding="UTF-8" standalone="no"?>
<!-- Created with Inkscape (http://www.inkscape.org/) -->

<svg
   xmlns:dc="http://purl.org/dc/elements/1.1/"
   xmlns:cc="http://creativecommons.org/ns#"
   xmlns:rdf="http://www.w3.org/1999/02/22-rdf-syntax-ns#"
   xmlns:svg="http://www.w3.org/2000/svg"
   xmlns="http://www.w3.org/2000/svg"
   xmlns:sodipodi="http://sodipodi.sourceforge.net/DTD/sodipodi-0.dtd"
   xmlns:inkscape="http://www.inkscape.org/namespaces/inkscape"
   width="210mm"
   height="297mm"
   id="svg6027"
   version="1.1"
   inkscape:version="0.48.4 r9939"
   sodipodi:docname="Novo documento 25">
  <defs
     id="defs6029" />
  <sodipodi:namedview
     id="base"
     pagecolor="#ffffff"
     bordercolor="#666666"
     borderopacity="1.0"
     inkscape:pageopacity="0.0"
     inkscape:pageshadow="2"
     inkscape:zoom="0.24748737"
     inkscape:cx="694.13163"
     inkscape:cy="-203.83803"
     inkscape:document-units="px"
     inkscape:current-layer="layer1"
     showgrid="false"
     inkscape:window-width="1280"
     inkscape:window-height="972"
     inkscape:window-x="0"
     inkscape:window-y="25"
     inkscape:window-maximized="1" />
  <metadata
     id="metadata6032">
    <rdf:RDF>
      <cc:Work
         rdf:about="">
        <dc:format>image/svg+xml</dc:format>
        <dc:type
           rdf:resource="http://purl.org/dc/dcmitype/StillImage" />
        <dc:title></dc:title>
      </cc:Work>
    </rdf:RDF>
  </metadata>
  <g
     inkscape:label="Camada 1"
     inkscape:groupmode="layer"
     id="layer1">
    <text
       xml:space="preserve"
       style="font-size:40px;font-style:normal;font-variant:normal;font-weight:normal;font-stretch:normal;line-height:125%;letter-spacing:0px;word-spacing:0px;fill:#000000;fill-opacity:1;stroke:none;font-family:Droid Sans;-inkscape-font-specification:Droid Sans"
       x="48.57143"
       y="109.50504"
       id="text6035"
       sodipodi:linespacing="125%"><tspan
         sodipodi:role="line"
         id="tspan6037"
         x="48.57143"
         y="109.50504">NA CAMISA</tspan></text>
    <text
       xml:space="preserve"
       style="font-size:40px;font-style:normal;font-variant:normal;font-weight:normal;font-stretch:normal;line-height:125%;letter-spacing:0px;word-spacing:0px;fill:#000000;fill-opacity:1;stroke:none;font-family:Droid Sans;-inkscape-font-specification:Droid Sans"
       x="48.57143"
       y="469.50504"
       id="text6039"
       sodipodi:linespacing="125%"><tspan
         sodipodi:role="line"
         id="tspan6041"
         x="48.57143"
         y="469.50504">GRANDE</tspan></text>
    <g
       transform="matrix(0.53514752,0,0,-0.53514752,-85.157175,301.82956)"
       id="g23185">
      <path
         inkscape:connector-curvature="0"
         d="m 452.7105,187.0934 -2.9651,0 0,-18.1491 13.9264,0 1.8867,2.9651 -12.848,0 0,15.184 z"
         style="fill:#ef2e25;fill-opacity:1;fill-rule:evenodd;stroke:none"
         id="path21263" />
      <path
         inkscape:connector-curvature="0"
         d="m 412.0594,186.1951 -10.8714,-17.2508 3.5937,0 3.2797,5.2109 7.0078,0 1.842,2.9654 -7.0081,0 3.8185,5.9745 8.9397,-14.1508 3.594,0 -10.9613,17.2956 c -0.6741,1.1231 -2.4709,1.1231 -3.2346,-0.0448"
         style="fill:#ef2e25;fill-opacity:1;fill-rule:evenodd;stroke:none"
         id="path21265" />
      <path
         inkscape:connector-curvature="0"
         d="m 433.1282,184.134 12.4662,0 1.8391,2.9623 -14.3952,-0.008 c -5.0085,0 -8.3055,-4.0603 -8.3055,-9.0689 0,-5.0088 3.297,-9.0694 8.3055,-9.0694 l 12.1768,0.0142 1.9066,2.9404 -13.9935,0 c -3.3772,0 -5.3513,2.7374 -5.3513,6.1148 0,3.377 1.9741,6.1147 5.3513,6.1149"
         style="fill:#ef2e25;fill-opacity:1;fill-rule:evenodd;stroke:none"
         id="path21267" />
      <path
         inkscape:connector-curvature="0"
         d="m 369.5105,171.9043 -12.8483,0 c -3.3769,0 -5.351,2.7374 -5.351,6.1148 0,3.377 1.9741,6.1147 5.351,6.1147 l 12.8483,2e-4 c 3.3769,0 5.351,-2.7379 5.351,-6.1149 0,-3.3774 -1.9741,-6.1148 -5.351,-6.1148 z m 0,15.1837 -12.8483,0 c -5.0085,0 -8.3052,-4.0603 -8.3052,-9.0689 0,-5.0088 3.2967,-9.0694 8.3052,-9.0694 l 12.8483,0 c 5.0086,0 8.3052,4.0606 8.3052,9.0694 0,5.0086 -3.2966,9.0689 -8.3052,9.0689"
         style="fill:#ef2e25;fill-opacity:1;fill-rule:evenodd;stroke:none"
         id="path21269" />
      <path
         inkscape:connector-curvature="0"
         d="m 474.0335,184.134 12.4665,0 1.8391,2.9623 -14.3954,-0.008 c -5.0086,0 -8.3052,-4.0603 -8.3052,-9.0689 0,-5.0088 3.2966,-9.0694 8.3052,-9.0694 l 12.1771,0.0142 1.9063,2.9404 -13.9936,0 c -2.8825,0 -4.7279,1.9927 -5.2112,4.6771 l 15.7008,0 1.8871,2.9648 -17.5879,0 c 0.5142,2.6274 2.3689,4.5876 5.2112,4.5878"
         style="fill:#ef2e25;fill-opacity:1;fill-rule:evenodd;stroke:none"
         id="path21271" />
      <path
         inkscape:connector-curvature="0"
         d="m 394.7119,176.3184 c 2.9736,0 5.3847,2.4108 5.3847,5.3841 0,2.9741 -2.4111,5.3844 -5.3847,5.3844 l -15.1166,0.006 0,-18.1491 3.3242,0 0,15.1886 11.7924,0 c 1.3422,0 2.4299,-1.0882 2.4299,-2.4304 0,-1.3419 -1.0877,-2.4299 -2.4299,-2.4299 l -9.4563,0 10.6673,-10.3079 4.2922,0 -7.6368,7.3474 2.1336,0.006 z"
         style="fill:#ef2e25;fill-opacity:1;fill-rule:evenodd;stroke:none"
         id="path21273" />
      <path
         inkscape:connector-curvature="0"
         d="m 491.5185,184.3447 c -0.7416,0 -1.3198,0.5743 -1.3198,1.3538 0,0.767 0.5782,1.3453 1.3195,1.3453 0.733,0 1.3113,-0.5783 1.3113,-1.3453 0,-0.7795 -0.5783,-1.3538 -1.311,-1.3538 z m 0,2.9693 c -0.8912,0 -1.645,-0.6857 -1.645,-1.6155 0,-0.938 0.7538,-1.6234 1.6447,-1.6234 0.8827,0 1.6367,0.6854 1.6367,1.6234 3e-4,0.9298 -0.754,1.6155 -1.6364,1.6155"
         style="fill:#ef2e25;fill-opacity:1;fill-rule:evenodd;stroke:none"
         id="path21275" />
      <path
         inkscape:connector-curvature="0"
         d="m 491.1761,185.8102 0,0.5782 0.3858,0 c 0.1967,0 0.4064,-0.0425 0.4064,-0.2741 0,-0.2871 -0.214,-0.3041 -0.4538,-0.3041 l -0.3384,0 z m 0.604,-0.2271 c 0.2741,0.0338 0.4842,0.1797 0.4842,0.5139 0,0.3685 -0.2186,0.5313 -0.6596,0.5313 l -0.7115,0 0,-1.8678 0.2829,0 0,0.8096 0.3257,0 0.4926,-0.8096 0.3169,0 -0.5312,0.8226 z"
         style="fill:#ef2e25;fill-opacity:1;fill-rule:evenodd;stroke:none"
         id="path21277" />
    </g>
    <g
       id="g6085"
       transform="matrix(4.3442033,0,0,-4.3442033,-1451.4644,1357.7608)">
      <path
         id="path6087"
         style="fill:#ef2e25;fill-opacity:1;fill-rule:evenodd;stroke:none"
         d="m 452.7105,187.0934 -2.9651,0 0,-18.1491 13.9264,0 1.8867,2.9651 -12.848,0 0,15.184 z"
         inkscape:connector-curvature="0" />
      <path
         id="path6089"
         style="fill:#ef2e25;fill-opacity:1;fill-rule:evenodd;stroke:none"
         d="m 412.0594,186.1951 -10.8714,-17.2508 3.5937,0 3.2797,5.2109 7.0078,0 1.842,2.9654 -7.0081,0 3.8185,5.9745 8.9397,-14.1508 3.594,0 -10.9613,17.2956 c -0.6741,1.1231 -2.4709,1.1231 -3.2346,-0.0448"
         inkscape:connector-curvature="0" />
      <path
         id="path6091"
         style="fill:#ef2e25;fill-opacity:1;fill-rule:evenodd;stroke:none"
         d="m 433.1282,184.134 12.4662,0 1.8391,2.9623 -14.3952,-0.008 c -5.0085,0 -8.3055,-4.0603 -8.3055,-9.0689 0,-5.0088 3.297,-9.0694 8.3055,-9.0694 l 12.1768,0.0142 1.9066,2.9404 -13.9935,0 c -3.3772,0 -5.3513,2.7374 -5.3513,6.1148 0,3.377 1.9741,6.1147 5.3513,6.1149"
         inkscape:connector-curvature="0" />
      <path
         id="path6093"
         style="fill:#ef2e25;fill-opacity:1;fill-rule:evenodd;stroke:none"
         d="m 369.5105,171.9043 -12.8483,0 c -3.3769,0 -5.351,2.7374 -5.351,6.1148 0,3.377 1.9741,6.1147 5.351,6.1147 l 12.8483,2e-4 c 3.3769,0 5.351,-2.7379 5.351,-6.1149 0,-3.3774 -1.9741,-6.1148 -5.351,-6.1148 z m 0,15.1837 -12.8483,0 c -5.0085,0 -8.3052,-4.0603 -8.3052,-9.0689 0,-5.0088 3.2967,-9.0694 8.3052,-9.0694 l 12.8483,0 c 5.0086,0 8.3052,4.0606 8.3052,9.0694 0,5.0086 -3.2966,9.0689 -8.3052,9.0689"
         inkscape:connector-curvature="0" />
      <path
         id="path6095"
         style="fill:#ef2e25;fill-opacity:1;fill-rule:evenodd;stroke:none"
         d="m 474.0335,184.134 12.4665,0 1.8391,2.9623 -14.3954,-0.008 c -5.0086,0 -8.3052,-4.0603 -8.3052,-9.0689 0,-5.0088 3.2966,-9.0694 8.3052,-9.0694 l 12.1771,0.0142 1.9063,2.9404 -13.9936,0 c -2.8825,0 -4.7279,1.9927 -5.2112,4.6771 l 15.7008,0 1.8871,2.9648 -17.5879,0 c 0.5142,2.6274 2.3689,4.5876 5.2112,4.5878"
         inkscape:connector-curvature="0" />
      <path
         id="path6097"
         style="fill:#ef2e25;fill-opacity:1;fill-rule:evenodd;stroke:none"
         d="m 394.7119,176.3184 c 2.9736,0 5.3847,2.4108 5.3847,5.3841 0,2.9741 -2.4111,5.3844 -5.3847,5.3844 l -15.1166,0.006 0,-18.1491 3.3242,0 0,15.1886 11.7924,0 c 1.3422,0 2.4299,-1.0882 2.4299,-2.4304 0,-1.3419 -1.0877,-2.4299 -2.4299,-2.4299 l -9.4563,0 10.6673,-10.3079 4.2922,0 -7.6368,7.3474 2.1336,0.006 z"
         inkscape:connector-curvature="0" />
      <path
         id="path6099"
         style="fill:#ef2e25;fill-opacity:1;fill-rule:evenodd;stroke:none"
         d="m 491.5185,184.3447 c -0.7416,0 -1.3198,0.5743 -1.3198,1.3538 0,0.767 0.5782,1.3453 1.3195,1.3453 0.733,0 1.3113,-0.5783 1.3113,-1.3453 0,-0.7795 -0.5783,-1.3538 -1.311,-1.3538 z m 0,2.9693 c -0.8912,0 -1.645,-0.6857 -1.645,-1.6155 0,-0.938 0.7538,-1.6234 1.6447,-1.6234 0.8827,0 1.6367,0.6854 1.6367,1.6234 3e-4,0.9298 -0.754,1.6155 -1.6364,1.6155"
         inkscape:connector-curvature="0" />
      <path
         id="path6101"
         style="fill:#ef2e25;fill-opacity:1;fill-rule:evenodd;stroke:none"
         d="m 491.1761,185.8102 0,0.5782 0.3858,0 c 0.1967,0 0.4064,-0.0425 0.4064,-0.2741 0,-0.2871 -0.214,-0.3041 -0.4538,-0.3041 l -0.3384,0 z m 0.604,-0.2271 c 0.2741,0.0338 0.4842,0.1797 0.4842,0.5139 0,0.3685 -0.2186,0.5313 -0.6596,0.5313 l -0.7115,0 0,-1.8678 0.2829,0 0,0.8096 0.3257,0 0.4926,-0.8096 0.3169,0 -0.5312,0.8226 z"
         inkscape:connector-curvature="0" />
    </g>
  </g>
</svg>
