<?xml version="1.0" encoding="UTF-8" standalone="no"?>
<!-- Created with Inkscape (http://www.inkscape.org/) -->

<svg
   xmlns:dc="http://purl.org/dc/elements/1.1/"
   xmlns:cc="http://creativecommons.org/ns#"
   xmlns:rdf="http://www.w3.org/1999/02/22-rdf-syntax-ns#"
   xmlns:svg="http://www.w3.org/2000/svg"
   xmlns="http://www.w3.org/2000/svg"
   xmlns:sodipodi="http://sodipodi.sourceforge.net/DTD/sodipodi-0.dtd"
   xmlns:inkscape="http://www.inkscape.org/namespaces/inkscape"
   width="210mm"
   height="297mm"
   id="svg5493"
   version="1.1"
   inkscape:version="0.48.4 r9939"
   sodipodi:docname="Novo documento 18">
  <defs
     id="defs5495" />
  <sodipodi:namedview
     id="base"
     pagecolor="#ffffff"
     bordercolor="#666666"
     borderopacity="1.0"
     inkscape:pageopacity="0.0"
     inkscape:pageshadow="2"
     inkscape:zoom="0.35"
     inkscape:cx="350"
     inkscape:cy="520"
     inkscape:document-units="px"
     inkscape:current-layer="layer1"
     showgrid="false"
     inkscape:window-width="1280"
     inkscape:window-height="972"
     inkscape:window-x="0"
     inkscape:window-y="25"
     inkscape:window-maximized="1" />
  <metadata
     id="metadata5498">
    <rdf:RDF>
      <cc:Work
         rdf:about="">
        <dc:format>image/svg+xml</dc:format>
        <dc:type
           rdf:resource="http://purl.org/dc/dcmitype/StillImage" />
        <dc:title></dc:title>
      </cc:Work>
    </rdf:RDF>
  </metadata>
  <g
     inkscape:label="Camada 1"
     inkscape:groupmode="layer"
     id="layer1">
    <text
       xml:space="preserve"
       style="font-size:40px;font-style:normal;font-variant:normal;font-weight:normal;font-stretch:normal;line-height:125%;letter-spacing:0px;word-spacing:0px;fill:#000000;fill-opacity:1;stroke:none;font-family:Droid Sans;-inkscape-font-specification:Droid Sans"
       x="49.628906"
       y="94.436668"
       id="text5433"
       sodipodi:linespacing="125%"><tspan
         sodipodi:role="line"
         id="tspan5435"
         x="49.628906"
         y="94.436668">na camisa</tspan></text>
    <text
       xml:space="preserve"
       style="font-size:40px;font-style:normal;font-variant:normal;font-weight:normal;font-stretch:normal;line-height:125%;letter-spacing:0px;word-spacing:0px;fill:#000000;fill-opacity:1;stroke:none;font-family:Droid Sans;-inkscape-font-specification:Droid Sans"
       x="61.057472"
       y="475.86523"
       id="text5437"
       sodipodi:linespacing="125%"><tspan
         sodipodi:role="line"
         id="tspan5439"
         x="61.057472"
         y="475.86523">grande</tspan></text>
    <g
       transform="matrix(0.54237318,0,0,-0.54237318,-262.89698,322.00366)"
       id="g22989">
      <path
         inkscape:connector-curvature="0"
         d="m 619.8094,174.7488 c -10.7177,11.4696 -11.9573,23.5137 -0.9164,36.7007 -7.3582,-2.8958 -13.2707,-8.4466 -13.4079,-18.6723 -0.1264,-9.4329 6.8089,-14.1999 14.3243,-18.0284 z"
         style="fill:#2e3192;fill-opacity:1;fill-rule:evenodd;stroke:#231f20;stroke-width:0.7087;stroke-linecap:butt;stroke-linejoin:miter;stroke-miterlimit:22.92558479;stroke-opacity:1;stroke-dasharray:none"
         id="path22287" />
      <path
         inkscape:connector-curvature="0"
         d="m 626.417,175.5533 c -11.0526,11.3695 -12.8279,22.9388 -1.3595,35.0915 -7.0353,-2.7692 -12.2057,-8.0762 -12.3369,-17.8537 -0.1208,-9.0188 6.51,-13.5771 13.6964,-17.2378 z"
         style="fill:#ed1c24;fill-opacity:1;fill-rule:evenodd;stroke:#231f20;stroke-width:0.7087;stroke-linecap:butt;stroke-linejoin:miter;stroke-miterlimit:22.92558479;stroke-opacity:1;stroke-dasharray:none"
         id="path22289" />
      <path
         inkscape:connector-curvature="0"
         d="m 632.3652,178.1291 c -10.2671,9.961 -12.0773,18.9709 -1.4238,29.6178 -6.5353,-2.4253 -10.6946,-6.4318 -10.8162,-14.9978 -0.1119,-7.9019 5.5647,-11.4128 12.24,-14.62 z"
         style="fill:#fff200;fill-opacity:1;fill-rule:evenodd;stroke:#231f20;stroke-width:0.7087;stroke-linecap:butt;stroke-linejoin:miter;stroke-miterlimit:22.92558479;stroke-opacity:1;stroke-dasharray:none"
         id="path22291" />
      <path
         inkscape:connector-curvature="0"
         d="m 760.515,211.4495 c 10.7178,-11.4698 11.9574,-23.5139 0.9167,-36.7012 7.3582,2.8961 13.2707,8.4469 13.4079,18.6726 0.1264,9.4329 -6.8085,14.1999 -14.3246,18.0286 z"
         style="fill:#2e3192;fill-opacity:1;fill-rule:evenodd;stroke:#231f20;stroke-width:0.7087;stroke-linecap:butt;stroke-linejoin:miter;stroke-miterlimit:22.92558479;stroke-opacity:1;stroke-dasharray:none"
         id="path22293" />
      <path
         inkscape:connector-curvature="0"
         d="m 753.9075,210.6448 c 11.0528,-11.3692 12.8282,-22.9391 1.3595,-35.0915 7.0356,2.7692 12.2059,8.0762 12.3369,17.8534 0.1208,9.0193 -6.5098,13.5771 -13.6964,17.2381 z"
         style="fill:#ed1c24;fill-opacity:1;fill-rule:evenodd;stroke:#231f20;stroke-width:0.7087;stroke-linecap:butt;stroke-linejoin:miter;stroke-miterlimit:22.92558479;stroke-opacity:1;stroke-dasharray:none"
         id="path22295" />
      <path
         inkscape:connector-curvature="0"
         d="m 747.9595,208.0689 c 10.2671,-9.9612 12.0768,-18.9708 1.4239,-29.6183 6.5352,2.4262 10.6942,6.4324 10.8158,14.9987 0.1123,7.9018 -5.5641,11.4122 -12.2397,14.6196 z"
         style="fill:#fff200;fill-opacity:1;fill-rule:evenodd;stroke:#231f20;stroke-width:0.7087;stroke-linecap:butt;stroke-linejoin:miter;stroke-miterlimit:22.92558479;stroke-opacity:1;stroke-dasharray:none"
         id="path22297" />
      <path
         inkscape:connector-curvature="0"
         d="m 654.0316,185.9683 -2.4098,0 -2.4142,9.9457 -3.7593,-9.8399 -0.9017,0 -4.2234,9.7594 -1.851,-9.8652 -2.3953,0 3.0583,16.4373 1.3901,0 4.5023,-13.7047 4.0728,13.7852 1.4703,0 3.4609,-16.5178 z m 12.6929,3.1224 0,2.6498 -1.703,0 c -3.5592,0 -5.3433,-0.8376 -5.3433,-2.5047 0,-0.6052 0.2693,-1.074 0.7982,-1.3974 0.5292,-0.3235 1.2314,-0.485 2.1067,-0.485 0.404,0 0.8031,0.0416 1.2025,0.1201 0.3991,0.0831 0.7838,0.199 1.1449,0.3484 0.3606,0.1494 0.6922,0.3314 1.0001,0.5474 0.3033,0.2115 0.5677,0.4518 0.7939,0.7214 z m 0,-1.9199 c -1.2843,-0.9952 -2.9007,-1.4927 -4.8435,-1.4927 -0.6687,0 -1.2892,0.083 -1.8564,0.2489 -0.5678,0.1655 -1.063,0.3979 -1.4865,0.6967 -0.423,0.2982 -0.7552,0.6594 -0.9907,1.082 -0.2407,0.4232 -0.3606,0.8915 -0.3606,1.41 0,2.7867 2.7751,4.1796 8.3254,4.1796 l 1.2123,0 c 0,0.51 -0.0195,0.9621 -0.0533,1.3598 -0.0385,0.3943 -0.1635,0.7299 -0.3702,0.9998 -0.2069,0.2735 -0.5337,0.4808 -0.9859,0.6219 -0.4473,0.1409 -1.0825,0.2112 -1.9,0.2112 -2.1787,0 -3.3089,-0.6758 -3.3812,-2.0273 l -2.4817,0 c 0.1777,2.463 2.1787,3.6949 6.0026,3.6949 0.8655,0 1.6444,-0.0666 2.3375,-0.1953 0.6973,-0.1326 1.2841,-0.3648 1.7699,-0.7047 0.4859,-0.3401 0.8561,-0.8047 1.1206,-1.385 0.2647,-0.5848 0.3943,-1.3272 0.3943,-2.2226 l 0,-7.6797 -2.4526,0 0,1.2025 z m 17.4014,-1.2025 -3.0544,0 -3.4245,4.6526 -3.4245,-4.6526 -3.0445,0 5.0885,6.1827 -4.6942,5.7098 3.0303,0 3.0444,-4.1425 3.0158,4.1425 3.0543,0 -4.6896,-5.7098 5.0984,-6.1827 z m 7.5943,-0.2902 c -0.9667,0 -1.8468,0.1369 -2.6402,0.4104 -0.794,0.2775 -1.4769,0.6804 -2.0441,1.215 -0.5678,0.5349 -1.0103,1.1902 -1.3229,1.9615 -0.3175,0.7753 -0.476,1.6586 -0.476,2.6578 0,0.9788 0.1585,1.8536 0.4663,2.6289 0.3127,0.7715 0.7458,1.4263 1.313,1.9612 0.5627,0.5352 1.2411,0.9417 2.0396,1.2195 0.7982,0.2818 1.688,0.4232 2.6643,0.4232 0.7412,0 1.4286,-0.0873 2.0639,-0.2534 0.6344,-0.1661 1.1922,-0.4107 1.6781,-0.7336 0.481,-0.3234 0.8801,-0.726 1.1979,-1.207 0.3124,-0.485 0.5193,-1.0366 0.6106,-1.6585 l -2.5203,0 c -0.0193,0.3566 -0.1108,0.6715 -0.2693,0.9456 -0.1587,0.2775 -0.375,0.5057 -0.6494,0.688 -0.269,0.1828 -0.5868,0.3194 -0.9474,0.4107 -0.3608,0.0952 -0.7503,0.1406 -1.1641,0.1406 -0.5814,0 -1.1158,-0.095 -1.6013,-0.2857 -0.4811,-0.1911 -0.8995,-0.4771 -1.2461,-0.8629 -0.3462,-0.3852 -0.6154,-0.8626 -0.8079,-1.4301 -0.1922,-0.5723 -0.2883,-1.2362 -0.2883,-1.9865 0,-0.7546 0.0961,-1.4179 0.2883,-1.9862 0.1925,-0.5721 0.4617,-1.0491 0.8079,-1.4346 0.3466,-0.3856 0.765,-0.6719 1.2461,-0.8626 0.4855,-0.1908 1.0199,-0.286 1.6013,-0.286 0.3945,0 0.7698,0.0453 1.1259,0.1326 0.3603,0.0913 0.6777,0.224 0.9521,0.4065 0.2787,0.1823 0.5001,0.4062 0.6684,0.6758 0.1684,0.265 0.2645,0.5848 0.2838,0.9451 l 2.5203,0 c -0.0913,-0.6302 -0.2982,-1.1855 -0.6106,-1.6628 -0.3178,-0.4766 -0.7169,-0.8748 -1.2076,-1.1937 -0.4858,-0.3232 -1.0485,-0.5644 -1.6832,-0.7299 -0.6349,-0.1659 -1.3178,-0.2489 -2.0491,-0.2489 z m 13.3279,12.4775 c 0.9955,0 1.895,-0.1454 2.6935,-0.4274 0.7985,-0.2821 1.4763,-0.6925 2.0395,-1.2274 0.5672,-0.5349 0.9952,-1.1861 1.2983,-1.9574 0.2982,-0.767 0.4521,-1.6418 0.4521,-2.6206 0,-0.991 -0.1587,-1.8703 -0.4666,-2.6453 -0.3078,-0.7713 -0.7455,-1.4269 -1.3085,-1.9618 -0.5672,-0.5347 -1.2455,-0.9411 -2.0437,-1.2187 -0.7986,-0.282 -1.6884,-0.4189 -2.6646,-0.4189 -0.9669,0 -1.8471,0.1369 -2.6408,0.4104 -0.7934,0.2775 -1.4765,0.6804 -2.0437,1.215 -0.5675,0.5349 -1.01,1.1902 -1.3227,1.9615 -0.3178,0.7753 -0.4762,1.6586 -0.4762,2.6578 0,0.9788 0.1584,1.8536 0.4666,2.6289 0.3126,0.7715 0.7452,1.4263 1.3127,1.9612 0.5627,0.5352 1.241,0.9417 2.0395,1.2195 0.7983,0.2818 1.6883,0.4232 2.6646,0.4232 z m 0,-10.8022 c 0.5819,0 1.1157,0.0952 1.6013,0.286 0.4816,0.1907 0.8949,0.477 1.2365,0.8626 0.3461,0.3855 0.6108,0.8625 0.803,1.4346 0.1925,0.5683 0.2886,1.2316 0.2886,1.9862 0,0.7503 -0.0961,1.4142 -0.2886,1.9865 -0.1922,0.5675 -0.4569,1.0449 -0.803,1.4301 -0.3416,0.3858 -0.7549,0.6718 -1.2365,0.8629 -0.4856,0.1907 -1.0194,0.2857 -1.6013,0.2857 -0.582,0 -1.1157,-0.095 -1.6016,-0.2857 -0.481,-0.1911 -0.8994,-0.4771 -1.2458,-0.8629 -0.3464,-0.3852 -0.6157,-0.8626 -0.8082,-1.4301 -0.1919,-0.5723 -0.2882,-1.2362 -0.2882,-1.9865 0,-0.7546 0.0963,-1.4179 0.2882,-1.9862 0.1925,-0.5721 0.4618,-1.0491 0.8082,-1.4346 0.3464,-0.3856 0.7648,-0.6719 1.2458,-0.8626 0.4859,-0.1908 1.0196,-0.286 1.6016,-0.286 z m 16.4013,8.575 c -0.3564,0.0995 -0.8564,0.1494 -1.4911,0.1494 -0.64,0 -1.2268,-0.1451 -1.7555,-0.4272 -0.5292,-0.282 -1.0247,-0.7046 -1.4865,-1.2645 l 0,-8.4178 -2.4386,0 0,11.8925 2.4386,0 0,-1.6381 c 1.0438,1.2858 2.251,1.9329 3.6219,1.9329 0.1587,0 0.3367,-0.009 0.5292,-0.0252 0.1922,-0.0164 0.3844,-0.0414 0.582,-0.0746 l 0,-2.1274 z m 7.5412,-10.2503 c -1.0051,0 -1.9238,0.1369 -2.751,0.4189 -0.8226,0.2776 -1.5344,0.684 -2.126,1.2187 -0.5916,0.5349 -1.0485,1.1905 -1.3756,1.9618 -0.322,0.775 -0.4859,1.6543 -0.4859,2.6453 0,0.97 0.159,1.8411 0.4762,2.6084 0.3127,0.7708 0.7555,1.4222 1.3278,1.9568 0.5768,0.5352 1.26,0.9456 2.0534,1.2319 0.794,0.2903 1.6691,0.4357 2.626,0.4357 0.9958,0 1.8953,-0.1454 2.6938,-0.4274 0.7982,-0.2821 1.4768,-0.6925 2.0392,-1.2274 0.5675,-0.5349 0.9956,-1.1861 1.2989,-1.9574 0.2979,-0.767 0.4518,-1.6418 0.4518,-2.6206 l 0,-0.5099 -10.3986,0 c 0.053,-0.6883 0.1973,-1.2895 0.4283,-1.7995 0.2308,-0.5102 0.529,-0.9331 0.8943,-1.2651 0.3657,-0.3316 0.7889,-0.5802 1.2745,-0.7461 0.4859,-0.1661 1.01,-0.2488 1.5729,-0.2488 0.404,0 0.8082,0.0453 1.2121,0.1408 0.4043,0.0913 0.7648,0.2282 1.0917,0.4105 0.3223,0.1825 0.587,0.4107 0.7888,0.6797 0.2019,0.2739 0.3079,0.5811 0.3175,0.929 l 2.5781,0 c -0.106,-0.6135 -0.3271,-1.1608 -0.6687,-1.6376 -0.3461,-0.4771 -0.7789,-0.879 -1.3033,-1.2025 -0.5293,-0.3237 -1.135,-0.5723 -1.8182,-0.7424 -0.6874,-0.1698 -1.4184,-0.2528 -2.198,-0.2528 z m 3.636,7.3976 c -0.1057,0.568 -0.2692,1.0615 -0.4952,1.4884 -0.2262,0.423 -0.5051,0.7798 -0.8464,1.0616 -0.3367,0.286 -0.7217,0.4972 -1.1545,0.6426 -0.4326,0.1494 -0.8944,0.2197 -1.395,0.2197 -0.4952,0 -0.9615,-0.0658 -1.3898,-0.2069 -0.4232,-0.1372 -0.8079,-0.3484 -1.1446,-0.6305 -0.3416,-0.282 -0.6254,-0.6386 -0.8609,-1.07 -0.2356,-0.4269 -0.3991,-0.9287 -0.4952,-1.5049 l 7.7816,0 z m 10.2688,-7.3976 c -3.7562,0 -5.7379,1.2773 -5.9445,3.8353 l 2.4817,0 c 0.009,-1.4386 1.154,-2.16 3.4342,-2.16 0.5097,0 0.957,0.0453 1.3467,0.1408 0.3895,0.0913 0.7161,0.224 0.9715,0.3941 0.2596,0.17 0.4566,0.3693 0.5916,0.6009 0.1391,0.2324 0.2066,0.4853 0.2066,0.7591 0,0.2821 -0.0527,0.5139 -0.1539,0.6883 -0.1057,0.1743 -0.3027,0.3277 -0.5913,0.46 -0.2937,0.1333 -0.6976,0.2614 -1.2217,0.3898 -0.5196,0.1247 -1.1977,0.2823 -2.0345,0.4773 -0.8175,0.1783 -1.5199,0.3524 -2.1163,0.5225 -0.5916,0.1698 -1.0775,0.3812 -1.4573,0.6344 -0.3801,0.2486 -0.6591,0.5556 -0.8467,0.9204 -0.1829,0.3651 -0.2741,0.8294 -0.2741,1.385 0,0.4853 0.1202,0.9368 0.3608,1.3561 0.2407,0.4187 0.582,0.7792 1.0293,1.0865 0.447,0.3064 0.9859,0.5513 1.6208,0.7257 0.635,0.174 1.3468,0.2613 2.1354,0.2613 3.6266,0 5.4643,-1.1114 5.5219,-3.3301 l -2.4239,0 c -0.0823,1.1072 -1.0588,1.6625 -2.9152,1.6625 -0.4136,0 -0.7982,-0.0329 -1.1494,-0.1032 -0.3513,-0.0666 -0.6588,-0.1701 -0.9139,-0.3027 -0.2597,-0.133 -0.4618,-0.2988 -0.6058,-0.4981 -0.1491,-0.199 -0.2217,-0.4223 -0.2217,-0.6755 0,-0.2324 0.0386,-0.4271 0.106,-0.5762 0.0723,-0.1494 0.2308,-0.2863 0.4859,-0.4111 0.2548,-0.1281 0.6347,-0.2568 1.135,-0.3852 0.5051,-0.1287 1.188,-0.282 2.0489,-0.4603 0.8371,-0.1701 1.5681,-0.3481 2.1835,-0.5352 0.6205,-0.1868 1.1353,-0.4145 1.5392,-0.6798 0.404,-0.2696 0.7022,-0.593 0.8995,-0.9788 0.1972,-0.3858 0.2982,-0.8583 0.2982,-1.4261 0,-0.5349 -0.1299,-1.0327 -0.3892,-1.497 -0.26,-0.4603 -0.6254,-0.8586 -1.1067,-1.1945 -0.4759,-0.3356 -1.0582,-0.6012 -1.741,-0.796 -0.6784,-0.1947 -1.4426,-0.2902 -2.2896,-0.2902 z"
         style="fill:#231f20;fill-opacity:1;fill-rule:nonzero;stroke:#231f20;stroke-width:0.21600001;stroke-linecap:butt;stroke-linejoin:miter;stroke-miterlimit:22.92558479;stroke-opacity:1;stroke-dasharray:none"
         id="path22299" />
      <path
         inkscape:connector-curvature="0"
         d="m 636.1977,181.8244 110.7459,0 0,-1.1699 -110.7459,0 0,1.1699 z"
         style="fill:#231f20;fill-opacity:1;fill-rule:evenodd;stroke:#231f20;stroke-width:0.7087;stroke-linecap:butt;stroke-linejoin:miter;stroke-miterlimit:22.92558479;stroke-opacity:1;stroke-dasharray:none"
         id="path22301" />
      <text
         transform="matrix(0.9418,0,0,-1,635.8297,172.9386)"
         id="text22303">
        <tspan
           style="font-size:7.28200006px;font-variant:normal;font-weight:bold;writing-mode:lr-tb;fill:#231f20;fill-opacity:1;fill-rule:nonzero;stroke:none;font-family:Arial;-inkscape-font-specification:Arial-BoldMT"
           x="0 4.8570938 7.6897922 11.738584 15.787376 20.236677 22.261074 26.309866 28.334263 33.999657 38.448959 42.497753 44.522148 46.546543 50.995846 55.04464 59.493938 63.542732 65.567131 70.016434 74.065224 78.514526 80.538918 84.587715 88.636505 90.660896 95.110199 97.134598 101.18339 105.23219 109.68148 112.10639 116.15518"
           y="0"
           sodipodi:role="line"
           id="tspan22305">Preço e Qualidade não se discute!</tspan>
      </text>
    </g>
    <g
       id="g5771"
       transform="matrix(3.7848003,0,0,-3.7848003,-2233.5553,1383.0479)">
      <path
         id="path5773"
         style="fill:#2e3192;fill-opacity:1;fill-rule:evenodd;stroke:#231f20;stroke-width:0.7087;stroke-linecap:butt;stroke-linejoin:miter;stroke-miterlimit:22.92558479;stroke-opacity:1;stroke-dasharray:none"
         d="m 619.8094,174.7488 c -10.7177,11.4696 -11.9573,23.5137 -0.9164,36.7007 -7.3582,-2.8958 -13.2707,-8.4466 -13.4079,-18.6723 -0.1264,-9.4329 6.8089,-14.1999 14.3243,-18.0284 z"
         inkscape:connector-curvature="0" />
      <path
         id="path5775"
         style="fill:#ed1c24;fill-opacity:1;fill-rule:evenodd;stroke:#231f20;stroke-width:0.7087;stroke-linecap:butt;stroke-linejoin:miter;stroke-miterlimit:22.92558479;stroke-opacity:1;stroke-dasharray:none"
         d="m 626.417,175.5533 c -11.0526,11.3695 -12.8279,22.9388 -1.3595,35.0915 -7.0353,-2.7692 -12.2057,-8.0762 -12.3369,-17.8537 -0.1208,-9.0188 6.51,-13.5771 13.6964,-17.2378 z"
         inkscape:connector-curvature="0" />
      <path
         id="path5777"
         style="fill:#fff200;fill-opacity:1;fill-rule:evenodd;stroke:#231f20;stroke-width:0.7087;stroke-linecap:butt;stroke-linejoin:miter;stroke-miterlimit:22.92558479;stroke-opacity:1;stroke-dasharray:none"
         d="m 632.3652,178.1291 c -10.2671,9.961 -12.0773,18.9709 -1.4238,29.6178 -6.5353,-2.4253 -10.6946,-6.4318 -10.8162,-14.9978 -0.1119,-7.9019 5.5647,-11.4128 12.24,-14.62 z"
         inkscape:connector-curvature="0" />
      <path
         id="path5779"
         style="fill:#2e3192;fill-opacity:1;fill-rule:evenodd;stroke:#231f20;stroke-width:0.7087;stroke-linecap:butt;stroke-linejoin:miter;stroke-miterlimit:22.92558479;stroke-opacity:1;stroke-dasharray:none"
         d="m 760.515,211.4495 c 10.7178,-11.4698 11.9574,-23.5139 0.9167,-36.7012 7.3582,2.8961 13.2707,8.4469 13.4079,18.6726 0.1264,9.4329 -6.8085,14.1999 -14.3246,18.0286 z"
         inkscape:connector-curvature="0" />
      <path
         id="path5781"
         style="fill:#ed1c24;fill-opacity:1;fill-rule:evenodd;stroke:#231f20;stroke-width:0.7087;stroke-linecap:butt;stroke-linejoin:miter;stroke-miterlimit:22.92558479;stroke-opacity:1;stroke-dasharray:none"
         d="m 753.9075,210.6448 c 11.0528,-11.3692 12.8282,-22.9391 1.3595,-35.0915 7.0356,2.7692 12.2059,8.0762 12.3369,17.8534 0.1208,9.0193 -6.5098,13.5771 -13.6964,17.2381 z"
         inkscape:connector-curvature="0" />
      <path
         id="path5783"
         style="fill:#fff200;fill-opacity:1;fill-rule:evenodd;stroke:#231f20;stroke-width:0.7087;stroke-linecap:butt;stroke-linejoin:miter;stroke-miterlimit:22.92558479;stroke-opacity:1;stroke-dasharray:none"
         d="m 747.9595,208.0689 c 10.2671,-9.9612 12.0768,-18.9708 1.4239,-29.6183 6.5352,2.4262 10.6942,6.4324 10.8158,14.9987 0.1123,7.9018 -5.5641,11.4122 -12.2397,14.6196 z"
         inkscape:connector-curvature="0" />
      <path
         id="path5785"
         style="fill:#231f20;fill-opacity:1;fill-rule:nonzero;stroke:#231f20;stroke-width:0.21600001;stroke-linecap:butt;stroke-linejoin:miter;stroke-miterlimit:22.92558479;stroke-opacity:1;stroke-dasharray:none"
         d="m 654.0316,185.9683 -2.4098,0 -2.4142,9.9457 -3.7593,-9.8399 -0.9017,0 -4.2234,9.7594 -1.851,-9.8652 -2.3953,0 3.0583,16.4373 1.3901,0 4.5023,-13.7047 4.0728,13.7852 1.4703,0 3.4609,-16.5178 z m 12.6929,3.1224 0,2.6498 -1.703,0 c -3.5592,0 -5.3433,-0.8376 -5.3433,-2.5047 0,-0.6052 0.2693,-1.074 0.7982,-1.3974 0.5292,-0.3235 1.2314,-0.485 2.1067,-0.485 0.404,0 0.8031,0.0416 1.2025,0.1201 0.3991,0.0831 0.7838,0.199 1.1449,0.3484 0.3606,0.1494 0.6922,0.3314 1.0001,0.5474 0.3033,0.2115 0.5677,0.4518 0.7939,0.7214 z m 0,-1.9199 c -1.2843,-0.9952 -2.9007,-1.4927 -4.8435,-1.4927 -0.6687,0 -1.2892,0.083 -1.8564,0.2489 -0.5678,0.1655 -1.063,0.3979 -1.4865,0.6967 -0.423,0.2982 -0.7552,0.6594 -0.9907,1.082 -0.2407,0.4232 -0.3606,0.8915 -0.3606,1.41 0,2.7867 2.7751,4.1796 8.3254,4.1796 l 1.2123,0 c 0,0.51 -0.0195,0.9621 -0.0533,1.3598 -0.0385,0.3943 -0.1635,0.7299 -0.3702,0.9998 -0.2069,0.2735 -0.5337,0.4808 -0.9859,0.6219 -0.4473,0.1409 -1.0825,0.2112 -1.9,0.2112 -2.1787,0 -3.3089,-0.6758 -3.3812,-2.0273 l -2.4817,0 c 0.1777,2.463 2.1787,3.6949 6.0026,3.6949 0.8655,0 1.6444,-0.0666 2.3375,-0.1953 0.6973,-0.1326 1.2841,-0.3648 1.7699,-0.7047 0.4859,-0.3401 0.8561,-0.8047 1.1206,-1.385 0.2647,-0.5848 0.3943,-1.3272 0.3943,-2.2226 l 0,-7.6797 -2.4526,0 0,1.2025 z m 17.4014,-1.2025 -3.0544,0 -3.4245,4.6526 -3.4245,-4.6526 -3.0445,0 5.0885,6.1827 -4.6942,5.7098 3.0303,0 3.0444,-4.1425 3.0158,4.1425 3.0543,0 -4.6896,-5.7098 5.0984,-6.1827 z m 7.5943,-0.2902 c -0.9667,0 -1.8468,0.1369 -2.6402,0.4104 -0.794,0.2775 -1.4769,0.6804 -2.0441,1.215 -0.5678,0.5349 -1.0103,1.1902 -1.3229,1.9615 -0.3175,0.7753 -0.476,1.6586 -0.476,2.6578 0,0.9788 0.1585,1.8536 0.4663,2.6289 0.3127,0.7715 0.7458,1.4263 1.313,1.9612 0.5627,0.5352 1.2411,0.9417 2.0396,1.2195 0.7982,0.2818 1.688,0.4232 2.6643,0.4232 0.7412,0 1.4286,-0.0873 2.0639,-0.2534 0.6344,-0.1661 1.1922,-0.4107 1.6781,-0.7336 0.481,-0.3234 0.8801,-0.726 1.1979,-1.207 0.3124,-0.485 0.5193,-1.0366 0.6106,-1.6585 l -2.5203,0 c -0.0193,0.3566 -0.1108,0.6715 -0.2693,0.9456 -0.1587,0.2775 -0.375,0.5057 -0.6494,0.688 -0.269,0.1828 -0.5868,0.3194 -0.9474,0.4107 -0.3608,0.0952 -0.7503,0.1406 -1.1641,0.1406 -0.5814,0 -1.1158,-0.095 -1.6013,-0.2857 -0.4811,-0.1911 -0.8995,-0.4771 -1.2461,-0.8629 -0.3462,-0.3852 -0.6154,-0.8626 -0.8079,-1.4301 -0.1922,-0.5723 -0.2883,-1.2362 -0.2883,-1.9865 0,-0.7546 0.0961,-1.4179 0.2883,-1.9862 0.1925,-0.5721 0.4617,-1.0491 0.8079,-1.4346 0.3466,-0.3856 0.765,-0.6719 1.2461,-0.8626 0.4855,-0.1908 1.0199,-0.286 1.6013,-0.286 0.3945,0 0.7698,0.0453 1.1259,0.1326 0.3603,0.0913 0.6777,0.224 0.9521,0.4065 0.2787,0.1823 0.5001,0.4062 0.6684,0.6758 0.1684,0.265 0.2645,0.5848 0.2838,0.9451 l 2.5203,0 c -0.0913,-0.6302 -0.2982,-1.1855 -0.6106,-1.6628 -0.3178,-0.4766 -0.7169,-0.8748 -1.2076,-1.1937 -0.4858,-0.3232 -1.0485,-0.5644 -1.6832,-0.7299 -0.6349,-0.1659 -1.3178,-0.2489 -2.0491,-0.2489 z m 13.3279,12.4775 c 0.9955,0 1.895,-0.1454 2.6935,-0.4274 0.7985,-0.2821 1.4763,-0.6925 2.0395,-1.2274 0.5672,-0.5349 0.9952,-1.1861 1.2983,-1.9574 0.2982,-0.767 0.4521,-1.6418 0.4521,-2.6206 0,-0.991 -0.1587,-1.8703 -0.4666,-2.6453 -0.3078,-0.7713 -0.7455,-1.4269 -1.3085,-1.9618 -0.5672,-0.5347 -1.2455,-0.9411 -2.0437,-1.2187 -0.7986,-0.282 -1.6884,-0.4189 -2.6646,-0.4189 -0.9669,0 -1.8471,0.1369 -2.6408,0.4104 -0.7934,0.2775 -1.4765,0.6804 -2.0437,1.215 -0.5675,0.5349 -1.01,1.1902 -1.3227,1.9615 -0.3178,0.7753 -0.4762,1.6586 -0.4762,2.6578 0,0.9788 0.1584,1.8536 0.4666,2.6289 0.3126,0.7715 0.7452,1.4263 1.3127,1.9612 0.5627,0.5352 1.241,0.9417 2.0395,1.2195 0.7983,0.2818 1.6883,0.4232 2.6646,0.4232 z m 0,-10.8022 c 0.5819,0 1.1157,0.0952 1.6013,0.286 0.4816,0.1907 0.8949,0.477 1.2365,0.8626 0.3461,0.3855 0.6108,0.8625 0.803,1.4346 0.1925,0.5683 0.2886,1.2316 0.2886,1.9862 0,0.7503 -0.0961,1.4142 -0.2886,1.9865 -0.1922,0.5675 -0.4569,1.0449 -0.803,1.4301 -0.3416,0.3858 -0.7549,0.6718 -1.2365,0.8629 -0.4856,0.1907 -1.0194,0.2857 -1.6013,0.2857 -0.582,0 -1.1157,-0.095 -1.6016,-0.2857 -0.481,-0.1911 -0.8994,-0.4771 -1.2458,-0.8629 -0.3464,-0.3852 -0.6157,-0.8626 -0.8082,-1.4301 -0.1919,-0.5723 -0.2882,-1.2362 -0.2882,-1.9865 0,-0.7546 0.0963,-1.4179 0.2882,-1.9862 0.1925,-0.5721 0.4618,-1.0491 0.8082,-1.4346 0.3464,-0.3856 0.7648,-0.6719 1.2458,-0.8626 0.4859,-0.1908 1.0196,-0.286 1.6016,-0.286 z m 16.4013,8.575 c -0.3564,0.0995 -0.8564,0.1494 -1.4911,0.1494 -0.64,0 -1.2268,-0.1451 -1.7555,-0.4272 -0.5292,-0.282 -1.0247,-0.7046 -1.4865,-1.2645 l 0,-8.4178 -2.4386,0 0,11.8925 2.4386,0 0,-1.6381 c 1.0438,1.2858 2.251,1.9329 3.6219,1.9329 0.1587,0 0.3367,-0.009 0.5292,-0.0252 0.1922,-0.0164 0.3844,-0.0414 0.582,-0.0746 l 0,-2.1274 z m 7.5412,-10.2503 c -1.0051,0 -1.9238,0.1369 -2.751,0.4189 -0.8226,0.2776 -1.5344,0.684 -2.126,1.2187 -0.5916,0.5349 -1.0485,1.1905 -1.3756,1.9618 -0.322,0.775 -0.4859,1.6543 -0.4859,2.6453 0,0.97 0.159,1.8411 0.4762,2.6084 0.3127,0.7708 0.7555,1.4222 1.3278,1.9568 0.5768,0.5352 1.26,0.9456 2.0534,1.2319 0.794,0.2903 1.6691,0.4357 2.626,0.4357 0.9958,0 1.8953,-0.1454 2.6938,-0.4274 0.7982,-0.2821 1.4768,-0.6925 2.0392,-1.2274 0.5675,-0.5349 0.9956,-1.1861 1.2989,-1.9574 0.2979,-0.767 0.4518,-1.6418 0.4518,-2.6206 l 0,-0.5099 -10.3986,0 c 0.053,-0.6883 0.1973,-1.2895 0.4283,-1.7995 0.2308,-0.5102 0.529,-0.9331 0.8943,-1.2651 0.3657,-0.3316 0.7889,-0.5802 1.2745,-0.7461 0.4859,-0.1661 1.01,-0.2488 1.5729,-0.2488 0.404,0 0.8082,0.0453 1.2121,0.1408 0.4043,0.0913 0.7648,0.2282 1.0917,0.4105 0.3223,0.1825 0.587,0.4107 0.7888,0.6797 0.2019,0.2739 0.3079,0.5811 0.3175,0.929 l 2.5781,0 c -0.106,-0.6135 -0.3271,-1.1608 -0.6687,-1.6376 -0.3461,-0.4771 -0.7789,-0.879 -1.3033,-1.2025 -0.5293,-0.3237 -1.135,-0.5723 -1.8182,-0.7424 -0.6874,-0.1698 -1.4184,-0.2528 -2.198,-0.2528 z m 3.636,7.3976 c -0.1057,0.568 -0.2692,1.0615 -0.4952,1.4884 -0.2262,0.423 -0.5051,0.7798 -0.8464,1.0616 -0.3367,0.286 -0.7217,0.4972 -1.1545,0.6426 -0.4326,0.1494 -0.8944,0.2197 -1.395,0.2197 -0.4952,0 -0.9615,-0.0658 -1.3898,-0.2069 -0.4232,-0.1372 -0.8079,-0.3484 -1.1446,-0.6305 -0.3416,-0.282 -0.6254,-0.6386 -0.8609,-1.07 -0.2356,-0.4269 -0.3991,-0.9287 -0.4952,-1.5049 l 7.7816,0 z m 10.2688,-7.3976 c -3.7562,0 -5.7379,1.2773 -5.9445,3.8353 l 2.4817,0 c 0.009,-1.4386 1.154,-2.16 3.4342,-2.16 0.5097,0 0.957,0.0453 1.3467,0.1408 0.3895,0.0913 0.7161,0.224 0.9715,0.3941 0.2596,0.17 0.4566,0.3693 0.5916,0.6009 0.1391,0.2324 0.2066,0.4853 0.2066,0.7591 0,0.2821 -0.0527,0.5139 -0.1539,0.6883 -0.1057,0.1743 -0.3027,0.3277 -0.5913,0.46 -0.2937,0.1333 -0.6976,0.2614 -1.2217,0.3898 -0.5196,0.1247 -1.1977,0.2823 -2.0345,0.4773 -0.8175,0.1783 -1.5199,0.3524 -2.1163,0.5225 -0.5916,0.1698 -1.0775,0.3812 -1.4573,0.6344 -0.3801,0.2486 -0.6591,0.5556 -0.8467,0.9204 -0.1829,0.3651 -0.2741,0.8294 -0.2741,1.385 0,0.4853 0.1202,0.9368 0.3608,1.3561 0.2407,0.4187 0.582,0.7792 1.0293,1.0865 0.447,0.3064 0.9859,0.5513 1.6208,0.7257 0.635,0.174 1.3468,0.2613 2.1354,0.2613 3.6266,0 5.4643,-1.1114 5.5219,-3.3301 l -2.4239,0 c -0.0823,1.1072 -1.0588,1.6625 -2.9152,1.6625 -0.4136,0 -0.7982,-0.0329 -1.1494,-0.1032 -0.3513,-0.0666 -0.6588,-0.1701 -0.9139,-0.3027 -0.2597,-0.133 -0.4618,-0.2988 -0.6058,-0.4981 -0.1491,-0.199 -0.2217,-0.4223 -0.2217,-0.6755 0,-0.2324 0.0386,-0.4271 0.106,-0.5762 0.0723,-0.1494 0.2308,-0.2863 0.4859,-0.4111 0.2548,-0.1281 0.6347,-0.2568 1.135,-0.3852 0.5051,-0.1287 1.188,-0.282 2.0489,-0.4603 0.8371,-0.1701 1.5681,-0.3481 2.1835,-0.5352 0.6205,-0.1868 1.1353,-0.4145 1.5392,-0.6798 0.404,-0.2696 0.7022,-0.593 0.8995,-0.9788 0.1972,-0.3858 0.2982,-0.8583 0.2982,-1.4261 0,-0.5349 -0.1299,-1.0327 -0.3892,-1.497 -0.26,-0.4603 -0.6254,-0.8586 -1.1067,-1.1945 -0.4759,-0.3356 -1.0582,-0.6012 -1.741,-0.796 -0.6784,-0.1947 -1.4426,-0.2902 -2.2896,-0.2902 z"
         inkscape:connector-curvature="0" />
      <path
         id="path5787"
         style="fill:#231f20;fill-opacity:1;fill-rule:evenodd;stroke:#231f20;stroke-width:0.7087;stroke-linecap:butt;stroke-linejoin:miter;stroke-miterlimit:22.92558479;stroke-opacity:1;stroke-dasharray:none"
         d="m 636.1977,181.8244 110.7459,0 0,-1.1699 -110.7459,0 0,1.1699 z"
         inkscape:connector-curvature="0" />
      <text
         id="text5789"
         transform="matrix(0.9418,0,0,-1,635.8297,172.9386)">
        <tspan
           id="tspan5791"
           sodipodi:role="line"
           y="0"
           x="0 4.8570938 7.6897922 11.738584 15.787376 20.236677 22.261074 26.309866 28.334263 33.999657 38.448959 42.497753 44.522148 46.546543 50.995846 55.04464 59.493938 63.542732 65.567131 70.016434 74.065224 78.514526 80.538918 84.587715 88.636505 90.660896 95.110199 97.134598 101.18339 105.23219 109.68148 112.10639 116.15518"
           style="font-size:7.28200006px;font-variant:normal;font-weight:bold;writing-mode:lr-tb;fill:#231f20;fill-opacity:1;fill-rule:nonzero;stroke:none;font-family:Arial;-inkscape-font-specification:Arial-BoldMT">Preço e Qualidade não se discute!</tspan>
      </text>
    </g>
  </g>
</svg>
