<?xml version="1.0" encoding="UTF-8" standalone="no"?>
<!-- Generator: Adobe Illustrator 14.0.0, SVG Export Plug-In . SVG Version: 6.00 Build 43363)  -->

<svg
   xmlns:dc="http://purl.org/dc/elements/1.1/"
   xmlns:cc="http://creativecommons.org/ns#"
   xmlns:rdf="http://www.w3.org/1999/02/22-rdf-syntax-ns#"
   xmlns:svg="http://www.w3.org/2000/svg"
   xmlns="http://www.w3.org/2000/svg"
   xmlns:xlink="http://www.w3.org/1999/xlink"
   xmlns:sodipodi="http://sodipodi.sourceforge.net/DTD/sodipodi-0.dtd"
   xmlns:inkscape="http://www.inkscape.org/namespaces/inkscape"
   version="1.1"
   x="0px"
   y="0px"
   width="1062.9921"
   height="1062.9921"
   viewBox="0 0 1062.992 1062.992"
   enable-background="new 0 0 2160.216 2973.259"
   xml:space="preserve"
   id="svg2"
   inkscape:version="0.48.2 r9819"
   sodipodi:docname="sticker2012_pt.svg"
   inkscape:export-filename="/media/mauts/Palestras/SFD/2012/sticker/sticker2012_pt.svg.png"
   inkscape:export-xdpi="300"
   inkscape:export-ydpi="300"><metadata
   id="metadata819"><rdf:RDF><cc:Work
       rdf:about=""><dc:format>image/svg+xml</dc:format><dc:type
         rdf:resource="http://purl.org/dc/dcmitype/StillImage" /><dc:title></dc:title></cc:Work></rdf:RDF></metadata><defs
   id="defs817"><linearGradient
   y2="938.66803"
   x2="1270.4927"
   y1="938.66803"
   x1="1150.4614"
   gradientUnits="userSpaceOnUse"
   id="SVGID_33_"><stop
     id="stop354"
     style="stop-color:#F7EC30"
     offset="0" /><stop
     id="stop356"
     style="stop-color:#FAAE40"
     offset="1" /></linearGradient><linearGradient
   y2="898.42291"
   x2="1270.4927"
   y1="898.42291"
   x1="1150.4614"
   gradientUnits="userSpaceOnUse"
   id="SVGID_34_"><stop
     id="stop363"
     style="stop-color:#F7EC30"
     offset="0" /><stop
     id="stop365"
     style="stop-color:#FAAE40"
     offset="1" /></linearGradient>
	
	
	
	
	
	
<inkscape:perspective
   id="perspective475"
   inkscape:persp3d-origin="1080.108 : 571.05733 : 1"
   inkscape:vp_z="2160.2161 : 856.586 : 1"
   inkscape:vp_y="0 : 1000 : 0"
   inkscape:vp_x="0 : 856.586 : 1"
   sodipodi:type="inkscape:persp3d" /><linearGradient
   inkscape:collect="always"
   xlink:href="#SVGID_27_"
   id="linearGradient4542"
   gradientUnits="userSpaceOnUse"
   x1="1451.0493"
   y1="525.43262"
   x2="1451.0493"
   y2="592.15198" /><linearGradient
   inkscape:collect="always"
   xlink:href="#SVGID_18_"
   id="linearGradient4544"
   gradientUnits="userSpaceOnUse"
   gradientTransform="translate(-82.071561,5.9688408)"
   x1="1311.0884"
   y1="525.43262"
   x2="1311.0884"
   y2="592.15198" /><linearGradient
   inkscape:collect="always"
   xlink:href="#SVGID_19_"
   id="linearGradient4546"
   gradientUnits="userSpaceOnUse"
   gradientTransform="translate(-82.071561,5.9688408)"
   x1="1342.9888"
   y1="525.43262"
   x2="1342.9888"
   y2="592.15198" /><linearGradient
   inkscape:collect="always"
   xlink:href="#SVGID_20_"
   id="linearGradient4548"
   gradientUnits="userSpaceOnUse"
   gradientTransform="translate(-82.071561,5.9688408)"
   x1="1374.1724"
   y1="525.43262"
   x2="1374.1724"
   y2="592.15198" /><linearGradient
   inkscape:collect="always"
   xlink:href="#SVGID_21_"
   id="linearGradient4550"
   gradientUnits="userSpaceOnUse"
   gradientTransform="translate(-82.071561,5.9688408)"
   x1="1410.6265"
   y1="525.43262"
   x2="1410.6265"
   y2="592.15198" /><linearGradient
   inkscape:collect="always"
   xlink:href="#SVGID_22_"
   id="linearGradient4552"
   gradientUnits="userSpaceOnUse"
   gradientTransform="translate(-82.071561,5.9688408)"
   x1="1488.9077"
   y1="525.43262"
   x2="1488.9077"
   y2="592.15198" /><linearGradient
   inkscape:collect="always"
   xlink:href="#SVGID_23_"
   id="linearGradient4554"
   gradientUnits="userSpaceOnUse"
   gradientTransform="translate(-82.071561,5.9688408)"
   x1="1537.7075"
   y1="525.43262"
   x2="1537.7075"
   y2="592.15179" /><linearGradient
   inkscape:collect="always"
   xlink:href="#SVGID_24_"
   id="linearGradient4556"
   gradientUnits="userSpaceOnUse"
   gradientTransform="translate(-82.071561,5.9688408)"
   x1="1610.3276"
   y1="525.43262"
   x2="1610.3276"
   y2="592.15198" /><linearGradient
   inkscape:collect="always"
   xlink:href="#SVGID_25_"
   id="linearGradient4558"
   gradientUnits="userSpaceOnUse"
   gradientTransform="translate(-82.071561,5.9688408)"
   x1="1657.4478"
   y1="525.43262"
   x2="1657.4478"
   y2="592.15192" /><linearGradient
   inkscape:collect="always"
   xlink:href="#SVGID_26_"
   id="linearGradient4560"
   gradientUnits="userSpaceOnUse"
   gradientTransform="translate(-82.071561,5.9688408)"
   x1="1697.5337"
   y1="525.43262"
   x2="1697.5337"
   y2="592.15222" /><linearGradient
   inkscape:collect="always"
   xlink:href="#SVGID_15_"
   id="linearGradient4562"
   gradientUnits="userSpaceOnUse"
   x1="1345.8628"
   y1="442.94241"
   x2="1345.8628"
   y2="528.9527" /><linearGradient
   inkscape:collect="always"
   xlink:href="#SVGID_16_"
   id="linearGradient4564"
   gradientUnits="userSpaceOnUse"
   x1="1351.5776"
   y1="468.0029"
   x2="1359.3276"
   y2="478.5029" /><linearGradient
   inkscape:collect="always"
   xlink:href="#SVGID_17_"
   id="linearGradient4566"
   gradientUnits="userSpaceOnUse"
   x1="1347.0435"
   y1="442.94241"
   x2="1347.0435"
   y2="528.95282" /><linearGradient
   inkscape:collect="always"
   xlink:href="#SVGID_14_"
   id="linearGradient4568"
   gradientUnits="userSpaceOnUse"
   gradientTransform="matrix(0.4466195,0,0,0.4466195,973.19648,331.09466)"
   x1="1528.5015"
   y1="442.94241"
   x2="1528.5015"
   y2="528.95258" /><linearGradient
   inkscape:collect="always"
   xlink:href="#SVGID_13_"
   id="linearGradient4570"
   gradientUnits="userSpaceOnUse"
   gradientTransform="matrix(0.4466195,0,0,0.4466195,973.19648,331.09466)"
   x1="1497.3179"
   y1="442.94241"
   x2="1497.3179"
   y2="528.95282" /><linearGradient
   inkscape:collect="always"
   xlink:href="#SVGID_12_"
   id="linearGradient4572"
   gradientUnits="userSpaceOnUse"
   gradientTransform="matrix(0.4466195,0,0,0.4466195,973.19648,331.09466)"
   x1="1461.6812"
   y1="442.94241"
   x2="1461.6812"
   y2="528.95288" /><linearGradient
   inkscape:collect="always"
   xlink:href="#SVGID_11_"
   id="linearGradient4574"
   gradientUnits="userSpaceOnUse"
   gradientTransform="matrix(0.4466195,0,0,0.4466195,973.19648,331.09466)"
   x1="1416.5259"
   y1="442.94241"
   x2="1416.5259"
   y2="528.95258" /><linearGradient
   inkscape:collect="always"
   xlink:href="#SVGID_10_"
   id="linearGradient4576"
   gradientUnits="userSpaceOnUse"
   gradientTransform="matrix(0.4466195,0,0,0.4466195,973.19648,331.09466)"
   x1="1374.6177"
   y1="442.94241"
   x2="1374.6177"
   y2="528.95282" /><linearGradient
   inkscape:collect="always"
   xlink:href="#SVGID_9_"
   id="linearGradient4578"
   gradientUnits="userSpaceOnUse"
   gradientTransform="matrix(0.4466195,0,0,0.4466195,973.19648,331.09466)"
   x1="1308.5015"
   y1="442.94241"
   x2="1308.5015"
   y2="528.95258" /><linearGradient
   inkscape:collect="always"
   xlink:href="#SVGID_8_"
   id="linearGradient4580"
   gradientUnits="userSpaceOnUse"
   gradientTransform="matrix(0.4466195,0,0,0.4466195,973.19648,331.09466)"
   x1="1269.0142"
   y1="442.94241"
   x2="1269.0142"
   y2="528.95258" /><linearGradient
   inkscape:collect="always"
   xlink:href="#SVGID_32_"
   id="linearGradient4582"
   gradientUnits="userSpaceOnUse"
   gradientTransform="matrix(-1,0,0,1,1790.9893,0)"
   x1="538.40771"
   y1="567.83539"
   x2="723.15167"
   y2="567.83539" /><linearGradient
   inkscape:collect="always"
   xlink:href="#SVGID_28_"
   id="linearGradient4584"
   gradientUnits="userSpaceOnUse"
   x1="1074.7251"
   y1="564.8623"
   x2="1194.7563"
   y2="564.8623" /><linearGradient
   inkscape:collect="always"
   xlink:href="#SVGID_29_"
   id="linearGradient4586"
   gradientUnits="userSpaceOnUse"
   x1="1074.7251"
   y1="515.80762"
   x2="1194.7563"
   y2="515.80762" /><linearGradient
   inkscape:collect="always"
   xlink:href="#SVGID_30_"
   id="linearGradient4588"
   gradientUnits="userSpaceOnUse"
   x1="1074.7251"
   y1="524.61823"
   x2="1194.7563"
   y2="524.61823" /><linearGradient
   inkscape:collect="always"
   xlink:href="#SVGID_31_"
   id="linearGradient4590"
   gradientUnits="userSpaceOnUse"
   gradientTransform="matrix(-1,0,0,1,1789.3867,0)"
   x1="534.01422"
   y1="551.48187"
   x2="729.9198"
   y2="551.48187" /><linearGradient
   inkscape:collect="always"
   xlink:href="#SVGID_1_"
   id="linearGradient4592"
   gradientUnits="userSpaceOnUse"
   gradientTransform="matrix(0.2376,-0.9714,-0.9714,-0.2376,-1794.3491,-1897.8428)"
   x1="-1614.2603"
   y1="-3351.7031"
   x2="-1594.7587"
   y2="-3354.7063" /><linearGradient
   inkscape:collect="always"
   xlink:href="#SVGID_2_"
   id="linearGradient4594"
   gradientUnits="userSpaceOnUse"
   gradientTransform="matrix(0.8559,-0.5171,-0.5171,-0.8559,-2252.5208,-6984.2539)"
   x1="-954.73187"
   y1="-8102.7666"
   x2="-933.92493"
   y2="-8105.9707" /><linearGradient
   inkscape:collect="always"
   xlink:href="#SVGID_3_"
   id="linearGradient4596"
   gradientUnits="userSpaceOnUse"
   gradientTransform="matrix(0.9997,0.0244,0.0244,-0.9997,1562.1204,-9766.4043)"
   x1="-144.41209"
   y1="-10218.174"
   x2="-119.9794"
   y2="-10221.937" /><linearGradient
   inkscape:collect="always"
   xlink:href="#SVGID_4_"
   id="linearGradient4598"
   gradientUnits="userSpaceOnUse"
   gradientTransform="matrix(0.802,0.5973,0.5973,-0.802,6476.9604,-8626.8252)"
   x1="1211.4604"
   y1="-10449.884"
   x2="1236.5042"
   y2="-10453.74" /><linearGradient
   inkscape:collect="always"
   xlink:href="#SVGID_5_"
   id="linearGradient4600"
   gradientUnits="userSpaceOnUse"
   gradientTransform="matrix(-0.3327,-0.943,-0.943,0.3327,859.1079,-1024.2324)"
   x1="-1503.7524"
   y1="321.96829"
   x2="-1486.8414"
   y2="319.36411" /><linearGradient
   inkscape:collect="always"
   xlink:href="#SVGID_6_"
   id="linearGradient4602"
   gradientUnits="userSpaceOnUse"
   gradientTransform="matrix(-0.6493,-0.7605,-0.7605,0.6493,1703.574,-2306.6292)"
   x1="-1737.5259"
   y1="2340.3887"
   x2="-1723.9701"
   y2="2338.3013" /><linearGradient
   inkscape:collect="always"
   xlink:href="#SVGID_7_"
   id="linearGradient4604"
   gradientUnits="userSpaceOnUse"
   gradientTransform="matrix(-0.9803,-0.1975,-0.1975,0.9803,1031.1814,-2761.6814)"
   x1="-688.5752"
   y1="3252.9277"
   x2="-677.97119"
   y2="3251.2949" /></defs><sodipodi:namedview
   pagecolor="#ffffff"
   bordercolor="#666666"
   borderopacity="1"
   objecttolerance="10"
   gridtolerance="10"
   guidetolerance="10"
   inkscape:pageopacity="0"
   inkscape:pageshadow="2"
   inkscape:window-width="1920"
   inkscape:window-height="1024"
   id="namedview815"
   showgrid="false"
   showguides="true"
   inkscape:guide-bbox="true"
   inkscape:zoom="1.8844256"
   inkscape:cx="641.02359"
   inkscape:cy="875.87569"
   inkscape:window-x="-2"
   inkscape:window-y="-3"
   inkscape:window-maximized="1"
   inkscape:current-layer="svg2"
   units="cm"
   borderlayer="true"
   inkscape:showpageshadow="false"><sodipodi:guide
     orientation="0,1"
     position="5198.1013,3416.2779"
     id="guide3140" /><sodipodi:guide
     orientation="0,1"
     position="541.35046,842.50509"
     id="guide4606" /><sodipodi:guide
     orientation="0,1"
     position="604.12892,943.49652"
     id="guide4608" /><sodipodi:guide
     orientation="0,1"
     position="617.77641,746.97265"
     id="guide4610" /></sodipodi:namedview>
<g
   id="Layer_2"
   transform="matrix(3.544755,0,0,3.483779,-16.925867,-9356.5955)"
   inkscape:export-filename="w:\Bewegungsdaten\FreieSoftwareOG\SoftwareFreedomDay 12\sticker2012_de.png"
   inkscape:export-xdpi="71.249527"
   inkscape:export-ydpi="71.249527">
	
	
	
	
	
	
	
	
	
	
	
	
	
	
	<text
   transform="translate(53.7681,124.4785)"
   font-size="86.645"
   id="text51"
   style="font-size:86.64499664px;fill:#666666;font-family:Helvetica-Bold" />












	
	
<g
   id="g4237"
   transform="matrix(0.28210693,0,0,0.2870446,21.724607,2681.842)"><g
     transform="translate(-0.75843017,-2573.259)"
     id="Layer_2-6">
	<rect
   rx="125.35828"
   ry="134.79248"
   style="fill:#473f39;stroke:#f9b93d;stroke-width:10.14032459;stroke-miterlimit:4;stroke-opacity:1;stroke-dasharray:none"
   id="rect5-7"
   height="269.58496"
   width="835.46033"
   y="2673.3989"
   x="86.955093" />
	
	
	
	
	
	
	
	
	
	
	
	
	
	<text
   style="font-size:86.64499664px;fill:#666666;font-family:Helvetica-Bold"
   id="text51-7"
   font-size="86.645"
   transform="translate(53.7681,124.4785)" />









	
	



</g><g
     transform="translate(0,-2573.259)"
     id="Layer_1-7">
</g><g
     transform="matrix(1.1226335,0,0,1.1226335,-1033.8868,-342.14686)"
     id="Layer_3">
	<g
   id="g61">
		
		
		<linearGradient
   y2="528.95258"
   x2="1269.0142"
   y1="442.94241"
   x1="1269.0142"
   gradientUnits="userSpaceOnUse"
   id="SVGID_8_"
   gradientTransform="matrix(0.54311718,0,0,0.54311718,822.50399,281.54735)">
			<stop
   id="stop119"
   style="stop-color:#F7EC30"
   offset="0" />
			<stop
   id="stop121"
   style="stop-color:#FAAE40"
   offset="1" />
		</linearGradient>
		
		<linearGradient
   y2="528.95258"
   x2="1308.5015"
   y1="442.94241"
   x1="1308.5015"
   gradientUnits="userSpaceOnUse"
   id="SVGID_9_"
   gradientTransform="matrix(0.54311718,0,0,0.54311718,822.50399,281.54735)">
			<stop
   id="stop126"
   style="stop-color:#F7EC30"
   offset="0" />
			<stop
   id="stop128"
   style="stop-color:#FAAE40"
   offset="1" />
		</linearGradient>
		
		<linearGradient
   y2="528.95282"
   x2="1374.6177"
   y1="442.94241"
   x1="1374.6177"
   gradientUnits="userSpaceOnUse"
   id="SVGID_10_"
   gradientTransform="matrix(0.54311718,0,0,0.54311718,822.50399,281.54735)">
			<stop
   id="stop133"
   style="stop-color:#F7EC30"
   offset="0" />
			<stop
   id="stop135"
   style="stop-color:#FAAE40"
   offset="1" />
		</linearGradient>
		
		<linearGradient
   y2="528.95258"
   x2="1416.5259"
   y1="442.94241"
   x1="1416.5259"
   gradientUnits="userSpaceOnUse"
   id="SVGID_11_"
   gradientTransform="matrix(0.54311718,0,0,0.54311718,822.50399,281.54735)">
			<stop
   id="stop140"
   style="stop-color:#F7EC30"
   offset="0" />
			<stop
   id="stop142"
   style="stop-color:#FAAE40"
   offset="1" />
		</linearGradient>
		
		<linearGradient
   y2="528.95288"
   x2="1461.6812"
   y1="442.94241"
   x1="1461.6812"
   gradientUnits="userSpaceOnUse"
   id="SVGID_12_"
   gradientTransform="matrix(0.54311718,0,0,0.54311718,822.50399,281.54735)">
			<stop
   id="stop147"
   style="stop-color:#F7EC30"
   offset="0" />
			<stop
   id="stop149"
   style="stop-color:#FAAE40"
   offset="1" />
		</linearGradient>
		
		<linearGradient
   y2="528.95282"
   x2="1497.3179"
   y1="442.94241"
   x1="1497.3179"
   gradientUnits="userSpaceOnUse"
   id="SVGID_13_"
   gradientTransform="matrix(0.54311718,0,0,0.54311718,822.50399,281.54735)">
			<stop
   id="stop154"
   style="stop-color:#F7EC30"
   offset="0" />
			<stop
   id="stop156"
   style="stop-color:#FAAE40"
   offset="1" />
		</linearGradient>
		
		<linearGradient
   y2="528.95258"
   x2="1528.5015"
   y1="442.94241"
   x1="1528.5015"
   gradientUnits="userSpaceOnUse"
   id="SVGID_14_"
   gradientTransform="matrix(0.54311718,0,0,0.54311718,822.50399,281.54735)">
			<stop
   id="stop161"
   style="stop-color:#F7EC30"
   offset="0" />
			<stop
   id="stop163"
   style="stop-color:#FAAE40"
   offset="1" />
		</linearGradient>
		
		
		
		
		
		<g
   id="g4392"><g
     transform="matrix(0.62333123,0,0,0.62333123,876.27861,160.97046)"
     id="g63">
			<g
   id="g65">
				
					<linearGradient
   id="SVGID_1_"
   gradientUnits="userSpaceOnUse"
   x1="-1614.2603"
   y1="-3351.7031"
   x2="-1594.7587"
   y2="-3354.7063"
   gradientTransform="matrix(0.2376,-0.9714,-0.9714,-0.2376,-1794.3491,-1897.8428)">
					<stop
   offset="0"
   style="stop-color:#F7EC30"
   id="stop68" />
					<stop
   offset="1"
   style="stop-color:#FAAE40"
   id="stop70" />
				</linearGradient>
				<path
   d="m 1088.381,468.759 c 0,0 7.496,9.435 5.707,-0.229 -1.791,-9.665 -16.127,-28.551 -23.35,-23.98 -7.227,4.57 -3.574,8.335 0.963,10.764 4.542,2.427 13.487,8.582 16.68,13.445 z"
   id="path72"
   style="fill:url(#linearGradient4592)"
   inkscape:connector-curvature="0" />
				
					<linearGradient
   id="SVGID_2_"
   gradientUnits="userSpaceOnUse"
   x1="-954.73187"
   y1="-8102.7666"
   x2="-933.92493"
   y2="-8105.9707"
   gradientTransform="matrix(0.8559,-0.5171,-0.5171,-0.8559,-2252.5208,-6984.2539)">
					<stop
   offset="0"
   style="stop-color:#F7EC30"
   id="stop75" />
					<stop
   offset="1"
   style="stop-color:#FAAE40"
   id="stop77" />
				</linearGradient>
				<path
   d="m 1126.5,454.1 c 0,0 -1.49,12.77 4.471,4.14 5.955,-8.629 9.438,-33.689 0.545,-35.706 -8.895,-2.019 -8.99,3.573 -7.408,8.831 1.584,5.257 3.666,16.657 2.392,22.735 z"
   id="path79"
   style="fill:url(#linearGradient4594)"
   inkscape:connector-curvature="0" />
				
					<linearGradient
   id="SVGID_3_"
   gradientUnits="userSpaceOnUse"
   x1="-144.41209"
   y1="-10218.174"
   x2="-119.9794"
   y2="-10221.937"
   gradientTransform="matrix(0.9997,0.0244,0.0244,-0.9997,1562.1204,-9766.4043)">
					<stop
   offset="0"
   style="stop-color:#F7EC30"
   id="stop82" />
					<stop
   offset="1"
   style="stop-color:#FAAE40"
   id="stop84" />
				</linearGradient>
				<path
   d="m 1168.602,458.527 c 0,0 -9.543,11.699 1.805,6.922 11.348,-4.782 30.627,-27.39 23.094,-35.007 -7.531,-7.614 -11.16,-2.137 -12.91,4.068 -1.757,6.208 -6.895,18.804 -11.989,24.017 z"
   id="path86"
   style="fill:url(#linearGradient4596)"
   inkscape:connector-curvature="0" />
				
					<linearGradient
   id="SVGID_4_"
   gradientUnits="userSpaceOnUse"
   x1="1211.4604"
   y1="-10449.884"
   x2="1236.5042"
   y2="-10453.74"
   gradientTransform="matrix(0.802,0.5973,0.5973,-0.802,6476.9604,-8626.8252)">
					<stop
   offset="0"
   style="stop-color:#F7EC30"
   id="stop89" />
					<stop
   offset="1"
   style="stop-color:#FAAE40"
   id="stop91" />
				</linearGradient>
				<path
   d="m 1199.077,488.861 c 0,0 -14.912,4.14 -2.586,6.859 12.326,2.715 41.84,-4.787 40.049,-15.621 -1.789,-10.833 -8.07,-8.397 -13.213,-4.241 -5.143,4.155 -16.901,11.657 -24.25,13.003 z"
   id="path93"
   style="fill:url(#linearGradient4598)"
   inkscape:connector-curvature="0" />
				
					<linearGradient
   id="SVGID_5_"
   gradientUnits="userSpaceOnUse"
   x1="-1503.7524"
   y1="321.96829"
   x2="-1486.8414"
   y2="319.36411"
   gradientTransform="matrix(-0.3327,-0.943,-0.943,0.3327,859.1079,-1024.2324)">
					<stop
   offset="0"
   style="stop-color:#F7EC30"
   id="stop96" />
					<stop
   offset="1"
   style="stop-color:#FAAE40"
   id="stop98" />
				</linearGradient>
				<path
   d="m 1064.385,497.527 c 0,0 9.912,3.295 4.027,-2.868 -5.883,-6.168 -25.25,-13.072 -28.322,-6.325 -3.074,6.745 1.359,7.741 5.809,7.349 4.443,-0.391 13.859,-0.166 18.486,1.844 z"
   id="path100"
   style="fill:url(#linearGradient4600)"
   inkscape:connector-curvature="0" />
				
					<linearGradient
   id="SVGID_6_"
   gradientUnits="userSpaceOnUse"
   x1="-1737.5259"
   y1="2340.3887"
   x2="-1723.9701"
   y2="2338.3013"
   gradientTransform="matrix(-0.6493,-0.7605,-0.7605,0.6493,1703.574,-2306.6292)">
					<stop
   offset="0"
   style="stop-color:#F7EC30"
   id="stop103" />
					<stop
   offset="1"
   style="stop-color:#FAAE40"
   id="stop105" />
				</linearGradient>
				<path
   d="m 1057.336,529.357 c 0,0 8.361,-0.392 2.186,-3.31 -6.18,-2.914 -22.656,-2.503 -23.012,3.43 -0.355,5.931 3.252,5.398 6.463,3.826 3.211,-1.575 10.319,-4.119 14.363,-3.946 z"
   id="path107"
   style="fill:url(#linearGradient4602)"
   inkscape:connector-curvature="0" />
				
					<linearGradient
   id="SVGID_7_"
   gradientUnits="userSpaceOnUse"
   x1="-688.5752"
   y1="3252.9277"
   x2="-677.97119"
   y2="3251.2949"
   gradientTransform="matrix(-0.9803,-0.1975,-0.1975,0.9803,1031.1814,-2761.6814)">
					<stop
   offset="0"
   style="stop-color:#F7EC30"
   id="stop110" />
					<stop
   offset="1"
   style="stop-color:#FAAE40"
   id="stop112" />
				</linearGradient>
				<path
   d="m 1064.672,557.438 c 0,0 4.957,-4.282 -0.254,-3.095 -5.207,1.188 -15.152,9.398 -12.506,13.225 2.639,3.823 4.607,1.756 5.824,-0.764 1.22,-2.523 4.362,-7.52 6.936,-9.366 z"
   id="path114"
   style="fill:url(#linearGradient4604)"
   inkscape:connector-curvature="0" />
			</g>
		</g><path
     d="m 1562.8829,482.96405 c 4.715,-11.26234 17.7761,-16.52575 29.1737,-11.7529 2.6605,1.1114 4.9881,2.6797 6.9446,4.56216 -2.3093,-2.56439 -5.2117,-4.67561 -8.6131,-6.10117 -12.1806,-5.09947 -26.1389,0.52609 -31.1778,12.56262 -3.5817,8.55647 -1.6899,18.04544 4.0772,24.65152 0.5697,-1.01044 1.1563,-2.00777 1.764,-2.98888 -4.0759,-5.99146 -5.1512,-13.80803 -2.1686,-20.93335 z"
     id="path116"
     inkscape:connector-curvature="0"
     style="fill:none" /><path
     d="m 1537.7508,555.25657 c 0.5173,0 1.0353,-0.0424 1.5543,-0.12862 0.5171,-0.0853 0.9786,-0.2385 1.3845,-0.45869 0.406,-0.22017 0.7378,-0.53192 0.9968,-0.93611 0.2581,-0.40329 0.3891,-0.92271 0.3891,-1.55959 0,-0.48949 -0.1247,-0.91155 -0.3725,-1.26662 -0.2488,-0.35417 -0.5637,-0.67886 -0.9455,-0.97229 -0.3836,-0.29387 -0.8111,-0.56274 -1.284,-0.80793 -0.4739,-0.2443 -0.9465,-0.51362 -1.4194,-0.80749 -0.6087,-0.39124 -1.1827,-0.80794 -1.7227,-1.24786 -0.5408,-0.44036 -1.0022,-0.93567 -1.3862,-1.48634 -0.3828,-0.55068 -0.6865,-1.16211 -0.9116,-1.83517 -0.226,-0.67305 -0.3376,-1.44972 -0.3376,-2.33045 0,-1.12549 0.1969,-2.17102 0.5904,-3.13841 0.3944,-0.96602 0.9804,-1.80388 1.757,-2.514 0.7771,-0.70924 1.7516,-1.26617 2.9231,-1.66947 1.1706,-0.40374 2.5452,-0.60517 4.1218,-0.60517 0.7205,0 1.4195,0.067 2.0951,0.20143 0.6757,0.13442 1.3051,0.30012 1.8911,0.49529 0.5855,0.19607 1.1209,0.42206 1.6051,0.67931 0.4842,0.25725 0.8959,0.50825 1.2326,0.75256 l -2.1954,4.22055 c -0.5629,-0.46448 -1.2493,-0.85662 -2.0603,-1.17461 -0.8111,-0.31755 -1.6896,-0.47698 -2.6351,-0.47698 -0.519,0 -1.0138,0.0496 -1.4872,0.14692 -0.473,0.0983 -0.8897,0.26351 -1.2502,0.49531 -0.3604,0.23268 -0.6471,0.53192 -0.861,0.8995 -0.2144,0.36667 -0.3212,0.82043 -0.3212,1.35772 0,0.49038 0.084,0.89948 0.2528,1.22998 0.1693,0.32961 0.389,0.61812 0.6588,0.86243 0.2703,0.24474 0.586,0.46537 0.9464,0.66055 0.3603,0.19517 0.7432,0.40374 1.1486,0.62348 0.6977,0.39168 1.3739,0.80793 2.0274,1.24785 0.6524,0.44037 1.2263,0.94862 1.7233,1.52298 0.4946,0.57569 0.8889,1.22954 1.1819,1.96378 0.292,0.73424 0.4386,1.60247 0.4386,2.60558 0,1.39479 -0.2362,2.60602 -0.7093,3.6337 -0.473,1.02766 -1.1375,1.88473 -1.9932,2.56939 -0.8566,0.68513 -1.8754,1.19292 -3.0585,1.52298 -1.1818,0.33005 -2.494,0.4953 -3.9356,0.4953 -0.9455,0 -1.8302,-0.0857 -2.6524,-0.2568 -0.8219,-0.1715 -1.565,-0.37293 -2.2287,-0.60518 -0.6654,-0.23269 -1.2394,-0.48324 -1.7236,-0.75255 -0.485,-0.26931 -0.8731,-0.5136 -1.1652,-0.73424 l 2.2296,-4.36794 c 0.2702,0.19606 0.5967,0.40375 0.9794,0.62393 0.3827,0.22018 0.8165,0.42831 1.3006,0.62393 0.484,0.19561 0.9968,0.36131 1.5377,0.4953 0.5409,0.13577 1.1045,0.20276 1.6904,0.20276 z"
     id="path123"
     style="fill:url(#linearGradient4580)"
     inkscape:connector-curvature="0" /><path
     d="m 1556.1127,560.0278 c -1.1943,0 -2.2305,-0.19561 -3.108,-0.58685 -0.8785,-0.39123 -1.6052,-0.94192 -2.18,-1.65204 -0.5739,-0.7088 -1.0084,-1.54666 -1.2997,-2.51403 -0.2929,-0.96604 -0.4404,-2.03703 -0.4404,-3.21074 0,-1.46849 0.2207,-2.93652 0.6597,-4.40413 0.4386,-1.46848 1.0871,-2.78958 1.9429,-3.96419 0.8556,-1.1746 1.9034,-2.13394 3.1419,-2.88159 1.2386,-0.74584 2.6578,-1.11922 4.2576,-1.11922 1.1697,0 2.2009,0.19606 3.0906,0.5873 0.8897,0.39168 1.6217,0.94192 2.1965,1.6516 0.574,0.71013 1.0075,1.54754 1.3005,2.51402 0.2922,0.96739 0.4387,2.03703 0.4387,3.21164 0,1.46759 -0.214,2.93563 -0.6422,4.40412 -0.4275,1.46803 -1.059,2.78959 -1.892,3.96374 -0.8329,1.17461 -1.8744,2.13485 -3.1245,2.88115 -1.2501,0.74585 -2.6971,1.11922 -4.3416,1.11922 z m 2.5002,-15.70849 c -0.7432,0 -1.3966,0.23268 -1.9594,0.69717 -0.5645,0.46538 -1.037,1.05223 -1.4193,1.76192 -0.3828,0.71012 -0.6708,1.48634 -0.8611,2.33045 -0.1929,0.84456 -0.2881,1.64624 -0.2881,2.4046 0,1.24741 0.1796,2.20809 0.5409,2.88069 0.3605,0.67306 1.0138,1.00937 1.9602,1.00937 0.7423,0 1.3958,-0.2327 1.9584,-0.69762 0.5637,-0.46449 1.0362,-1.05134 1.4203,-1.76146 0.3818,-0.70969 0.67,-1.48681 0.8611,-2.33092 0.1911,-0.84411 0.2871,-1.64535 0.2871,-2.4037 0,-1.2483 -0.1795,-2.20765 -0.54,-2.88115 -0.3612,-0.67305 -1.0147,-1.00935 -1.9601,-1.00935 z"
     id="path130"
     style="fill:url(#linearGradient4578)"
     inkscape:connector-curvature="0" /><path
     d="m 1583.88,535.39986 5.2374,-0.88028 -1.2839,5.68859 h 6.3329 l -1.0138,4.47692 h -6.299 l -1.4864,6.75378 c -0.1354,0.56319 -0.2197,1.08886 -0.2537,1.57835 -0.034,0.48949 0.022,0.91155 0.1692,1.26616 0.1466,0.35463 0.3997,0.62974 0.7607,0.8258 0.3595,0.19563 0.8548,0.29344 1.4864,0.29344 0.5399,0 1.0642,-0.0549 1.5702,-0.16525 0.5079,-0.10988 1.0187,-0.26261 1.5377,-0.45868 l 0.3717,4.18437 c -0.6762,0.26977 -1.4079,0.50156 -2.1957,0.69718 -0.7896,0.19562 -1.7235,0.29388 -2.8042,0.29388 -1.5544,0 -2.7603,-0.25101 -3.6159,-0.75256 -0.8558,-0.50155 -1.4636,-1.18667 -1.824,-2.05578 -0.3605,-0.86779 -0.5182,-1.86509 -0.4729,-2.99102 0.044,-1.12547 0.2023,-2.3126 0.4729,-3.56045 l 3.3104,-15.19445 z"
     id="path137"
     style="fill:url(#linearGradient4576)"
     inkscape:connector-curvature="0" /><path
     d="m 1604.4593,548.20981 c -0.4292,1.00355 -0.9071,2.02452 -1.436,3.06426 -0.5296,1.04062 -1.0709,2.05579 -1.6225,3.04638 -0.552,0.99106 -1.0871,1.93298 -1.6043,2.82576 -0.5189,0.89369 -0.9793,1.68287 -1.3854,2.36754 h -3.9199 c -0.1796,-1.02768 -0.3654,-2.25052 -0.5565,-3.66987 -0.1921,-1.41936 -0.3779,-2.9669 -0.5584,-4.64306 -0.1803,-1.67572 -0.3438,-3.45059 -0.4893,-5.32192 -0.1475,-1.87178 -0.2529,-3.76232 -0.3212,-5.67027 h 4.9329 c 0,0.88073 0.01,1.8347 0.016,2.86237 0.012,1.02812 0.034,2.09242 0.067,3.19333 0.034,1.10137 0.084,2.22596 0.1528,3.37645 0.068,1.15049 0.1572,2.28848 0.2698,3.41396 0.5636,-1.02767 1.1211,-2.09778 1.673,-3.21165 0.5512,-1.11297 1.0808,-2.22595 1.5878,-3.34026 0.5069,-1.11298 0.9794,-2.20764 1.4194,-3.28445 0.4385,-1.07634 0.8271,-2.07945 1.166,-3.00931 h 4.1889 c 0,1.76146 0.028,3.73106 0.084,5.90877 0.055,2.17817 0.1968,4.49031 0.422,6.9369 0.6087,-1.10137 1.1705,-2.2331 1.6895,-3.3952 0.5182,-1.16211 0.996,-2.30635 1.4359,-3.43228 0.4386,-1.12503 0.833,-2.20183 1.1818,-3.2295 0.3497,-1.02768 0.6587,-1.95753 0.9289,-2.78913 h 5.3394 c -0.4512,1.22328 -0.9858,2.59976 -1.6052,4.12899 -0.6194,1.52923 -1.3344,3.1375 -2.1451,4.82662 -0.8111,1.68777 -1.7244,3.41351 -2.7373,5.17497 -1.0139,1.76147 -2.1406,3.48677 -3.3791,5.17499 h -3.9182 c -0.2712,-2.00578 -0.474,-3.92713 -0.6078,-5.76229 -0.1355,-1.83516 -0.2252,-3.68237 -0.2698,-5.5421 z"
     id="path144"
     style="fill:url(#linearGradient4574)"
     inkscape:connector-curvature="0" /><path
     d="m 1632.7352,551.18251 c -0.3157,1.39479 -0.4055,2.79583 -0.2702,4.20225 0.1353,1.40729 0.3935,2.66095 0.7771,3.76187 l -4.4934,0.69762 c -0.1354,-0.29343 -0.26,-0.57436 -0.3717,-0.84411 -0.1133,-0.26931 -0.2259,-0.57481 -0.3385,-0.91781 -0.6306,0.5632 -1.3295,1.02768 -2.0941,1.3948 -0.766,0.36667 -1.6217,0.55023 -2.5682,0.55023 -1.1259,0 -2.0892,-0.21438 -2.8882,-0.64224 -0.7999,-0.42786 -1.4533,-1.00311 -1.9602,-1.72484 -0.5069,-0.72174 -0.8731,-1.5663 -1.0983,-2.53279 -0.225,-0.96647 -0.3376,-2.0004 -0.3376,-3.10087 0,-1.68867 0.2755,-3.27908 0.828,-4.77168 0.5525,-1.49261 1.318,-2.79539 2.2978,-3.90882 0.9795,-1.11297 2.1336,-1.9879 3.4631,-2.62433 1.3288,-0.63643 2.7704,-0.95442 4.3243,-0.95442 0.2022,0 0.5583,0.0125 1.0642,0.0366 0.5069,0.025 1.0871,0.0799 1.7401,0.16524 0.6533,0.0857 1.3408,0.22645 2.0602,0.42161 0.7214,0.19608 1.4077,0.46538 2.062,0.80838 l -2.1964,9.98329 z m -3.5135,-6.75334 c -0.293,-0.0486 -0.5583,-0.0853 -0.7938,-0.10986 -0.2371,-0.0246 -0.5233,-0.0366 -0.8619,-0.0366 -0.766,0 -1.481,0.20812 -2.1451,0.62347 -0.6654,0.41626 -1.2456,0.96024 -1.7401,1.63329 -0.4953,0.6735 -0.8842,1.44929 -1.166,2.33047 -0.2819,0.88117 -0.4221,1.79853 -0.4221,2.75251 0,1.17461 0.1804,2.10492 0.5408,2.78959 0.3604,0.68511 1.0242,1.02767 1.9934,1.02767 0.518,0 0.9846,-0.10942 1.4027,-0.33005 0.4163,-0.22019 0.862,-0.58686 1.3336,-1.10137 0.045,-0.61097 0.1189,-1.2541 0.2198,-1.92671 0.1022,-0.67217 0.2086,-1.29028 0.3219,-1.85303 l 1.3168,-5.79936 z"
     id="path151"
     style="fill:url(#linearGradient4572)"
     inkscape:connector-curvature="0" /><path
     d="m 1647.976,544.90616 c -0.4519,-0.12193 -0.8959,-0.23849 -1.3344,-0.34836 -0.4395,-0.11032 -1.088,-0.16525 -1.9437,-0.16525 -0.3158,0 -0.6637,0.0309 -1.0469,0.0915 -0.3827,0.0616 -0.6976,0.12862 -0.9464,0.20142 l -3.2764,14.82822 h -5.0338 l 4.0545,-18.2779 c 0.9673,-0.34257 2.0544,-0.66636 3.2598,-0.97273 1.2036,-0.30595 2.5609,-0.45869 4.0709,-0.45869 0.5627,0 1.1871,0.0553 1.8753,0.16525 0.6865,0.10986 1.2895,0.28807 1.8066,0.53192 l -1.4855,4.40456 z"
     id="path158"
     style="fill:url(#linearGradient4570)"
     inkscape:connector-curvature="0" /><path
     d="m 1647.7466,551.95337 c 0,-1.5654 0.2528,-3.08301 0.7596,-4.55105 0.5069,-1.46803 1.2211,-2.77127 2.1451,-3.90881 0.9241,-1.13755 2.0446,-2.05534 3.3617,-2.75252 1.3181,-0.69762 2.7758,-1.04643 4.3764,-1.04643 0.787,0 1.5195,0.12282 2.1957,0.36712 0.6752,0.24519 1.2666,0.59981 1.7734,1.06429 0.507,0.46493 0.9005,1.03438 1.1818,1.70698 0.2818,0.67307 0.4229,1.43768 0.4229,2.29385 0,1.37067 -0.2826,2.53277 -0.8454,3.48675 -0.5627,0.95399 -1.346,1.7311 -2.3474,2.33046 -1.0023,0.60026 -2.1911,1.03437 -3.565,1.30324 -1.3738,0.26976 -2.8708,0.40374 -4.4934,0.40374 0.1582,1.02768 0.5016,1.75611 1.0303,2.18397 0.5297,0.42831 1.3685,0.64223 2.5177,0.64223 0.7204,0 1.4533,-0.0665 2.1956,-0.20186 0.744,-0.13399 1.4412,-0.33585 2.0941,-0.60517 l 0.3726,4.29425 c -0.6316,0.26975 -1.436,0.51362 -2.4163,0.73424 -0.9785,0.22018 -2.0428,0.33005 -3.1924,0.33005 -1.3966,0 -2.5734,-0.21438 -3.5301,-0.64223 -0.958,-0.42787 -1.7351,-1.00937 -2.3308,-1.74317 -0.5977,-0.73423 -1.0313,-1.59085 -1.3016,-2.5694 -0.2701,-0.97853 -0.4045,-2.01916 -0.4045,-3.12053 z m 9.8309,-7.92749 c -1.1479,0 -2.1562,0.44662 -3.0235,1.33941 -0.8678,0.89324 -1.4361,2.07365 -1.7062,3.54214 1.3966,-0.0486 2.5225,-0.17731 3.3782,-0.38544 0.8558,-0.20767 1.5212,-0.45868 1.9932,-0.75255 0.4731,-0.29387 0.7888,-0.61142 0.9465,-0.95442 0.1572,-0.34257 0.2362,-0.68467 0.2362,-1.02768 5e-4,-1.17461 -0.6073,-1.76146 -1.8244,-1.76146 z"
     id="path165"
     style="fill:url(#linearGradient4568)"
     inkscape:connector-curvature="0" /><g
     transform="matrix(0.4466195,0,0,0.4466195,973.19648,331.09466)"
     id="g167">
			<linearGradient
   id="SVGID_15_"
   gradientUnits="userSpaceOnUse"
   x1="1345.8628"
   y1="442.94241"
   x2="1345.8628"
   y2="528.9527">
				<stop
   offset="0"
   style="stop-color:#F7EC30"
   id="stop170" />
				<stop
   offset="1"
   style="stop-color:#FAAE40"
   id="stop172" />
			</linearGradient>
			<polygon
   points="1345.95,478.239 1345.948,478.239 1345.776,479.022 "
   id="polygon174"
   style="fill:url(#linearGradient4562)" />
			<linearGradient
   id="SVGID_16_"
   gradientUnits="userSpaceOnUse"
   x1="1351.5776"
   y1="468.0029"
   x2="1359.3276"
   y2="478.5029">
				<stop
   offset="0"
   style="stop-color:#F69220"
   id="stop177" />
				<stop
   offset="0.4724"
   style="stop-color:#F05A29"
   id="stop179" />
				<stop
   offset="0.4785"
   style="stop-color:#EE4037"
   id="stop181" />
				<stop
   offset="1"
   style="stop-color:#F05A29"
   id="stop183" />
			</linearGradient>
			<polygon
   points="1349.411,478.239 1359.186,478.239 1361.456,468.215 1351.596,468.215 "
   id="polygon185"
   style="fill:url(#linearGradient4564)" />
			<linearGradient
   id="SVGID_17_"
   gradientUnits="userSpaceOnUse"
   x1="1347.0435"
   y1="442.94241"
   x2="1347.0435"
   y2="528.95282">
				<stop
   offset="0"
   style="stop-color:#F7EC30"
   id="stop188" />
				<stop
   offset="1"
   style="stop-color:#FAAE40"
   id="stop190" />
			</linearGradient>
			<path
   d="m 1363.915,448.45 c -1.691,-0.52 -3.67,-0.78 -5.939,-0.78 -5.951,0 -10.566,1.59 -13.844,4.766 -3.279,3.179 -5.549,7.671 -6.809,13.478 l -7.865,35.83 c -0.406,1.919 -0.922,3.986 -1.553,6.205 -0.447,1.571 -0.979,3.113 -1.551,4.643 h 11.324 c 1.285,-3.688 2.506,-8.141 3.656,-13.395 l 4.387,-19.93 0.055,-0.244 0.172,-0.783 h 0 l 2.215,-10.024 h -0.023 l 0.453,-2.138 c 0.504,-2.301 1.426,-4.217 2.762,-5.752 1.334,-1.533 3.393,-2.301 6.164,-2.301 1.01,0 2.105,0.123 3.291,0.37 1.186,0.246 2.232,0.616 3.141,1.109 l 3.781,-9.615 c -0.859,-0.439 -2.13,-0.917 -3.819,-1.439 z"
   id="path192"
   style="fill:url(#linearGradient4566)"
   inkscape:connector-curvature="0" />
		</g><g
     transform="matrix(0.4466195,0,0,0.4466195,962.67133,328.42886)"
     id="g194">
			<linearGradient
   gradientTransform="translate(-82.071561,5.9688408)"
   id="SVGID_18_"
   gradientUnits="userSpaceOnUse"
   x1="1311.0884"
   y1="525.43262"
   x2="1311.0884"
   y2="592.15198">
				<stop
   offset="0"
   style="stop-color:#F7EC30"
   id="stop197" />
				<stop
   offset="1"
   style="stop-color:#FAAE40"
   id="stop199" />
			</linearGradient>
			<path
   d="m 1205.7555,587.87784 12.557,-56.949 h 33.967 l -2.42,10.602 h -22.166 l -2.648,12.162 h 19.594 l -2.344,10.601 h -19.594 l -5.221,23.585 h -11.725 z"
   id="path201"
   style="fill:url(#linearGradient4544)"
   inkscape:connector-curvature="0" />
			<linearGradient
   gradientTransform="translate(-82.071561,5.9688408)"
   id="SVGID_19_"
   gradientUnits="userSpaceOnUse"
   x1="1342.9888"
   y1="525.43262"
   x2="1342.9888"
   y2="592.15198">
				<stop
   offset="0"
   style="stop-color:#F7EC30"
   id="stop204" />
				<stop
   offset="1"
   style="stop-color:#FAAE40"
   id="stop206" />
			</linearGradient>
			<path
   d="m 1274.4585,555.17084 c -1.01,-0.273 -2.004,-0.533 -2.988,-0.779 -0.984,-0.248 -2.434,-0.371 -4.35,-0.371 -0.707,0 -1.488,0.07 -2.346,0.205 -0.857,0.139 -1.562,0.289 -2.119,0.452 l -7.336,33.2 h -11.271 l 9.078,-40.924 c 2.168,-0.767 4.6,-1.492 7.299,-2.178 2.697,-0.686 5.736,-1.027 9.115,-1.027 1.26,0 2.66,0.123 4.199,0.369 1.537,0.246 2.887,0.645 4.047,1.191 l -3.328,9.862 z"
   id="path208"
   style="fill:url(#linearGradient4546)"
   inkscape:connector-curvature="0" />
			<linearGradient
   gradientTransform="translate(-82.071561,5.9688408)"
   id="SVGID_20_"
   gradientUnits="userSpaceOnUse"
   x1="1374.1724"
   y1="525.43262"
   x2="1374.1724"
   y2="592.15198">
				<stop
   offset="0"
   style="stop-color:#F7EC30"
   id="stop211" />
				<stop
   offset="1"
   style="stop-color:#FAAE40"
   id="stop213" />
			</linearGradient>
			<path
   d="m 1273.9445,570.94984 c 0,-3.506 0.566,-6.904 1.701,-10.191 1.135,-3.287 2.734,-6.204 4.805,-8.752 2.066,-2.547 4.576,-4.602 7.525,-6.162 2.951,-1.562 6.215,-2.343 9.799,-2.343 1.764,0 3.402,0.274 4.916,0.821 1.514,0.549 2.838,1.344 3.975,2.384 1.133,1.041 2.014,2.315 2.646,3.821 0.629,1.508 0.945,3.219 0.945,5.137 0,3.068 -0.631,5.67 -1.893,7.807 -1.26,2.136 -3.014,3.876 -5.258,5.218 -2.244,1.343 -4.904,2.315 -7.98,2.918 -3.078,0.603 -6.432,0.903 -10.062,0.903 0.354,2.301 1.123,3.932 2.309,4.891 1.184,0.959 3.062,1.438 5.635,1.438 1.615,0 3.254,-0.15 4.916,-0.452 1.666,-0.3 3.229,-0.752 4.691,-1.356 l 0.832,9.615 c -1.412,0.604 -3.215,1.15 -5.408,1.645 -2.193,0.492 -4.576,0.738 -7.148,0.738 -3.127,0 -5.762,-0.48 -7.906,-1.438 -2.144,-0.958 -3.883,-2.26 -5.219,-3.902 -1.338,-1.645 -2.307,-3.562 -2.912,-5.753 -0.608,-2.193 -0.909,-4.522 -0.909,-6.987 z m 22.012,-17.75 c -2.57,0 -4.83,1 -6.768,2.998 -1.943,2.001 -3.215,4.644 -3.822,7.932 3.127,-0.109 5.648,-0.398 7.566,-0.863 1.914,-0.465 3.404,-1.027 4.461,-1.686 1.061,-0.657 1.766,-1.369 2.119,-2.137 0.352,-0.766 0.529,-1.533 0.529,-2.301 10e-4,-2.628 -1.359,-3.943 -4.085,-3.943 z"
   id="path215"
   style="fill:url(#linearGradient4548)"
   inkscape:connector-curvature="0" />
			<linearGradient
   gradientTransform="translate(-82.071561,5.9688408)"
   id="SVGID_21_"
   gradientUnits="userSpaceOnUse"
   x1="1410.6265"
   y1="525.43262"
   x2="1410.6265"
   y2="592.15198">
				<stop
   offset="0"
   style="stop-color:#F7EC30"
   id="stop218" />
				<stop
   offset="1"
   style="stop-color:#FAAE40"
   id="stop220" />
			</linearGradient>
			<path
   d="m 1310.3995,570.94984 c 0,-3.506 0.566,-6.904 1.701,-10.191 1.135,-3.287 2.734,-6.204 4.803,-8.752 2.068,-2.547 4.58,-4.602 7.527,-6.162 2.951,-1.562 6.217,-2.343 9.799,-2.343 1.764,0 3.402,0.274 4.916,0.821 1.514,0.549 2.836,1.344 3.973,2.384 1.133,1.041 2.014,2.315 2.646,3.821 0.629,1.508 0.945,3.219 0.945,5.137 0,3.068 -0.631,5.67 -1.893,7.807 -1.26,2.136 -3.012,3.876 -5.256,5.218 -2.244,1.343 -4.904,2.315 -7.98,2.918 -3.078,0.603 -6.43,0.903 -10.062,0.903 0.354,2.301 1.123,3.932 2.309,4.891 1.184,0.959 3.062,1.438 5.635,1.438 1.613,0 3.254,-0.15 4.918,-0.452 1.664,-0.3 3.227,-0.752 4.689,-1.356 l 0.832,9.615 c -1.412,0.604 -3.215,1.15 -5.408,1.645 -2.193,0.492 -4.576,0.738 -7.148,0.738 -3.127,0 -5.762,-0.48 -7.904,-1.438 -2.146,-0.957 -3.885,-2.26 -5.221,-3.902 -1.338,-1.645 -2.309,-3.562 -2.914,-5.753 -0.605,-2.191 -0.907,-4.522 -0.907,-6.987 z m 22.014,-17.75 c -2.572,0 -4.83,1 -6.771,2.998 -1.941,2.001 -3.215,4.644 -3.82,7.932 3.127,-0.109 5.648,-0.398 7.566,-0.863 1.914,-0.465 3.404,-1.027 4.461,-1.686 1.061,-0.657 1.766,-1.369 2.119,-2.137 0.352,-0.766 0.531,-1.533 0.531,-2.301 0,-2.628 -1.363,-3.943 -4.086,-3.943 z"
   id="path222"
   style="fill:url(#linearGradient4550)"
   inkscape:connector-curvature="0" />
			<linearGradient
   gradientTransform="translate(-82.071561,5.9688408)"
   id="SVGID_22_"
   gradientUnits="userSpaceOnUse"
   x1="1488.9077"
   y1="525.43262"
   x2="1488.9077"
   y2="592.15198">
				<stop
   offset="0"
   style="stop-color:#F7EC30"
   id="stop225" />
				<stop
   offset="1"
   style="stop-color:#FAAE40"
   id="stop227" />
			</linearGradient>
			<path
   d="m 1403.5095,589.02884 c -2.676,0 -4.994,-0.438 -6.961,-1.314 -1.967,-0.875 -3.594,-2.108 -4.879,-3.698 -1.287,-1.587 -2.26,-3.464 -2.912,-5.629 -0.656,-2.163 -0.984,-4.562 -0.984,-7.19 0,-3.287 0.492,-6.574 1.475,-9.861 0.984,-3.287 2.434,-6.246 4.352,-8.875 1.914,-2.63 4.26,-4.779 7.035,-6.452 2.771,-1.67 5.949,-2.506 9.531,-2.506 2.621,0 4.928,0.438 6.922,1.315 1.99,0.877 3.629,2.109 4.918,3.697 1.285,1.59 2.254,3.466 2.91,5.629 0.654,2.166 0.984,4.561 0.984,7.191 0,3.287 -0.48,6.574 -1.438,9.861 -0.959,3.287 -2.371,6.246 -4.236,8.875 -1.865,2.631 -4.199,4.781 -6.998,6.451 -2.799,1.67 -6.04,2.506 -9.719,2.506 z m 5.597,-35.172 c -1.666,0 -3.129,0.521 -4.389,1.562 -1.262,1.042 -2.32,2.356 -3.178,3.944 -0.857,1.59 -1.5,3.328 -1.928,5.219 -0.43,1.891 -0.645,3.686 -0.645,5.383 0,2.794 0.404,4.945 1.211,6.451 0.807,1.507 2.27,2.26 4.389,2.26 1.664,0 3.125,-0.521 4.387,-1.562 1.26,-1.039 2.318,-2.354 3.178,-3.943 0.855,-1.589 1.5,-3.329 1.928,-5.219 0.428,-1.891 0.643,-3.684 0.643,-5.383 0,-2.795 -0.402,-4.943 -1.209,-6.451 -0.807,-1.507 -2.272,-2.261 -4.387,-2.261 z"
   id="path229"
   style="fill:url(#linearGradient4552)"
   inkscape:connector-curvature="0" />
			<linearGradient
   gradientTransform="translate(-82.071561,5.9688408)"
   id="SVGID_23_"
   gradientUnits="userSpaceOnUse"
   x1="1537.7075"
   y1="525.43262"
   x2="1537.7075"
   y2="592.15179">
				<stop
   offset="0"
   style="stop-color:#F7EC30"
   id="stop232" />
				<stop
   offset="1"
   style="stop-color:#FAAE40"
   id="stop234" />
			</linearGradient>
			<path
   d="m 1434.4915,546.62384 c 0.857,-0.273 1.777,-0.588 2.762,-0.945 0.984,-0.355 2.092,-0.684 3.328,-0.984 1.234,-0.301 2.621,-0.547 4.16,-0.74 1.539,-0.191 3.314,-0.287 5.334,-0.287 2.42,0 4.426,0.328 6.014,0.986 1.588,0.656 3.037,1.643 4.35,2.957 1.865,-1.15 3.719,-2.096 5.561,-2.834 1.84,-0.74 3.996,-1.109 6.467,-1.109 2.371,0 4.4,0.342 6.09,1.027 1.69,0.685 3.09,1.67 4.199,2.957 1.109,1.289 1.916,2.822 2.42,4.603 0.504,1.781 0.758,3.739 0.758,5.876 0,0.986 -0.064,2.027 -0.189,3.123 -0.127,1.096 -0.316,2.191 -0.568,3.287 l -5.145,23.338 h -11.271 l 4.994,-22.846 c 0.15,-0.766 0.314,-1.629 0.49,-2.588 0.178,-0.957 0.266,-1.903 0.266,-2.836 0,-1.531 -0.328,-2.861 -0.982,-3.984 -0.656,-1.123 -1.943,-1.686 -3.859,-1.686 -1.059,0 -2.068,0.205 -3.025,0.616 -0.959,0.411 -1.816,0.837 -2.572,1.273 0.102,0.44 0.152,0.851 0.152,1.233 0,0.382 0,0.74 0,1.068 0,0.986 -0.064,2.027 -0.189,3.123 -0.127,1.096 -0.316,2.191 -0.568,3.287 l -5.143,23.338 h -11.271 l 4.992,-22.846 c 0.152,-0.766 0.314,-1.629 0.49,-2.588 0.178,-0.957 0.268,-1.903 0.268,-2.836 0,-1.531 -0.33,-2.861 -0.984,-3.984 -0.656,-1.123 -1.943,-1.686 -3.859,-1.686 -0.807,0 -1.486,0.041 -2.043,0.123 -0.555,0.082 -1.209,0.206 -1.967,0.371 l -7.336,33.445 h -11.271 l 9.147,-41.252 z"
   id="path236"
   style="fill:url(#linearGradient4554)"
   inkscape:connector-curvature="0" />
			<linearGradient
   gradientTransform="translate(-82.071561,5.9688408)"
   id="SVGID_24_"
   gradientUnits="userSpaceOnUse"
   x1="1610.3276"
   y1="525.43262"
   x2="1610.3276"
   y2="592.15198">
				<stop
   offset="0"
   style="stop-color:#F7EC30"
   id="stop239" />
				<stop
   offset="1"
   style="stop-color:#FAAE40"
   id="stop241" />
			</linearGradient>
			<path
   d="m 1553.9385,553.11584 c 0,5.535 -0.832,10.492 -2.496,14.875 -1.664,4.383 -4.047,8.095 -7.148,11.135 -3.102,3.041 -6.873,5.383 -11.309,7.027 -4.439,1.643 -9.457,2.465 -15.055,2.465 -2.119,0 -4.564,-0.137 -7.338,-0.411 -2.775,-0.274 -5.447,-0.712 -8.02,-1.315 l 12.18,-54.977 c 2.875,-0.603 5.635,-1.027 8.283,-1.273 2.648,-0.247 5.031,-0.37 7.15,-0.37 3.73,0 7.072,0.548 10.021,1.644 2.951,1.096 5.447,2.658 7.49,4.684 2.041,2.027 3.594,4.438 4.652,7.232 1.061,2.792 1.59,5.889 1.59,9.284 z m -37.595,24.491 c 0.553,0.055 1.121,0.096 1.699,0.123 0.58,0.028 1.375,0.041 2.385,0.041 3.277,0 6.24,-0.547 8.887,-1.645 2.65,-1.094 4.893,-2.67 6.734,-4.725 1.842,-2.054 3.266,-4.574 4.273,-7.561 1.007,-2.987 1.514,-6.34 1.514,-10.066 0,-1.918 -0.229,-3.658 -0.682,-5.219 -0.453,-1.561 -1.197,-2.902 -2.23,-4.027 -1.033,-1.121 -2.371,-1.984 -4.01,-2.588 -1.639,-0.604 -3.619,-0.904 -5.939,-0.904 -1.512,0 -3.051,0.083 -4.613,0.247 l -8.018,36.324 z"
   id="path243"
   style="fill:url(#linearGradient4556)"
   inkscape:connector-curvature="0" />
			<linearGradient
   gradientTransform="translate(-82.071561,5.9688408)"
   id="SVGID_25_"
   gradientUnits="userSpaceOnUse"
   x1="1657.4478"
   y1="525.43262"
   x2="1657.4478"
   y2="592.15192">
				<stop
   offset="0"
   style="stop-color:#F7EC30"
   id="stop246" />
				<stop
   offset="1"
   style="stop-color:#FAAE40"
   id="stop248" />
			</linearGradient>
			<path
   d="m 1590.4285,569.22384 c -0.707,3.123 -0.906,6.26 -0.605,9.41 0.305,3.15 0.883,5.957 1.742,8.423 l -10.062,1.562 c -0.303,-0.658 -0.58,-1.287 -0.832,-1.891 -0.254,-0.602 -0.506,-1.287 -0.758,-2.054 -1.41,1.261 -2.977,2.301 -4.689,3.122 -1.715,0.822 -3.631,1.232 -5.75,1.232 -2.521,0 -4.676,-0.48 -6.467,-1.438 -1.791,-0.958 -3.252,-2.246 -4.389,-3.861 -1.133,-1.617 -1.955,-3.507 -2.459,-5.672 -0.502,-2.163 -0.754,-4.479 -0.754,-6.943 0,-3.781 0.617,-7.342 1.852,-10.684 1.236,-3.342 2.951,-6.258 5.145,-8.752 2.195,-2.492 4.777,-4.45 7.754,-5.875 2.977,-1.425 6.205,-2.137 9.684,-2.137 0.453,0 1.248,0.028 2.383,0.082 1.135,0.055 2.432,0.178 3.895,0.369 1.463,0.193 3.002,0.508 4.615,0.945 1.613,0.439 3.15,1.041 4.615,1.809 l -4.92,22.353 z m -7.867,-15.121 c -0.656,-0.109 -1.248,-0.191 -1.777,-0.246 -0.529,-0.055 -1.172,-0.082 -1.93,-0.082 -1.715,0 -3.316,0.467 -4.803,1.396 -1.488,0.932 -2.789,2.15 -3.896,3.658 -1.109,1.508 -1.98,3.245 -2.609,5.217 -0.633,1.973 -0.947,4.027 -0.947,6.164 0,2.63 0.404,4.713 1.211,6.246 0.807,1.533 2.295,2.301 4.465,2.301 1.158,0 2.203,-0.246 3.139,-0.739 0.932,-0.493 1.93,-1.315 2.988,-2.466 0.102,-1.368 0.264,-2.808 0.49,-4.314 0.229,-1.506 0.467,-2.889 0.721,-4.15 l 2.948,-12.985 z"
   id="path250"
   style="fill:url(#linearGradient4558)"
   inkscape:connector-curvature="0" />
			<linearGradient
   gradientTransform="translate(-82.071561,5.9688408)"
   id="SVGID_26_"
   gradientUnits="userSpaceOnUse"
   x1="1697.5337"
   y1="525.43262"
   x2="1697.5337"
   y2="592.15222">
				<stop
   offset="0"
   style="stop-color:#F7EC30"
   id="stop253" />
				<stop
   offset="1"
   style="stop-color:#FAAE40"
   id="stop255" />
			</linearGradient>
			<path
   d="m 1624.4955,544.65384 h -0.025 -0.846 c -1.615,5.807 -3.342,11.121 -5.182,15.941 -1.842,4.822 -3.971,9.205 -6.393,13.148 -0.303,-1.972 -0.58,-4.19 -0.832,-6.656 -0.254,-2.465 -0.48,-4.998 -0.68,-7.602 -0.061,-0.752 -0.1,-1.494 -0.154,-2.244 -0.133,-1.845 -0.268,-3.69 -0.377,-5.521 -0.15,-2.574 -0.254,-4.931 -0.301,-7.066 h -11.576 c 0.404,8.547 1.146,16.217 2.232,23.01 1.055,6.607 2.217,12.58 3.488,17.942 -0.15,0.487 -0.299,0.976 -0.461,1.458 -0.434,1.299 -6.732,13.471 -8.043,14.785 l 3.613,0.561 6.447,1.001 c 2.42,-1.972 14.889,-24.489 16.553,-27.448 1.664,-2.958 3.277,-6.066 4.842,-9.326 1.562,-3.26 3.064,-6.697 4.502,-10.314 1.436,-3.615 2.859,-7.506 4.273,-11.668 h -11.08 z"
   id="path257"
   style="fill:url(#linearGradient4560)"
   inkscape:connector-curvature="0" />
		</g><g
     transform="matrix(0.4466195,0,0,0.4466195,926.01657,331.09466)"
     id="g259">
			<path
   d="m 1454.571,548.175 c -0.229,-0.027 -0.518,-0.041 -0.869,-0.041 -0.354,0 -0.809,0 -1.363,0 -1.766,0 -3.404,0.452 -4.916,1.355 -1.514,0.904 -2.812,2.125 -3.896,3.658 -1.086,1.534 -1.93,3.273 -2.535,5.219 -0.604,1.945 -0.908,3.932 -0.908,5.957 0,2.63 0.416,4.699 1.25,6.204 0.832,1.509 2.33,2.261 4.5,2.261 1.16,0 2.219,-0.246 3.178,-0.739 0.957,-0.493 1.967,-1.315 3.025,-2.466 0.1,-1.368 0.266,-2.808 0.492,-4.314 0.227,-1.506 0.465,-2.889 0.719,-4.15 l 2.799,-12.654 c -0.303,-0.055 -0.566,-0.109 -0.795,-0.165 -0.228,-0.055 -0.455,-0.096 -0.681,-0.125 z"
   id="path261"
   inkscape:connector-curvature="0"
   style="fill:none" />
			<linearGradient
   id="SVGID_27_"
   gradientUnits="userSpaceOnUse"
   x1="1451.0493"
   y1="525.43262"
   x2="1451.0493"
   y2="592.15198">
				<stop
   offset="0"
   style="stop-color:#F7EC30"
   id="stop264" />
				<stop
   offset="1"
   style="stop-color:#FAAE40"
   id="stop266" />
			</linearGradient>
			<path
   d="m 1473.211,521.929 h -11.289 l -3.684,16.756 c -0.807,-0.219 -1.602,-0.383 -2.383,-0.494 -0.783,-0.109 -1.627,-0.164 -2.533,-0.164 -3.531,0 -6.785,0.713 -9.76,2.137 -2.977,1.426 -5.547,3.369 -7.717,5.834 -2.168,2.467 -3.869,5.355 -5.105,8.67 -1.236,3.316 -1.854,6.836 -1.854,10.561 0,2.465 0.266,4.78 0.795,6.943 0.529,2.166 1.361,4.057 2.496,5.671 1.135,1.616 2.598,2.89 4.387,3.821 1.791,0.932 3.947,1.396 6.469,1.396 2.119,0 4.047,-0.41 5.787,-1.232 1.74,-0.821 3.314,-1.861 4.729,-3.122 0.252,0.767 0.504,1.452 0.756,2.054 0.252,0.604 0.529,1.232 0.834,1.891 l 10.059,-1.562 c -0.857,-2.466 -1.438,-5.272 -1.738,-8.423 -0.303,-3.15 -0.102,-6.287 0.605,-9.41 l 9.146,-41.327 z m -19.964,39.189 c -0.254,1.262 -0.492,2.645 -0.719,4.15 -0.227,1.507 -0.393,2.946 -0.492,4.314 -1.059,1.15 -2.068,1.973 -3.025,2.466 -0.959,0.493 -2.018,0.739 -3.178,0.739 -2.17,0 -3.668,-0.752 -4.5,-2.261 -0.834,-1.505 -1.25,-3.574 -1.25,-6.204 0,-2.025 0.305,-4.012 0.908,-5.957 0.605,-1.945 1.449,-3.685 2.535,-5.219 1.084,-1.533 2.383,-2.754 3.896,-3.658 1.512,-0.903 3.15,-1.355 4.916,-1.355 0.555,0 1.01,0 1.363,0 0.352,0 0.641,0.014 0.869,0.041 0.227,0.029 0.453,0.07 0.68,0.124 0.229,0.056 0.492,0.11 0.795,0.165 l -2.798,12.655 z"
   id="path268"
   style="fill:url(#linearGradient4542)"
   inkscape:connector-curvature="0" />
		</g><g
     transform="matrix(0.62333123,0,0,0.62333123,876.27861,160.97046)"
     id="g270">
			<path
   d="m 1101.508,516.569 c 7.564,-18.068 28.518,-26.512 46.803,-18.855 4.268,1.783 8.002,4.299 11.141,7.319 -3.705,-4.114 -8.361,-7.501 -13.818,-9.788 -19.541,-8.181 -41.934,0.844 -50.018,20.154 -4.324,10.329 -4.571,23.144 -0.488,33.371 2.1,-1.572 4.279,-3.146 6.535,-4.711 -3.635,-8.497 -3.983,-18.346 -0.155,-27.49 z"
   id="path272"
   inkscape:connector-curvature="0"
   style="fill:none" />
			<path
   d="m 1134.788,502.124 c -16.432,0 -29.799,13.367 -29.799,29.799 0,3.122 0.492,6.129 1.39,8.958 15.12,-9.9 33.333,-19.042 53.989,-24.255 -0.01,-10e-4 -0.015,-10e-4 -0.021,-0.002 -5.216,-8.679 -14.72,-14.5 -25.559,-14.5 z"
   id="path274"
   inkscape:connector-curvature="0"
   style="fill:none" />
			<path
   d="m 1193.959,521.687 c 0.391,2.278 0.67,4.595 0.797,6.952 -6.412,0.486 -9.91,-0.642 -9.91,-0.642 -2.826,-3.178 -6.027,-5.487 -9.271,-7.167 -2.14,0.225 -4.306,0.552 -6.483,0.988 -28.584,5.723 -52.715,19.595 -70.668,33.189 0.666,0.987 1.367,1.946 2.143,2.835 -3.617,6.421 -5.184,10.253 -7.91,16.874 -2.753,-2.711 -5.245,-5.686 -7.438,-8.881 -7.471,6.619 -13.18,12.559 -16.867,16.652 h 182.908 c -5.583,-15.414 -22.699,-53.538 -57.301,-60.8 z"
   id="path276"
   inkscape:connector-curvature="0"
   style="fill:none" />
			<linearGradient
   id="SVGID_28_"
   gradientUnits="userSpaceOnUse"
   x1="1074.7251"
   y1="564.8623"
   x2="1194.7563"
   y2="564.8623">
				<stop
   offset="0"
   style="stop-color:#F7EC30"
   id="stop279" />
				<stop
   offset="1"
   style="stop-color:#FAAE40"
   id="stop281" />
			</linearGradient>
			<path
   d="m 1100.567,557.843 c -0.775,-0.889 -1.477,-1.848 -2.143,-2.835 -4.87,3.687 -9.279,7.35 -13.205,10.828 2.192,3.195 4.685,6.17 7.438,8.881 2.726,-6.621 4.293,-10.453 7.91,-16.874 z"
   id="path283-1"
   style="fill:url(#linearGradient4584)"
   inkscape:connector-curvature="0" />
			<linearGradient
   id="SVGID_29_"
   gradientUnits="userSpaceOnUse"
   x1="1074.7251"
   y1="515.80762"
   x2="1194.7563"
   y2="515.80762">
				<stop
   offset="0"
   style="stop-color:#F7EC30"
   id="stop286" />
				<stop
   offset="1"
   style="stop-color:#FAAE40"
   id="stop288" />
			</linearGradient>
			<path
   d="m 1095.616,515.399 c 8.084,-19.311 30.477,-28.335 50.018,-20.154 5.457,2.287 10.113,5.674 13.818,9.788 -3.139,-3.021 -6.873,-5.536 -11.141,-7.319 -18.285,-7.656 -39.238,0.787 -46.803,18.855 -3.828,9.144 -3.48,18.993 0.154,27.49 1.537,-1.065 3.108,-2.126 4.716,-3.179 -0.897,-2.829 -1.39,-5.836 -1.39,-8.958 0,-16.432 13.367,-29.799 29.799,-29.799 10.84,0 20.344,5.821 25.559,14.5 0.01,10e-4 0.015,10e-4 0.021,0.002 2.418,-0.61 4.866,-1.173 7.351,-1.671 4.903,-0.982 9.768,-1.479 14.457,-1.479 3.478,0 6.815,0.272 10.022,0.77 -7.547,-24.544 -30.395,-42.385 -57.41,-42.385 -33.172,0 -60.062,26.891 -60.062,60.062 0,10.05 2.485,19.511 6.85,27.832 4.051,-3.544 8.577,-7.258 13.553,-10.984 -4.084,-10.227 -3.836,-23.041 0.488,-33.371 z"
   id="path290"
   style="fill:url(#linearGradient4586)"
   inkscape:connector-curvature="0" />
			<linearGradient
   id="SVGID_30_"
   gradientUnits="userSpaceOnUse"
   x1="1074.7251"
   y1="524.61823"
   x2="1194.7563"
   y2="524.61823">
				<stop
   offset="0"
   style="stop-color:#F7EC30"
   id="stop293" />
				<stop
   offset="1"
   style="stop-color:#FAAE40"
   id="stop295" />
			</linearGradient>
			<path
   d="m 1184.846,527.997 c 0,0 3.498,1.128 9.91,0.642 -0.127,-2.357 -0.406,-4.674 -0.797,-6.952 -3.725,-0.782 -7.648,-1.211 -11.784,-1.211 -2.16,0 -4.366,0.121 -6.6,0.354 3.244,1.68 6.445,3.989 9.271,7.167 z"
   id="path297-7"
   style="fill:url(#linearGradient4588)"
   inkscape:connector-curvature="0" />
			<g
   id="g299">
				
					<linearGradient
   id="SVGID_31_"
   gradientUnits="userSpaceOnUse"
   x1="534.01422"
   y1="551.48187"
   x2="729.9198"
   y2="551.48187"
   gradientTransform="matrix(-1,0,0,1,1789.3867,0)">
					<stop
   offset="0"
   style="stop-color:#8BC541"
   id="stop302" />
					<stop
   offset="1"
   style="stop-color:#39B24A"
   id="stop304" />
				</linearGradient>
				<path
   d="m 1193.959,521.687 c -3.725,-0.782 -7.648,-1.211 -11.784,-1.211 -2.16,0 -4.366,0.121 -6.6,0.354 -2.14,0.225 -4.306,0.552 -6.483,0.988 -28.584,5.723 -52.715,19.595 -70.668,33.189 -4.87,3.687 -9.279,7.35 -13.205,10.828 -7.471,6.619 -13.18,12.559 -16.867,16.652 h 182.908 c -5.583,-15.414 -22.699,-53.538 -57.301,-60.8 z"
   id="path306"
   style="fill:url(#linearGradient4590)"
   inkscape:connector-curvature="0" />
			</g>
		</g><g
     transform="matrix(0.62333123,0,0,0.62333123,876.27861,160.97046)"
     id="g308"
     style="opacity:0.21000001">
			
				<linearGradient
   id="SVGID_32_"
   gradientUnits="userSpaceOnUse"
   x1="538.40771"
   y1="567.83539"
   x2="723.15167"
   y2="567.83539"
   gradientTransform="matrix(-1,0,0,1,1790.9893,0)">
				<stop
   offset="0"
   style="stop-color:#FFFFFF"
   id="stop311" />
				<stop
   offset="1"
   style="stop-color:#FFFFFF;stop-opacity:0"
   id="stop313" />
			</linearGradient>
			<path
   d="m 1169.417,552.555 c 56.701,-5.558 79.467,26.119 82.741,31.213 h -184.254 c 1.741,-1.082 41.272,-25.307 101.513,-31.213 z"
   id="path315"
   style="fill:url(#linearGradient4582)"
   inkscape:connector-curvature="0" />
		</g></g>
	</g>
	
	
	
	
	
	
	
	
	
	
	
	
	
	
</g></g></g>
<g
   id="Layer_1"
   transform="translate(0,-1911.0079)">
</g>
















<text
   transform="scale(0.89551666,1.1166738)"
   sodipodi:linespacing="77.999997%"
   id="text4516"
   y="172.45415"
   x="651.88177"
   style="font-size:64.99999237px;font-style:normal;font-variant:normal;font-weight:normal;font-stretch:normal;text-align:start;line-height:77.99999714%;letter-spacing:0px;word-spacing:0px;writing-mode:lr-tb;text-anchor:start;fill:#f15a24;fill-opacity:1;stroke:none;font-family:VDS;-inkscape-font-specification:VDS"
   xml:space="preserve"
   inkscape:export-filename="w:\Bewegungsdaten\FreieSoftwareOG\SoftwareFreedomDay 12\sticker2012_de.png"
   inkscape:export-xdpi="71.249527"
   inkscape:export-ydpi="71.249527"><tspan
     sodipodi:role="line"
     id="tspan3267"
     x="651.88177"
     y="172.45415">sobre</tspan></text>





<text
   xml:space="preserve"
   style="font-size:112.736763px;font-style:normal;font-variant:normal;font-weight:bold;font-stretch:normal;text-align:start;line-height:77.99999714%;letter-spacing:0px;word-spacing:0px;writing-mode:lr-tb;text-anchor:start;fill:#f9d523;fill-opacity:1;stroke:none;font-family:VDS;-inkscape-font-specification:VDS Bold"
   x="538.94641"
   y="285.3208"
   id="text4526"
   sodipodi:linespacing="77.999997%"
   transform="scale(0.90285846,1.1075933)"
   inkscape:export-filename="w:\Bewegungsdaten\FreieSoftwareOG\SoftwareFreedomDay 12\sticker2012_de.png"
   inkscape:export-xdpi="71.249527"
   inkscape:export-ydpi="71.249527"><tspan
     sodipodi:role="line"
     x="538.94641"
     y="285.3208"
     style="font-size:112.736763px;font-style:normal;font-variant:normal;font-weight:bold;font-stretch:normal;text-align:start;line-height:77.99999714%;letter-spacing:3.24681807px;writing-mode:lr-tb;text-anchor:start;fill:#ffffff;fill-opacity:1;font-family:VDS;-inkscape-font-specification:VDS Bold"
     id="tspan4528">livre</tspan></text>





<text
   xml:space="preserve"
   style="font-size:63.96446991px;font-style:normal;font-variant:normal;font-weight:bold;font-stretch:normal;text-align:start;line-height:77.99999714%;letter-spacing:0px;word-spacing:0px;writing-mode:lr-tb;text-anchor:start;fill:#ffffff;fill-opacity:1;stroke:none;font-family:VDS;-inkscape-font-specification:VDS Bold"
   x="286.46463"
   y="267.69241"
   id="text4530"
   sodipodi:linespacing="77.999997%"
   transform="scale(0.89551666,1.1166738)"
   inkscape:export-filename="w:\Bewegungsdaten\FreieSoftwareOG\SoftwareFreedomDay 12\sticker2012_de.png"
   inkscape:export-xdpi="71.249527"
   inkscape:export-ydpi="71.249527"><tspan
     sodipodi:role="line"
     id="tspan3269"
     x="286.46463"
     y="267.69241">software</tspan></text>





<text
   xml:space="preserve"
   style="font-size:64.99859619px;font-style:normal;font-variant:normal;font-weight:normal;font-stretch:normal;text-align:start;line-height:77.99999714%;letter-spacing:0px;word-spacing:0px;writing-mode:lr-tb;text-anchor:start;fill:#f9b93d;fill-opacity:1;stroke:none;font-family:VDS;-inkscape-font-specification:VDS"
   x="240.89795"
   y="175.55894"
   id="text4534"
   sodipodi:linespacing="77.999997%"
   transform="scale(0.89551666,1.1166738)"
   inkscape:export-filename="w:\Bewegungsdaten\FreieSoftwareOG\SoftwareFreedomDay 12\sticker2012_de.png"
   inkscape:export-xdpi="71.249527"
   inkscape:export-ydpi="71.249527"><tspan
     sodipodi:role="line"
     id="tspan3212"
     x="240.89795"
     y="175.55894">Pergunte</tspan></text>





<text
   xml:space="preserve"
   style="font-size:65px;font-style:normal;font-variant:normal;font-weight:normal;font-stretch:normal;text-align:start;line-height:77.99999714%;letter-spacing:0px;word-spacing:0px;writing-mode:lr-tb;text-anchor:start;fill:#39b54a;fill-opacity:1;stroke:none;font-family:VDS;-inkscape-font-specification:VDS"
   x="487.07971"
   y="181.14661"
   id="text4538"
   sodipodi:linespacing="77.999997%"
   transform="scale(0.89551666,1.1166738)"
   inkscape:export-filename="w:\Bewegungsdaten\FreieSoftwareOG\SoftwareFreedomDay 12\sticker2012_de.png"
   inkscape:export-xdpi="71.249527"
   inkscape:export-ydpi="71.249527"><tspan
     sodipodi:role="line"
     id="tspan3235"
     x="487.07971"
     y="181.14661">-nos</tspan></text>





<text
   xml:space="preserve"
   style="font-size:75.35571289px;font-style:normal;font-variant:normal;font-weight:normal;font-stretch:normal;text-align:end;line-height:125%;letter-spacing:0px;word-spacing:0px;writing-mode:lr-tb;text-anchor:end;fill:#39b54a;fill-opacity:1;stroke:none;font-family:VDS;-inkscape-font-specification:VDS"
   x="247.95601"
   y="281.46283"
   id="text3572"
   sodipodi:linespacing="125%"><tspan
     sodipodi:role="line"
     id="tspan3574"
     x="247.95601"
     y="281.46283">o</tspan></text>

</svg>