<?xml version="1.0" encoding="UTF-8" standalone="no"?>
<!-- Created with Inkscape (http://www.inkscape.org/) -->

<svg
   xmlns:dc="http://purl.org/dc/elements/1.1/"
   xmlns:cc="http://creativecommons.org/ns#"
   xmlns:rdf="http://www.w3.org/1999/02/22-rdf-syntax-ns#"
   xmlns:svg="http://www.w3.org/2000/svg"
   xmlns="http://www.w3.org/2000/svg"
   xmlns:xlink="http://www.w3.org/1999/xlink"
   xmlns:sodipodi="http://sodipodi.sourceforge.net/DTD/sodipodi-0.dtd"
   xmlns:inkscape="http://www.inkscape.org/namespaces/inkscape"
   width="744.09448819"
   height="1052.3622047"
   id="svg4523"
   version="1.1"
   inkscape:version="0.48.5 r10040"
   sodipodi:docname="New document 2">
  <defs
     id="defs4525">
    <linearGradient
       inkscape:collect="always"
       xlink:href="#SVGID_33_"
       id="linearGradient24732"
       gradientUnits="userSpaceOnUse"
       x1="1150.4614"
       y1="938.66803"
       x2="1270.4927"
       y2="938.66803" />
    <linearGradient
       id="SVGID_33_"
       gradientUnits="userSpaceOnUse"
       x1="1150.4614"
       y1="938.66803"
       x2="1270.4927"
       y2="938.66803">
      <stop
         offset="0"
         style="stop-color:#F7EC30"
         id="stop354" />
      <stop
         offset="1"
         style="stop-color:#FAAE40"
         id="stop356" />
    </linearGradient>
    <linearGradient
       inkscape:collect="always"
       xlink:href="#SVGID_34_"
       id="linearGradient24734"
       gradientUnits="userSpaceOnUse"
       x1="1150.4614"
       y1="898.42291"
       x2="1270.4927"
       y2="898.42291" />
    <linearGradient
       id="SVGID_34_"
       gradientUnits="userSpaceOnUse"
       x1="1150.4614"
       y1="898.42291"
       x2="1270.4927"
       y2="898.42291">
      <stop
         offset="0"
         style="stop-color:#F7EC30"
         id="stop363" />
      <stop
         offset="1"
         style="stop-color:#FAAE40"
         id="stop365" />
    </linearGradient>
  </defs>
  <sodipodi:namedview
     id="base"
     pagecolor="#ffffff"
     bordercolor="#666666"
     borderopacity="1.0"
     inkscape:pageopacity="0.0"
     inkscape:pageshadow="2"
     inkscape:zoom="0.35"
     inkscape:cx="375"
     inkscape:cy="520"
     inkscape:document-units="px"
     inkscape:current-layer="layer1"
     showgrid="false"
     inkscape:window-width="501"
     inkscape:window-height="435"
     inkscape:window-x="0"
     inkscape:window-y="75"
     inkscape:window-maximized="0" />
  <metadata
     id="metadata4528">
    <rdf:RDF>
      <cc:Work
         rdf:about="">
        <dc:format>image/svg+xml</dc:format>
        <dc:type
           rdf:resource="http://purl.org/dc/dcmitype/StillImage" />
        <dc:title></dc:title>
      </cc:Work>
    </rdf:RDF>
  </metadata>
  <g
     inkscape:label="Layer 1"
     inkscape:groupmode="layer"
     id="layer1">
    <g
       id="g277"
       transform="matrix(0.52734688,0,0,0.52734688,-416.55084,132.92058)"
       inkscape:export-filename="/home/pockey/Documents/SFD/sfd-logo.png"
       inkscape:export-xdpi="100.22"
       inkscape:export-ydpi="100.22">
      <g
         transform="translate(19.758941,-12.349338)"
         id="g279">
        <g
           id="g281">
          <path
             d="m 1164.118,842.563 c 0,0 7.496,9.436 5.707,-0.229 -1.791,-9.664 -16.127,-28.551 -23.35,-23.98 -7.227,4.57 -3.574,8.336 0.963,10.764 4.541,2.428 13.486,8.582 16.68,13.445 z"
             id="path283"
             inkscape:connector-curvature="0"
             style="fill:#f9d523" />
          <path
             d="m 1202.237,827.905 c 0,0 -1.49,12.77 4.471,4.139 5.955,-8.629 9.438,-33.689 0.545,-35.705 -8.895,-2.02 -8.99,3.572 -7.408,8.83 1.583,5.258 3.665,16.658 2.392,22.736 z"
             id="path285"
             inkscape:connector-curvature="0"
             style="fill:#f9d523" />
          <path
             d="m 1244.338,832.333 c 0,0 -9.543,11.699 1.805,6.922 11.348,-4.783 30.627,-27.391 23.094,-35.008 -7.531,-7.613 -11.16,-2.137 -12.91,4.068 -1.756,6.207 -6.895,18.805 -11.989,24.018 z"
             id="path287"
             inkscape:connector-curvature="0"
             style="fill:#f9d523" />
          <path
             d="m 1274.813,862.667 c 0,0 -14.912,4.139 -2.586,6.859 12.326,2.715 41.84,-4.787 40.049,-15.621 -1.789,-10.834 -8.07,-8.398 -13.213,-4.242 -5.143,4.154 -16.9,11.656 -24.25,13.004 z"
             id="path289"
             inkscape:connector-curvature="0"
             style="fill:#f9d523" />
          <path
             d="m 1140.122,871.333 c 0,0 9.912,3.295 4.027,-2.869 -5.883,-6.168 -25.25,-13.072 -28.322,-6.324 -3.074,6.744 1.359,7.74 5.809,7.348 4.443,-0.391 13.859,-0.167 18.486,1.845 z"
             id="path291"
             inkscape:connector-curvature="0"
             style="fill:#f9d523" />
          <path
             d="m 1133.073,903.163 c 0,0 8.361,-0.393 2.186,-3.311 -6.18,-2.914 -22.656,-2.502 -23.012,3.43 -0.356,5.932 3.252,5.398 6.463,3.826 3.21,-1.576 10.318,-4.119 14.363,-3.945 z"
             id="path293"
             inkscape:connector-curvature="0"
             style="fill:#f9d523" />
          <path
             d="m 1140.409,931.243 c 0,0 4.957,-4.283 -0.254,-3.096 -5.207,1.189 -15.152,9.398 -12.506,13.225 2.639,3.824 4.607,1.756 5.824,-0.764 1.219,-2.521 4.361,-7.519 6.936,-9.365 z"
             id="path295"
             inkscape:connector-curvature="0"
             style="fill:#f9d523" />
        </g>
      </g>
      <path
         d="m 1197.0039,878.02466 c 7.564,-18.068 28.518,-26.512 46.803,-18.855 4.268,1.783 8.002,4.299 11.141,7.32 -3.705,-4.115 -8.361,-7.502 -13.818,-9.789 -19.541,-8.18 -41.934,0.844 -50.018,20.154 -5.746,13.727 -2.711,28.951 6.541,39.549 0.914,-1.621 1.855,-3.221 2.83,-4.795 -6.54,-9.613 -8.265,-22.152 -3.479,-33.584 z"
         id="path297"
         inkscape:connector-curvature="0"
         style="fill:none" />
      <path
         d="m 1359.5559,863.36466 c 1.158,0 2.318,-0.096 3.48,-0.289 1.158,-0.191 2.191,-0.533 3.1,-1.027 0.908,-0.492 1.652,-1.191 2.232,-2.096 0.578,-0.902 0.871,-2.066 0.871,-3.492 0,-1.096 -0.279,-2.041 -0.834,-2.836 -0.557,-0.793 -1.262,-1.52 -2.117,-2.176 -0.859,-0.658 -1.816,-1.26 -2.875,-1.809 -1.061,-0.547 -2.119,-1.15 -3.178,-1.809 -1.363,-0.875 -2.648,-1.809 -3.857,-2.793 -1.211,-0.986 -2.244,-2.096 -3.104,-3.328 -0.857,-1.234 -1.537,-2.602 -2.041,-4.109 -0.506,-1.508 -0.756,-3.246 -0.756,-5.219 0,-2.52 0.441,-4.861 1.322,-7.027 0.883,-2.162 2.195,-4.039 3.934,-5.629 1.74,-1.588 3.922,-2.834 6.545,-3.738 2.621,-0.904 5.699,-1.355 9.229,-1.355 1.613,0 3.178,0.15 4.691,0.451 1.513,0.301 2.922,0.672 4.234,1.109 1.311,0.439 2.51,0.945 3.594,1.521 1.084,0.574 2.006,1.137 2.76,1.684 l -4.916,9.451 c -1.26,-1.041 -2.797,-1.918 -4.613,-2.631 -1.816,-0.711 -3.783,-1.068 -5.9,-1.068 -1.162,0 -2.27,0.111 -3.33,0.33 -1.059,0.219 -1.992,0.59 -2.799,1.109 -0.807,0.521 -1.449,1.191 -1.928,2.014 -0.48,0.82 -0.719,1.836 -0.719,3.039 0,1.098 0.188,2.014 0.566,2.754 0.379,0.738 0.871,1.385 1.475,1.932 0.605,0.547 1.312,1.041 2.119,1.479 0.807,0.438 1.664,0.904 2.572,1.396 1.562,0.877 3.076,1.809 4.539,2.795 1.461,0.986 2.746,2.123 3.859,3.41 1.107,1.289 1.99,2.752 2.646,4.396 0.654,1.645 0.982,3.588 0.982,5.834 0,3.123 -0.529,5.836 -1.588,8.137 -1.059,2.301 -2.547,4.219 -4.463,5.752 -1.918,1.535 -4.199,2.672 -6.848,3.41 -2.646,0.74 -5.584,1.109 -8.812,1.109 -2.117,0 -4.098,-0.191 -5.939,-0.574 -1.84,-0.385 -3.504,-0.836 -4.99,-1.355 -1.49,-0.521 -2.775,-1.082 -3.859,-1.686 -1.086,-0.602 -1.955,-1.15 -2.609,-1.643 l 4.992,-9.781 c 0.605,0.439 1.336,0.904 2.193,1.398 0.857,0.492 1.828,0.959 2.912,1.396 1.084,0.439 2.232,0.809 3.443,1.109 1.211,0.304 2.473,0.455 3.785,0.455 z"
         id="path299"
         inkscape:connector-curvature="0"
         style="fill:#f9d523" />
      <path
         d="m 1400.6699,874.04666 c -2.674,0 -4.994,-0.438 -6.959,-1.314 -1.967,-0.875 -3.594,-2.109 -4.881,-3.699 -1.285,-1.586 -2.258,-3.463 -2.91,-5.629 -0.656,-2.162 -0.986,-4.561 -0.986,-7.189 0,-3.287 0.494,-6.574 1.477,-9.861 0.983,-3.287 2.434,-6.246 4.35,-8.875 1.916,-2.631 4.262,-4.779 7.035,-6.453 2.773,-1.67 5.951,-2.506 9.533,-2.506 2.619,0 4.928,0.439 6.92,1.316 1.992,0.877 3.631,2.109 4.918,3.697 1.285,1.59 2.256,3.465 2.912,5.629 0.654,2.166 0.982,4.561 0.982,7.191 0,3.287 -0.479,6.574 -1.438,9.861 -0.957,3.287 -2.371,6.246 -4.236,8.875 -1.865,2.631 -4.197,4.781 -6.996,6.451 -2.799,1.67 -6.04,2.506 -9.721,2.506 z m 5.597,-35.172 c -1.664,0 -3.127,0.521 -4.387,1.561 -1.264,1.043 -2.322,2.357 -3.178,3.945 -0.857,1.59 -1.502,3.328 -1.928,5.219 -0.432,1.891 -0.645,3.686 -0.645,5.383 0,2.793 0.402,4.945 1.211,6.451 0.807,1.506 2.27,2.26 4.389,2.26 1.662,0 3.125,-0.521 4.385,-1.562 1.262,-1.039 2.32,-2.354 3.18,-3.943 0.855,-1.59 1.5,-3.33 1.928,-5.219 0.428,-1.891 0.643,-3.684 0.643,-5.383 0,-2.795 -0.402,-4.943 -1.209,-6.451 -0.809,-1.507 -2.272,-2.261 -4.389,-2.261 z"
         id="path301"
         inkscape:connector-curvature="0"
         style="fill:#f9d523" />
      <path
         d="m 1462.8419,818.90366 11.727,-1.971 -2.875,12.738 h 14.18 l -2.27,10.023 h -14.104 l -3.328,15.123 c -0.303,1.26 -0.492,2.438 -0.568,3.533 -0.076,1.095 0.049,2.041 0.379,2.836 0.328,0.793 0.895,1.41 1.703,1.848 0.805,0.439 1.914,0.658 3.328,0.658 1.209,0 2.383,-0.123 3.516,-0.371 1.137,-0.246 2.281,-0.588 3.443,-1.027 l 0.832,9.369 c -1.514,0.604 -3.152,1.123 -4.916,1.561 -1.768,0.439 -3.859,0.658 -6.279,0.658 -3.48,0 -6.18,-0.562 -8.096,-1.684 -1.916,-1.123 -3.277,-2.658 -4.084,-4.604 -0.807,-1.943 -1.16,-4.176 -1.059,-6.697 0.1,-2.52 0.453,-5.178 1.059,-7.971 l 7.412,-34.022 z"
         id="path303"
         inkscape:connector-curvature="0"
         style="fill:#f9d523" />
      <path
         d="m 1508.9199,847.58566 c -0.961,2.248 -2.031,4.533 -3.215,6.861 -1.186,2.33 -2.398,4.604 -3.633,6.822 -1.236,2.219 -2.434,4.328 -3.592,6.326 -1.162,2.002 -2.193,3.768 -3.102,5.301 h -8.777 c -0.402,-2.301 -0.818,-5.039 -1.246,-8.217 -0.43,-3.178 -0.846,-6.643 -1.25,-10.396 -0.404,-3.752 -0.77,-7.725 -1.096,-11.916 -0.33,-4.191 -0.566,-8.424 -0.719,-12.695 h 11.045 c 0,1.971 0.012,4.107 0.037,6.408 0.025,2.303 0.076,4.686 0.15,7.15 0.076,2.467 0.189,4.984 0.342,7.561 0.15,2.576 0.352,5.123 0.604,7.643 1.262,-2.301 2.51,-4.697 3.746,-7.191 1.234,-2.492 2.42,-4.984 3.555,-7.479 1.135,-2.492 2.193,-4.943 3.178,-7.354 0.982,-2.41 1.852,-4.656 2.611,-6.738 h 9.379 c 0,3.943 0.062,8.354 0.189,13.23 0.125,4.877 0.441,10.053 0.945,15.531 1.363,-2.465 2.621,-5 3.783,-7.602 1.16,-2.602 2.23,-5.164 3.215,-7.684 0.982,-2.52 1.865,-4.93 2.646,-7.232 0.783,-2.301 1.475,-4.383 2.08,-6.244 h 11.955 c -1.01,2.738 -2.207,5.82 -3.594,9.244 -1.387,3.424 -2.988,7.025 -4.803,10.807 -1.816,3.779 -3.861,7.643 -6.129,11.588 -2.27,3.943 -4.793,7.807 -7.566,11.586 h -8.773 c -0.607,-4.49 -1.061,-8.793 -1.361,-12.902 -0.304,-4.108 -0.505,-8.244 -0.604,-12.408 z"
         id="path305"
         inkscape:connector-curvature="0"
         style="fill:#f9d523" />
      <path
         d="m 1572.2299,854.24166 c -0.707,3.123 -0.908,6.26 -0.605,9.41 0.303,3.15 0.881,5.957 1.74,8.422 l -10.061,1.562 c -0.303,-0.658 -0.582,-1.287 -0.832,-1.891 -0.254,-0.602 -0.506,-1.287 -0.758,-2.055 -1.412,1.262 -2.977,2.301 -4.689,3.123 -1.715,0.822 -3.631,1.232 -5.75,1.232 -2.521,0 -4.678,-0.48 -6.467,-1.438 -1.791,-0.957 -3.254,-2.246 -4.389,-3.861 -1.135,-1.617 -1.955,-3.508 -2.459,-5.672 -0.504,-2.164 -0.756,-4.479 -0.756,-6.943 0,-3.781 0.617,-7.342 1.854,-10.684 1.237,-3.342 2.951,-6.258 5.145,-8.752 2.193,-2.492 4.777,-4.451 7.754,-5.875 2.975,-1.426 6.203,-2.137 9.682,-2.137 0.453,0 1.25,0.027 2.383,0.082 1.135,0.055 2.434,0.178 3.896,0.369 1.463,0.193 3.002,0.508 4.613,0.945 1.615,0.439 3.152,1.041 4.617,1.809 l -4.918,22.354 z m -7.867,-15.121 c -0.656,-0.109 -1.25,-0.191 -1.777,-0.246 -0.531,-0.055 -1.172,-0.082 -1.93,-0.082 -1.715,0 -3.316,0.467 -4.803,1.396 -1.49,0.932 -2.789,2.15 -3.896,3.658 -1.109,1.508 -1.98,3.244 -2.611,5.217 -0.631,1.973 -0.945,4.027 -0.945,6.164 0,2.629 0.404,4.713 1.211,6.246 0.807,1.533 2.293,2.301 4.463,2.301 1.16,0 2.205,-0.246 3.141,-0.74 0.932,-0.492 1.93,-1.314 2.986,-2.465 0.102,-1.369 0.266,-2.809 0.492,-4.314 0.229,-1.506 0.467,-2.889 0.721,-4.15 l 2.948,-12.985 z"
         id="path307"
         inkscape:connector-curvature="0"
         style="fill:#f9d523" />
      <path
         d="m 1606.3549,840.18866 c -1.012,-0.273 -2.006,-0.533 -2.988,-0.779 -0.984,-0.248 -2.436,-0.371 -4.352,-0.371 -0.707,0 -1.486,0.07 -2.344,0.205 -0.857,0.139 -1.562,0.289 -2.119,0.451 l -7.336,33.201 h -11.271 l 9.078,-40.924 c 2.166,-0.768 4.6,-1.492 7.299,-2.178 2.695,-0.686 5.734,-1.027 9.115,-1.027 1.26,0 2.658,0.123 4.199,0.369 1.537,0.246 2.887,0.645 4.045,1.191 l -3.326,9.862 z"
         id="path309"
         inkscape:connector-curvature="0"
         style="fill:#f9d523" />
      <path
         d="m 1605.8419,855.96766 c 0,-3.506 0.566,-6.904 1.701,-10.191 1.135,-3.287 2.734,-6.205 4.803,-8.752 2.069,-2.547 4.578,-4.602 7.527,-6.162 2.951,-1.562 6.215,-2.344 9.799,-2.344 1.762,0 3.402,0.275 4.916,0.822 1.512,0.549 2.836,1.344 3.971,2.383 1.135,1.041 2.016,2.316 2.646,3.822 0.631,1.508 0.947,3.219 0.947,5.137 0,3.068 -0.633,5.67 -1.893,7.807 -1.26,2.135 -3.014,3.875 -5.256,5.217 -2.244,1.344 -4.906,2.316 -7.982,2.918 -3.076,0.604 -6.428,0.904 -10.061,0.904 0.354,2.301 1.123,3.932 2.307,4.891 1.186,0.959 3.064,1.438 5.637,1.438 1.613,0 3.254,-0.15 4.916,-0.453 1.666,-0.299 3.227,-0.752 4.689,-1.355 l 0.834,9.615 c -1.414,0.604 -3.215,1.15 -5.41,1.645 -2.191,0.492 -4.574,0.738 -7.148,0.738 -3.127,0 -5.762,-0.48 -7.904,-1.438 -2.145,-0.957 -3.885,-2.26 -5.219,-3.902 -1.338,-1.645 -2.309,-3.562 -2.914,-5.754 -0.605,-2.192 -0.906,-4.521 -0.906,-6.986 z m 22.011,-17.75 c -2.57,0 -4.828,1 -6.77,2.998 -1.943,2 -3.215,4.643 -3.82,7.932 3.127,-0.109 5.648,-0.398 7.564,-0.863 1.916,-0.465 3.406,-1.027 4.463,-1.686 1.059,-0.658 1.766,-1.369 2.119,-2.137 0.352,-0.766 0.529,-1.533 0.529,-2.301 0,-2.628 -1.36,-3.943 -4.085,-3.943 z"
         id="path311"
         inkscape:connector-curvature="0"
         style="fill:#f9d523" />
      <g
         transform="translate(19.758941,-12.349338)"
         id="g313">
        <polygon
           points="1421.686,852.044 1421.684,852.044 1421.512,852.827 "
           id="polygon315"
           style="fill:#f9d523" />
        <polygon
           points="1427.333,842.021 1425.147,852.044 1434.922,852.044 1437.192,842.021 "
           id="polygon317"
           style="fill:#f15a24" />
        <path
           d="m 1439.651,822.255 c -1.691,-0.52 -3.67,-0.779 -5.939,-0.779 -5.951,0 -10.566,1.59 -13.844,4.766 -3.279,3.178 -5.549,7.67 -6.809,13.477 l -7.865,35.83 c -0.406,1.92 -0.922,3.986 -1.553,6.205 -0.447,1.572 -0.979,3.113 -1.551,4.643 h 11.324 c 1.285,-3.688 2.506,-8.141 3.656,-13.395 l 4.387,-19.93 0.055,-0.244 0.172,-0.783 h 0 l 2.215,-10.023 h -0.023 l 0.453,-2.139 c 0.504,-2.301 1.426,-4.217 2.762,-5.752 1.334,-1.533 3.393,-2.301 6.164,-2.301 1.01,0 2.105,0.123 3.291,0.371 1.186,0.246 2.232,0.615 3.141,1.109 l 3.781,-9.615 c -0.858,-0.44 -2.13,-0.919 -3.819,-1.44 z"
           id="path319"
           inkscape:connector-curvature="0"
           style="fill:#f9d523" />
      </g>
      <g
         transform="translate(19.758941,-12.349338)"
         id="g321">
        <path
           d="m 1363.563,955.714 12.557,-56.949 h 33.967 l -2.42,10.602 H 1385.5 l -2.648,12.162 h 19.594 l -2.344,10.602 h -19.594 l -5.221,23.584 h -11.724 z"
           id="path323"
           inkscape:connector-curvature="0"
           style="fill:#f9d523" />
        <path
           d="m 1432.266,923.007 c -1.01,-0.273 -2.004,-0.533 -2.988,-0.779 -0.984,-0.248 -2.434,-0.371 -4.35,-0.371 -0.707,0 -1.488,0.07 -2.346,0.205 -0.857,0.139 -1.562,0.289 -2.119,0.453 l -7.336,33.199 h -11.271 l 9.078,-40.924 c 2.168,-0.766 4.6,-1.492 7.299,-2.178 2.697,-0.686 5.736,-1.027 9.115,-1.027 1.26,0 2.66,0.123 4.199,0.369 1.537,0.246 2.887,0.645 4.047,1.191 l -3.328,9.862 z"
           id="path325"
           inkscape:connector-curvature="0"
           style="fill:#f9d523" />
        <path
           d="m 1431.752,938.786 c 0,-3.506 0.566,-6.904 1.701,-10.191 1.135,-3.287 2.734,-6.203 4.805,-8.752 2.066,-2.547 4.576,-4.602 7.525,-6.162 2.951,-1.562 6.215,-2.342 9.799,-2.342 1.764,0 3.402,0.273 4.916,0.82 1.514,0.549 2.838,1.344 3.975,2.385 1.133,1.041 2.014,2.314 2.646,3.82 0.629,1.508 0.945,3.219 0.945,5.137 0,3.068 -0.631,5.67 -1.893,7.807 -1.26,2.137 -3.014,3.877 -5.258,5.219 -2.244,1.342 -4.904,2.314 -7.98,2.918 -3.078,0.602 -6.432,0.902 -10.062,0.902 0.354,2.301 1.123,3.932 2.309,4.891 1.184,0.959 3.062,1.438 5.635,1.438 1.615,0 3.254,-0.15 4.916,-0.451 1.666,-0.301 3.229,-0.752 4.691,-1.357 l 0.832,9.615 c -1.412,0.604 -3.215,1.15 -5.408,1.645 -2.193,0.492 -4.576,0.738 -7.148,0.738 -3.127,0 -5.762,-0.48 -7.906,-1.438 -2.144,-0.958 -3.883,-2.26 -5.219,-3.902 -1.338,-1.645 -2.307,-3.561 -2.912,-5.752 -0.608,-2.193 -0.909,-4.523 -0.909,-6.988 z m 22.012,-17.75 c -2.57,0 -4.83,1 -6.768,2.998 -1.943,2.002 -3.215,4.645 -3.822,7.932 3.127,-0.109 5.648,-0.398 7.566,-0.863 1.914,-0.465 3.404,-1.027 4.461,-1.686 1.061,-0.656 1.766,-1.369 2.119,-2.137 0.352,-0.766 0.529,-1.533 0.529,-2.301 10e-4,-2.628 -1.358,-3.943 -4.085,-3.943 z"
           id="path327"
           inkscape:connector-curvature="0"
           style="fill:#f9d523" />
        <path
           d="m 1468.208,938.786 c 0,-3.506 0.566,-6.904 1.701,-10.191 1.135,-3.287 2.734,-6.203 4.803,-8.752 2.068,-2.547 4.58,-4.602 7.527,-6.162 2.951,-1.562 6.217,-2.342 9.799,-2.342 1.764,0 3.402,0.273 4.916,0.82 1.514,0.549 2.836,1.344 3.973,2.385 1.133,1.041 2.014,2.314 2.646,3.82 0.629,1.508 0.945,3.219 0.945,5.137 0,3.068 -0.631,5.67 -1.893,7.807 -1.26,2.137 -3.012,3.877 -5.256,5.219 -2.244,1.342 -4.904,2.314 -7.98,2.918 -3.078,0.602 -6.43,0.902 -10.062,0.902 0.354,2.301 1.123,3.932 2.309,4.891 1.184,0.959 3.062,1.438 5.635,1.438 1.613,0 3.254,-0.15 4.918,-0.451 1.664,-0.301 3.227,-0.752 4.689,-1.357 l 0.832,9.615 c -1.412,0.604 -3.215,1.15 -5.408,1.645 -2.193,0.492 -4.576,0.738 -7.148,0.738 -3.127,0 -5.762,-0.48 -7.904,-1.438 -2.146,-0.957 -3.885,-2.26 -5.221,-3.902 -1.338,-1.645 -2.309,-3.561 -2.914,-5.752 -0.605,-2.191 -0.907,-4.523 -0.907,-6.988 z m 22.013,-17.75 c -2.572,0 -4.83,1 -6.771,2.998 -1.941,2.002 -3.215,4.645 -3.82,7.932 3.127,-0.109 5.648,-0.398 7.566,-0.863 1.914,-0.465 3.404,-1.027 4.461,-1.686 1.061,-0.656 1.766,-1.369 2.119,-2.137 0.352,-0.766 0.531,-1.533 0.531,-2.301 0,-2.628 -1.363,-3.943 -4.086,-3.943 z"
           id="path329"
           inkscape:connector-curvature="0"
           style="fill:#f9d523" />
        <path
           d="m 1561.317,956.864 c -2.676,0 -4.994,-0.438 -6.961,-1.314 -1.967,-0.875 -3.594,-2.107 -4.879,-3.697 -1.287,-1.588 -2.26,-3.465 -2.912,-5.629 -0.656,-2.164 -0.984,-4.562 -0.984,-7.191 0,-3.287 0.492,-6.574 1.475,-9.861 0.984,-3.287 2.434,-6.246 4.352,-8.875 1.914,-2.629 4.26,-4.779 7.035,-6.451 2.771,-1.67 5.949,-2.506 9.531,-2.506 2.621,0 4.928,0.438 6.922,1.314 1.99,0.877 3.629,2.109 4.918,3.697 1.285,1.59 2.254,3.467 2.91,5.629 0.654,2.166 0.984,4.561 0.984,7.191 0,3.287 -0.48,6.574 -1.438,9.861 -0.959,3.287 -2.371,6.246 -4.236,8.875 -1.865,2.631 -4.199,4.781 -6.998,6.451 -2.799,1.67 -6.039,2.506 -9.719,2.506 z m 5.598,-35.172 c -1.666,0 -3.129,0.521 -4.389,1.562 -1.262,1.041 -2.32,2.355 -3.178,3.943 -0.857,1.59 -1.5,3.328 -1.928,5.219 -0.43,1.891 -0.645,3.686 -0.645,5.383 0,2.795 0.404,4.945 1.211,6.451 0.807,1.508 2.27,2.26 4.389,2.26 1.664,0 3.125,-0.521 4.387,-1.562 1.26,-1.039 2.318,-2.354 3.178,-3.943 0.855,-1.588 1.5,-3.328 1.928,-5.219 0.428,-1.891 0.643,-3.684 0.643,-5.383 0,-2.795 -0.402,-4.943 -1.209,-6.451 -0.807,-1.506 -2.272,-2.26 -4.387,-2.26 z"
           id="path331"
           inkscape:connector-curvature="0"
           style="fill:#f9d523" />
        <path
           d="m 1592.299,914.46 c 0.857,-0.273 1.777,-0.588 2.762,-0.945 0.984,-0.355 2.092,-0.684 3.328,-0.984 1.234,-0.301 2.621,-0.547 4.16,-0.74 1.539,-0.191 3.314,-0.287 5.334,-0.287 2.42,0 4.426,0.328 6.014,0.986 1.588,0.656 3.037,1.643 4.35,2.957 1.865,-1.15 3.719,-2.096 5.561,-2.834 1.84,-0.74 3.996,-1.109 6.467,-1.109 2.371,0 4.4,0.342 6.09,1.027 1.69,0.685 3.09,1.67 4.199,2.957 1.109,1.289 1.916,2.822 2.42,4.604 0.504,1.779 0.758,3.738 0.758,5.875 0,0.986 -0.064,2.027 -0.189,3.123 -0.127,1.096 -0.316,2.191 -0.568,3.287 l -5.145,23.338 h -11.271 l 4.994,-22.846 c 0.15,-0.766 0.314,-1.629 0.49,-2.588 0.178,-0.957 0.266,-1.902 0.266,-2.836 0,-1.531 -0.328,-2.861 -0.982,-3.984 -0.656,-1.123 -1.943,-1.686 -3.859,-1.686 -1.059,0 -2.068,0.205 -3.025,0.617 -0.959,0.41 -1.816,0.836 -2.572,1.273 0.102,0.439 0.152,0.85 0.152,1.232 0,0.382 0,0.74 0,1.068 0,0.986 -0.064,2.027 -0.189,3.123 -0.127,1.096 -0.316,2.191 -0.568,3.287 l -5.143,23.338 h -11.271 l 4.992,-22.846 c 0.152,-0.766 0.314,-1.629 0.49,-2.588 0.178,-0.957 0.268,-1.902 0.268,-2.836 0,-1.531 -0.33,-2.861 -0.984,-3.984 -0.656,-1.123 -1.943,-1.686 -3.859,-1.686 -0.807,0 -1.486,0.041 -2.043,0.123 -0.555,0.082 -1.209,0.207 -1.967,0.371 l -7.336,33.445 h -11.271 l 9.147,-41.252 z"
           id="path333"
           inkscape:connector-curvature="0"
           style="fill:#f9d523" />
        <path
           d="m 1711.747,920.952 c 0,5.535 -0.832,10.492 -2.496,14.875 -1.664,4.383 -4.047,8.096 -7.148,11.135 -3.102,3.041 -6.873,5.383 -11.309,7.027 -4.439,1.643 -9.457,2.465 -15.055,2.465 -2.119,0 -4.564,-0.137 -7.338,-0.41 -2.775,-0.275 -5.447,-0.713 -8.02,-1.316 l 12.18,-54.977 c 2.875,-0.602 5.635,-1.027 8.283,-1.273 2.648,-0.246 5.031,-0.369 7.15,-0.369 3.73,0 7.072,0.547 10.021,1.643 2.951,1.096 5.447,2.658 7.49,4.684 2.041,2.027 3.594,4.438 4.652,7.232 1.06,2.792 1.59,5.89 1.59,9.284 z m -37.596,24.49 c 0.553,0.055 1.121,0.096 1.699,0.123 0.58,0.029 1.375,0.041 2.385,0.041 3.277,0 6.24,-0.547 8.887,-1.645 2.65,-1.094 4.893,-2.67 6.734,-4.725 1.842,-2.053 3.266,-4.574 4.273,-7.561 1.007,-2.987 1.514,-6.34 1.514,-10.066 0,-1.918 -0.229,-3.658 -0.682,-5.219 -0.453,-1.561 -1.197,-2.902 -2.23,-4.027 -1.033,-1.121 -2.371,-1.984 -4.01,-2.588 -1.639,-0.604 -3.619,-0.904 -5.939,-0.904 -1.512,0 -3.051,0.084 -4.613,0.248 l -8.018,36.323 z"
           id="path335"
           inkscape:connector-curvature="0"
           style="fill:#f9d523" />
        <path
           d="m 1748.237,937.06 c -0.707,3.123 -0.906,6.26 -0.605,9.41 0.305,3.15 0.883,5.957 1.742,8.424 l -10.062,1.561 c -0.303,-0.658 -0.58,-1.287 -0.832,-1.891 -0.254,-0.602 -0.506,-1.287 -0.758,-2.053 -1.41,1.26 -2.977,2.301 -4.689,3.121 -1.715,0.822 -3.631,1.232 -5.75,1.232 -2.521,0 -4.676,-0.48 -6.467,-1.438 -1.791,-0.958 -3.252,-2.246 -4.389,-3.861 -1.133,-1.617 -1.955,-3.506 -2.459,-5.672 -0.502,-2.162 -0.754,-4.479 -0.754,-6.943 0,-3.781 0.617,-7.342 1.852,-10.684 1.236,-3.342 2.951,-6.258 5.145,-8.752 2.195,-2.492 4.777,-4.449 7.754,-5.875 2.977,-1.424 6.205,-2.137 9.684,-2.137 0.453,0 1.248,0.029 2.383,0.082 1.135,0.055 2.432,0.178 3.895,0.369 1.463,0.193 3.002,0.508 4.615,0.945 1.613,0.439 3.15,1.041 4.615,1.809 l -4.92,22.353 z m -7.867,-15.122 c -0.656,-0.109 -1.248,-0.191 -1.777,-0.246 -0.529,-0.055 -1.172,-0.082 -1.93,-0.082 -1.715,0 -3.316,0.467 -4.803,1.396 -1.488,0.932 -2.789,2.15 -3.896,3.658 -1.109,1.508 -1.98,3.246 -2.609,5.217 -0.633,1.973 -0.947,4.027 -0.947,6.164 0,2.631 0.404,4.713 1.211,6.246 0.807,1.533 2.295,2.301 4.465,2.301 1.158,0 2.203,-0.246 3.139,-0.738 0.932,-0.494 1.93,-1.316 2.988,-2.467 0.102,-1.367 0.264,-2.807 0.49,-4.314 0.229,-1.506 0.467,-2.889 0.721,-4.15 l 2.948,-12.985 z"
           id="path337"
           inkscape:connector-curvature="0"
           style="fill:#f9d523" />
        <path
           d="m 1782.303,912.489 h -0.025 -0.846 c -1.615,5.807 -3.342,11.121 -5.182,15.941 -1.842,4.822 -3.971,9.205 -6.393,13.148 -0.303,-1.971 -0.58,-4.189 -0.832,-6.656 -0.254,-2.465 -0.48,-4.998 -0.68,-7.602 -0.061,-0.752 -0.1,-1.494 -0.154,-2.244 -0.133,-1.844 -0.268,-3.689 -0.377,-5.521 -0.15,-2.574 -0.254,-4.93 -0.301,-7.066 h -11.576 c 0.404,8.547 1.146,16.217 2.232,23.01 1.055,6.607 2.217,12.58 3.488,17.943 -0.15,0.486 -0.299,0.975 -0.461,1.457 -0.434,1.299 -6.732,13.471 -8.043,14.785 l 3.613,0.561 6.447,1.002 c 2.42,-1.973 14.889,-24.49 16.553,-27.449 1.664,-2.957 3.277,-6.066 4.842,-9.326 1.562,-3.26 3.064,-6.697 4.502,-10.314 1.436,-3.615 2.859,-7.506 4.273,-11.668 h -11.08 z"
           id="path339"
           inkscape:connector-curvature="0"
           style="fill:#f9d523" />
      </g>
      <g
         transform="translate(19.758941,-12.349338)"
         id="g341">
        <path
           d="m 1548.948,895.733 h -11.289 l -3.684,16.756 c -0.807,-0.219 -1.602,-0.383 -2.383,-0.494 -0.783,-0.109 -1.627,-0.164 -2.533,-0.164 -3.531,0 -6.785,0.713 -9.76,2.137 -2.977,1.426 -5.547,3.369 -7.717,5.834 -2.168,2.467 -3.869,5.355 -5.105,8.67 -1.236,3.316 -1.854,6.836 -1.854,10.561 0,2.465 0.266,4.781 0.795,6.943 0.529,2.166 1.361,4.057 2.496,5.672 1.135,1.615 2.598,2.889 4.387,3.82 1.791,0.932 3.947,1.396 6.469,1.396 2.119,0 4.047,-0.41 5.787,-1.232 1.74,-0.82 3.314,-1.861 4.729,-3.121 0.252,0.766 0.504,1.451 0.756,2.053 0.252,0.604 0.529,1.232 0.834,1.891 l 10.059,-1.561 c -0.857,-2.467 -1.438,-5.273 -1.738,-8.424 -0.303,-3.15 -0.102,-6.287 0.605,-9.41 l 9.146,-41.327 z m -19.965,39.19 c -0.254,1.262 -0.492,2.645 -0.719,4.15 -0.227,1.508 -0.393,2.947 -0.492,4.314 -1.059,1.15 -2.068,1.973 -3.025,2.467 -0.959,0.492 -2.018,0.738 -3.178,0.738 -2.17,0 -3.668,-0.752 -4.5,-2.26 -0.834,-1.506 -1.25,-3.574 -1.25,-6.205 0,-2.025 0.305,-4.012 0.908,-5.957 0.605,-1.945 1.449,-3.684 2.535,-5.219 1.084,-1.533 2.383,-2.754 3.896,-3.658 1.512,-0.902 3.15,-1.355 4.916,-1.355 0.555,0 1.01,0 1.363,0 0.352,0 0.641,0.014 0.869,0.041 0.227,0.029 0.453,0.07 0.68,0.125 0.229,0.055 0.492,0.109 0.795,0.164 l -2.798,12.655 z"
           id="path343"
           inkscape:connector-curvature="0"
           style="fill:#f9d523" />
      </g>
      <g
         transform="translate(19.758941,-12.349338)"
         id="g345">
        <path
           d="m 1177.245,890.374 c 7.564,-18.068 28.518,-26.512 46.803,-18.855 4.268,1.783 8.002,4.299 11.141,7.32 -3.705,-4.115 -8.361,-7.502 -13.818,-9.789 -19.541,-8.18 -41.934,0.844 -50.018,20.154 -4.324,10.33 -4.571,23.145 -0.488,33.371 2.1,-1.572 4.279,-3.146 6.535,-4.711 -3.636,-8.496 -3.983,-18.345 -0.155,-27.49 z"
           id="path347"
           inkscape:connector-curvature="0"
           style="fill:none" />
        <path
           d="m 1210.524,875.929 c -16.432,0 -29.799,13.367 -29.799,29.799 0,3.123 0.492,6.129 1.39,8.959 15.12,-9.9 33.333,-19.043 53.989,-24.256 -0.01,0 -0.015,0 -0.021,-0.002 -5.215,-8.678 -14.719,-14.5 -25.559,-14.5 z"
           id="path349"
           inkscape:connector-curvature="0"
           style="fill:none" />
        <path
           d="m 1269.696,895.491 c 0.391,2.279 0.67,4.596 0.797,6.953 -6.412,0.486 -9.91,-0.643 -9.91,-0.643 -2.826,-3.178 -6.027,-5.486 -9.271,-7.166 -2.14,0.225 -4.306,0.551 -6.483,0.988 -28.584,5.723 -52.715,19.594 -70.668,33.189 0.666,0.986 1.367,1.945 2.143,2.834 -3.617,6.422 -5.184,10.254 -7.91,16.875 -2.753,-2.711 -5.245,-5.686 -7.438,-8.881 -7.471,6.619 -13.18,12.559 -16.867,16.652 h 182.908 c -5.583,-15.414 -22.7,-53.537 -57.301,-60.801 z"
           id="path351"
           inkscape:connector-curvature="0"
           style="fill:none" />
        <linearGradient
           id="linearGradient3285"
           gradientUnits="userSpaceOnUse"
           x1="1150.4614"
           y1="938.66803"
           x2="1270.4927"
           y2="938.66803">
          <stop
             offset="0"
             style="stop-color:#F7EC30"
             id="stop3287" />
          <stop
             offset="1"
             style="stop-color:#FAAE40"
             id="stop3289" />
        </linearGradient>
        <path
           d="m 1176.303,931.647 c -0.775,-0.889 -1.477,-1.848 -2.143,-2.834 -4.87,3.686 -9.279,7.35 -13.205,10.828 2.192,3.195 4.685,6.17 7.438,8.881 2.727,-6.621 4.293,-10.453 7.91,-16.875 z"
           id="path358"
           inkscape:connector-curvature="0"
           style="fill:url(#linearGradient24732)" />
        <path
           d="m 1171.352,889.204 c 8.084,-19.311 30.477,-28.334 50.018,-20.154 5.457,2.287 10.113,5.674 13.818,9.789 -3.139,-3.021 -6.873,-5.537 -11.141,-7.32 -18.285,-7.656 -39.238,0.787 -46.803,18.855 -3.828,9.145 -3.48,18.994 0.154,27.49 1.537,-1.064 3.108,-2.125 4.716,-3.178 -0.897,-2.83 -1.39,-5.836 -1.39,-8.959 0,-16.432 13.367,-29.799 29.799,-29.799 10.84,0 20.344,5.822 25.559,14.5 0.01,0.002 0.015,0.002 0.021,0.002 2.418,-0.609 4.866,-1.172 7.351,-1.67 4.903,-0.982 9.768,-1.48 14.457,-1.48 3.478,0 6.815,0.273 10.022,0.77 -7.547,-24.543 -30.395,-42.385 -57.41,-42.385 -33.172,0 -60.062,26.891 -60.062,60.062 0,10.051 2.485,19.512 6.85,27.832 4.051,-3.543 8.577,-7.258 13.553,-10.984 -4.083,-10.226 -3.836,-23.041 0.488,-33.371 z"
           id="path360"
           inkscape:connector-curvature="0"
           style="fill:#f9d523" />
        <linearGradient
           id="linearGradient3293"
           gradientUnits="userSpaceOnUse"
           x1="1150.4614"
           y1="898.42291"
           x2="1270.4927"
           y2="898.42291">
          <stop
             offset="0"
             style="stop-color:#F7EC30"
             id="stop3295" />
          <stop
             offset="1"
             style="stop-color:#FAAE40"
             id="stop3297" />
        </linearGradient>
        <path
           d="m 1260.583,901.802 c 0,0 3.498,1.129 9.91,0.643 -0.127,-2.357 -0.406,-4.674 -0.797,-6.953 -3.725,-0.781 -7.648,-1.211 -11.784,-1.211 -2.16,0 -4.366,0.121 -6.6,0.355 3.243,1.679 6.444,3.988 9.271,7.166 z"
           id="path367"
           inkscape:connector-curvature="0"
           style="fill:url(#linearGradient24734)" />
        <g
           id="g369">
          <path
             d="m 1269.696,895.491 c -3.725,-0.781 -7.648,-1.211 -11.784,-1.211 -2.16,0 -4.366,0.121 -6.6,0.355 -2.14,0.225 -4.306,0.551 -6.483,0.988 -28.584,5.723 -52.715,19.594 -70.668,33.189 -4.87,3.686 -9.279,7.35 -13.205,10.828 -7.471,6.619 -13.18,12.559 -16.867,16.652 h 182.908 c -5.583,-15.414 -22.7,-53.537 -57.301,-60.801 z"
             id="path371"
             inkscape:connector-curvature="0"
             style="fill:#39b54a" />
        </g>
      </g>
    </g>
  </g>
</svg>
