<?xml version="1.0" standalone="no"?>
<!DOCTYPE svg PUBLIC "-//W3C//DTD SVG 20010904//EN"
"http://www.w3.org/TR/2001/REC-SVG-20010904/DTD/svg10.dtd">
<svg
   xml:space="preserve"
   width="233.144"
   height="290.627"
   viewBox="0 0 233.144 290.627"
   style="overflow:visible; enable-background:new 0 0 233.144 290.627"
   sodipodi:docname="Logo_PSL_BA_Volume.svg"
   sodipodi:docbase="./"
   id="svg19"
   xmlns="http://www.w3.org/2000/svg"
   xmlns:sodipodi="http://sodipodi.sourceforge.net/DTD/sodipodi-0.dtd"
   xmlns:xlink="http://www.w3.org/1999/xlink">
  <defs
     id="defs32" />
  <sodipodi:namedview
     id="base" />
  <g
     id="g66">
    <g
       id="g89"
       transform="matrix(0.933351,0,0,0.933351,7.0004,8.68737)"
       style="font-size:12.000; overflow:visible; enable-background:new 0 0 233.144 290.627; ">
      <g
         id="g90">
        <path
           d="M5.231,277.872h2.184v-7.098c1.144,1.404,2.418,2.028,4.186,2.028c3.51,0,5.824-2.834,5.824-7.177       c0-4.576-2.236-7.436-5.85-7.436c-1.846,0-3.328,0.832-4.342,2.443v-2.053H5.231V277.872z M11.211,260.219       c2.392,0,3.952,2.106,3.952,5.356c0,3.094-1.586,5.199-3.952,5.199c-2.288,0-3.796-2.08-3.796-5.277       C7.416,262.298,8.924,260.219,11.211,260.219z M20.078,258.581v13.623h2.184v-7.072c0-1.949,0.494-3.223,1.534-3.977       c0.676-0.494,1.326-0.65,2.834-0.677v-2.21c-0.364-0.053-0.546-0.078-0.832-0.078c-1.404,0-2.47,0.832-3.718,2.859v-2.469       H20.078z M34.014,258.19c-3.822,0-6.136,2.73-6.136,7.307s2.288,7.306,6.162,7.306c3.822,0,6.162-2.729,6.162-7.202       C40.202,260.895,37.939,258.19,34.014,258.19z M34.04,260.192c2.444,0,3.9,2.002,3.9,5.383c0,3.197-1.508,5.225-3.9,5.225       c-2.418,0-3.9-2.002-3.9-5.303C30.14,262.221,31.622,260.192,34.04,260.192z M43.218,258.581v15.6       c0,1.352-0.442,1.794-1.768,1.794c-0.078,0-0.078,0-0.52-0.026v1.846c0.26,0.053,0.39,0.078,0.728,0.078       c2.444,0,3.718-0.988,3.718-2.834v-16.457H43.218z M45.375,253.251h-2.158v2.729h2.158V253.251z M60.508,266.12       c0-2.08-0.156-3.328-0.546-4.342c-0.884-2.236-2.964-3.588-5.512-3.588c-3.796,0-6.24,2.912-6.24,7.385       c0,4.471,2.366,7.228,6.188,7.228c3.12,0,5.278-1.769,5.824-4.731h-2.184c-0.598,1.793-1.82,2.729-3.562,2.729       c-1.378,0-2.548-0.623-3.276-1.768c-0.52-0.779-0.702-1.56-0.728-2.912H60.508z M50.523,264.353       c0.182-2.521,1.716-4.16,3.9-4.16c2.132,0,3.77,1.768,3.77,4.004c0,0.053,0,0.104-0.026,0.156H50.523z M68.229,258.581h-2.236       v-3.744h-2.158v3.744H61.99v1.768h1.846v10.296c0,1.378,0.936,2.158,2.626,2.158c0.52,0,1.04-0.052,1.768-0.183v-1.82       c-0.286,0.078-0.624,0.105-1.04,0.105c-0.936,0-1.196-0.261-1.196-1.223v-9.334h2.236V258.581z M75.926,258.19       c-3.822,0-6.136,2.73-6.136,7.307s2.288,7.306,6.162,7.306c3.822,0,6.162-2.729,6.162-7.202       C82.114,260.895,79.852,258.19,75.926,258.19z M75.952,260.192c2.444,0,3.9,2.002,3.9,5.383c0,3.197-1.508,5.225-3.9,5.225       c-2.418,0-3.9-2.002-3.9-5.303C72.052,262.221,73.534,260.192,75.952,260.192z"
           id="path91" />
        <path
           style="fill:#CC0000;"
           d="M94.57,262.441c-0.026-2.679-1.794-4.187-4.94-4.187c-3.172,0-5.226,1.639-5.226,4.16       c0,2.133,1.092,3.146,4.316,3.926l2.028,0.494c1.508,0.364,2.106,0.91,2.106,1.898c0,1.273-1.274,2.132-3.172,2.132       c-1.17,0-2.158-0.338-2.704-0.91c-0.338-0.39-0.494-0.78-0.624-1.741h-2.288c0.104,3.146,1.872,4.653,5.434,4.653       c3.432,0,5.616-1.69,5.616-4.315c0-2.028-1.144-3.146-3.848-3.797l-2.08-0.494c-1.768-0.416-2.522-0.987-2.522-1.949       c0-1.248,1.118-2.055,2.886-2.055c1.742,0,2.678,0.754,2.73,2.185H94.57z M103.254,258.255c-3.822,0-6.136,2.73-6.136,7.307       s2.288,7.306,6.162,7.306c3.822,0,6.162-2.729,6.162-7.202C109.442,260.96,107.18,258.255,103.254,258.255z M103.28,260.257       c2.444,0,3.9,2.002,3.9,5.383c0,3.197-1.508,5.226-3.9,5.226c-2.418,0-3.9-2.002-3.9-5.304       C99.38,262.285,100.862,260.257,103.28,260.257z M117.346,258.646h-2.261v-2.133c0-0.91,0.52-1.377,1.508-1.377       c0.182,0,0.26,0,0.753,0.025v-1.794c-0.493-0.104-0.779-0.13-1.221-0.13c-2.002,0-3.198,1.145-3.198,3.094v2.314h-1.82v1.768       h1.82v11.855h2.158v-11.855h2.261V258.646z M124.471,258.646h-2.236v-3.744h-2.158v3.744h-1.846v1.768h1.846v10.297       c0,1.377,0.936,2.157,2.626,2.157c0.521,0,1.04-0.052,1.769-0.183v-1.819c-0.286,0.078-0.625,0.104-1.041,0.104       c-0.936,0-1.195-0.26-1.195-1.223v-9.334h2.236V258.646z M139.498,272.269l4.004-13.623h-2.443l-2.704,10.607l-2.679-10.607       h-2.651l-2.601,10.607l-2.781-10.607h-2.393l3.952,13.623h2.444l2.626-10.686l2.756,10.686H139.498z M157.776,270.995       c-0.233,0.053-0.338,0.053-0.468,0.053c-0.754,0-1.17-0.391-1.17-1.066v-8.008c0-2.418-1.769-3.719-5.122-3.719       c-1.976,0-3.614,0.572-4.524,1.586c-0.624,0.703-0.884,1.482-0.936,2.834h2.184c0.182-1.664,1.17-2.418,3.198-2.418       c1.95,0,3.042,0.729,3.042,2.028v0.571c0,0.91-0.546,1.301-2.262,1.509c-3.068,0.39-3.537,0.494-4.368,0.832       c-1.587,0.649-2.392,1.872-2.392,3.64c0,2.471,1.715,4.03,4.471,4.03c1.717,0,3.095-0.599,4.629-2.002       c0.156,1.378,0.832,2.002,2.236,2.002c0.441,0,0.779-0.052,1.481-0.233V270.995z M153.98,267.979       c0,0.728-0.208,1.17-0.857,1.768c-0.885,0.807-1.951,1.223-3.225,1.223c-1.689,0-2.678-0.807-2.678-2.185       c0-1.431,0.961-2.157,3.275-2.496c2.288-0.312,2.756-0.416,3.484-0.754V267.979z M160.116,258.646v13.623h2.185v-7.071       c0-1.95,0.494-3.224,1.533-3.978c0.676-0.494,1.326-0.65,2.834-0.676v-2.211c-0.363-0.052-0.545-0.078-0.832-0.078       c-1.404,0-2.47,0.832-3.718,2.86v-2.47H160.116z M180.318,266.185c0-2.08-0.156-3.328-0.546-4.342       c-0.884-2.236-2.964-3.588-5.513-3.588c-3.795,0-6.239,2.912-6.239,7.385c0,4.472,2.366,7.228,6.188,7.228       c3.119,0,5.277-1.769,5.823-4.731h-2.185c-0.598,1.793-1.819,2.729-3.562,2.729c-1.378,0-2.548-0.624-3.276-1.769       c-0.52-0.779-0.701-1.56-0.728-2.912H180.318z M170.334,264.417c0.183-2.521,1.717-4.16,3.9-4.16       c2.132,0,3.77,1.769,3.77,4.004c0,0.053,0,0.104-0.025,0.156H170.334z"
           id="path92" />
        <path
           d="M185.323,253.218h-2.185v18.954h2.185V253.218z M191.043,258.548h-2.158v13.624h2.158V258.548z M191.043,253.218       h-2.184v2.73h2.184V253.218z M200.325,272.172l5.226-13.624h-2.443l-3.848,11.051l-3.641-11.051h-2.443l4.783,13.624H200.325z        M207.709,258.548v13.624h2.185v-7.071c0-1.951,0.493-3.225,1.534-3.979c0.676-0.494,1.326-0.65,2.834-0.676v-2.211       c-0.364-0.051-0.547-0.077-0.832-0.077c-1.404,0-2.471,0.831-3.719,2.86v-2.471H207.709z M227.911,266.088       c0-2.08-0.155-3.327-0.546-4.342c-0.884-2.235-2.964-3.588-5.512-3.588c-3.797,0-6.24,2.911-6.24,7.384       s2.366,7.229,6.188,7.229c3.121,0,5.279-1.769,5.824-4.732h-2.184c-0.598,1.794-1.82,2.73-3.562,2.73       c-1.377,0-2.547-0.625-3.275-1.769c-0.52-0.78-0.702-1.56-0.729-2.912H227.911z M217.928,264.319       c0.182-2.521,1.716-4.159,3.899-4.159c2.132,0,3.771,1.769,3.771,4.004c0,0.052,0,0.104-0.026,0.155H217.928z"
           id="path93" />
      </g>
      <path
         d="M5.231,290.627h5.223c1.095,0,1.905-0.286,2.524-0.921c0.572-0.572,0.889-1.357,0.889-2.218      c0-1.327-0.635-2.128-2.111-2.671c1.048-0.467,1.604-1.282,1.604-2.398c0-0.801-0.318-1.51-0.921-2.022      c-0.603-0.528-1.397-0.77-2.508-0.77H5.231V290.627z M6.708,284.365v-3.501h2.857c0.825,0,1.286,0.105,1.683,0.393      c0.413,0.302,0.635,0.754,0.635,1.357c0,0.589-0.222,1.057-0.635,1.358c-0.397,0.286-0.857,0.393-1.683,0.393H6.708z       M6.708,289.39v-3.787h3.604c0.714,0,1.19,0.166,1.54,0.527c0.349,0.348,0.54,0.83,0.54,1.373c0,0.529-0.19,1.012-0.54,1.359      c-0.349,0.361-0.825,0.527-1.54,0.527H6.708z M66.219,287.323l1.191,3.304h1.651l-4.064-11h-1.905l-4.127,11h1.572l1.222-3.304      H66.219z M65.806,286.146h-3.683l1.905-5.01L65.806,286.146z M122.158,285.618v5.009h1.477v-11h-1.477v4.753h-5.952v-4.753      h-1.476v11h1.492v-5.009H122.158z M172.082,279.627h-1.492v11h1.492V279.627z M225.07,287.323l1.189,3.304h1.651l-4.063-11      h-1.905l-4.127,11h1.571l1.223-3.304H225.07z M224.657,286.146h-3.683l1.904-5.01L224.657,286.146z"
         id="path94" />
    </g>
    <g
       id="g57">
      <g
         id="g50">
        <g
           id="g45">
          <path
             nodetypes="cccccccccsccsccssscccssssscsssssccc"
             style="font-size:12.000; fill:#cc0000; overflow:visible; enable-background:new 0 0 233.144 290.627; "
             d="M12.71,82.25      c-23.149,56.11-8.553,118.309,49.445,150.255c1.048-0.989,4.338-3.534,8.77-6.406c2.197,3.51,2.333-2.659,5.236,1.046      c3.151-1.871,8.968-7.017,12.192-6.044c5.706-3.458,8.953-9.193,14.966-8.536c3.79-4.68,7.431-6.309,10.858-8.254      c3.595,0.504,8.189,0.238,12.412,2.201c4.202-1.167,9.6,4.984,13.043,3.667c0.734,5.374,4.455,10.708,7.554,13.005      c1.144,1.02,2.815,1.746,5.322,2.799c-1.554-1.967-1.712-3.1-1.845-4.304c0.635,1.647,1.634,2.806,3.191,3.572      c2.926,1.345,5.994,1.702,8.994,2.323c-0.995-3.571,4.224-9.996,4.345-16.32c6.608,0.541,12.832-4.047,15.565-9.455      c9.854-19.084,2.15-24.537,1.209-30.576c-0.709-3.759-2.274-11.099-4.234-20.037c-1.958-8.938-4.07-35.732-6.353-45.881      c0.854-3.303-1.752-13.064-5.159-16.051c-2.013-3.918-4.077-7.417-4.226-8.089c5.466-2.809,16.755-6.695,12.585-24.558      c-3.275-13.719-25.188-19.096-27.614-16.886c-1.886,2.243,12.647,8.502,15.456,14.709c2.263,4.546-0.167,9.699-2.871,10.305      c-2.705,0.607-10.445-3.842-13.531-4.88c-6.383-2.359-9.777,2.731-10.522,4.236c-5.835-3.642-6.655-7.089-21.583-2.639      c-9.919,2.834-17.282,14.772-22.458,12.289c-5.176-2.483-6.659-6.25-7.919-11.804c-1.375-8.26,4.457-17.525,2.864-19.137      c-2.142-1.687-13.553,6.896-14.489,21.294c-0.525,8.923,2.645,17.716,7.965,23.038c-18.992,0.636-35.583,3.663-46.213,2.683      C26.707,84.302,16.517,81.541,12.71,82.25z"
             id="path97"
             transform="matrix(0.933351,0,0,0.933351,7.0004,8.68737)" />
          <path
             style="font-size:12.000; fill:#dd2e26; fill-rule:evenodd; fill-opacity:1; overflow:visible; enable-background:new 0 0 233.144 290.627; stroke-linejoin:miter; stroke-linecap:butt; "
             d="M 24.51072 161.0703 C 27.54292 167.2655 34.79773 167.8956 34.01487 159.5697 C 31.38054 136.8728 36.10335 124.7392 43.01886 118.5518 C 51.99537 111.0621 67.86388 109.7991 81.93047 104.4555 C 98.72009 97.76732 113.3941 81.88388 118.7630 77.51557 C 123.9701 72.79374 131.0287 72.91968 127.4120 68.92474 C 124.4069 66.02101 116.9886 69.05633 112.2739 71.54217 C 107.5593 74.02804 101.6559 81.30219 95.37304 79.99188 C 92.56631 79.90676 93.02094 80.71698 91.96767 84.73067 C 91.34975 89.21506 73.39405 91.71620 70.79580 92.22243 C 57.24273 95.51536 42.06516 94.58854 34.01492 93.54083 C 18.98507 90.81990 16.33391 143.3423 24.51072 161.0703 z "
             id="path99"
             sodipodi:nodetypes="csssssssssss"
             transform="matrix(1.0155,0,0,1.0155,-3.03039,3.09969)" />
          <path
             style="font-size:12.000; fill:#dd2e26; fill-rule:evenodd; stroke-width:1; fill-opacity:1; overflow:visible; enable-background:new 0 0 233.144 290.627; stroke-linejoin:miter; stroke-linecap:butt; "
             d="M 148.5648 69.03015 C 148.5648 70.68773 146.4969 71.03105 144.5631 71.03105 C 142.6293 71.03105 140.0612 71.18795 140.0612 69.53037 C 140.0612 67.87281 141.6289 66.52906 143.5627 66.52906 C 145.4965 66.52906 148.5648 67.37259 148.5648 69.03015 z "
             id="path100"
             sodipodi:nodetypes="ccccc"
             transform="matrix(1.0155,0,0,1.0155,-3.03039,3.09969)" />
          <path
             nodetypes="cccccccccsccsccssscccssssscsssssccc"
             style="font-size:12.000; fill:#ad0000; overflow:visible; enable-background:new 0 0 233.144 290.627; fill-opacity:1; "
             d="M 62.15500 232.5050 C 63.20300 231.5160 66.49300 228.9710 70.92500 226.0990 C 73.12200 229.6090 73.25800 223.4400 76.16100 227.1450 C 79.31200 225.2740 85.12901 220.1280 88.35300 221.1010 C 94.05901 217.6430 97.30600 211.9080 103.3190 212.5650 C 107.1090 207.8850 110.7500 206.2560 114.1770 204.3110 C 117.7720 204.8150 122.3660 204.5490 126.5890 206.5120 C 130.7910 205.3450 136.1890 211.4960 139.6320 210.1790 C 140.3660 215.5530 144.0870 220.8870 147.1860 223.1840 C 148.3300 224.2040 150.0010 224.9300 152.5080 225.9830 C 150.9540 224.0160 150.7960 222.8830 150.6630 221.6790 C 151.2980 223.3260 152.2970 224.4850 153.8540 225.2510 C 156.7800 226.5960 159.8480 226.9530 162.8480 227.5740 C 161.8530 224.0030 167.0720 217.5780 167.1930 211.2540 C 173.8010 211.7950 180.0250 207.2070 182.7580 201.7990 C 192.6120 182.7150 184.9080 177.2620 183.9670 171.2230 C 183.2580 167.4640 181.6930 160.1240 179.7330 151.1860 C 177.7750 142.2480 175.6630 115.4540 173.3800 105.3050 C 174.2340 102.0020 171.6280 92.24100 168.2210 89.25401 C 166.2080 85.33601 164.1440 81.83701 163.9950 81.16499 C 169.4610 78.35601 180.7500 74.47001 176.5800 56.60700 C 176.0030 68.78889 168.6593 76.36230 156.5204 76.95353 C 161.6492 91.06775 165.9051 106.8325 165.5011 121.8802 C 164.6800 134.5061 164.0025 147.1685 166.8019 159.7872 C 170.0397 171.9501 175.0107 187.6988 163.3286 194.5694 C 155.2098 199.0270 144.3216 193.7652 138.5713 191.4700 C 128.7779 187.1562 117.6841 187.3361 111.3901 189.5126 C 100.4745 193.7550 78.67860 207.9431 66.58110 210.4274 C 54.40037 212.3855 32.39368 202.8082 14.19880 183.4237 C 21.84544 196.1737 40.84991 217.2866 62.15500 232.5050 z "
             id="path101"
             transform="matrix(0.933351,0,0,0.933351,7.0004,8.68737)"
             sodipodi:nodetypes="cccccccccsccsccssscccssssscsssssccc" />
        </g>
        <path
           d="M12.248,82.06c-11.626,28.181-13.659,58.199-5.724,84.524c8.478,28.123,27.631,51.069,55.391,66.359l0.319,0.177      l0.265-0.251c0.931-0.879,4.116-3.38,8.699-6.35l-0.696-0.154c0.535,0.854,1.034,1.284,1.568,1.351      c0.634,0.078,1.085-0.354,1.483-0.736c0.37-0.354,0.633-0.586,0.917-0.565c0.234,0.017,0.649,0.21,1.299,1.04l0.271,0.346      l0.378-0.225c0.791-0.47,1.748-1.143,2.761-1.854c2.884-2.027,6.833-4.804,9.032-4.141l0.213,0.064l0.19-0.115      c1.94-1.177,3.574-2.587,5.154-3.951c3.063-2.646,5.709-4.93,9.499-4.516l0.271,0.029l0.172-0.212      c3.244-4.006,6.368-5.729,9.388-7.395l1.328-0.739l-0.316,0.061c0.996,0.14,2.05,0.22,3.166,0.305      c2.866,0.218,6.115,0.465,9.104,1.854l0.167,0.078l0.178-0.05c1.949-0.541,4.299,0.711,6.571,1.921      c2.373,1.265,4.615,2.459,6.517,1.731l-0.674-0.399c0.75,5.488,4.553,10.969,7.751,13.339c1.162,1.039,2.82,1.764,5.427,2.858      l1.788,0.751l-1.202-1.521c-1.504-1.903-1.618-2.945-1.74-4.049l-0.964,0.234c0.697,1.81,1.79,3.03,3.438,3.841      c2.367,1.089,4.817,1.548,7.188,1.991c0.633,0.118,1.288,0.241,1.926,0.373l0.804,0.167l-0.221-0.79      c-0.448-1.611,0.556-4,1.719-6.766c1.21-2.878,2.582-6.141,2.645-9.411l-0.541,0.488c7.021,0.575,13.39-4.458,16.053-9.728      c7.683-14.88,4.778-21.729,2.658-26.73c-0.641-1.51-1.193-2.814-1.401-4.148c-0.654-3.467-2.079-10.213-4.24-20.067      c-0.929-4.241-1.888-12.478-2.902-21.199c-1.107-9.515-2.252-19.354-3.451-24.685l-0.003,0.235      c0.871-3.371-1.637-13.329-5.314-16.552l0.115,0.147c-0.858-1.672-1.741-3.294-2.45-4.598c-0.854-1.57-1.661-3.053-1.731-3.37      l-0.26,0.553c0.411-0.211,0.856-0.429,1.329-0.66c5.781-2.829,15.458-7.562,11.515-24.457      c-2.021-8.466-11.13-14.067-18.98-16.485c-3.785-1.167-8.179-1.822-9.458-0.657l-0.024,0.022l-0.021,0.025      c-0.226,0.268-0.32,0.594-0.274,0.944c0.171,1.292,2.227,2.785,5.847,5.312c3.743,2.613,8.401,5.866,9.812,8.981      c1.105,2.222,1.134,4.856,0.083,7.062c-0.655,1.376-1.63,2.329-2.608,2.549c-1.688,0.379-6.037-1.64-9.213-3.114      c-1.638-0.76-3.052-1.417-4.05-1.752c-5.941-2.197-9.793,1.787-11.13,4.488l0.713-0.203c-0.913-0.57-1.694-1.13-2.45-1.671      c-4.063-2.912-6.748-4.836-19.541-1.022c-4.751,1.357-8.864,4.711-12.493,7.67c-3.834,3.126-7.146,5.827-9.605,4.646      c-4.787-2.296-6.331-5.663-7.647-11.464c-0.772-4.639,0.836-9.717,2.011-13.424c0.965-3.047,1.603-5.061,0.721-5.954      l-0.021-0.022l-0.024-0.019c-0.587-0.462-1.543-0.418-2.767,0.126c-4.623,2.061-11.803,10.329-12.531,21.528      c-0.525,8.92,2.583,17.895,8.11,23.423l0.337-0.853c-8.195,0.274-16.034,1.001-22.95,1.643      c-9.227,0.856-17.195,1.595-23.201,1.042l0.216,0.072c-8.935-5.498-19.266-8.384-23.31-7.63l-0.267,0.05L12.248,82.06z       M35.62,90.312c6.098,0.562,14.109-0.181,23.385-1.042c6.902-0.64,14.725-1.366,22.891-1.64l1.151-0.039l-0.814-0.814      c-5.332-5.333-8.328-14.014-7.819-22.655c0.769-11.829,8.521-19.152,11.94-20.676c0.973-0.434,1.545-0.408,1.74-0.255      l-0.046-0.041c0.458,0.463-0.265,2.743-0.963,4.948c-1.205,3.805-2.855,9.015-2.039,13.919c1.15,5.072,2.556,9.468,8.196,12.173      c3.032,1.455,6.571-1.431,10.669-4.773c3.555-2.898,7.583-6.183,12.142-7.485c12.328-3.675,14.718-1.962,18.677,0.875      c0.769,0.551,1.563,1.121,2.504,1.708l0.468,0.292l0.245-0.495c0.327-0.662,3.389-6.396,9.9-3.989      c0.96,0.323,2.418,1,3.961,1.716c3.673,1.705,7.835,3.637,9.854,3.183c1.275-0.286,2.507-1.443,3.293-3.095      c1.181-2.482,1.149-5.443-0.084-7.921c-1.515-3.349-6.298-6.689-10.142-9.372c-2.608-1.822-5.306-3.705-5.427-4.624      c-0.01-0.072,0.003-0.116,0.048-0.169l-0.046,0.048c0.576-0.525,3.674-0.611,8.49,0.873c7.586,2.337,16.378,7.705,18.301,15.76      c3.762,16.116-5.11,20.456-10.98,23.328c-0.477,0.233-0.927,0.454-1.347,0.669l-0.343,0.176l0.083,0.376      c0.097,0.436,0.662,1.486,1.829,3.632c0.707,1.299,1.587,2.916,2.44,4.577l0.043,0.084l0.071,0.063      c3.312,2.902,5.782,12.542,5.005,15.55l-0.03,0.117l0.026,0.118c1.188,5.279,2.329,15.092,3.434,24.581      c1.018,8.747,1.979,17.008,2.919,21.298c2.158,9.844,3.582,16.581,4.231,20.022c0.225,1.44,0.827,2.863,1.466,4.369      c2.157,5.087,4.842,11.418-2.628,25.885c-2.515,4.975-8.5,9.725-15.08,9.187l-0.53-0.044l-0.011,0.532      c-0.059,3.079-1.392,6.248-2.566,9.043c-1.235,2.938-2.302,5.476-1.76,7.421l0.583-0.623c-0.647-0.135-1.308-0.258-1.945-0.377      c-2.31-0.433-4.699-0.881-6.941-1.911c-1.396-0.688-2.332-1.737-2.934-3.298l-0.964,0.234c0.126,1.14,0.269,2.431,1.949,4.559      l0.586-0.771c-2.511-1.055-4.104-1.75-5.183-2.711c-3.069-2.277-6.679-7.482-7.392-12.699l-0.085-0.625l-0.589,0.226      c-1.476,0.564-3.522-0.526-5.689-1.681c-2.445-1.303-4.975-2.649-7.309-2.001l0.345,0.028c-3.154-1.467-6.499-1.721-9.45-1.945      c-1.1-0.084-2.139-0.163-3.103-0.298l-0.166-0.023c-0.003,0.002-0.15,0.084-0.15,0.084l-1.317,0.733      c-3.104,1.712-6.315,3.482-9.683,7.641l0.443-0.183c-4.222-0.462-7.155,2.071-10.26,4.753c-1.549,1.337-3.15,2.72-5.02,3.853      l0.404-0.051c-2.665-0.804-6.674,2.015-9.896,4.279c-0.997,0.701-1.938,1.363-2.696,1.813l0.649,0.121      c-0.723-0.923-1.364-1.374-2.015-1.421c-0.748-0.053-1.264,0.443-1.68,0.842c-0.237,0.228-0.506,0.485-0.667,0.466      c-0.073-0.01-0.35-0.101-0.843-0.89l-0.27-0.431l-0.426,0.276c-4.136,2.681-7.642,5.33-8.841,6.463l0.584-0.074      c-27.526-15.162-46.515-37.906-54.916-65.773c-7.869-26.105-5.848-55.885,5.691-83.854l-0.371,0.301      c3.78-0.706,13.993,2.201,22.602,7.498l0.1,0.062L35.62,90.312z"
           id="path98"
           transform="matrix(0.933351,0,0,0.933351,7.0004,8.68737)"
           style="font-size:12.000; overflow:visible; enable-background:new 0 0 233.144 290.627; " />
      </g>
      <path
         id="path102"
         nodetypes="csssssccssssscc"
         d="M98.694,8.997C78.751,11.451,59.548,26.104,45.66,40.445     C4.035,83.429-11.669,148.36,26.015,198.509c44.867,59.71,127.056,55.518,173.923,0.831     c47.81-55.787,38.839-141.121-32.98-165.262c-51.373-17.27-116.133,4.414-138.221,62.219c-3.306,8.652-3.501,16.55-2.349,25.855     l-9.281-1.002c-0.402-9.974,0.44-18.433,4.411-27.419c26.235-59.362,92.973-82.659,147.694-63.751     c73.938,25.546,82.309,112.958,33.861,171.17c-48.652,58.463-135.901,62.445-182.083-1.607     C-16.167,148.005-0.423,82.454,39.65,36.842C54.66,19.758,72.037,8.218,92.363,0L98.694,8.997z"
         transform="matrix(0.933351,0,0,0.933351,7.0004,8.68737)"
         style="font-size:12.000; overflow:visible; enable-background:new 0 0 233.144 290.627; " />
    </g>
  </g>
</svg>
