<?xml version="1.0" encoding="UTF-8" standalone="no"?>
<!-- Created with Inkscape (http://www.inkscape.org/) -->
<svg xmlns:dc="http://purl.org/dc/elements/1.1/" xmlns:cc="http://web.resource.org/cc/" xmlns:rdf="http://www.w3.org/1999/02/22-rdf-syntax-ns#" xmlns:svg="http://www.w3.org/2000/svg" xmlns="http://www.w3.org/2000/svg" xmlns:xlink="http://www.w3.org/1999/xlink" xmlns:sodipodi="http://sodipodi.sourceforge.net/DTD/sodipodi-0.dtd" xmlns:inkscape="http://www.inkscape.org/namespaces/inkscape" id="svg1616" sodipodi:version="0.32" inkscape:version="0.45+devel" width="210mm" height="297mm" sodipodi:docname="logoColivre.svg" sodipodi:docbase="/home/valessio/Desktop" inkscape:export-filename="/home/aurium/Desktop/Design/Colibre/logoColibre.png" inkscape:export-xdpi="39.30946" inkscape:export-ydpi="39.30946" inkscape:output_extension="org.inkscape.output.svg.inkscape">
  <defs id="defs1618"/>
  <sodipodi:namedview id="base" pagecolor="#ffffff" bordercolor="#666666" borderopacity="1.0" inkscape:pageopacity="0.0" inkscape:pageshadow="2" inkscape:zoom="0.4192831" inkscape:cx="143.0989" inkscape:cy="432.31012" inkscape:window-width="1024" inkscape:window-height="689" inkscape:window-x="0" inkscape:window-y="26" inkscape:current-layer="svg1616" showguides="true" inkscape:guide-bbox="true"/>
  <metadata id="metadata1619">
    <rdf:RDF>
      <cc:Work rdf:about="">
        <dc:format>image/svg+xml</dc:format>
        <dc:type rdf:resource="http://purl.org/dc/dcmitype/StillImage"/>
      </cc:Work>
    </rdf:RDF>
  </metadata>
  <g id="g3426" transform="matrix(1.32415, 0, 0, 1.32415, -127.202, -165.006)">
    <path transform="translate(23.9994, 20.0838)" sodipodi:nodetypes="cscccsc" id="path1494" d="M 436.65954,158.10401 C 470.29686,180.24101 457.20173,224.87984 430.92577,234.95509 C 393.20929,249.4171 380.21746,267.35663 393.43171,283.14156 C 379.98831,276.54271 350.53242,272.76845 329.75752,278.69994 C 320.37892,275.13447 317.44033,270.98179 316.3298,265.00946 C 319.62417,243.23305 338.65039,219.14426 392.28453,218.66432 C 444.10236,218.2107 461.99727,186.34424 436.65954,158.10401 z" style="fill: rgb(192, 0, 0); fill-opacity: 1; fill-rule: evenodd; stroke: none;"/>
    <use x="0" y="0" xlink:href="#path1494" id="use1442" transform="matrix(-1, 0, 0, -1, 754.333, 858.93)" width="744.09448" height="1052.3622"/>
    <use x="0" y="0" xlink:href="#path1494" id="use1444" transform="matrix(0, -1, 1, 0, -52.2985, 806.631)" width="744.09448" height="1052.3622"/>
    <use x="0" y="0" xlink:href="#use1442" id="use1446" transform="matrix(0, -1, 1, 0, -52.2985, 806.631)" width="744.09448" height="1052.3622"/>
    <use x="0" y="0" xlink:href="#path1494" id="use1448" transform="matrix(0.5, -0.866025, 0.866025, 0.5, -183.344, 541.369)" width="744.09448" height="1052.3622"/>
    <use x="0" y="0" xlink:href="#use1444" id="use1450" transform="matrix(0.5, -0.866025, 0.866025, 0.5, -183.344, 541.369)" width="744.09448" height="1052.3622"/>
    <use x="0" y="0" xlink:href="#use1442" id="use1452" transform="matrix(0.5, -0.866025, 0.866025, 0.5, -183.344, 541.369)" width="744.09448" height="1052.3622"/>
    <use x="0" y="0" xlink:href="#use1446" id="use1454" transform="matrix(0.5, -0.866025, 0.866025, 0.5, -183.344, 541.369)" width="744.09448" height="1052.3622"/>
    <use x="0" y="0" xlink:href="#path1494" id="use1456" transform="matrix(0.866025, -0.5, 0.5, 0.866025, -164.202, 246.121)" width="744.09448" height="1052.3622"/>
    <use x="0" y="0" xlink:href="#use1444" id="use1458" transform="matrix(0.866025, -0.5, 0.5, 0.866025, -164.202, 246.121)" width="744.09448" height="1052.3622"/>
    <use x="0" y="0" xlink:href="#use1442" id="use1460" transform="matrix(0.866025, -0.5, 0.5, 0.866025, -164.202, 246.121)" width="744.09448" height="1052.3622"/>
    <use x="0" y="0" xlink:href="#use1446" id="use1462" transform="matrix(0.866025, -0.5, 0.5, 0.866025, -164.202, 246.121)" width="744.09448" height="1052.3622"/>
    <path transform="translate(23.9994, 20.0838)" sodipodi:nodetypes="cssssccssssscs" id="path2361" d="M 353.09091,280.02156 C 281.56421,280.02156 223.49981,338.03917 223.49981,409.56577 C 223.49981,481.09235 281.56421,539.15686 353.09091,539.15686 C 424.61751,539.15687 483.65791,480.11801 482.68201,409.56577 C 482.03581,362.85122 452.61441,302.56908 380.14101,293.81587 C 348.34081,289.9751 309.72411,299.37495 283.49461,325.81262 C 295.83701,331.64674 302.98871,335.54532 309.39431,343.15809 C 331.42251,316.76888 371.41351,312.09936 405.33291,325.32943 C 433.13891,336.17504 457.72951,371.60215 457.96281,405.14245 C 458.37001,462.06912 415.46351,514.45692 351.36801,515.27264 C 291.68081,516.02055 241.67851,460.68085 241.67851,409.25903 C 241.67851,357.8372 272.87081,297.45066 354.12491,288.54183 C 386.14831,285.03074 412.76971,296.67864 436.38931,310.41428 C 416.27831,292.74016 384.81421,280.02156 353.09091,280.02156 z" style="fill: rgb(192, 0, 0); fill-opacity: 1; fill-rule: evenodd; stroke: none;"/>
    <use x="0" y="0" xlink:href="#path1502" id="use2363" transform="matrix(-1, 0, 0, -1, 753.386, 860.108)" width="744.09448" height="1052.3622"/>
    <use x="0" y="0" xlink:href="#path1502" id="use3123" transform="matrix(0.5, -0.866025, 0.866025, 0.5, -184.091, 541.253)" width="744.09448" height="1052.3622"/>
    <use x="0" y="0" xlink:href="#use2363" id="use3125" transform="matrix(0.5, -0.866025, 0.866025, 0.5, -184.091, 541.253)" width="744.09448" height="1052.3622"/>
    <use x="0" y="0" xlink:href="#use3123" id="use3127" transform="matrix(0.866025, 0.5, -0.5, 0.866025, 265.494, -130.731)" width="744.09448" height="1052.3622"/>
    <use x="0" y="0" xlink:href="#use3125" id="use3129" transform="matrix(0.866025, 0.5, -0.5, 0.866025, 265.494, -130.731)" width="744.09448" height="1052.3622"/>
    <use x="0" y="0" xlink:href="#path1502" id="use3131" transform="matrix(0.5, 0.866025, -0.866025, 0.5, 560.785, -111.199)" width="744.09448" height="1052.3622"/>
    <use x="0" y="0" xlink:href="#use2363" id="use3133" transform="matrix(0.5, 0.866025, -0.866025, 0.5, 560.785, -111.199)" width="744.09448" height="1052.3622"/>
    <use x="0" y="0" xlink:href="#use3131" id="use3135" transform="matrix(0.866025, 0.5, -0.5, 0.866025, 265.494, -130.731)" width="744.09448" height="1052.3622"/>
    <use x="0" y="0" xlink:href="#use3133" id="use3137" transform="matrix(0.866025, 0.5, -0.5, 0.866025, 265.494, -130.731)" width="744.09448" height="1052.3622"/>
    <use x="0" y="0" xlink:href="#use2363" id="use3139" transform="matrix(0.866025, 0.5, -0.5, 0.866025, 265.494, -130.731)" width="744.09448" height="1052.3622"/>
    <use x="0" y="0" xlink:href="#path1502" id="use3141" transform="matrix(0.866025, 0.5, -0.5, 0.866025, 265.494, -130.731)" width="744.09448" height="1052.3622"/>
    <path sodipodi:nodetypes="ccccc" id="path1502" d="M 381.38487,190.00385 C 395.9723,201.9257 387.13581,219.12295 371.52471,222.60288 C 371.64116,230.41854 369.45358,236.032 362.15051,244.30991 C 375.0402,237.62731 381.63281,234.97666 396.54639,233.46221 C 387.54561,221.63108 406.9617,202.50785 381.38487,190.00385 z" style="fill: rgb(255, 136, 0); fill-opacity: 1; fill-rule: evenodd; stroke: none;"/>
  </g>
  <g id="g2239" transform="translate(-1.47432)">
    <path id="text3950" d="M 149.97498,862.95939 C 145.05825,865.51039 139.93289,867.43532 134.59888,868.73405 C 129.26472,870.03279 123.69872,870.68216 117.90086,870.68216 C 100.59981,870.68216 86.893526,865.85831 76.781978,856.21062 C 66.670384,846.51646 61.614599,833.38997 61.614606,816.83106 C 61.614599,800.22587 66.670384,787.09938 76.781978,777.45156 C 86.893526,767.75752 100.59981,762.91046 117.90086,762.91036 C 123.69872,762.91046 129.26472,763.55983 134.59888,764.85846 C 139.93289,766.1573 145.05825,768.08221 149.97498,770.63319 L 149.97498,792.1319 C 145.01187,788.74599 140.11842,786.26448 135.29464,784.68736 C 130.47068,783.11042 125.39171,782.3219 120.05769,782.32181 C 110.50266,782.3219 102.98855,785.38319 97.515358,791.50573 C 92.042078,797.62841 89.305461,806.07017 89.305496,816.83106 C 89.305461,827.54567 92.042078,835.96425 97.515358,842.08682 C 102.98855,848.20945 110.50266,851.27075 120.05769,851.27074 C 125.39171,851.27075 130.47068,850.48224 135.29464,848.90519 C 140.11842,847.32817 145.01187,844.84666 149.97498,841.46064 L 149.97498,862.95939" style="font-size: 135.234px; font-style: normal; font-variant: normal; font-weight: bold; font-stretch: normal; text-align: start; line-height: 100%; text-anchor: start; fill: rgb(192, 0, 0); fill-opacity: 1; stroke: none; stroke-width: 1px; stroke-linecap: butt; stroke-linejoin: miter; stroke-opacity: 1; font-family: Bitstream Vera Sans;"/>
    <path d="M 214.0479,782.32181 C 205.88437,782.3219 199.55305,785.33681 195.0539,791.36657 C 190.55468,797.39649 188.30508,805.88464 188.30511,816.83106 C 188.30508,827.7312 190.55468,836.19617 195.0539,842.22598 C 199.55305,848.25584 205.88437,851.27075 214.0479,851.27074 C 222.25769,851.27075 228.61222,848.25584 233.11147,842.22598 C 237.61059,836.19617 239.86017,827.7312 239.86027,816.83106 C 239.86017,805.88464 237.61059,797.39649 233.11147,791.36657 C 228.61222,785.33681 222.25769,782.3219 214.0479,782.32181 M 214.0479,762.91036 C 230.74585,762.91046 243.82596,767.68795 253.28826,777.24283 C 262.75036,786.7979 267.48146,799.99396 267.48158,816.83106 C 267.48146,833.62188 262.75036,846.79476 253.28826,856.3497 C 243.82596,865.90467 230.74585,870.68216 214.0479,870.68216 C 197.39621,870.68216 184.31611,865.90467 174.80755,856.3497 C 165.34532,846.79476 160.61422,833.62188 160.61422,816.83106 C 160.61422,799.99396 165.34532,786.7979 174.80755,777.24283 C 184.31611,767.68795 197.39621,762.91046 214.0479,762.91036" style="font-size: 135.234px; font-style: normal; font-variant: normal; font-weight: bold; font-stretch: normal; text-align: start; line-height: 100%; text-anchor: start; fill: rgb(192, 0, 0); fill-opacity: 1; stroke: none; stroke-width: 1px; stroke-linecap: butt; stroke-linejoin: miter; stroke-opacity: 1; font-family: Bitstream Vera Sans;" id="path4981"/>
    <path id="path4977" d="M 280.22812,764.85845 L 307.01454,764.85845 L 307.01454,848.48771 L 354.0473,848.48771 L 354.0473,868.73407 L 280.22812,868.73407 L 280.22812,764.85845" style="font-size: 135.234px; font-style: normal; font-variant: normal; font-weight: bold; font-stretch: normal; text-align: start; line-height: 100%; text-anchor: start; fill: rgb(192, 0, 0); fill-opacity: 1; stroke: none; stroke-width: 1px; stroke-linecap: butt; stroke-linejoin: miter; stroke-opacity: 1; font-family: Bitstream Vera Sans;"/>
    <path id="path4975" d="M 366.79384,764.85845 L 393.58025,764.85845 L 393.58025,868.73407 L 366.79384,868.73407 L 366.79384,764.85845" style="font-size: 135.234px; font-style: normal; font-variant: normal; font-weight: bold; font-stretch: normal; text-align: start; line-height: 100%; text-anchor: start; fill: rgb(192, 0, 0); fill-opacity: 1; stroke: none; stroke-width: 1px; stroke-linecap: butt; stroke-linejoin: miter; stroke-opacity: 1; font-family: Bitstream Vera Sans;"/>
    <path d="M 545.58735,810.91717 C 551.19968,810.91722 555.21184,809.87359 557.62384,807.78628 C 560.08209,805.69909 561.31125,802.26672 561.31132,797.48917 C 561.31125,792.75814 560.08209,789.37216 557.62384,787.3312 C 555.21184,785.29042 551.19968,784.26998 545.58735,784.2699 L 534.31618,784.2699 L 534.31618,810.91717 L 545.58735,810.91717 M 534.31618,829.42414 L 534.31618,868.73407 L 507.52977,868.73407 L 507.52977,764.85845 L 548.43992,764.85845 C 562.12296,764.85855 572.14177,767.15452 578.49637,771.74639 C 584.89719,776.33843 588.09764,783.59742 588.09773,793.52339 C 588.09764,800.3882 586.42783,806.02378 583.08832,810.43013 C 579.79502,814.83662 574.8088,818.08345 568.12968,820.17065 C 571.79389,821.00559 575.06391,822.90732 577.93976,825.87581 C 580.86183,828.798 583.80717,833.25081 586.7758,839.23422 L 601.317,868.73407 L 572.79121,868.73407 L 560.12854,842.92171 C 557.57738,837.7268 554.97992,834.17848 552.33613,832.27672 C 549.73861,830.37504 546.25985,829.42418 541.89986,829.42414 L 534.31618,829.42414" style="font-size: 135.234px; font-style: normal; font-variant: normal; font-weight: bold; font-stretch: normal; text-align: start; line-height: 100%; text-anchor: start; fill: rgb(192, 0, 0); fill-opacity: 1; stroke: none; stroke-width: 1px; stroke-linecap: butt; stroke-linejoin: miter; stroke-opacity: 1; font-family: Bitstream Vera Sans;" id="path4967"/>
    <path id="path4963" d="M 611.95622,764.85845 L 684.24476,764.85845 L 684.24476,785.10481 L 638.74265,785.10481 L 638.74265,804.44667 L 681.53133,804.44667 L 681.53133,824.69303 L 638.74265,824.69303 L 638.74265,848.48771 L 685.7754,848.48771 L 685.7754,868.73407 L 611.95622,868.73407 L 611.95622,764.85845" style="font-size: 135.234px; font-style: normal; font-variant: normal; font-weight: bold; font-stretch: normal; text-align: start; line-height: 100%; text-anchor: start; fill: rgb(192, 0, 0); fill-opacity: 1; stroke: none; stroke-width: 1px; stroke-linecap: butt; stroke-linejoin: miter; stroke-opacity: 1; font-family: Bitstream Vera Sans;"/>
    <text sodipodi:linespacing="125%" id="text2225" y="868.642" x="395.393" style="font-size: 142.236px; font-style: normal; font-variant: normal; font-weight: bold; font-stretch: normal; text-align: start; line-height: 125%; text-anchor: start; fill: rgb(192, 0, 0); fill-opacity: 1; stroke: none; stroke-width: 1px; stroke-linecap: butt; stroke-linejoin: miter; stroke-opacity: 1; font-family: Bitstream Vera Sans;" xml:space="preserve"><tspan y="868.642" x="395.393" id="tspan2227" sodipodi:role="line">V</tspan></text>
  </g>
</svg>