<?xml version="1.0" encoding="UTF-8"?>
<!DOCTYPE svg PUBLIC "-//W3C//DTD SVG 1.1//EN" "http://www.w3.org/Graphics/SVG/1.1/DTD/svg11.dtd">
<!-- Creator: CorelDRAW -->
<svg xmlns="http://www.w3.org/2000/svg" xml:space="preserve" width="210mm" height="297mm" style="shape-rendering:geometricPrecision; text-rendering:geometricPrecision; image-rendering:optimizeQuality; fill-rule:evenodd; clip-rule:evenodd"
viewBox="0 0 210 297"
 xmlns:xlink="http://www.w3.org/1999/xlink">
 <defs>
  <style type="text/css">
   <![CDATA[
    .fil0 {fill:#FEFEFE}
    .fil1 {fill:#C4D9E9}
    .fil2 {fill:#373435;fill-rule:nonzero}
   ]]>
  </style>
 </defs>
 <g id="Camada_x0020_1">
  <metadata id="CorelCorpID_0Corel-Layer"/>
  <path class="fil0" d="M118.1 134.703c-0.0007,2.7298 -2.244,4.9706 -4.9735,4.971l-12.3087 0.0014c-2.703,0.0004 -4.9033,-2.1759 -4.9668,-4.8641l0 -12.4252c0.0028,-2.7407 2.2317,-4.9671 4.9735,-4.9681l12.3126 -0.0043c2.7432,-0.001 4.9414,2.2253 4.9615,4.9682l0.0014 0.2184 0 12.1027zm-44.6056 -17.3418l22.3203 0 0 22.3206 -22.3203 0 0 -22.3206zm56.4353 -0.6619c6.5222,0 11.8117,5.2896 11.8117,11.8118 0,6.5221 -5.2895,11.8117 -11.8117,11.8117 -6.5222,0 -11.8114,-5.2896 -11.8114,-11.8117 0,-6.5222 5.2892,-11.8118 11.8114,-11.8118z"/>
  <path class="fil1" d="M73.9522 117.819l21.4041 0 0 5.2401 0 11.3863 0 4.778 -21.4041 0 0 -21.4044zm22.3209 4.8006l0 11.9535c0.0611,2.5859 2.1774,4.6796 4.7781,4.6796l11.8416 -0.0014c2.6258,-0.0004 4.7837,-2.1562 4.7844,-4.7826l0 -11.6435 -0.0014 -0.2095c-0.019,-2.6391 -2.1336,-4.7805 -4.7727,-4.7794l-11.8452 0.0042c-2.6378,0.0007 -4.7819,2.1428 -4.7848,4.7791zm33.6564 -5.4409c6.2576,0 11.3323,5.0743 11.3323,11.3319 0,6.2576 -5.0747,11.3323 -11.3323,11.3323 -6.2575,0 -11.3322,-5.0747 -11.3322,-11.3323 0,-6.2576 5.0747,-11.3319 11.3322,-11.3319zm-14.1111 5.8875l0 10.6701c0,1.4866 -1.2068,2.6945 -2.6938,2.6945l-15.4083 0c0.67,1.1381 1.9065,1.9018 3.3218,1.9029l0.0035 0.0021 11.8766 0.0039c2.1287,0.0007 3.8411,-1.7385 3.8411,-3.8679l0 -11.4056 -0.9409 0zm23.0269 0.0289c0.9613,1.5787 1.5155,3.4329 1.5155,5.4155 0,5.7602 -4.6711,10.4313 -10.4313,10.4313 -3.6759,0 -6.9073,-1.9029 -8.7654,-4.7763l1.3924 -0.872c1.7071,2.074 4.2929,3.3976 7.1882,3.3976 5.1385,0 9.3059,-4.1674 9.3059,-9.306 0,-1.3874 -0.3044,-2.7043 -0.8491,-3.8869l0.6438 -0.4032zm-45.3895 -0.03l0 13.3657 -18.6171 0 0 1.905 19.5577 0 0 -15.2707 -0.9406 0zm-20.4205 -6.1626l23.2378 0 0 2.5975c1.0136,-1.5784 2.7778,-2.6251 4.7848,-2.5993l0.1287 0.0018 0 0 11.4713 0c0.4103,0 0.8227,0.0088 1.2263,0.079 2.6751,0.4646 4.7095,2.7986 4.7095,5.6063l0 1.2746c1.8313,-4.4595 6.217,-7.6013 11.3358,-7.6013 6.7642,0 12.2495,5.4857 12.2495,12.2495 0,6.7638 -5.4853,12.2492 -12.2495,12.2492 -5.1184,0 -9.5041,-3.1415 -11.3354,-7.6013l0 1.2827c-0.0035,3.1369 -2.5612,5.6948 -5.6977,5.6987l-11.8452 0c-1.9999,-0.001 -3.7621,-1.0378 -4.7781,-2.6017l0 2.6017 -23.2378 0 0 -23.2374z"/>
  <path class="fil2" d="M134.767 132.516l-0.0028 -2.2631 -6.4308 0.0085c-1.118,0.0017 -1.39,-0.6057 -1.39,-1.1603l0 -2.6455c0,-0.5546 0.272,-1.162 1.39,-1.1606l6.4308 0.0091 0.0028 -2.263 -7.2874 0.0159c-1.6291,0.0028 -3.0564,1.2611 -3.0582,2.9467l0 3.55c0.0018,1.6849 1.4291,2.9429 3.0582,2.9461l7.2874 0.0162zm-32.9085 -9.4502l10.2954 0 0 2.3029 -3.9109 0 0 7.178 -2.6031 0 0 -7.178 -3.7814 0 0 -2.3029zm-12.083 -0.0096l-0.0029 2.2631 -6.4307 -0.0092c-1.1176,-0.0014 -1.3896,0.6065 -1.3896,1.1603l0 0.3059 7.8249 0.0099 -0.0028 2.1812 -7.8253 0.0099 -0.0046 3.5531 -2.5231 -0.0035 0.0085 -6.5084c0.0021,-1.6848 1.4288,-2.9436 3.0582,-2.9464l7.2874 -0.0159z"/>
  <path class="fil2" d="M117.499 154.661c0,0.2801 -0.0681,0.5217 -0.2029,0.7246 -0.1926,0.2864 -0.4896,0.43 -0.8907,0.43l-1.1321 0 0 -3.0878 0.5793 0 0 0.8272 0.5185 0c0.3623,0 0.641,0.0942 0.8354,0.2829 0.1951,0.1888 0.2925,0.4632 0.2925,0.8231zm32.0075 -9.899c0,0.2339 -0.0497,0.4117 -0.1499,0.5345 -0.1436,0.1778 -0.4029,0.2663 -0.7768,0.2663l-1.4856 0 0 -0.4702 1.397 0c0.1464,0 0.253,-0.0194 0.3196,-0.0572 0.0819,-0.0487 0.1228,-0.1305 0.1228,-0.2455 0,-0.1185 -0.0318,-0.2036 -0.0956,-0.2547 -0.067,-0.049 -0.1711,-0.073 -0.3119,-0.073l-0.6586 0c-0.2921,0 -0.5105,-0.0589 -0.6541,-0.1764 -0.1538,-0.1267 -0.2307,-0.3267 -0.2307,-0.6012 0,-0.2797 0.0755,-0.4847 0.2269,-0.6156 0.1488,-0.1287 0.3817,-0.1922 0.6999,-0.1922l1.4672 0 0 0.4699 -1.378 0c-0.2984,0 -0.4473,0.1206 -0.4473,0.3616 0,0.0991 0.0335,0.1739 0.1009,0.2226 0.066,0.0511 0.1545,0.0769 0.2656,0.0769l0.7384 0c0.2621,0 0.4512,0.0346 0.5694,0.1048 0.1873,0.1097 0.2808,0.3263 0.2808,0.6494zm-52.4711 8.793l-0.7617 2.2606 -0.6586 0 -0.4999 -1.5787 -0.4868 1.5787 -0.6325 0 -0.7832 -2.2606 0.5972 0 0.5003 1.6193 0.5041 -1.6193 0.6149 0 0.5133 1.6193 0.4956 -1.6193 0.5973 0zm4.4319 0l-0.7616 2.2606 -0.6583 0 -0.4999 -1.5787 -0.4868 1.5787 -0.6329 0 -0.7828 -2.2606 0.5969 0 0.5002 1.6193 0.5042 -1.6193 0.6152 0 0.5129 1.6193 0.4957 -1.6193 0.5972 0zm4.4207 0l-0.7616 2.2606 -0.659 0 -0.4996 -1.5787 -0.4868 1.5787 -0.6325 0 -0.7832 -2.2606 0.5973 0 0.4998 1.6193 0.5045 -1.6193 0.6149 0 0.5133 1.6193 0.4953 -1.6193 0.5976 0zm0.7789 2.2606l-0.4921 0 0 -0.5221 0.4921 0 0 0.5221zm2.0165 -1.8178l-0.5704 0 0 1.8178 -0.6019 0 0 -1.8221 -0.4205 0 0 -0.4385 0.4205 0 0 -0.1372 0 -0.0752c-0.0031,-0.0239 -0.0046,-0.0458 -0.0046,-0.0659 0,-0.1687 0.0297,-0.2911 0.0886,-0.368 0.0942,-0.1206 0.2699,-0.1809 0.526,-0.1809l0.5623 0 0 0.4162 -0.2395 0c-0.1231,0 -0.2103,0.0223 -0.2604,0.0667 -0.0501,0.0441 -0.0751,0.1101 -0.0751,0.199l0 0.1453 0.575 0 0 0.4428zm2.1989 1.8178l-0.5299 0c-0.2159,0 -0.3821,-0.0621 -0.5002,-0.1859 -0.121,-0.121 -0.1814,-0.2914 -0.1814,-0.5122l0 -1.1233 -0.4113 0 0 -0.4392 0.4113 0 0 -0.8272 0.5793 0 0 0.8272 0.6322 0 0 0.4392 -0.6322 0 0 0.9268c0,0.128 0.0208,0.2325 0.0628,0.3146 0.0384,0.0819 0.1027,0.1235 0.194,0.1235l0.3754 0 0 0.4565zm2.4038 0l-0.7927 0c-0.3365,0 -0.6061,-0.0811 -0.8089,-0.2434 -0.2448,-0.1947 -0.3676,-0.4886 -0.3676,-0.8812 0,-0.4562 0.1404,-0.7744 0.4205,-0.9547 0.1856,-0.1213 0.4382,-0.1813 0.756,-0.1813l0.7927 0 0 0.4819 -0.7525 0c-0.2328,0 -0.394,0.0603 -0.4857,0.1813 -0.0805,0.1066 -0.12,0.2639 -0.12,0.4728 0,0.2543 0.0649,0.4328 0.1944,0.5355 0.1002,0.0804 0.2589,0.1199 0.4741,0.1199l0.6897 0 0 0.4692zm1.2404 0l-0.4918 0 0 -0.5221 0.4918 0 0 0.5221zm2.3618 -1.1246c0,-0.2089 -0.0413,-0.3634 -0.1242,-0.4636 -0.103,-0.127 -0.2843,-0.1905 -0.5439,-0.1905l-0.3676 0 0 1.318 0.3633 0c0.2477,0 0.4262,-0.0649 0.5352,-0.194 0.0917,-0.1098 0.1372,-0.2664 0.1372,-0.4699zm-50.231 -10.2369l-1.5956 0 0 1.1087 -0.5549 0 0 -1.2315c0,-0.3419 0.0141,-0.5793 0.0423,-0.713 0.0512,-0.2409 0.1616,-0.4191 0.3302,-0.5341 0.2061,-0.1386 0.5165,-0.2074 0.9314,-0.2074l0.8466 0 0 0.4537 -0.8953 0c-0.2462,0 -0.4272,0.0631 -0.5426,0.1887 -0.1055,0.1125 -0.1577,0.2741 -0.1577,0.4847l1.5956 0 0 0.4502zm3.0682 1.1087l-0.6044 0 -0.2497 -0.6459 -1.1705 0 -0.2353 0.6459 -0.5729 0 1.1161 -2.686 0.5818 0 1.1349 2.686zm-1.0354 -1.1162l-0.4082 -1.0629 -0.4001 1.0629 0.8083 0zm3.4466 1.1162l-0.9384 0c-0.3856,0 -0.6837,-0.1002 -0.8939,-0.3012 -0.2304,-0.2181 -0.3461,-0.5483 -0.3461,-0.992 0,-0.4311 0.0875,-0.7613 0.261,-0.9892 0.2061,-0.2692 0.537,-0.4036 0.9938,-0.4036l0.9236 0 0 0.4459 -0.9158 0c-0.2568,0 -0.4375,0.0924 -0.5426,0.2773 -0.0797,0.1411 -0.1196,0.3475 -0.1196,0.6195 -0.0025,0.0539 -0.0035,0.0977 -0.0035,0.1315 0,0.2156 0.0317,0.3786 0.0959,0.4886 0.1027,0.1793 0.2925,0.2689 0.5698,0.2689l0.9158 0 0 0.4543zm2.9132 -1.0541l0 0.1344c0,0.265 -0.055,0.4668 -0.1654,0.6075 -0.1796,0.2293 -0.5056,0.3436 -0.9769,0.3436 -0.5267,0 -0.8717,-0.1294 -1.0361,-0.3894 -0.0793,-0.1256 -0.1192,-0.3309 -0.1192,-0.6153l0 -1.7127 0.5433 0 0 1.6168c-0.0025,0.0511 -0.0039,0.0935 -0.0039,0.1263 0,0.1569 0.031,0.2776 0.0931,0.3619 0.0942,0.1316 0.2688,0.1965 0.5228,0.1965 0.2244,0 0.381,-0.0497 0.4675,-0.1499 0.0878,-0.1002 0.1316,-0.2784 0.1316,-0.5348l0 -1.6168 0.5432 0 0 1.6319zm2.4501 1.0541l-0.7973 0c-0.3771,0 -0.6456,-0.0913 -0.8043,-0.2734 -0.1471,-0.1665 -0.2202,-0.4378 -0.2202,-0.8121l0 -1.6005 0.5433 0 0 1.4774 0 0.0847 0 0.0649c0,0.1947 0.0296,0.3358 0.0886,0.4233 0.0924,0.1358 0.2681,0.2039 0.5274,0.2039l0.6625 0 0 0.4318zm3.0889 -1.4552c0,0.5878 -0.1132,0.9896 -0.3387,1.2048 -0.1746,0.1668 -0.472,0.2504 -0.8929,0.2504l-1.2287 0 0 -2.686 1.2125 0c0.483,0 0.8241,0.1316 1.0252,0.3962 0.1482,0.1972 0.2226,0.4755 0.2226,0.8346zm-0.5927 0.1112c0,-0.3839 -0.0681,-0.6393 -0.2046,-0.7652 -0.0899,-0.0822 -0.2427,-0.1231 -0.4582,-0.1231l-0.6537 0.0038 0 1.7696 0.6466 -0.0039c0.2593,0 0.4364,-0.0589 0.5306,-0.1764 0.0931,-0.1185 0.1393,-0.3531 0.1393,-0.7048zm3.5327 1.344l-0.6043 0 -0.2494 -0.6459 -1.1705 0 -0.2356 0.6459 -0.5726 0 1.1158 -2.686 0.5818 0 1.1348 2.686zm-1.0354 -1.1162l-0.4078 -1.0629 -0.4004 1.0629 0.8082 0zm3.8605 -0.339c0,0.5878 -0.1129,0.9896 -0.3387,1.2048 -0.1746,0.1668 -0.472,0.2504 -0.8929,0.2504l-1.2283 0 0 -2.686 1.2125 0c0.4826,0 0.8241,0.1316 1.0248,0.3962 0.1482,0.1972 0.2226,0.4755 0.2226,0.8346zm-0.5927 0.1112c0,-0.3839 -0.0681,-0.6393 -0.2046,-0.7652 -0.0899,-0.0822 -0.2423,-0.1231 -0.4579,-0.1231l-0.6537 0.0038 0 1.7696 0.6467 -0.0039c0.2589,0 0.436,-0.0589 0.5302,-0.1764 0.0931,-0.1185 0.1393,-0.3531 0.1393,-0.7048zm3.2904 1.344l-0.9391 0c-0.3849,0 -0.6833,-0.1002 -0.8936,-0.3012 -0.2304,-0.2181 -0.3457,-0.5483 -0.3457,-0.992 0,-0.5183 0.1115,-0.8866 0.3341,-1.1046 0.195,-0.1923 0.5016,-0.2882 0.9207,-0.2882l0.9236 0 0 0.4537 -0.9158 0c-0.2022,0 -0.3563,0.0525 -0.4615,0.1576 -0.1076,0.108 -0.1615,0.271 -0.1615,0.489l1.5388 0 0 0.4579 -1.5512 0c0,0.2491 0.0589,0.4276 0.1778,0.5348 0.0995,0.0928 0.2523,0.1387 0.4576,0.1387l0.9158 0 0 0.4543zm4.5734 -1.4552c0,0.5878 -0.1132,0.9896 -0.339,1.2048 -0.1743,0.1668 -0.472,0.2504 -0.8929,0.2504l-1.228 0 0 -2.686 1.2121 0c0.483,0 0.8241,0.1316 1.0252,0.3962 0.1482,0.1972 0.2226,0.4755 0.2226,0.8346zm-0.5927 0.1112c0,-0.3839 -0.0681,-0.6393 -0.2046,-0.7652 -0.0899,-0.0822 -0.2427,-0.1231 -0.4582,-0.1231l-0.6534 0.0038 0 1.7696 0.6467 -0.0039c0.2589,0 0.436,-0.0589 0.5302,-0.1764 0.0931,-0.1185 0.1393,-0.3531 0.1393,-0.7048zm3.2653 1.344l-0.9391 0c-0.3848,0 -0.6833,-0.1002 -0.8935,-0.3012 -0.2304,-0.2181 -0.3458,-0.5483 -0.3458,-0.992 0,-0.5183 0.1115,-0.8866 0.3341,-1.1046 0.1951,-0.1923 0.5017,-0.2882 0.9208,-0.2882l0.9235 0 0 0.4537 -0.9161 0c-0.2022,0 -0.356,0.0525 -0.4611,0.1576 -0.1076,0.108 -0.1616,0.271 -0.1616,0.489l1.5388 0 0 0.4579 -1.5511 0c0,0.2491 0.0589,0.4276 0.1778,0.5348 0.0995,0.0928 0.2522,0.1387 0.4572,0.1387l0.9161 0 0 0.4543zm4.1215 -2.2207l-0.8576 0 0 2.2207 -0.5768 0 0 -2.2207 -0.8512 0 0 -0.4583 2.2856 0 0 0.4583zm2.5277 2.2207l-0.9391 0c-0.3845,0 -0.683,-0.1002 -0.8936,-0.3012 -0.23,-0.2181 -0.3454,-0.5483 -0.3454,-0.992 0,-0.5183 0.1115,-0.8866 0.3341,-1.1046 0.1951,-0.1923 0.5017,-0.2882 0.9204,-0.2882l0.9236 0 0 0.4537 -0.9158 0c-0.2022,0 -0.356,0.0525 -0.4611,0.1576 -0.1079,0.108 -0.1619,0.271 -0.1619,0.489l1.5388 0 0 0.4579 -1.5508 0c0,0.2491 0.0589,0.4276 0.1778,0.5348 0.0991,0.0928 0.2519,0.1387 0.4572,0.1387l0.9158 0 0 0.4543zm2.8003 0l-0.9383 0c-0.3853,0 -0.6837,-0.1002 -0.894,-0.3012 -0.2307,-0.2181 -0.3457,-0.5483 -0.3457,-0.992 0,-0.4311 0.0871,-0.7613 0.2607,-0.9892 0.206,-0.2692 0.5369,-0.4036 0.9938,-0.4036l0.9235 0 0 0.4459 -0.9158 0c-0.2564,0 -0.4374,0.0924 -0.5425,0.2773 -0.0798,0.1411 -0.1196,0.3475 -0.1196,0.6195 -0.0025,0.0539 -0.0036,0.0977 -0.0036,0.1315 0,0.2156 0.0318,0.3786 0.0963,0.4886 0.1024,0.1793 0.2925,0.2689 0.5694,0.2689l0.9158 0 0 0.4543zm2.9471 0l-0.6353 0 -1.1539 -2.0397 0 2.0397 -0.5433 0 0 -2.686 0.7052 0 1.0999 1.9392 0 -1.9392 0.5274 0 0 2.686zm3.1468 -1.3433c0,0.508 -0.1358,0.8791 -0.4078,1.1123 -0.224,0.1926 -0.5306,0.2885 -0.9204,0.2885 -0.2028,0 -0.3785,-0.0229 -0.5274,-0.0684 -0.2335,-0.072 -0.417,-0.2011 -0.5503,-0.3856 -0.1694,-0.2335 -0.254,-0.5517 -0.254,-0.9546 0,-0.3849 0.0691,-0.6876 0.2078,-0.9088 0.1153,-0.1816 0.2847,-0.3125 0.5087,-0.3922 0.1661,-0.0597 0.3693,-0.0889 0.6082,-0.0889 0.3796,0 0.6745,0.073 0.8851,0.2197 0.1767,0.1235 0.3016,0.3017 0.3732,0.5345 0.0512,0.17 0.0769,0.3845 0.0769,0.6435zm-0.5965 0.0031c0,-0.3513 -0.0706,-0.605 -0.2117,-0.7588 -0.1182,-0.1277 -0.2924,-0.1916 -0.5235,-0.1916 -0.2279,0 -0.4085,0.078 -0.5394,0.235 -0.1305,0.1587 -0.1962,0.3933 -0.1962,0.7041 0,0.295 0.036,0.5112 0.1084,0.6474 0.1097,0.2102 0.3196,0.315 0.6272,0.315 0.2695,0 0.4632,-0.0871 0.5814,-0.2607 0.1023,-0.152 0.1538,-0.3824 0.1538,-0.6904zm3.0282 1.3402l-0.7973 0c-0.3771,0 -0.6452,-0.0913 -0.8043,-0.2734 -0.1471,-0.1665 -0.2201,-0.4378 -0.2201,-0.8121l0 -1.6005 0.5433 0 0 1.4774 0 0.0847 0 0.0649c0,0.1947 0.0296,0.3358 0.0885,0.4233 0.0924,0.1358 0.2681,0.2039 0.5274,0.2039l0.6625 0 0 0.4318zm3.0082 -1.3433c0,0.508 -0.1359,0.8791 -0.4079,1.1123 -0.224,0.1926 -0.5305,0.2885 -0.9203,0.2885 -0.2029,0 -0.3786,-0.0229 -0.5275,-0.0684 -0.2335,-0.072 -0.4169,-0.2011 -0.5503,-0.3856 -0.1693,-0.2335 -0.254,-0.5517 -0.254,-0.9546 0,-0.3849 0.0692,-0.6876 0.2078,-0.9088 0.1157,-0.1816 0.2847,-0.3125 0.5087,-0.3922 0.1662,-0.0597 0.3694,-0.0889 0.6082,-0.0889 0.3796,0 0.6749,0.073 0.8851,0.2197 0.1768,0.1235 0.3016,0.3017 0.3733,0.5345 0.0515,0.17 0.0769,0.3845 0.0769,0.6435zm-0.5966 0.0031c0,-0.3513 -0.0705,-0.605 -0.2117,-0.7588 -0.1178,-0.1277 -0.2924,-0.1916 -0.5231,-0.1916 -0.2286,0 -0.4089,0.078 -0.5394,0.235 -0.1309,0.1587 -0.1965,0.3933 -0.1965,0.7041 0,0.295 0.036,0.5112 0.1083,0.6474 0.1097,0.2102 0.3196,0.315 0.6276,0.315 0.2695,0 0.4628,-0.0871 0.581,-0.2607 0.1027,-0.152 0.1538,-0.3824 0.1538,-0.6904zm3.5377 1.3402l-1.2355 0c-0.1746,0 -0.3129,-0.013 -0.4148,-0.0384 -0.224,-0.0568 -0.4025,-0.1669 -0.5359,-0.3313 -0.1764,-0.2205 -0.2649,-0.5284 -0.2649,-0.9235 0,-0.4156 0.0783,-0.7352 0.2349,-0.9585 0.2025,-0.2897 0.5419,-0.4343 1.0192,-0.4343l1.197 0 0 0.4537 -1.197 0c-0.2233,0 -0.3849,0.0744 -0.4847,0.2233 -0.1027,0.1488 -0.1542,0.3644 -0.1542,0.6466 0,0.2815 0.0438,0.4932 0.1309,0.6347 0.1027,0.1661 0.272,0.2494 0.508,0.2494l0.635 0 0 -0.6417 -0.7426 0 0 -0.4664 1.3046 0 0 1.5864zm1.1987 0l-0.5729 0 0 -2.686 0.5729 0 0 2.686zm3.3179 0l-0.604 0 -0.2494 -0.6459 -1.1709 0 -0.2353 0.6459 -0.5729 0 1.1162 -2.686 0.5817 0 1.1346 2.686zm-1.0351 -1.1162l-0.4081 -1.0629 -0.4001 1.0629 0.8082 0zm4.8976 1.1162l-0.939 0c-0.3849,0 -0.6834,-0.1002 -0.894,-0.3012 -0.23,-0.2181 -0.3454,-0.5483 -0.3454,-0.992 0,-0.5183 0.1115,-0.8866 0.3341,-1.1046 0.1951,-0.1923 0.5017,-0.2882 0.9208,-0.2882l0.9235 0 0 0.4537 -0.9161 0c-0.2022,0 -0.356,0.0525 -0.4615,0.1576 -0.1075,0.108 -0.1615,0.271 -0.1615,0.489l1.5391 0 0 0.4579 -1.5511 0c0,0.2491 0.0589,0.4276 0.1778,0.5348 0.0995,0.0928 0.2519,0.1387 0.4572,0.1387l0.9161 0 0 0.4543zm3.8866 0l-0.9384 0c-0.3856,0 -0.6837,-0.1002 -0.8943,-0.3012 -0.23,-0.2181 -0.3457,-0.5483 -0.3457,-0.992 0,-0.4311 0.0875,-0.7613 0.2614,-0.9892 0.2057,-0.2692 0.5366,-0.4036 0.9934,-0.4036l0.9236 0 0 0.4459 -0.9158 0c-0.2565,0 -0.4375,0.0924 -0.5426,0.2773 -0.0797,0.1411 -0.1192,0.3475 -0.1192,0.6195 -0.0028,0.0539 -0.0043,0.0977 -0.0043,0.1315 0,0.2156 0.0325,0.3786 0.0964,0.4886 0.1026,0.1793 0.2924,0.2689 0.5697,0.2689l0.9158 0 0 0.4543zm1.1892 0l-0.5729 0 0 -2.686 0.5729 0 0 2.686zm2.666 0l-0.9391 0c-0.3849,0 -0.6834,-0.1002 -0.8936,-0.3012 -0.2304,-0.2181 -0.3457,-0.5483 -0.3457,-0.992 0,-0.5183 0.1114,-0.8866 0.334,-1.1046 0.1951,-0.1923 0.5017,-0.2882 0.9204,-0.2882l0.924 0 0 0.4537 -0.9162 0c-0.2018,0 -0.356,0.0525 -0.4611,0.1576 -0.1076,0.108 -0.1616,0.271 -0.1616,0.489l1.5389 0 0 0.4579 -1.5509 0c0,0.2491 0.059,0.4276 0.1775,0.5348 0.0995,0.0928 0.2519,0.1387 0.4572,0.1387l0.9162 0 0 0.4543zm-0.2646 -2.8165l-0.2424 0 -0.3196 -0.2664 -0.3231 0.2664 -0.2346 0 0.3393 -0.5087 0.4385 0 0.3419 0.5087zm3.2381 2.8165l-0.6353 0 -1.154 -2.0397 0 2.0397 -0.5432 0 0 -2.686 0.7052 0 1.0999 1.9392 0 -1.9392 0.5274 0 0 2.686zm2.8011 0l-0.9384 0c-0.3856,0 -0.6841,-0.1002 -0.8947,-0.3012 -0.23,-0.2181 -0.3457,-0.5483 -0.3457,-0.992 0,-0.4311 0.0875,-0.7613 0.2614,-0.9892 0.206,-0.2692 0.537,-0.4036 0.9934,-0.4036l0.924 0 0 0.4459 -0.9162 0c-0.2568,0 -0.4374,0.0924 -0.5426,0.2773 -0.0797,0.1411 -0.1192,0.3475 -0.1192,0.6195 -0.0028,0.0539 -0.0039,0.0977 -0.0039,0.1315 0,0.2156 0.0321,0.3786 0.096,0.4886 0.1026,0.1793 0.2924,0.2689 0.5697,0.2689l0.9162 0 0 0.4543zm3.4805 -1.1162l-0.4078 -1.0629 -0.4004 1.0629 0.8082 0zm1.0354 1.1162l-0.6043 0 -0.2494 -0.6459 -1.1709 0 -0.2353 0.6459 -0.5729 0 1.1162 -2.686 0.5817 0 1.1349 2.686zm-3.319 0l-0.5729 0 0 -2.686 0.5729 0 0 2.686zm-46.8224 -31.3725l-0.6078 0 -0.5916 -1.0516 -0.6661 0 0 1.0516 -0.5461 0 0 -2.6808 1.3706 0c0.3079,0 0.5344,0.0576 0.6798,0.1729 0.164,0.1277 0.2459,0.3394 0.2459,0.634 0,0.1993 -0.0399,0.3591 -0.1189,0.4797 -0.09,0.1358 -0.2276,0.2258 -0.4124,0.2699l0.6466 1.1243zm-0.6653 -1.8669c0,-0.1302 -0.0409,-0.2201 -0.1228,-0.2685 -0.0815,-0.0479 -0.212,-0.0726 -0.3912,-0.0726l-0.6826 0 0 0.6907 0.6865 0c0.1792,0 0.2988,-0.0141 0.3605,-0.042 0.0998,-0.0462 0.1496,-0.1485 0.1496,-0.3076zm8.4843 1.8669l-0.9373 0c-0.3839,0 -0.6816,-0.0995 -0.8919,-0.2999 -0.2296,-0.218 -0.345,-0.5475 -0.345,-0.9906 0,-0.5171 0.1115,-0.8847 0.3334,-1.1024 0.1947,-0.1919 0.5009,-0.2879 0.919,-0.2879l0.9218 0 0 0.4534 -0.9144 0c-0.2015,0 -0.3549,0.0522 -0.46,0.157 -0.1076,0.1079 -0.1616,0.2705 -0.1616,0.4882l1.536 0 0 0.4572 -1.548 0c0,0.2484 0.0589,0.4262 0.1774,0.5338 0.0992,0.092 0.2516,0.1382 0.4562,0.1382l0.9144 0 0 0.453zm8.2896 -1.4517c0,0.5863 -0.036,0.9875 -0.2611,1.2023 -0.1743,0.1662 -0.4713,0.2494 -0.8911,0.2494l-1.2259 0 0 -2.6808 1.2097 0c0.4819,0 0.8233,0.1316 1.023,0.3959 0.1489,0.1961 0.1454,0.4748 0.1454,0.8332zm-0.5147 0.1108c0,-0.3835 -0.0678,-0.6385 -0.2043,-0.7638 -0.0893,-0.0818 -0.242,-0.1238 -0.4569,-0.1227l-0.6526 0.0038 0 1.7661 0.6452 -0.0036c0.259,-0.0017 0.4364,-0.0585 0.5296,-0.176 0.0934,-0.1178 0.139,-0.3528 0.139,-0.7038zm8.3357 1.3533l-0.9373 0c-0.3838,0 -0.6812,-0.1006 -0.8915,-0.3003 -0.2293,-0.2176 -0.345,-0.5471 -0.345,-0.9906 0,-0.5171 0.1115,-0.884 0.3334,-1.102 0.1951,-0.1916 0.5006,-0.2879 0.9186,-0.2879l0.9218 0 0 0.453 -0.914 0c-0.2018,0 -0.3553,0.0522 -0.4604,0.1573 -0.1076,0.1076 -0.1612,0.2702 -0.1612,0.4879l1.5356 0 0 0.4572 -1.5479 0c0,0.2483 0.0596,0.4254 0.1774,0.5341 0.0998,0.0914 0.2515,0.1379 0.4565,0.1379l0.914 0 0 0.4534zm-0.9066 40.2858l-0.5482 0 0 -0.1729c0,-0.1415 -0.0134,-0.2328 -0.0402,-0.2748 -0.0293,-0.0402 -0.0861,-0.0614 -0.169,-0.0614 -0.0088,-0.0025 -0.0247,-0.0039 -0.0483,-0.0039l-0.0611 0 -0.0931 0c-0.0243,0 -0.048,0.0014 -0.0716,0.0039l0 1.8362 -0.5743 0 0 -2.2606 0.9902 0c0.2311,0 0.387,0.0399 0.4696,0.1185 0.0977,0.0946 0.146,0.2731 0.146,0.5363l0 0.2787z"/>
 </g>
</svg>
