<?xml version="1.0" encoding="UTF-8"?>
<!-- Generator: Adobe Illustrator 21.1.0, SVG Export Plug-In . SVG Version: 6.00 Build 0)  -->
<svg version="1.1" id="Camada_1" xmlns="http://www.w3.org/2000/svg" xmlns:xlink="http://www.w3.org/1999/xlink" x="0px" y="0px" viewBox="0 0 629.5 114.7" style="enable-background:new 0 0 629.5 114.7;" xml:space="preserve">
<style type="text/css">
	.st0{fill:#0A4777;}
	.st1{fill:#AD2A28;}
</style>
<g>
	<g>
		<rect x="146" y="3.2" class="st0" width="1.1" height="107.2"/>
		<g>
			<g>
				<path class="st0" d="M11.8,80.7l0.6,1.2c0.4-0.2,2.4-2.2,1.2-4.5l-4.2-8.1c0,0-0.4-0.8,0.2-1.6c0.3-0.5-0.2-1.4-0.8-1l-2,1.1      c0,0-0.6,0.3-0.3,0.8c0.3,0.6,0.6,0.5,1.1,0.6c0.2,0.1,0.7,0.2,1,0.7l3.8,7.6C12.2,77.4,13.3,79.2,11.8,80.7"/>
			</g>
			<g>
				<path class="st0" d="M5.9,81.5c0.7,1.4,2.1,1.7,3.2,1.6c1.4-0.1,2.7-0.9,2.7-0.9L11.3,81c-1.3,0.2-1.7-0.9-1.7-0.9L4.9,71      c0,0-0.3-0.5-0.1-0.8c0.4-0.2,0.1-1.5-0.9-1l-3.5,1.7c0,0-0.4,0.2-0.4,0.5c-0.1,0.3,0.1,0.8,0.6,0.9c0.3,0,0.5-0.1,0.7,0.5      L5.9,81.5z"/>
			</g>
			<g>
				<path class="st0" d="M12.9,68.6l4,7.7c0,0,0.4,1-0.1,1.5c-0.4,0.5,0.1,1.4,0.8,1.1l2-1c0,0,0.5-0.3,0.3-0.8      c-0.2-0.4-0.5-0.4-1-0.4c-0.2-0.1-0.7-0.4-1-0.8L15,70.2L12.9,68.6z"/>
			</g>
			<g>
				<path class="st0" d="M22.7,69.3L20,63.9c0,0-0.4-0.9,0.1-1.5c0.4-0.5-0.2-1.5-0.8-1.1l-2,1.1c0,0-0.6,0.3-0.3,0.8      c0.2,0.5,0.5,0.4,1,0.5c0.2,0,0.8,0.3,1,0.8l1.7,3.3L22.7,69.3z"/>
			</g>
			<g>
				<path class="st0" d="M12.1,67.3L23.3,76l2.3-1.1l-2.3-4.4l-8.7-6.8l-3.7,1.8c0,0-0.4,0.2-0.5,0.4c-0.1,0.3,0,0.8,0.6,0.9      C11.4,67,11.6,66.9,12.1,67.3"/>
			</g>
			<g>
				<path class="st0" d="M27.3,71.7c0.3,0.6,0.1,0.6-0.1,0.9c-0.2,0.4,0.2,0.9,0.4,1c0.3,0.2,0.6-0.1,0.6-0.1l3.5-1.8      c1-0.5,0.4-1.5-0.3-1.4c-0.5,0-0.7-0.5-0.7-0.5l-4.9-9.7c0,0-0.3-0.6-0.1-0.8c0.4-0.3,0.1-1.5-0.8-1l-3.5,1.7      c0,0-0.4,0.2-0.4,0.5c-0.1,0.3,0.2,0.9,0.6,0.9c0.3,0,0.5-0.1,0.7,0.5L27.3,71.7z"/>
			</g>
			<g>
				<path class="st0" d="M60.9,39.8l0.6,1.1c0,0,1-0.1,1.6,0.2c0.4,0.2,1,0.5,1.6,1.2c0.5,0.6,0.8,1,1.3,0.8c0.4-0.2,0.1-1-0.1-1.4      c-0.3-0.5-1.4-2.7-1.4-2.7s-0.3-0.9-0.8-0.6c-0.4,0.2-0.2,0.6-0.2,0.8c0,0.2-0.1,0.3-0.3,0.3C62.6,39.4,61.5,39.4,60.9,39.8"/>
			</g>
			<g>
				<path class="st0" d="M67,54.1l-0.6-1.2c0,0-1.1,0.2-1.9-0.3c-0.4-0.2-1.1-0.7-1.7-1.5c-0.5-0.6-0.8-1-1.3-0.8      c-0.4,0.2-0.1,1,0.1,1.4c0.3,0.5,1.6,3.2,1.6,3.2s0.4,0.9,0.9,0.6c0.4-0.2,0.2-0.7,0.2-0.8c0-0.2,0.1-0.4,0.3-0.3      C65.2,54.4,66.5,54.3,67,54.1"/>
			</g>
			<g>
				<path class="st0" d="M60.3,40l0.6,1.2c0,0-0.8,0.8-0.3,1.8c0.4,0.7,0.8,0.9,1.6,1.1c0.7,0.1,2.5,0.1,3.7,0.5      c0.9,0.3,2.1,0.4,3.3,2.8c1.6,3.2-0.3,5.8-1.6,6.4L67,52.6c0,0,1.2-0.8,0.5-2.2c-0.5-0.9-1.4-1-2.2-1.1      c-0.7-0.2-2.3,0.1-3.5-0.4c-1.5-0.6-2.1-1.3-2.9-2.9C57.8,44,58.1,41.2,60.3,40"/>
			</g>
			<g>
				<path class="st0" d="M72,48.9c0.3,0.6,0.1,0.7,0,0.9c-0.3,0.4,0.1,1,0.3,1.1c0.3,0.2,0.6-0.1,0.6-0.1l3.5-1.8      c1-0.5,0.4-1.5-0.3-1.3c-0.5-0.1-0.6-0.5-0.6-0.5l-5-9.6c0,0-0.3-0.6,0-0.8c0.4-0.3,0.1-1.5-0.9-1l-3.5,1.8c0,0-0.4,0.2-0.5,0.4      c-0.1,0.3,0.2,0.9,0.6,0.9c0.3,0.1,0.5,0,0.7,0.5L72,48.9z"/>
			</g>
			<g>
				<path class="st0" d="M44,63.2c0.3,0.5,0.1,0.6-0.1,0.8c-0.3,0.4,0.1,0.9,0.4,1.1c0.3,0.1,0.6-0.1,0.6-0.1l3.5-1.8l-6.8-13.4      l-3.5,1.8c0,0-0.4,0.2-0.5,0.4c-0.1,0.3,0.2,0.9,0.6,0.9c0.3,0,0.5-0.1,0.7,0.5L44,63.2z"/>
			</g>
			<g>
				<path class="st0" d="M42.8,50.9l-0.6-1.3l3.2-1.6l2,3.8c0,0,0.2,0.5-0.2,0.7c-0.6,0.3-1.4-1-2.1-1.4      C44,50.6,42.8,50.9,42.8,50.9"/>
			</g>
			<g>
				<path class="st0" d="M45.9,57c0,0,0.6-0.4,1.6,0.8c0.4,0.5,0.6,0.7,1,0.5c0.4-0.2,0.2-0.7,0.2-0.7l-2.4-4.8c0,0-0.2-0.4-0.6-0.2      c-0.3,0.2-0.3,0.5-0.2,1c0.5,1.5-0.4,1.9-0.4,1.9L45.9,57z"/>
			</g>
			<g>
				<path class="st0" d="M48.3,61.7L49,63l3.2-1.6l-1.9-3.9c0,0-0.2-0.5-0.6-0.3c-0.6,0.3,0,1.6-0.2,2.5      C49.2,60.9,48.3,61.7,48.3,61.7"/>
			</g>
			<g>
				<path class="st0" d="M77.9,45.9c0.3,0.6,0.1,0.6-0.1,0.9c-0.3,0.4,0.2,1,0.4,1.1c0.3,0.1,0.6-0.1,0.6-0.1l3.5-1.7l-6.8-13.3      L72,34.4c0,0-0.4,0.2-0.4,0.4c0,0.3,0.1,0.9,0.6,0.9c0.3,0.1,0.4,0,0.7,0.5L77.9,45.9z"/>
			</g>
			<g>
				<path class="st0" d="M82.9,45.7L82.5,45c0.3-0.2,1.4-1.5,0.8-2.5c-0.8-1.6-3.6-7.2-4.3-8.5c-0.6-1.1-2.2-1.1-2.6-1l-0.4-0.6      c0,0,1.6-1,3.4-0.3c1.7,0.6,3.4,2,4.7,4.7c1.4,2.7,1.1,5.3,0.9,5.9C84.9,43.4,84.8,44.7,82.9,45.7"/>
			</g>
			<g>
				<path class="st0" d="M96.9,36.2c0.3,0.6,0.1,0.6,0,0.9c-0.3,0.4,0.1,1,0.4,1.1c0.3,0.1,0.6-0.1,0.6-0.1l3.5-1.8L94.5,23L91,24.8      c0,0-0.4,0.2-0.5,0.4c-0.1,0.3,0.2,0.9,0.6,0.9c0.3,0.1,0.5-0.1,0.7,0.5L96.9,36.2z"/>
			</g>
			<g>
				<path class="st0" d="M101.9,36l-0.4-0.7c0.4-0.2,1.4-1.5,0.9-2.5c-0.8-1.6-3.6-7.2-4.3-8.6c-0.5-1.1-2.2-1-2.6-0.9l-0.3-0.7      c0,0,1.5-0.9,3.4-0.3c1.7,0.6,3.4,2,4.7,4.7c1.4,2.6,1.1,5.3,0.9,5.9C103.9,33.7,103.8,35.1,101.9,36"/>
			</g>
			<g>
				<path class="st0" d="M90.9,39.2c0.4,0.5,0.3,0.6,0.2,0.8c-0.3,0.5,0,0.9,0.3,1.1C91.7,41.2,92,41,92,41l3.5-1.8      c0.9-0.5,0.4-1.5-0.3-1.4c-0.4-0.1-0.6-0.5-0.6-0.5l-8-10.4l-3,1.5l0.4,1.6l5.1,6.8l-1.6,0.8l0.4,1.3L90,38L90.9,39.2z"/>
			</g>
			<g>
				<path class="st0" d="M84.4,31.5c0,0,2.4,9.5,2.5,9.9c0.1,0.3-0.1,0.6-0.3,0.8c-0.3,0.4-0.6,0.5-0.3,1.1c0.2,0.3,0.5,0.5,0.9,0.3      l2-1.1c0,0,0.5-0.3,0.3-0.8c-0.3-0.5-0.5-0.3-1-0.4c-0.2-0.1-0.5-0.2-0.7-0.8l-2-7L84.4,31.5z"/>
			</g>
			<g>
				<path class="st0" d="M31.9,57.2c-0.4-0.6-0.1-0.6,0.1-0.9c0.2-0.4-0.1-0.9-0.4-1c-0.2-0.1-0.6,0.1-0.6,0.1l-3.5,1.7      c-0.9,0.5-0.3,1.5,0.3,1.4c0.4,0,0.6,0.5,0.6,0.5l8,10.4l3-1.5L39,66.2L31.9,57.2z"/>
			</g>
			<g>
				<path class="st0" d="M38.7,65l-2.3-8.8c0,0-0.2-0.7-0.2-1.1c-0.1-0.3-0.1-0.7,0.1-1c0.2-0.3,0.6-0.6,0.4-1.1      c-0.2-0.3-0.5-0.4-0.9-0.3l-2,1.1c0,0-0.5,0.3-0.3,0.8c0.2,0.5,0.5,0.3,0.9,0.4c0.2,0.1,0.5,0.2,0.7,0.8l1.9,7L38.7,65z"/>
			</g>
			<g>
				<path class="st0" d="M57.1,50.6c0,0,4.1,3.9,4.3,4.1c0.4,0.3,0.8-0.3,1.3,0.4c0.3,0.4,0,0.8-0.2,1l-2.3,1.1c0,0-0.4,0.2-0.8-0.3      c-0.3-0.3-4.3-4.1-4.3-4.1L57.1,50.6z"/>
			</g>
			<g>
				<path class="st0" d="M55.2,52.8L54.7,52c0.3-0.2,1.1-1.1,0.7-1.9c-0.4-0.8-1.5-3-1.8-3.7c-0.6-1.1-1.6-0.7-2-0.6L51.2,45      c0,0,4.2-2.9,6.4,1.4C59.4,50.1,56.9,52,55.2,52.8"/>
			</g>
			<g>
				<path class="st0" d="M52.8,58.7c0.3,0.6,0.1,0.6-0.1,0.9c-0.2,0.4,0.2,0.9,0.4,1c0.3,0.2,0.6,0,0.6,0l3.5-1.8      c1-0.5,0.3-1.5-0.4-1.4c-0.4-0.1-0.6-0.5-0.6-0.5l-5.8-11.5L47,47.2c0,0-0.4,0.2-0.5,0.4c-0.1,0.3,0.2,0.9,0.6,0.9      c0.3,0,0.5,0,0.7,0.5L52.8,58.7z"/>
			</g>
			<g>
				<path class="st0" d="M106.7,31.2c0.3,0.6,0.1,0.6-0.1,0.9c-0.3,0.4,0.2,1,0.4,1.1c0.3,0.1,0.6-0.1,0.6-0.1l3.5-1.8L104.3,18      l-3.5,1.8c0,0-0.4,0.2-0.5,0.4c-0.1,0.3,0.2,0.9,0.6,0.9c0.3,0.1,0.5-0.1,0.7,0.5L106.7,31.2z"/>
			</g>
			<g>
				<path class="st0" d="M105.5,19l-0.6-1.3l3.2-1.6l2,3.8c0,0,0.3,0.5-0.2,0.7c-0.6,0.3-1.4-1-2.1-1.4      C106.7,18.7,105.5,19,105.5,19"/>
			</g>
			<g>
				<path class="st0" d="M108.6,25c0,0,0.6-0.4,1.6,0.8c0.4,0.5,0.6,0.8,1,0.6c0.4-0.2,0.2-0.7,0.2-0.7L109,21c0,0-0.2-0.4-0.5-0.2      c-0.4,0.2-0.4,0.5-0.2,1.1c0.5,1.5-0.4,1.8-0.4,1.8L108.6,25z"/>
			</g>
			<g>
				<path class="st0" d="M111,29.7l0.6,1.3l3.2-1.6l-1.9-3.8c0,0-0.3-0.5-0.7-0.3c-0.6,0.3,0,1.7-0.2,2.5      C111.9,29,111,29.7,111,29.7"/>
			</g>
			<g>
				<path class="st0" d="M29.9,77.2l0.6,1.1c0,0,0.9,0,1.5,0.3c0.3,0.2,1,0.5,1.5,1.2c0.5,0.6,0.8,1.1,1.3,0.9      c0.4-0.2,0.1-0.9-0.2-1.4c-0.2-0.5-1.4-2.7-1.4-2.7s-0.3-0.9-0.8-0.6c-0.4,0.2-0.2,0.6-0.2,0.8c0,0.2-0.1,0.3-0.2,0.3      C31.5,76.9,30.5,76.9,29.9,77.2"/>
			</g>
			<g>
				<path class="st0" d="M36.2,91.6l-0.6-1.2c0,0-0.9,0.1-1.8-0.4c-0.4-0.2-1.1-0.7-1.7-1.5c-0.5-0.6-0.8-1.1-1.2-0.9      c-0.4,0.2-0.1,1,0.1,1.4c0.3,0.5,1.6,3.2,1.6,3.2s0.4,0.9,0.9,0.6c0.4-0.2,0.2-0.7,0.2-0.8c0-0.2,0.1-0.3,0.2-0.3      C34.4,92,35.6,91.9,36.2,91.6"/>
			</g>
			<g>
				<path class="st0" d="M29.4,77.4l0.6,1.2c0,0-0.8,0.7-0.3,1.8c0.4,0.7,0.8,1,1.5,1.1c0.7,0.2,2.4,0.2,3.6,0.6      c0.9,0.3,2,0.5,3.2,2.9c1.7,3.2-0.1,5.7-1.4,6.4l-0.6-1.2c0,0,1.1-0.7,0.4-2.1c-0.5-1-1.3-1-2.1-1.2c-0.7-0.2-2.2,0-3.4-0.5      c-1.5-0.6-2.1-1.3-2.8-2.9C27,81.4,27.2,78.6,29.4,77.4"/>
			</g>
			<g>
				<path class="st0" d="M56.4,66.4c-0.4-0.6-0.1-0.7,0.1-0.9c0.2-0.4-0.2-0.9-0.4-1c-0.3-0.2-0.6,0.1-0.6,0.1l-3.3,1.7      c-0.9,0.5-0.3,1.5,0.3,1.3c0.4,0.1,0.6,0.5,0.6,0.5L61,78.5l2.9-1.4l-0.5-1.7L56.4,66.4z"/>
			</g>
			<g>
				<path class="st0" d="M63.1,74.2l-2.3-8.7c0,0-0.2-0.7-0.2-1.1c0-0.3-0.1-0.7,0.1-0.9c0.3-0.4,0.6-0.5,0.3-1.1      c-0.2-0.3-0.5-0.4-0.8-0.3l-1.9,1c0,0-0.5,0.3-0.3,0.8c0.3,0.5,0.5,0.3,0.9,0.4c0.2,0.1,0.5,0.2,0.7,0.8l2,6.9L63.1,74.2z"/>
			</g>
			<g>
				<path class="st0" d="M76,68.5c0.3,0.5,0.1,0.6,0,0.9c-0.3,0.3,0.2,0.9,0.4,1c0.3,0.2,0.6-0.1,0.6-0.1l3.3-1.7l-6.8-13.3L70.1,57      c0,0-0.4,0.2-0.4,0.4c-0.1,0.3,0.2,0.9,0.6,0.9c0.3,0,0.4-0.1,0.7,0.5L76,68.5z"/>
			</g>
			<g>
				<path class="st0" d="M80.8,68.4l-0.3-0.7c0.3-0.2,1.3-1.4,0.8-2.5c-0.8-1.5-3.7-7.2-4.3-8.5c-0.6-1.1-2.2-1.1-2.6-1L74,55.1      c0,0,1.5-0.8,3.2-0.2c1.7,0.6,3.3,2.1,4.6,4.7c1.4,2.7,1.2,5.2,1,5.9C82.7,66.2,82.6,67.5,80.8,68.4"/>
			</g>
			<g>
				<path class="st0" d="M91.5,63.2l-0.4-0.7c0.4-0.2,1-1.3,0.4-2.3c-0.8-1.6-3.8-7.4-4.5-8.8c-0.6-1.1-1.7-1.3-2.2-1.2l-0.3-0.6      c0,0,1.1-0.7,2.8-0.1c1.7,0.7,3.4,2.2,4.8,4.9c1.4,2.7,1.2,5.3,1.1,6C93.1,61.1,92.9,62.5,91.5,63.2"/>
			</g>
			<g>
				<path class="st0" d="M90.6,63.6l-0.4-0.7c-0.3,0.2-1.6,0.1-2.1-1.1c-0.8-1.6-3.8-7.4-4.5-8.8C83.1,52,83.7,51,84,50.6L83.7,50      c0,0-1.2,0.5-1.7,2.3c-0.5,1.8-0.2,4,1.2,6.7c1.4,2.7,3.6,4.1,4.3,4.4C88,63.7,89.3,64.3,90.6,63.6"/>
			</g>
			<g>
				<path class="st0" d="M54.7,80.1l0.6,1.3l3.1-1.6l-2-3.8c0,0-0.3-0.5-0.6-0.3c-0.6,0.3,0.1,1.6-0.1,2.4      C55.6,79.3,54.7,80.1,54.7,80.1"/>
			</g>
			<g>
				<path class="st0" d="M50.7,81.5c0.3,0.6,0.1,0.6,0,0.8c-0.2,0.4,0.2,0.9,0.4,1.1c0.3,0.1,0.6-0.1,0.6-0.1l3.3-1.6L49,70.1      c0,0-0.3-0.6-0.1-0.8c0.3-0.3,0.1-1.5-0.9-1L44.8,70c0,0-0.4,0.2-0.4,0.4c-0.1,0.3,0.2,0.9,0.6,1c0.2,0,0.4-0.1,0.7,0.5      L50.7,81.5z"/>
			</g>
			<g>
				<path class="st0" d="M44.7,84.5c0.4,0.5,0.2,0.6,0.1,0.8c-0.2,0.5,0.1,0.9,0.4,1.1c0.2,0.2,0.6-0.1,0.6-0.1l3.5-1.7      c0.9-0.5,0.4-1.5-0.3-1.4c-0.4-0.1-0.6-0.5-0.6-0.5l-8-10.4l-3,1.5l0.4,1.7l5.2,6.8L41.3,83l0.4,1.3l2.1-1.1L44.7,84.5z"/>
			</g>
			<g>
				<path class="st0" d="M38.2,76.7c0,0,2.4,9.5,2.4,9.9c0,0.3,0,0.6-0.2,0.8c-0.3,0.4-0.6,0.6-0.4,1.1c0.2,0.4,0.5,0.4,0.9,0.2l2-1      c0,0,0.6-0.3,0.3-0.8c-0.3-0.5-0.5-0.3-1-0.4c-0.2-0.1-0.5-0.2-0.7-0.8l-2-7L38.2,76.7z"/>
			</g>
			<g>
				<path class="st0" d="M100.1,50.3c0,0,4.1,3.9,4.3,4.1c0.4,0.3,0.8-0.3,1.3,0.4c0.3,0.4,0.1,0.8-0.2,0.9l-2.3,1.2      c0,0-0.4,0.2-0.8-0.3c-0.3-0.3-4.3-4.1-4.3-4.1L100.1,50.3z"/>
			</g>
			<g>
				<path class="st0" d="M98.2,52.6l-0.4-0.8c0.3-0.2,1.1-1.1,0.7-1.9c-0.4-0.8-1.5-3-1.9-3.7c-0.6-1.1-1.6-0.7-2-0.6l-0.4-0.8      c0,0,4.1-3,6.4,1.4C102.4,49.8,99.9,51.7,98.2,52.6"/>
			</g>
			<g>
				<path class="st0" d="M95.8,58.4c0.3,0.6,0.1,0.6-0.1,0.9c-0.2,0.4,0.2,0.9,0.4,1c0.3,0.1,0.6-0.1,0.6-0.1l3.5-1.8      c1-0.5,0.4-1.5-0.3-1.4c-0.5,0-0.7-0.5-0.7-0.5l-5.9-11.5l-3.5,1.8c0,0-0.4,0.2-0.4,0.4c-0.1,0.3,0.2,0.9,0.6,0.9      c0.3,0.1,0.5,0,0.7,0.5L95.8,58.4z"/>
			</g>
			<g>
				<path class="st0" d="M69.7,71.7c0.4,0.5,0.3,0.6,0.1,0.8c-0.2,0.5,0.1,0.8,0.4,1.1c0.3,0.2,0.6-0.1,0.6-0.1l3.5-1.8      c1-0.5,0.4-1.5-0.3-1.3c-0.4-0.1-0.7-0.5-0.7-0.5l-8-10.4l-3,1.5l0.4,1.7l5.1,6.8l-1.6,0.8l0.3,1.3l2.1-1.1L69.7,71.7z"/>
			</g>
			<g>
				<path class="st0" d="M63.2,63.9c0,0,2.4,9.6,2.5,9.9c0,0.4-0.1,0.6-0.3,0.8c-0.3,0.4-0.6,0.6-0.3,1.1c0.2,0.3,0.5,0.4,0.8,0.2      l2-1.1c0,0,0.6-0.3,0.3-0.8c-0.3-0.5-0.6-0.3-1-0.4c-0.2,0-0.5-0.1-0.7-0.8l-2-7L63.2,63.9z"/>
			</g>
		</g>
		<g>
			<path class="st1" d="M23.3,30.2l-0.6,1l3,2c0.2,0.2,0.5,0.3,0.5,0.6c0.1,0.2,0,0.4-0.1,0.6c-0.1,0.2-0.3,0.3-0.5,0.3     c-0.2,0-0.4-0.2-0.6-0.3l-3.1-2.1L21,33.6l3.2,2.2c0.6,0.4,1.1,0.6,1.7,0.4c0.5-0.2,1-0.6,1.2-1c0.3-0.5,0.5-1,0.4-1.5     c-0.1-0.7-0.5-1-1.1-1.4L23.3,30.2z"/>
		</g>
		<g>
			<path class="st1" d="M33.5,27.7l-4.2-4.2l-0.9,0.9l1.2,1.2l1.2,1.1l-3.5-1.2l-1,1.1l4.2,4.2l0.9-0.8l-2-2     c-0.3-0.3-0.5-0.4-0.8-0.6l-0.1-0.1v-0.1l1.1,0.5l3,0.9L33.5,27.7z"/>
		</g>
		<g>
			<polygon class="st1" points="34,19.7 32.8,20.6 36.3,25.4 37.5,24.5    "/>
		</g>
		<g>
			<polygon class="st1" points="42.3,19 41.7,17.9 40.3,18.6 39.8,17.8 41.7,16.8 41,15.5 37.8,17.2 40.6,22.5 41.9,21.8 40.9,19.8         "/>
		</g>
		<g>
			<path class="st1" d="M46.9,17l-0.2-1.8l1,1.5L46.9,17z M49,18.8l1.5-0.5L47,13.2l-1.5,0.5l0.5,6.1l1.2-0.4l-0.1-1.2l1.3-0.5     L49,18.8z"/>
		</g>
		<g>
			<g>
				<path class="st1" d="M55.8,15c0.1,0.5-0.1,1-0.5,1.1c-0.7,0.1-0.8-0.9-0.9-1.5c-0.1-0.5-0.2-1.8,0.5-1.8c0.5-0.1,0.7,0.5,0.8,1      l1.4-0.3c-0.3-1.5-1.2-2.3-2.4-2.1c-1.6,0.2-2.1,1.7-1.9,3.4c0.3,1.7,1.2,2.9,2.7,2.6c1.2-0.2,1.9-1.2,1.8-2.5L55.8,15z"/>
			</g>
			<g>
				<path class="st1" d="M60.7,15.2c0.2,1.3,1.1,1.9,2.1,2c1.1,0.1,2.3-0.4,2.4-1.8c0.1-0.6-0.2-1.2-0.6-1.5      c-0.4-0.3-0.9-0.4-1.4-0.6c-0.2-0.1-0.6-0.2-0.5-0.5c0-0.3,0.3-0.3,0.5-0.3c0.4,0,0.6,0.2,0.7,0.6l1.3-0.4      c-0.2-1.1-1.1-1.5-1.9-1.6c-0.5-0.1-1.1,0-1.5,0.4c-0.4,0.3-0.7,0.8-0.7,1.4c-0.1,1.4,1,1.8,1.9,2.1c0.2,0.1,0.6,0.2,0.6,0.5      c0,0.3-0.4,0.3-0.6,0.3c-0.5-0.1-0.8-0.3-0.9-0.8L60.7,15.2z"/>
			</g>
			<g>
				<path class="st1" d="M63.3,99.8l-0.1-1l0.6-0.1c0.3-0.1,0.6,0,0.6,0.4c0,0.2-0.1,0.3-0.1,0.4c-0.1,0.1-0.3,0.2-0.4,0.2      L63.3,99.8z M63.5,102.1l-0.1-1.1l0.6,0c0.1-0.1,0.3-0.1,0.4,0c0.2,0.1,0.3,0.3,0.3,0.5c0,0.2-0.1,0.3-0.2,0.4      c-0.1,0.1-0.3,0.2-0.4,0.2L63.5,102.1z M62.2,103.6l2.3-0.2c0.5,0,1-0.1,1.4-0.4c0.3-0.4,0.4-0.9,0.4-1.4      c-0.1-0.7-0.5-1.2-1.1-1.3c0.5-0.2,0.8-0.7,0.7-1.4c-0.1-0.5-0.3-1-0.6-1.2c-0.3-0.2-0.7-0.2-1.1-0.2l-2.5,0.2L62.2,103.6z"/>
			</g>
		</g>
		<g>
			<path class="st1" d="M72.6,99.6l-0.1-1.7l0.8,1.5L72.6,99.6z M74.6,101.6l1.5-0.4L73,95.9l-1.6,0.4l0.2,6.1l1.2-0.3l-0.1-1.2     l1.3-0.4L74.6,101.6z"/>
		</g>
		<g>
			<polygon class="st1" points="82,91.8 80.6,92.6 81.7,94.5 80.6,95.1 79.6,93.1 78.3,93.9 81,99.1 82.4,98.4 81.3,96.3 82.4,95.8      83.4,97.8 84.8,97.1    "/>
		</g>
		<g>
			<polygon class="st1" points="86.9,88.3 85.7,89.2 89.4,93.9 90.6,92.9    "/>
		</g>
		<g>
			<path class="st1" d="M93.7,86.3l-1-1.4l1.6,0.8L93.7,86.3z M96.5,86.8l1-1.2L92,83L91,84.2l3.4,5.1l0.8-0.9l-0.7-1l0.9-1     L96.5,86.8z"/>
		</g>
		<g>
			<path class="st1" d="M96,12.3C92.6,9.1,78.6,0,60.6,0c-8.8,0-17.5,2.1-25.8,6.4C1.7,23.2,3.7,59,3.7,59.4c0.1,1.5,1.4,4,4.5,4h0     l0,0c1.9-0.1,4-1.8,4-4.3c0-7.4,1.9-32.6,26.4-45.1c7.3-3.7,14.7-5.5,22.3-5.5c16.4,0,27.8,8.7,29.9,10.4c0.8,0.7,1.7,1,2.6,1     c1.2,0,2.4-0.6,3.2-1.6C98.2,16.4,98,14,96,12.3z M95.3,17.1c-0.3,0.5-1.1,0.9-1.9,0.9c-0.5,0-1-0.2-1.5-0.4l-0.2-0.2     C82.2,10.5,71,6.8,60.3,6.8c-7.6,0-15.2,1.9-22.4,5.5c-28.7,14.6-27.6,45-27.5,46.3c0,1-0.2,1.8-0.7,2.3     c-0.4,0.4-0.9,0.6-1.6,0.6c-0.1,0-0.1,0-0.2,0c-1.1-0.1-2.3-0.9-2.4-2.5C5.4,53.1,6,23.2,35.7,8c8-4.1,16.3-6.1,24.8-6.1     c19,0,32.6,10.4,34.1,11.6C96,14.5,96.2,15.7,95.3,17.1z"/>
		</g>
		<path class="st1" d="M117.2,48.1c-0.4-1.9-2-3.2-3.9-3.2c-0.3,0-0.7,0-1,0.1c-2.5,0.5-3.8,2.6-3.4,5.2c0.2,1.1,1.4,10.9-2.3,22.4    c-4,12.4-12,21.7-23.7,27.7c-7,3.6-14.2,5.4-21.5,5.4c-18.1,0-31.4-10.9-35-14.2c-0.8-0.7-1.7-1.1-2.7-1.1c-1.1,0-2.2,0.4-3,1.2    c-1.7,1.5-1.8,4.1-0.2,5.8c3.9,4.4,19.7,17.1,40.9,17.1c8.6,0,17.2-2.1,25.5-6.3C124.5,89.1,117.2,48.5,117.2,48.1z M61.4,112.5    c-22.1,0-38.2-14.2-39.6-16.2c-1.3-1.8-0.1-3,0.2-3.4c0.3-0.3,0.9-0.6,1.6-0.6c0.7,0,1.3,0.3,1.9,0.9c2.5,2.4,16.1,14.6,35.2,14.6    l0,0c7.7,0,15.4-1.9,22.9-5.8c15-7.7,21.7-19.8,24.7-28.6c3.6-10.7,3.1-20.1,2.4-23.6c-0.2-0.9,0.1-2.5,1.9-3    c0.2,0,0.3-0.1,0.5-0.1c1.1,0,2.1,1,2.3,1.9c0.5,2.1,1.6,12.1-1.5,23.6c-4,15-13.7,26.9-28,34.2C78,110.4,69.7,112.5,61.4,112.5z"/>
		<g>
			<path class="st1" d="M94.3,66.4c-0.4-0.2-0.9-0.3-1.4-0.3c-1,0-2.3,0.4-3,2.4l0,0.1c-2.5,7-7.8,12.8-15,16.5     c-4.4,2.2-9.1,3.4-13.9,3.4c-3.9,0-6.8-0.7-8.2-1.1c-0.2,0-0.3-0.1-0.4-0.1c-0.2,0-0.5-0.1-0.7-0.1c-1.4,0-2.6,0.8-3.1,2.1     c-0.2,0.6-0.2,1.7,0.3,2.6c0.4,0.7,0.9,1.1,1.7,1.3l0.2,0c1.4,0.4,5.1,1.3,10.1,1.3c6,0,11.6-1.3,16.8-4     c8.4-4.3,14.8-11.4,18.1-20.1c0.1-0.2,0.1-0.3,0.1-0.3C96.3,69.3,96.3,67.3,94.3,66.4z M94.5,69.8l0,0.1     c-1.1,3-5.5,13.3-17.3,19.3c-5.1,2.6-10.6,3.9-16.5,3.9c-5,0-8.6-1-9.6-1.3c-0.5-0.2-0.8-0.5-1-0.9c-0.2-0.4-0.2-0.8-0.1-1.1     c0.3-0.8,0.9-1.1,1.6-1.1c0.2,0,0.4,0,0.6,0.1c0.1,0,0.2,0,0.3,0.1c1,0.3,4.1,1.2,8.3,1.2c5.1,0,10.2-1.2,15-3.7     c10.9-5.5,14.4-14.1,15.5-17c0.1-0.3,0.2-0.6,0.3-0.7c0.5-0.9,1.1-1.1,1.6-1.1c0.4,0,0.7,0.1,0.8,0.2     C94.3,68.1,94.9,68.8,94.5,69.8z"/>
		</g>
		<path class="st1" d="M78.1,24.7c-0.3-0.9-0.9-1.7-1.8-2.1c-2.7-1.3-8.3-3.4-15.6-3.4c-5.9,0-11.7,1.4-17.2,4.2    c-15.7,8-19.3,23.2-19.9,26.2c-0.1,0.8,0.1,1.9,0.7,2.6c0.6,0.7,1.3,1.2,2.3,1.3c0.2,0,0.3,0,0.5,0c1.8,0,3.1-1.4,3.4-2.7    c2.7-12.1,10.3-18.2,16.2-21.2c4.5-2.3,9.2-3.5,14-3.5c6.6,0,11.5,2.3,13.2,3c0.3,0.1,0.6,0.2,1,0.2c1,0,2.4-0.5,3.2-2.1    C78.4,26.6,78.5,25.6,78.1,24.7z M74.1,27.8c-0.1,0-0.3-0.1-0.6-0.2c-1.6-0.7-6.4-2.7-12.9-2.7c-5,0-9.9,1.2-14.6,3.6    c-5.9,3-13.6,9.2-16.8,21.5c0,0.2-0.1,0.3-0.1,0.4c-0.2,1.1-1.1,1.9-2,1.9c-0.1,0-0.3,0-0.4,0c-1.6-0.4-1.8-1.8-1.6-2.6l0-0.1    c1.1-5.1,5.2-17.6,19-24.6c5.2-2.6,10.7-4,16.4-4c8.7,0,14.7,3.1,14.9,3.3c0.7,0.4,1.4,1.3,1,2.6C76.4,27.6,75.2,28.1,74.1,27.8z"/>
		<rect x="306.9" y="95.1" class="st0" width="1.2" height="15.5"/>
		<polygon class="st0" points="324.5,110.6 313.6,97 313.6,110.6 312.4,110.6 312.4,95.1 313.5,95.1 324.1,108.3 324.1,95.1     325.2,95.1 325.2,110.6   "/>
		<polygon class="st0" points="334.3,96.1 334.3,110.6 333.1,110.6 333.1,96.1 327.4,96.1 327.4,95.1 339.9,95.1 340,96.1   "/>
		<polygon class="st0" points="342.5,110.6 342.5,95.1 351.3,95.1 351.3,96.1 343.8,96.1 343.8,102 349.8,102 350,103 343.8,103     343.8,109.7 351.6,109.7 351.6,110.6   "/>
		<path class="st0" d="M365,110.8l-6.1-7.4h-2.5v7.2h-1.2V95.1h4.3c3.1,0,5.4,1.6,5.4,4.1c0,2.2-1.9,3.7-4.5,4.1l6,7.3L365,110.8z     M359.4,96.1h-2.9v6.4h2.7c2.8,0,4.5-1.1,4.5-3.2C363.6,97.2,362,96.1,359.4,96.1"/>
		<polygon class="st0" points="380.8,110.6 369.9,97 369.9,110.6 368.7,110.6 368.7,95.1 369.8,95.1 380.4,108.3 380.4,95.1     381.6,95.1 381.6,110.6   "/>
		<path class="st0" d="M397.8,110.8l-2.4-5.5h-7.9l-2.4,5.3h-1.3l7.1-15.6h1.1l7,15.5L397.8,110.8z M391.4,96.5l-3.5,7.9h7    L391.4,96.5z"/>
		<polygon class="st0" points="404.5,96.1 404.5,110.6 403.3,110.6 403.3,96.1 397.6,96.1 397.6,95.1 410.1,95.1 410.2,96.1   "/>
		<rect x="413.7" y="95.1" class="st0" width="1.2" height="15.5"/>
		<path class="st0" d="M426.2,110.9c-4.5,0-7.7-3.3-7.7-8c0-4.7,3.3-8.1,7.8-8.1c4.5,0,7.8,3.3,7.8,8    C434,107.6,430.7,110.9,426.2,110.9 M426.2,95.8c-3.9,0-6.6,2.9-6.6,7.1c0,4.2,2.6,7.1,6.6,7.1c3.9,0,6.5-2.9,6.5-7.1    C432.8,98.7,430.1,95.8,426.2,95.8"/>
		<polygon class="st0" points="448.5,110.6 437.6,97 437.6,110.6 436.4,110.6 436.4,95.1 437.5,95.1 448.1,108.3 448.1,95.1     449.3,95.1 449.3,110.6   "/>
		<path class="st0" d="M465.5,110.8l-2.4-5.5h-7.9l-2.4,5.3h-1.3l7.1-15.6h1.1l7,15.5L465.5,110.8z M459.1,96.5l-3.5,7.9h7    L459.1,96.5z"/>
		<polygon class="st0" points="469.4,110.6 469.4,95.1 470.7,95.1 470.7,109.7 477.8,109.7 477.9,110.6   "/>
		<path class="st0" d="M499.1,110.7l-0.4-1.9c-1.7,1.3-3.7,2.1-5.6,2.1c-3.5,0-5.8-1.6-5.8-5.2V95.2h1.2v10.5c0,2.9,1.7,4.3,4.6,4.3    c2.1,0,3.8-0.9,5.5-2.3V95.2h1.2v15.5H499.1z"/>
		<polygon class="st0" points="515.8,110.7 504.9,97.1 504.9,110.7 503.7,110.7 503.7,95.2 504.8,95.2 515.4,108.5 515.4,95.2     516.5,95.2 516.5,110.7   "/>
		<rect x="521.7" y="95.2" class="st0" width="1.2" height="15.5"/>
		<polygon class="st0" points="533.2,110.8 532.2,110.8 525.3,95.3 526.5,95.1 532.8,109.2 538.9,95.2 540.2,95.2   "/>
		<polygon class="st0" points="542.4,110.7 542.4,95.2 551.2,95.2 551.2,96.2 543.7,96.2 543.7,102.1 549.7,102.1 549.9,103.1     543.7,103.1 543.7,109.8 551.5,109.8 551.5,110.7   "/>
		<path class="st0" d="M564,110.9l-6.1-7.4h-2.5v7.3h-1.2V95.2h4.3c3.1,0,5.4,1.6,5.4,4.1c0,2.2-1.9,3.7-4.5,4.1l6,7.3L564,110.9z     M558.4,96.2h-2.9v6.3h2.7c2.8,0,4.5-1.1,4.5-3.2C562.6,97.3,561,96.2,558.4,96.2"/>
		<path class="st0" d="M571.1,110.9c-1.8,0-3.5-0.4-4.4-0.9l0.2-1.1c1,0.6,2.6,1.1,4.4,1.1c2.3,0,4-1.3,4-3.1c0-1.5-0.9-2.4-3.8-3.6    c-3.3-1.4-4.6-2.3-4.6-4.5c0-2.1,2.2-3.8,4.8-3.8c1.7,0,2.8,0.4,3.8,0.8l-0.2,1.1c-0.9-0.5-2.1-0.9-3.6-0.9    c-2.1,0-3.5,1.3-3.5,2.7c0,1.6,1.1,2.4,3.8,3.5c3.1,1.3,4.5,2.3,4.5,4.5C576.5,109.2,574.2,110.9,571.1,110.9"/>
		<rect x="580.4" y="95.2" class="st0" width="1.2" height="15.5"/>
		<polygon class="st0" points="590.8,96.2 590.8,110.7 589.5,110.7 589.5,96.2 583.8,96.2 583.8,95.2 596.3,95.2 596.5,96.2   "/>
		<rect x="599.1" y="95.2" class="st0" width="1.2" height="15.5"/>
		<polygon class="st0" points="604.6,110.7 604.6,95.2 613.4,95.2 613.4,96.2 605.8,96.2 605.8,102.1 611.8,102.1 612,103.1     605.8,103.1 605.8,109.8 613.6,109.8 613.6,110.7   "/>
		<path class="st0" d="M620.3,110.9c-1.8,0-3.4-0.4-4.4-0.9l0.2-1.1c1,0.6,2.6,1.1,4.4,1.1c2.3,0,4-1.3,4-3.1c0-1.5-0.9-2.4-3.8-3.6    c-3.3-1.4-4.6-2.3-4.6-4.5c0-2.1,2.2-3.8,4.8-3.8c1.7,0,2.8,0.4,3.8,0.8l-0.2,1.1c-0.9-0.5-2.1-0.9-3.6-0.9    c-2.1,0-3.5,1.3-3.5,2.7c0,1.6,1.1,2.4,3.9,3.5c3.1,1.3,4.5,2.3,4.5,4.5C625.7,109.2,623.4,110.9,620.3,110.9"/>
		<polygon class="st0" points="176.6,110.7 176.6,94.8 180.6,94.8 180.6,107.8 186.5,107.8 187,110.7   "/>
		<path class="st0" d="M201.9,110.9l-1.7-4h-7l-1.6,3.8h-4l7.1-16h4.2l6.9,15.5L201.9,110.9z M196.7,98.5l-2.4,5.8h4.8L196.7,98.5z"/>
		<path class="st0" d="M218.1,110.7l-0.3-1.6c-1.8,1.1-3.5,1.8-5.7,1.8c-3.8,0-6-1.6-6-5.3V94.8h4v10.3c0,1.9,0.9,2.9,2.9,2.9    c1.6,0,3-0.6,4.4-1.6V94.8h4.1v15.9H218.1z"/>
		<path class="st0" d="M234.7,110.9l-4.7-6.2h-1.2v6h-4V94.8h6c4.2,0,6.6,1.7,6.6,4.8c0,2.3-1.3,3.7-3.6,4.4l4.8,6.3L234.7,110.9z     M230.5,97.4h-1.7v4.9h1.7c2.1,0,3.3-0.8,3.3-2.4C233.7,98.3,232.6,97.4,230.5,97.4"/>
		<polygon class="st0" points="240.6,110.7 240.6,94.8 251.4,94.8 251.4,97.6 244.6,97.6 244.6,101.1 249.7,101.1 250.2,103.9     244.6,103.9 244.6,108 251.6,108 251.6,110.7   "/>
		<path class="st0" d="M265.8,110.9l-1.6-4h-6.9l-1.6,3.8h-4l7.1-16h4.2l6.9,15.5L265.8,110.9z M260.6,98.5l-2.4,5.8h4.8L260.6,98.5    z"/>
		<polygon class="st0" points="277,97.7 277,110.7 273,110.7 273,97.7 267.3,97.7 267.3,94.8 282.5,94.8 283,97.7   "/>
		<polygon class="st0" points="284.4,110.7 284.4,94.8 295.2,94.8 295.2,97.6 288.4,97.6 288.4,101.1 293.5,101.1 294,103.9     288.4,103.9 288.4,108 295.4,108 295.4,110.7   "/>
		<path class="st0" d="M627.6,99.2c-1.1,0-1.9-0.8-1.9-2c0-1.2,0.8-2,1.9-2c1.1,0,1.9,0.8,1.9,2C629.5,98.4,628.7,99.2,627.6,99.2     M627.6,95.5c-0.9,0-1.7,0.6-1.7,1.8c0,1.1,0.7,1.7,1.7,1.7c0.9,0,1.7-0.6,1.7-1.7C629.2,96.1,628.5,95.5,627.6,95.5 M628.1,98.3    l-0.7-0.9h-0.2v0.9h-0.4V96h0.7c0.5,0,0.8,0.2,0.8,0.6c0,0.3-0.2,0.5-0.4,0.6l0.6,0.9L628.1,98.3z M627.6,96.4h-0.3V97h0.3    c0.3,0,0.4-0.1,0.4-0.3C628,96.5,627.8,96.4,627.6,96.4"/>
		<path class="st0" d="M176.9,3.4h16.5v47.9c0,5.4,0.6,9.3,1.9,11.7c2,4.4,6.3,6.5,12.9,6.5c6.6,0,10.8-2.2,12.8-6.5    c1.3-2.5,1.9-6.4,1.9-11.7V3.4h16.5v47.9c0,8.3-1.3,14.7-3.8,19.3c-4.8,8.5-13.9,12.7-27.4,12.7c-13.5,0-22.6-4.2-27.4-12.7    c-2.6-4.6-3.9-11.1-3.9-19.3V3.4z"/>
		<path class="st0" d="M253.2,3.4h17.1l30.9,54.3V3.4h15.2v77.9h-16.3l-31.7-55.3v55.3h-15.2V3.4z"/>
		<path class="st0" d="M345.9,81.3h-16.2V3.4h16.2V81.3z"/>
		<path class="st0" d="M359.8,3.5h55.6v13.7h-39.4v17.9h34.5v13.5h-34.5v32.7h-16.2V3.5z"/>
		<path class="st0" d="M440,3.4h18.4l27.6,77.9h-17.7l-5.1-16h-28.7l-5.3,16h-17L440,3.4z M438.9,51.9h19.9L449,21.2L438.9,51.9z"/>
		<path class="st0" d="M498,11.6c6.3-6.4,14.3-9.6,24-9.6c13,0,22.5,4.3,28.4,12.9c3.3,4.8,5.1,9.7,5.3,14.5h-16.3    c-1-3.7-2.4-6.6-4-8.5c-2.9-3.4-7.2-5.1-12.9-5.1c-5.8,0-10.4,2.4-13.7,7.2c-3.3,4.8-5,11.5-5,20.3c0,8.7,1.8,15.3,5.3,19.6    c3.5,4.4,8,6.5,13.5,6.5c5.6,0,9.8-1.9,12.8-5.6c1.6-2,3-5,4-9h16.2c-1.4,8.5-5,15.4-10.7,20.7c-5.7,5.3-13.1,8-22,8    c-11.1,0-19.8-3.6-26.2-10.8c-6.3-7.2-9.5-17.1-9.5-29.7C487.2,29.4,490.8,18.9,498,11.6z"/>
		<path class="st0" d="M578.6,57.3c0.5,3.6,1.5,6.2,3,8c2.7,3.2,7.3,4.8,13.9,4.8c3.9,0,7.1-0.4,9.6-1.3c4.6-1.6,7-4.6,7-9    c0-2.6-1.1-4.6-3.4-6c-2.3-1.4-5.9-2.6-10.8-3.6l-8.4-1.9c-8.3-1.8-14-3.8-17.1-6c-5.3-3.6-7.9-9.2-7.9-16.9    c0-7,2.6-12.8,7.7-17.4c5.1-4.6,12.7-6.9,22.6-6.9c8.3,0,15.4,2.2,21.3,6.5c5.9,4.4,8.9,10.7,9.2,18.9h-15.7    c-0.3-4.7-2.4-8-6.3-10c-2.6-1.3-5.8-2-9.7-2c-4.3,0-7.7,0.9-10.3,2.5c-2.6,1.7-3.8,4.1-3.8,7.1c0,2.8,1.3,4.9,3.8,6.2    c1.6,0.9,5.1,2,10.4,3.2l13.7,3.2c6,1.4,10.5,3.3,13.5,5.7c4.6,3.7,7,9,7,15.9c0,7.1-2.8,13-8.3,17.7c-5.5,4.7-13.3,7-23.3,7    c-10.3,0-18.3-2.3-24.2-7c-5.9-4.6-8.8-11-8.8-19.1H578.6z"/>
	</g>
</g>
</svg>